<svg width="127" height="131" viewBox="0 0 127 131" fill="none" xmlns="http://www.w3.org/2000/svg">
<path d="M110.331 47.361V83.2776C110.331 95.7801 105.364 107.77 96.5236 116.611C87.683 125.452 75.6926 130.418 63.1901 130.418C50.6877 130.418 38.6973 125.452 29.8567 116.611C21.0161 107.77 16.0496 95.7801 16.0496 83.2776V47.361C16.0496 46.8419 16.0608 46.3228 16.086 45.8093V45.8065C16.4859 37.1546 20.2042 28.9895 26.4683 23.0082C32.7323 17.0269 41.0603 13.6893 49.7214 13.6891H76.6589C85.2914 13.689 93.5942 17.0045 99.8522 22.9507C106.11 28.8969 109.845 37.0197 110.286 45.6409C110.317 46.2105 110.331 46.7858 110.331 47.361Z" fill="#FDC8A2"/>
<path d="M16.0496 51.8506V33.8923C16.0496 28.5341 18.1781 23.3953 21.9669 19.6065C25.7557 15.8177 30.8945 13.6891 36.2527 13.6891V31.6475L16.0496 51.8506Z" fill="#804A32"/>
<path d="M110.331 51.8506L94.6172 31.6475H31.7631C25.8095 31.6475 20.0998 29.2824 15.89 25.0726C11.6802 20.8628 9.31519 15.1531 9.31519 9.19956V0.220398H76.6589C85.5892 0.220398 94.1538 3.76796 100.468 10.0827C106.783 16.3973 110.331 24.9619 110.331 33.8922V51.8506Z" fill="#91563A"/>
<path d="M13.8047 51.8506H16.0495V78.7881H13.8047C10.2325 78.7881 6.80672 77.369 4.28084 74.8432C1.75496 72.3173 0.335938 68.8915 0.335938 65.3193C0.335938 61.7472 1.75496 58.3214 4.28084 55.7955C6.80672 53.2696 10.2325 51.8506 13.8047 51.8506Z" fill="#FDB683"/>
<path d="M112.575 78.7881H110.331V51.8506H112.575C116.148 51.8506 119.573 53.2696 122.099 55.7955C124.625 58.3214 126.044 61.7472 126.044 65.3193C126.044 68.8915 124.625 72.3173 122.099 74.8432C119.573 77.3691 116.148 78.7881 112.575 78.7881Z" fill="#FDB683"/>
<path d="M38.4973 72.0537C42.2166 72.0537 45.2317 69.0386 45.2317 65.3193C45.2317 61.6 42.2166 58.585 38.4973 58.585C34.778 58.585 31.7629 61.6 31.7629 65.3193C31.7629 69.0386 34.778 72.0537 38.4973 72.0537Z" fill="#91563A"/>
<path d="M87.8828 72.0537C91.6021 72.0537 94.6172 69.0386 94.6172 65.3193C94.6172 61.6 91.6021 58.585 87.8828 58.585C84.1635 58.585 81.1484 61.6 81.1484 65.3193C81.1484 69.0386 84.1635 72.0537 87.8828 72.0537Z" fill="#91563A"/>
<path d="M53.7151 83.7394L56.518 69.3288L60.9267 70.1863L58.1239 84.5969L53.7151 83.7394Z" fill="#FDB683"/>
<path d="M48.5663 53.7755C45.526 51.9469 42.0451 50.9808 38.4973 50.9808C34.9495 50.9808 31.4686 51.9469 28.4283 53.7755L26.1184 49.9257C29.8561 47.6775 34.1355 46.4897 38.4973 46.4897C42.8591 46.4897 47.1385 47.6775 50.8762 49.9257L48.5663 53.7755Z" fill="#91563A"/>
<path d="M97.9518 53.7755C94.9115 51.9469 91.4306 50.9808 87.8828 50.9808C84.335 50.9808 80.8541 51.9469 77.8138 53.7755L75.5039 49.9257C79.2416 47.6775 83.521 46.4897 87.8828 46.4897C92.2445 46.4897 96.524 47.6775 100.262 49.9257L97.9518 53.7755Z" fill="#91563A"/>
<path d="M34.325 93.2277L30.1356 94.8411L16.0496 58.2174V47.361C16.0496 46.8419 16.0608 46.3228 16.086 45.8093L34.325 93.2277Z" fill="#1AE5BE"/>
<path d="M110.331 47.361V58.15L96.8087 93.7103L92.6138 92.1137L110.286 45.6409C110.317 46.2105 110.331 46.7858 110.331 47.361Z" fill="#1AE5BE"/>
<path d="M99.1067 81.0328V113.81C96.6738 116.671 93.9082 119.233 90.8683 121.439H35.5118C32.472 119.233 29.7063 116.671 27.2734 113.81V81.0328H99.1067Z" fill="#0635C9"/>
<path d="M27.2734 92.2568H99.1067V96.7464H27.2734V92.2568Z" fill="#1AE5BE"/>
<path d="M27.2734 105.726H99.1067V110.215H27.2734V105.726Z" fill="#1AE5BE"/>
</svg>
