<svg width="82" height="83" viewBox="0 0 82 83" fill="none" xmlns="http://www.w3.org/2000/svg">
<path d="M4.20715 55.4656H77.7917V57.7098H4.20715V55.4656Z" fill="#D4E1F4"/>
<path d="M11.665 34.8808C11.665 35.1357 11.7663 35.3801 11.9465 35.5603C12.1267 35.7405 12.3711 35.8417 12.626 35.8417H17.2945C17.5494 35.8417 17.7938 35.7405 17.974 35.5603C18.1542 35.3801 18.2555 35.1357 18.2555 34.8808V34.2857H26.9946V32.3638H18.2555V31.7685C18.2555 31.5136 18.1542 31.2692 17.974 31.089C17.7938 30.9088 17.5494 30.8076 17.2945 30.8076H12.626C12.3711 30.8076 12.1267 30.9088 11.9465 31.089C11.7663 31.2692 11.665 31.5136 11.665 31.7685V32.3638H3.02942C2.77456 32.3638 2.53014 32.465 2.34993 32.6452C2.16972 32.8255 2.06848 33.0699 2.06848 33.3247C2.06848 33.5796 2.16972 33.824 2.34993 34.0042C2.53014 34.1844 2.77456 34.2857 3.02942 34.2857H11.665V34.8808ZM13.5869 32.7294H16.3336V33.9199H13.5869V32.7294Z" fill="#0635C9"/>
<path d="M29.0692 34.2857H37.7048V34.8808C37.7048 35.1357 37.8061 35.3801 37.9863 35.5603C38.1665 35.7405 38.4109 35.8417 38.6658 35.8417H43.3343C43.5892 35.8417 43.8336 35.7405 44.0138 35.5603C44.194 35.3801 44.2953 35.1357 44.2953 34.8808V34.2857H53.0344V32.3638H44.2953V31.7685C44.2953 31.5136 44.194 31.2692 44.0138 31.089C43.8336 30.9088 43.5892 30.8076 43.3343 30.8076H38.6658C38.4109 30.8076 38.1665 30.9088 37.9863 31.089C37.8061 31.2692 37.7048 31.5136 37.7048 31.7685V32.3638H29.0692C28.8144 32.3638 28.5699 32.465 28.3897 32.6452C28.2095 32.8255 28.1083 33.0699 28.1083 33.3247C28.1083 33.5796 28.2095 33.824 28.3897 34.0042C28.5699 34.1844 28.8144 34.2857 29.0692 34.2857ZM39.6267 32.7294H42.3734V33.9199H39.6267V32.7294Z" fill="#0635C9"/>
<path d="M70.335 31.7685C70.335 31.5136 70.2338 31.2692 70.0535 31.089C69.8733 30.9088 69.6289 30.8076 69.3741 30.8076H64.7055C64.4506 30.8076 64.2062 30.9088 64.026 31.089C63.8458 31.2692 63.7446 31.5136 63.7446 31.7685V32.3638H55.1097C54.8549 32.3638 54.6105 32.465 54.4303 32.6452C54.25 32.8255 54.1488 33.0699 54.1488 33.3247C54.1488 33.5796 54.25 33.824 54.4303 34.0042C54.6105 34.1844 54.8549 34.2857 55.1097 34.2857H63.7454V34.8808C63.7454 35.1357 63.8466 35.3801 64.0268 35.5603C64.207 35.7405 64.4514 35.8417 64.7063 35.8417H69.3749C69.6297 35.8417 69.8741 35.7405 70.0543 35.5603C70.2346 35.3801 70.3358 35.1357 70.3358 34.8808V34.2857H79.0739V32.3638H70.335V31.7685ZM68.4131 33.9199H65.6664V32.7294H68.4131V33.9199Z" fill="#0635C9"/>
<path d="M74.5293 37.9241C74.4099 37.8833 74.2836 37.8665 74.1576 37.8746C74.0317 37.8826 73.9086 37.9154 73.7953 37.9711C73.682 38.0267 73.5808 38.1041 73.4975 38.1989C73.4141 38.2936 73.3502 38.4039 73.3095 38.5233C73.2687 38.6428 73.2519 38.7691 73.26 38.895C73.268 39.0209 73.3008 39.1441 73.3565 39.2573C73.4121 39.3706 73.4895 39.4718 73.5843 39.5552C73.679 39.6385 73.7893 39.7024 73.9087 39.7432C74.7743 40.0387 75.5258 40.5976 76.0577 41.3417C76.5897 42.0858 76.8755 42.9776 76.8751 43.8923V56.6848H5.12513V43.8923C5.12414 43.0303 5.37767 42.1872 5.85393 41.4687C6.33019 40.7502 7.00798 40.1883 7.8023 39.8535C8.03702 39.7542 8.22269 39.5657 8.31846 39.3296C8.41422 39.0934 8.41224 38.8288 8.31296 38.5941C8.21367 38.3594 8.0252 38.1737 7.78902 38.078C7.55284 37.9822 7.28829 37.9842 7.05357 38.0835C5.91114 38.565 4.93631 39.3732 4.25135 40.4065C3.56639 41.4399 3.20178 42.6525 3.20325 43.8923V57.6457C3.20325 57.9006 3.30449 58.145 3.4847 58.3252C3.66491 58.5054 3.90933 58.6067 4.16419 58.6067H77.8361C78.0909 58.6067 78.3354 58.5054 78.5156 58.3252C78.6958 58.145 78.797 57.9006 78.797 57.6457V43.8923C78.7974 42.5766 78.3861 41.2937 77.6208 40.2235C76.8554 39.1532 75.7745 38.3492 74.5293 37.9241Z" fill="#0635C9"/>
<path d="M71.5612 24.4327C70.5147 24.7119 69.5211 25.161 68.62 25.762C68.1156 26.0898 67.5867 26.3781 67.0379 26.6244C66.915 26.5547 66.7794 26.4764 66.6352 26.3931C65.3575 25.6553 63.4263 24.5401 61.7277 24.3148C57.9821 23.817 55.1142 25.4966 54.0562 28.8053L54.0521 28.8195C53.9781 28.5521 53.8901 28.2888 53.7886 28.0306C53.2979 26.7915 51.2516 22.8697 45.5209 24.4322C44.4744 24.7114 43.4808 25.1605 42.5798 25.7615C42.0754 26.0893 41.5464 26.3776 40.9976 26.6239C40.8747 26.5543 40.7391 26.4759 40.5951 26.3927C39.3172 25.6548 37.3862 24.5397 35.6874 24.3143C31.942 23.8166 29.0739 25.4961 28.016 28.8048C28.0143 28.8094 28.0131 28.8142 28.0116 28.819C27.9376 28.5516 27.8496 28.2882 27.7482 28.0299C27.2575 26.791 25.2116 22.8694 19.4807 24.4317C18.4341 24.7108 17.4404 25.1599 16.5393 25.761C16.0349 26.0887 15.5059 26.377 14.9571 26.6233C14.8343 26.5536 14.6986 26.4753 14.5547 26.392C13.2768 25.6542 11.3458 24.539 9.64699 24.3137C5.90045 23.8159 3.03366 25.4955 1.97551 28.8041C0.968764 31.9536 2.06247 35.5285 4.4134 36.773C5.68905 37.4484 6.47413 37.9146 6.71245 38.2996C6.89278 38.5911 6.86043 39.079 6.76994 40.1549C6.75393 40.3511 6.73567 40.5612 6.71853 40.7872C6.59201 42.4418 6.40303 48.0717 9.28408 51.0484C9.49705 51.2536 9.7557 51.4052 10.0387 51.4909C10.3478 51.6024 10.6808 51.631 11.0044 51.574C11.328 51.517 11.6311 51.3764 11.8835 51.166C12.1359 50.9556 12.3289 50.6829 12.4433 50.3748C12.5577 50.0668 12.5895 49.7341 12.5356 49.41C12.4914 48.9295 11.9737 42.6626 14.6006 39.4654C14.6491 39.4098 14.709 39.3652 14.7763 39.3348C14.8435 39.3044 14.9166 39.2888 14.9904 39.2891C15.0642 39.2894 15.1371 39.3056 15.2041 39.3366C15.2711 39.3675 15.3306 39.4126 15.3787 39.4686C17.9589 42.6878 17.4456 48.9319 17.4019 49.4103C17.3566 49.6809 17.3712 49.9581 17.4446 50.2224C17.5181 50.4868 17.6487 50.7318 17.8271 50.9402C18.0056 51.1485 18.2276 51.3152 18.4774 51.4285C18.7273 51.5417 18.999 51.5988 19.2733 51.5956C19.4859 51.5955 19.697 51.5601 19.898 51.4909C20.1811 51.4053 20.44 51.2536 20.6531 51.0484C23.5338 48.0717 23.3448 42.4418 23.2183 40.7872C23.2012 40.563 23.1837 40.353 23.1672 40.1578C23.0769 39.0814 23.0444 38.5932 23.2247 38.3017C23.4629 37.9173 24.2481 37.45 25.5244 36.7725C26.6852 36.1564 27.5304 34.9468 27.9719 33.4941C28.4127 34.941 29.2748 36.1495 30.4526 36.773C31.7282 37.4484 32.5131 37.9146 32.7516 38.2996C32.9319 38.5911 32.8996 39.079 32.8091 40.1549C32.7931 40.3511 32.7748 40.5612 32.7577 40.7872C32.6312 42.4416 32.4419 48.0714 35.3224 51.0478C35.5355 51.2533 35.7944 51.4052 36.0777 51.4909C36.3868 51.6024 36.7197 51.6311 37.0433 51.5741C37.3669 51.5171 37.67 51.3765 37.9225 51.1662C38.1749 50.9558 38.3679 50.6831 38.4823 50.3751C38.5968 50.0671 38.6286 49.7345 38.5747 49.4103C38.5307 48.9318 38.0124 42.6633 40.6395 39.4656C40.688 39.4099 40.7479 39.3653 40.8152 39.3349C40.8825 39.3044 40.9555 39.2888 41.0293 39.2891C41.1032 39.2894 41.1761 39.3055 41.2431 39.3365C41.3102 39.3675 41.3698 39.4126 41.4178 39.4686C43.9979 42.6878 43.4848 48.9319 43.4411 49.4103C43.3958 49.6809 43.4103 49.9581 43.4838 50.2224C43.5572 50.4867 43.6878 50.7317 43.8662 50.9401C44.0446 51.1485 44.2665 51.3152 44.5164 51.4285C44.7662 51.5418 45.0379 51.5989 45.3122 51.5958C45.5248 51.5957 45.7358 51.5603 45.9368 51.4911C46.2201 51.4054 46.4791 51.2537 46.6924 51.0484C49.5731 48.0717 49.3842 42.4418 49.2576 40.7872C49.2405 40.563 49.2229 40.353 49.2065 40.1578C49.1161 39.0814 49.0837 38.5932 49.264 38.3017C49.5022 37.9173 50.2874 37.45 51.5637 36.7725C52.7245 36.1564 53.5695 34.9468 54.0112 33.4941C54.452 34.941 55.3141 36.1495 56.4919 36.773C57.7675 37.4484 58.5525 37.9146 58.7908 38.2996C58.9713 38.591 58.9388 39.079 58.8483 40.1549C58.8323 40.3509 58.814 40.5612 58.7969 40.7872C58.6703 42.4418 58.4813 48.0716 61.3618 51.0478C61.5748 51.2533 61.8337 51.4052 62.1171 51.4909C62.4262 51.6023 62.759 51.631 63.0826 51.574C63.4062 51.517 63.7093 51.3764 63.9617 51.166C64.2141 50.9557 64.4071 50.683 64.5216 50.375C64.636 50.067 64.6679 49.7344 64.6141 49.4103C64.57 48.9318 64.0517 42.6633 66.6788 39.4656C66.7273 39.4099 66.7872 39.3653 66.8545 39.3349C66.9218 39.3044 66.9948 39.2888 67.0687 39.2891C67.1425 39.2894 67.2154 39.3055 67.2825 39.3365C67.3495 39.3675 67.4091 39.4126 67.4572 39.4686C70.0373 42.6878 69.5241 48.9319 69.4804 49.4103C69.4351 49.6809 69.4497 49.9581 69.5231 50.2224C69.5966 50.4867 69.7271 50.7317 69.9055 50.9401C70.0839 51.1485 70.3059 51.3152 70.5557 51.4285C70.8055 51.5418 71.0772 51.5989 71.3515 51.5958C71.5641 51.5957 71.7752 51.5603 71.9761 51.4911C72.2594 51.4054 72.5184 51.2537 72.7316 51.0484C75.6125 48.0717 75.4235 42.4418 75.297 40.7872C75.2798 40.563 75.2622 40.353 75.2459 40.1578C75.1554 39.0814 75.123 38.5932 75.3034 38.3017C75.5414 37.9173 76.3268 37.45 77.6029 36.7725C80.1052 35.4444 81.1438 31.3593 79.8254 28.0295C79.338 26.7919 77.2915 22.8707 71.5612 24.4327ZM24.6256 35.0767C21.2463 36.8704 21.0186 37.5131 21.2545 40.3203C21.2705 40.5111 21.2876 40.7154 21.3044 40.9353C21.5311 43.8982 21.1283 47.7259 19.331 49.6537L19.3099 49.6616C19.3108 49.6546 19.3116 49.6473 19.3124 49.6401C19.3445 49.339 20.0467 42.2195 16.8801 38.269C16.6532 37.9897 16.3672 37.7641 16.0427 37.6085C15.7182 37.4528 15.3632 37.3711 15.0033 37.369C14.6434 37.367 14.2876 37.4447 13.9613 37.5967C13.635 37.7486 13.3465 37.971 13.1165 38.2477C9.88514 42.1809 10.5961 49.3387 10.6279 49.6414C10.6287 49.6489 10.6298 49.6563 10.6313 49.6637L10.61 49.6554C8.81162 47.7282 8.4093 43.8987 8.63576 40.936C8.65258 40.7151 8.67004 40.5098 8.68605 40.3181C8.92228 37.5094 8.69406 36.8664 5.3138 35.0768C3.77278 34.261 3.08267 31.6575 3.80689 29.3913C4.88955 26.0043 8.07458 26.0454 9.39458 26.2202C10.7146 26.3949 12.5176 27.4361 13.5939 28.0578C13.9578 28.2679 14.272 28.4494 14.5151 28.5703C15.6863 29.1528 17.4508 29.8866 19.2434 29.5368C19.3673 29.5127 19.4851 29.4643 19.5903 29.3946C19.6955 29.3248 19.7859 29.2351 19.8564 29.1304C19.9268 29.0257 19.976 28.9081 20.0011 28.7845C20.0261 28.6608 20.0266 28.5334 20.0024 28.4095C19.9782 28.2857 19.9298 28.1678 19.8601 28.0626C19.7904 27.9574 19.7006 27.867 19.5959 27.7965C19.4912 27.7261 19.3737 27.6769 19.25 27.6518C19.1263 27.6268 18.9989 27.6263 18.875 27.6505C18.3376 27.7429 17.7866 27.7174 17.26 27.5759C17.3606 27.5146 17.4577 27.4545 17.5523 27.3957C18.2966 26.8929 19.1197 26.5182 19.9876 26.2871C23.918 25.2162 25.4181 27.3634 25.9626 28.7386C26.9091 31.1291 26.2595 34.2094 24.6256 35.0767ZM50.6654 35.0767C47.2861 36.8704 47.0584 37.5131 47.2943 40.3203C47.3103 40.5111 47.3274 40.7154 47.3442 40.9353C47.5707 43.8982 47.1681 47.7259 45.3708 49.6537L45.3497 49.6616C45.3506 49.6546 45.3514 49.6473 45.3522 49.6401C45.3843 49.339 46.0865 42.2195 42.9199 38.269C42.693 37.9897 42.407 37.7641 42.0825 37.6085C41.758 37.4529 41.403 37.3711 41.0431 37.3691C40.6832 37.3671 40.3273 37.4449 40.0011 37.5968C39.6748 37.7488 39.3863 37.9711 39.1563 38.2479C35.9249 42.1809 36.636 49.3387 36.6679 49.6414C36.6686 49.6489 36.6697 49.6563 36.6713 49.6637L36.65 49.6554C34.8513 47.728 34.4491 43.8985 34.6757 40.936C34.6925 40.7151 34.71 40.5098 34.726 40.3181C34.9622 37.5094 34.734 36.8664 31.3536 35.0768C29.8126 34.261 29.1226 31.6575 29.8469 29.3913C30.9294 26.0043 34.115 26.0454 35.4345 26.2202C36.7541 26.3949 38.5576 27.4361 39.6338 28.0578C39.9977 28.2679 40.3119 28.4494 40.5551 28.5703C41.7263 29.1528 43.4915 29.8866 45.2834 29.5368C45.4072 29.5127 45.5251 29.4643 45.6303 29.3946C45.7354 29.3248 45.8258 29.2351 45.8963 29.1304C45.9668 29.0257 46.016 28.9081 46.041 28.7845C46.0661 28.6608 46.0665 28.5334 46.0423 28.4095C46.0182 28.2857 45.9698 28.1678 45.9001 28.0626C45.8303 27.9574 45.7405 27.867 45.6359 27.7965C45.5312 27.7261 45.4136 27.6769 45.2899 27.6518C45.1663 27.6268 45.0389 27.6263 44.915 27.6505C44.3776 27.7429 43.8266 27.7174 43.3 27.5759C43.4006 27.5146 43.4976 27.4545 43.5923 27.3957C44.3362 26.8929 45.159 26.5181 46.0266 26.2868C49.9574 25.2158 51.4572 27.363 52.0018 28.7385C52.9488 31.1293 52.2993 34.2094 50.6654 35.0767ZM76.705 35.0767C73.3258 36.8704 73.0982 37.5131 73.3341 40.3203C73.3501 40.5111 73.3672 40.7154 73.384 40.9353C73.6105 43.8982 73.2079 47.7259 71.4106 49.6537L71.3895 49.6616C71.3904 49.6546 71.3912 49.6473 71.392 49.6401C71.4241 49.339 72.1263 42.2195 68.9597 38.269C68.7328 37.9897 68.4468 37.7641 68.1223 37.6085C67.7978 37.4529 67.4428 37.3711 67.0829 37.3691C66.723 37.3671 66.3671 37.4449 66.0409 37.5968C65.7146 37.7488 65.4261 37.9711 65.1961 38.2479C61.9647 42.1809 62.6758 49.3387 62.7077 49.6414C62.7077 49.6496 62.7096 49.6574 62.7108 49.6637L62.6898 49.6554C60.8912 47.7282 60.4888 43.8985 60.7154 40.936C60.7322 40.7151 60.7495 40.5098 60.7657 40.3182C61.0021 37.5094 60.7738 36.8666 57.3934 35.0768C55.8524 34.261 55.1624 31.6575 55.8867 29.3913C56.9693 26.0043 60.1545 26.0454 61.4743 26.2202C62.7942 26.3949 64.5974 27.4361 65.6735 28.0578C66.0375 28.2679 66.3518 28.4494 66.5947 28.5703C67.7659 29.1528 69.5309 29.8866 71.3232 29.5368C71.447 29.5127 71.5649 29.4643 71.6701 29.3946C71.7752 29.3248 71.8657 29.2351 71.9361 29.1304C72.0066 29.0257 72.0558 28.9081 72.0808 28.7845C72.1059 28.6608 72.1063 28.5334 72.0821 28.4095C72.058 28.2857 72.0096 28.1678 71.9399 28.0626C71.8701 27.9574 71.7803 27.867 71.6757 27.7965C71.571 27.7261 71.4534 27.6769 71.3298 27.6518C71.2061 27.6268 71.0787 27.6263 70.9548 27.6505C70.4174 27.7429 69.8664 27.7174 69.3398 27.5759C69.4404 27.5146 69.5373 27.4545 69.6321 27.3957C70.376 26.8929 71.1988 26.5181 72.0664 26.2868C75.997 25.2158 77.497 27.363 78.0416 28.7385C78.9892 31.1293 78.339 34.2094 76.705 35.0767Z" fill="#1AE5BE"/>
</svg>
