<svg width="83" height="83" viewBox="0 0 83 83" fill="none" xmlns="http://www.w3.org/2000/svg">
<path d="M4.85938 55.5319H78.444V57.776H4.85938V55.5319Z" fill="#D4E1F4"/>
<path d="M12.3173 34.9471C12.3173 35.2019 12.4185 35.4464 12.5987 35.6266C12.7789 35.8068 13.0233 35.908 13.2782 35.908H17.9468C18.2016 35.908 18.446 35.8068 18.6262 35.6266C18.8065 35.4464 18.9077 35.2019 18.9077 34.9471V34.352H27.6468V32.4301H18.9077V31.8348C18.9077 31.5799 18.8065 31.3355 18.6262 31.1553C18.446 30.9751 18.2016 30.8738 17.9468 30.8738H13.2782C13.0233 30.8738 12.7789 30.9751 12.5987 31.1553C12.4185 31.3355 12.3173 31.5799 12.3173 31.8348V32.4301H3.68164C3.42678 32.4301 3.18237 32.5313 3.00216 32.7115C2.82194 32.8917 2.7207 33.1362 2.7207 33.391C2.7207 33.6459 2.82194 33.8903 3.00216 34.0705C3.18237 34.2507 3.42678 34.352 3.68164 34.352H12.3173V34.9471ZM14.2391 32.7957H16.9858V33.9862H14.2391V32.7957Z" fill="#0635C9"/>
<path d="M29.7217 34.352H38.3573V34.9471C38.3573 35.2019 38.4585 35.4464 38.6388 35.6266C38.819 35.8068 39.0634 35.908 39.3182 35.908H43.9868C44.2417 35.908 44.4861 35.8068 44.6663 35.6266C44.8465 35.4464 44.9477 35.2019 44.9477 34.9471V34.352H53.6868V32.4301H44.9477V31.8348C44.9477 31.5799 44.8465 31.3355 44.6663 31.1553C44.4861 30.9751 44.2417 30.8738 43.9868 30.8738H39.3182C39.0634 30.8738 38.819 30.9751 38.6388 31.1553C38.4585 31.3355 38.3573 31.5799 38.3573 31.8348V32.4301H29.7217C29.4668 32.4301 29.2224 32.5313 29.0422 32.7115C28.862 32.8917 28.7607 33.1362 28.7607 33.391C28.7607 33.6459 28.862 33.8903 29.0422 34.0705C29.2224 34.2507 29.4668 34.352 29.7217 34.352ZM40.2792 32.7957H43.0259V33.9862H40.2792V32.7957Z" fill="#0635C9"/>
<path d="M70.9875 31.8348C70.9875 31.5799 70.8862 31.3355 70.706 31.1553C70.5258 30.9751 70.2814 30.8738 70.0265 30.8738H65.358C65.1031 30.8738 64.8587 30.9751 64.6785 31.1553C64.4983 31.3355 64.397 31.5799 64.397 31.8348V32.4301H55.7622C55.5074 32.4301 55.2629 32.5313 55.0827 32.7115C54.9025 32.8917 54.8013 33.1362 54.8013 33.391C54.8013 33.6459 54.9025 33.8903 55.0827 34.0705C55.2629 34.2507 55.5074 34.352 55.7622 34.352H64.3978V34.9471C64.3978 35.2019 64.4991 35.4464 64.6793 35.6266C64.8595 35.8068 65.1039 35.908 65.3588 35.908H70.0273C70.2822 35.908 70.5266 35.8068 70.7068 35.6266C70.887 35.4464 70.9883 35.2019 70.9883 34.9471V34.352H79.7264V32.4301H70.9875V31.8348ZM69.0656 33.9862H66.3189V32.7957H69.0656V33.9862Z" fill="#0635C9"/>
<path d="M75.1815 37.9904C75.0621 37.9496 74.9358 37.9328 74.8099 37.9409C74.6839 37.9489 74.5608 37.9817 74.4475 38.0374C74.3343 38.093 74.2331 38.1704 74.1497 38.2652C74.0663 38.3599 74.0025 38.4702 73.9617 38.5896C73.921 38.709 73.9041 38.8353 73.9122 38.9613C73.9203 39.0872 73.953 39.2103 74.0087 39.3236C74.0643 39.4369 74.1417 39.5381 74.2365 39.6215C74.3313 39.7048 74.4415 39.7687 74.5609 39.8094C75.4266 40.105 76.178 40.6639 76.71 41.408C77.2419 42.1521 77.5277 43.0439 77.5274 43.9586V56.7511H5.77735V43.9586C5.77636 43.0966 6.0299 42.2535 6.50616 41.535C6.98242 40.8165 7.6602 40.2546 8.45452 39.9198C8.68924 39.8205 8.87491 39.632 8.97068 39.3958C9.06644 39.1597 9.06447 38.8951 8.96518 38.6604C8.86589 38.4257 8.67743 38.24 8.44125 38.1442C8.20506 38.0485 7.94051 38.0504 7.70579 38.1497C6.56336 38.6313 5.58854 39.4394 4.90357 40.4728C4.21861 41.5062 3.854 42.7188 3.85547 43.9586V57.712C3.85547 57.9669 3.95671 58.2113 4.13693 58.3915C4.31714 58.5717 4.56155 58.673 4.81641 58.673H78.4883C78.7431 58.673 78.9876 58.5717 79.1678 58.3915C79.348 58.2113 79.4492 57.9669 79.4492 57.712V43.9586C79.4496 42.6429 79.0383 41.36 78.273 40.2897C77.5077 39.2195 76.4267 38.4155 75.1815 37.9904Z" fill="#0635C9"/>
<path d="M72.2135 24.499C71.167 24.7782 70.1734 25.2272 69.2724 25.8283C68.768 26.156 68.239 26.4444 67.6902 26.6907C67.5674 26.621 67.4317 26.5427 67.2876 26.4594C66.0098 25.7216 64.0787 24.6064 62.3801 24.3811C58.6345 23.8833 55.7666 25.5629 54.7086 28.8715L54.7044 28.8858C54.6304 28.6184 54.5425 28.3551 54.441 28.0969C53.9502 26.8577 51.9039 22.936 46.1732 24.4985C45.1267 24.7777 44.1332 25.2268 43.2321 25.8278C42.7277 26.1556 42.1988 26.4439 41.6499 26.6902C41.5271 26.6205 41.3914 26.5422 41.2474 26.4589C39.9696 25.7211 38.0386 24.6059 36.3398 24.3806C32.5944 23.8828 29.7263 25.5624 28.6683 28.8711C28.6667 28.8757 28.6654 28.8805 28.664 28.8853C28.5899 28.6179 28.502 28.3545 28.4005 28.0962C27.9098 26.8573 25.864 22.9357 20.1331 24.498C19.0865 24.7771 18.0928 25.2262 17.1917 25.8273C16.6872 26.155 16.1583 26.4432 15.6095 26.6896C15.4866 26.6199 15.351 26.5416 15.207 26.4583C13.9291 25.7205 11.9981 24.6053 10.2993 24.38C6.5528 23.8822 3.686 25.5618 2.62785 28.8704C1.62111 32.0199 2.71481 35.5947 5.06575 36.8393C6.34139 37.5147 7.12648 37.9809 7.36479 38.3659C7.54513 38.6574 7.51278 39.1452 7.42229 40.2212C7.40627 40.4174 7.38801 40.6275 7.37088 40.8535C7.24435 42.508 7.05537 48.138 9.93642 51.1147C10.1494 51.3198 10.408 51.4715 10.6911 51.5572C11.0002 51.6687 11.3331 51.6973 11.6567 51.6403C11.9803 51.5833 12.2834 51.4427 12.5358 51.2323C12.7883 51.0219 12.9813 50.7491 13.0957 50.4411C13.21 50.133 13.2419 49.8004 13.1879 49.4763C13.1437 48.9958 12.6261 42.7289 15.253 39.5317C15.3015 39.4761 15.3614 39.4315 15.4286 39.4011C15.4959 39.3707 15.5689 39.3551 15.6427 39.3554C15.7165 39.3557 15.7894 39.3719 15.8564 39.4029C15.9234 39.4338 15.983 39.4789 16.031 39.5349C18.6113 42.754 18.098 48.9982 18.0543 49.4766C18.0089 49.7472 18.0235 50.0244 18.097 50.2887C18.1705 50.5531 18.301 50.7981 18.4795 51.0064C18.6579 51.2148 18.8799 51.3815 19.1298 51.4948C19.3797 51.608 19.6514 51.6651 19.9257 51.6619C20.1383 51.6618 20.3493 51.6264 20.5503 51.5572C20.8335 51.4715 21.0923 51.3199 21.3054 51.1147C24.1862 48.138 23.9972 42.508 23.8707 40.8535C23.8535 40.6292 23.8361 40.4193 23.8196 40.2241C23.7292 39.1476 23.6967 38.6595 23.8771 38.368C24.1152 37.9836 24.9005 37.5163 26.1767 36.8388C27.3376 36.2227 28.1827 35.0131 28.6243 33.5604C29.065 35.0073 29.9271 36.2158 31.1049 36.8393C32.3806 37.5147 33.1655 37.9809 33.404 38.3659C33.5843 38.6574 33.5519 39.1452 33.4615 40.2212C33.4454 40.4174 33.4272 40.6275 33.41 40.8535C33.2835 42.5079 33.0942 48.1377 35.9748 51.114C36.1878 51.3196 36.4467 51.4715 36.7301 51.5572C37.0392 51.6687 37.3721 51.6974 37.6957 51.6404C38.0193 51.5834 38.3224 51.4428 38.5748 51.2324C38.8272 51.0221 39.0203 50.7494 39.1347 50.4414C39.2491 50.1333 39.281 49.8007 39.2271 49.4766C39.183 48.9981 38.6648 42.7295 41.2918 39.5319C41.3403 39.4762 41.4002 39.4316 41.4675 39.4011C41.5348 39.3707 41.6078 39.3551 41.6817 39.3554C41.7555 39.3556 41.8284 39.3718 41.8955 39.4028C41.9625 39.4338 42.0221 39.4788 42.0702 39.5349C44.6503 42.754 44.1371 48.9982 44.0934 49.4766C44.0481 49.7472 44.0627 50.0244 44.1361 50.2887C44.2096 50.553 44.3401 50.798 44.5185 51.0064C44.6969 51.2148 44.9189 51.3815 45.1687 51.4948C45.4186 51.6081 45.6902 51.6652 45.9645 51.6621C46.1771 51.662 46.3882 51.6266 46.5891 51.5573C46.8725 51.4717 47.1315 51.32 47.3448 51.1147C50.2255 48.138 50.0365 42.508 49.91 40.8535C49.8928 40.6292 49.8752 40.4193 49.8589 40.2241C49.7684 39.1476 49.736 38.6595 49.9164 38.368C50.1545 37.9836 50.9398 37.5163 52.2161 36.8388C53.3769 36.2227 54.2219 35.0131 54.6636 33.5604C55.1043 35.0073 55.9664 36.2158 57.1442 36.8393C58.4199 37.5147 59.2048 37.9809 59.4431 38.3659C59.6236 38.6572 59.5911 39.1452 59.5006 40.2212C59.4846 40.4172 59.4663 40.6275 59.4492 40.8535C59.3227 42.508 59.1337 48.1379 62.0141 51.114C62.2272 51.3196 62.486 51.4715 62.7694 51.5572C63.0785 51.6686 63.4114 51.6973 63.735 51.6403C64.0585 51.5833 64.3616 51.4427 64.614 51.2323C64.8665 51.022 65.0595 50.7493 65.1739 50.4413C65.2884 50.1333 65.3202 49.8007 65.2664 49.4766C65.2224 48.9981 64.7041 42.7295 67.3311 39.5319C67.3796 39.4762 67.4396 39.4316 67.5068 39.4011C67.5741 39.3707 67.6472 39.3551 67.721 39.3554C67.7949 39.3556 67.8678 39.3718 67.9348 39.4028C68.0018 39.4338 68.0614 39.4788 68.1095 39.5349C70.6896 42.754 70.1765 48.9982 70.1327 49.4766C70.0874 49.7472 70.102 50.0244 70.1755 50.2887C70.2489 50.553 70.3794 50.798 70.5578 51.0064C70.7363 51.2148 70.9582 51.3815 71.208 51.4948C71.4579 51.6081 71.7295 51.6652 72.0039 51.6621C72.2164 51.662 72.4275 51.6266 72.6285 51.5573C72.9118 51.4717 73.1707 51.32 73.3839 51.1147C76.2648 48.138 76.0758 42.508 75.9493 40.8535C75.9322 40.6292 75.9145 40.4193 75.8982 40.2241C75.8077 39.1476 75.7754 38.6595 75.9557 38.368C76.1937 37.9836 76.9791 37.5163 78.2552 36.8388C80.7575 35.5107 81.7961 31.4256 80.4777 28.0957C79.9904 26.8582 77.9439 22.937 72.2135 24.499ZM25.2779 35.1429C21.8987 36.9367 21.6709 37.5794 21.9068 40.3866C21.9228 40.5774 21.94 40.7817 21.9568 41.0016C22.1834 43.9645 21.7806 47.7922 19.9833 49.72L19.9622 49.7279C19.9632 49.7208 19.964 49.7136 19.9648 49.7064C19.9968 49.4053 20.6991 42.2857 17.5325 38.3353C17.3056 38.056 17.0196 37.8304 16.6951 37.6747C16.3705 37.5191 16.0156 37.4374 15.6557 37.4353C15.2958 37.4333 14.9399 37.511 14.6136 37.663C14.2874 37.8149 13.9989 38.0373 13.7688 38.314C10.5375 42.2471 11.2484 49.405 11.2803 49.7077C11.281 49.7152 11.2821 49.7226 11.2837 49.73L11.2624 49.7216C9.46396 47.7945 9.06165 43.965 9.28811 41.0023C9.30492 40.7814 9.32238 40.5761 9.3384 40.3844C9.57463 37.5757 9.3464 36.9327 5.96615 35.1431C4.42512 34.3273 3.73501 31.7238 4.45924 29.4576C5.54189 26.0706 8.72692 26.1117 10.0469 26.2865C11.3669 26.4612 13.17 27.5024 14.2462 28.1241C14.6101 28.3342 14.9243 28.5157 15.1674 28.6366C16.3387 29.2191 18.1031 29.9529 19.8957 29.6031C20.0196 29.5789 20.1375 29.5306 20.2426 29.4609C20.3478 29.3911 20.4382 29.3013 20.5087 29.1967C20.5792 29.092 20.6284 28.9744 20.6534 28.8507C20.6785 28.7271 20.6789 28.5997 20.6547 28.4758C20.6305 28.3519 20.5822 28.2341 20.5124 28.1289C20.4427 28.0237 20.3529 27.9333 20.2482 27.8628C20.1436 27.7923 20.026 27.7432 19.9023 27.7181C19.7786 27.6931 19.6512 27.6926 19.5274 27.7168C18.99 27.8091 18.4389 27.7837 17.9124 27.6422C18.0129 27.5808 18.11 27.5208 18.2046 27.462C18.9489 26.9592 19.772 26.5845 20.64 26.3534C24.5704 25.2824 26.0704 27.4297 26.6149 28.8049C27.5615 31.1954 26.9119 34.2757 25.2779 35.1429ZM51.3177 35.1429C47.9385 36.9367 47.7107 37.5794 47.9466 40.3866C47.9626 40.5774 47.9798 40.7817 47.9966 41.0016C48.2231 43.9645 47.8204 47.7922 46.0231 49.72L46.002 49.7279C46.003 49.7208 46.0038 49.7136 46.0046 49.7064C46.0366 49.4053 46.7389 42.2857 43.5723 38.3353C43.3454 38.056 43.0594 37.8304 42.7348 37.6748C42.4103 37.5192 42.0553 37.4374 41.6954 37.4354C41.3355 37.4334 40.9797 37.5111 40.6534 37.6631C40.3272 37.815 40.0386 38.0374 39.8086 38.3142C36.5773 42.2471 37.2884 49.405 37.3203 49.7077C37.321 49.7152 37.3221 49.7226 37.3236 49.73L37.3023 49.7216C35.5036 47.7943 35.1015 43.9648 35.3281 41.0023C35.3449 40.7814 35.3623 40.5761 35.3784 40.3844C35.6146 37.5757 35.3864 36.9327 32.006 35.1431C30.4649 34.3273 29.775 31.7238 30.4992 29.4576C31.5817 26.0706 34.7674 26.1117 36.0869 26.2865C37.4064 26.4612 39.2099 27.5024 40.2862 28.1241C40.6501 28.3342 40.9643 28.5157 41.2074 28.6366C42.3786 29.2191 44.1439 29.9529 45.9357 29.6031C46.0596 29.5789 46.1774 29.5306 46.2826 29.4609C46.3878 29.3911 46.4782 29.3013 46.5487 29.1967C46.6191 29.092 46.6683 28.9744 46.6934 28.8507C46.7184 28.7271 46.7189 28.5997 46.6947 28.4758C46.6705 28.3519 46.6221 28.2341 46.5524 28.1289C46.4827 28.0237 46.3929 27.9333 46.2882 27.8628C46.1835 27.7923 46.066 27.7432 45.9423 27.7181C45.8186 27.6931 45.6912 27.6926 45.5673 27.7168C45.0299 27.8091 44.4789 27.7837 43.9523 27.6422C44.0529 27.5808 44.15 27.5208 44.2446 27.462C44.9885 26.9592 45.8114 26.5843 46.679 26.3531C50.6097 25.2821 52.1096 27.4293 52.6541 28.8048C53.6011 31.1956 52.9517 34.2757 51.3177 35.1429ZM77.3574 35.1429C73.9781 36.9367 73.7505 37.5794 73.9864 40.3866C74.0024 40.5774 74.0196 40.7817 74.0364 41.0016C74.2629 43.9645 73.8602 47.7922 72.063 49.72L72.0418 49.7279C72.0428 49.7208 72.0436 49.7136 72.0444 49.7064C72.0764 49.4053 72.7787 42.2857 69.6121 38.3353C69.3852 38.056 69.0992 37.8304 68.7746 37.6748C68.4501 37.5192 68.0951 37.4374 67.7352 37.4354C67.3753 37.4334 67.0195 37.5111 66.6932 37.6631C66.367 37.815 66.0784 38.0374 65.8484 38.3142C62.6171 42.2471 63.3282 49.405 63.3601 49.7077C63.3601 49.7159 63.362 49.7237 63.3631 49.73L63.3421 49.7216C61.5436 47.7945 61.1411 43.9648 61.3677 41.0023C61.3845 40.7814 61.4018 40.5761 61.418 40.3845C61.6544 37.5757 61.4262 36.9328 58.0458 35.1431C56.5047 34.3273 55.8148 31.7238 56.539 29.4576C57.6217 26.0706 60.8068 26.1117 62.1267 26.2865C63.4465 26.4612 65.2497 27.5024 66.3258 28.1241C66.6899 28.3342 67.0041 28.5157 67.247 28.6366C68.4183 29.2191 70.1832 29.9529 71.9755 29.6031C72.0994 29.5789 72.2172 29.5306 72.3224 29.4609C72.4276 29.3911 72.518 29.3013 72.5885 29.1967C72.659 29.092 72.7081 28.9744 72.7332 28.8507C72.7582 28.7271 72.7587 28.5997 72.7345 28.4758C72.7103 28.3519 72.6619 28.2341 72.5922 28.1289C72.5225 28.0237 72.4327 27.9333 72.328 27.8628C72.2233 27.7923 72.1058 27.7432 71.9821 27.7181C71.8584 27.6931 71.731 27.6926 71.6071 27.7168C71.0697 27.8091 70.5187 27.7837 69.9921 27.6422C70.0927 27.5808 70.1896 27.5208 70.2844 27.462C71.0283 26.9592 71.8512 26.5843 72.7188 26.3531C76.6493 25.2821 78.1494 27.4293 78.6939 28.8048C79.6415 31.1956 78.9913 34.2757 77.3574 35.1429Z" fill="#FFA552"/>
</svg>
