<svg width="53" height="53" viewBox="0 0 53 53" fill="none" xmlns="http://www.w3.org/2000/svg">
<path d="M8.37628 11.5306L6.79901 13.7385L3.17425 18.8146C2.61533 19.5971 2.35208 20.5524 2.4313 21.5107C2.51052 22.469 2.92709 23.3681 3.6069 24.0481L6.24753 26.4856C5.56771 25.8056 5.15115 24.9065 5.07192 23.9482C4.9927 22.9899 5.25596 22.0346 5.81487 21.2521L9.35504 16.2946L9.43964 16.176L11.0169 13.9681C11.1356 13.8017 11.3017 13.6751 11.4936 13.6047C11.6854 13.5344 11.8941 13.5236 12.0921 13.5738L9.92104 11.4026C9.81674 11.2983 9.69095 11.2179 9.55244 11.1672C9.41393 11.1164 9.26602 11.0964 9.119 11.1086C8.97198 11.1207 8.82938 11.1648 8.70112 11.2377C8.57285 11.3106 8.462 11.4105 8.37628 11.5306Z" fill="#D4E1F4"/>
<path d="M38.9632 39.5828L32.3911 33.0108C32.2314 32.8514 32.0402 32.7269 31.8298 32.6454C31.6193 32.5638 31.3942 32.527 31.1688 32.5372C30.9433 32.5474 30.7224 32.6045 30.5202 32.7047C30.318 32.805 30.1389 32.9462 29.9943 33.1195L27.6249 35.9621C27.4984 36.1139 27.3416 36.2377 27.1645 36.3255C26.9875 36.4134 26.7941 36.4633 26.5966 36.4722C26.3992 36.4811 26.202 36.4487 26.0178 36.3772C25.8336 36.3056 25.6663 36.1964 25.5266 36.0566L13.8774 24.4073C13.7378 24.2676 13.6288 24.1004 13.5575 23.9162C13.4861 23.7321 13.4539 23.535 13.4628 23.3377C13.4718 23.1404 13.5218 22.9472 13.6096 22.7703C13.6974 22.5933 13.8211 22.4367 13.9728 22.3102L16.8165 19.9402C16.9898 19.7954 17.1309 19.6162 17.2311 19.4138C17.3312 19.2115 17.3881 18.9905 17.3982 18.765C17.4083 18.5395 17.3712 18.3143 17.2895 18.1038C17.2078 17.8934 17.0831 17.7023 16.9235 17.5426L10.3524 10.9715C10.1855 10.8047 9.98427 10.6761 9.76269 10.5949C9.5411 10.5136 9.30448 10.4816 9.06927 10.5011C8.83407 10.5206 8.60592 10.591 8.40071 10.7076C8.19549 10.8242 8.01813 10.984 7.88096 11.1761L2.67852 18.4603C2.03287 19.359 1.72837 20.4584 1.81956 21.5612C1.91075 22.6641 2.39168 23.6985 3.17618 24.4791L25.4556 46.7576C26.2358 47.5427 27.2702 48.0241 28.3732 48.1155C29.4763 48.207 30.5758 47.9023 31.4745 47.2564L38.7583 42.0535C38.9503 41.9164 39.1101 41.7391 39.2266 41.5339C39.3431 41.3288 39.4136 41.1008 39.4331 40.8657C39.4526 40.6305 39.4207 40.394 39.3395 40.1725C39.2584 39.9509 39.13 39.7497 38.9632 39.5828ZM30.766 46.2647C30.1018 46.7421 29.2891 46.9672 28.4739 46.8997C27.6587 46.8321 26.8942 46.4762 26.3176 45.8959L4.03814 23.6174C3.45831 23.0405 3.10284 22.276 3.03543 21.4609C2.96803 20.6457 3.19308 19.8332 3.67028 19.169L6.87722 14.6786L7.5972 15.3984C7.712 15.5102 7.86617 15.5722 8.02635 15.5711C8.18653 15.57 8.33983 15.5059 8.45309 15.3926C8.56636 15.2793 8.63046 15.126 8.63154 14.9658C8.63261 14.8056 8.57058 14.6515 8.45885 14.5367L7.59557 13.6734L8.87272 11.885C8.90676 11.8368 8.95101 11.7967 9.00232 11.7675C9.05364 11.7384 9.11075 11.7209 9.16959 11.7164C9.17974 11.7155 9.19112 11.715 9.20371 11.715C9.25706 11.7146 9.30994 11.725 9.35923 11.7454C9.40851 11.7659 9.45319 11.796 9.49063 11.834L16.0617 18.4051C16.1016 18.4451 16.1328 18.4929 16.1533 18.5455C16.1737 18.5981 16.183 18.6545 16.1806 18.7109C16.1781 18.7673 16.1639 18.8226 16.139 18.8733C16.114 18.9239 16.0788 18.9688 16.0355 19.0051L14.3403 20.4181L10.3869 16.4646C10.3303 16.408 10.2632 16.3631 10.1892 16.3324C10.1153 16.3018 10.036 16.286 9.95602 16.286C9.87599 16.286 9.79675 16.3018 9.72281 16.3324C9.64888 16.363 9.5817 16.4079 9.52511 16.4645C9.46852 16.5211 9.42362 16.5883 9.39299 16.6622C9.36237 16.7361 9.3466 16.8154 9.34659 16.8954C9.34659 16.9754 9.36235 17.0547 9.39297 17.1286C9.42359 17.2025 9.46847 17.2697 9.52505 17.3263L13.3997 21.201L13.192 21.3742C12.9102 21.6091 12.6805 21.9001 12.5175 22.2287C12.3544 22.5573 12.2616 22.9163 12.245 23.2828C12.2284 23.6492 12.2883 24.0151 12.4209 24.3571C12.5536 24.6991 12.756 25.0098 13.0154 25.2692L24.6646 36.9184C24.924 37.1779 25.2347 37.3805 25.5768 37.5133C25.9188 37.646 26.2848 37.7061 26.6514 37.6895C27.018 37.673 27.3771 37.5802 27.7058 37.4172C28.0345 37.2542 28.3257 37.0244 28.5607 36.7426L28.7334 36.535L35.2554 43.0571L30.766 46.2647ZM38.2186 40.7657C38.214 40.8244 38.1966 40.8813 38.1675 40.9325C38.1383 40.9836 38.0983 41.0277 38.0502 41.0616L36.2613 42.3385L29.5175 35.5948L30.9299 33.9003C30.966 33.857 31.0108 33.8217 31.0613 33.7966C31.1118 33.7715 31.167 33.7572 31.2233 33.7546C31.2797 33.752 31.3359 33.7611 31.3886 33.7814C31.4412 33.8016 31.4891 33.8326 31.5291 33.8724L38.1002 40.444C38.1424 40.4855 38.1749 40.536 38.1954 40.5916C38.2159 40.6472 38.2238 40.7067 38.2186 40.7657Z" fill="#FFA552"/>
<path d="M13.505 10.5394C14.5811 10.5441 15.6118 10.9736 16.3728 11.7344C17.1339 12.4952 17.5637 13.5258 17.5688 14.6019C17.5692 14.7633 17.6335 14.9179 17.7478 15.0319C17.862 15.1459 18.0168 15.2099 18.1782 15.2099H18.1797C18.3413 15.2095 18.4961 15.1449 18.6101 15.0303C18.7241 14.9158 18.7879 14.7607 18.7875 14.5991C18.7811 13.2009 18.2227 11.8619 17.2339 10.8733C16.2451 9.88478 14.9059 9.32676 13.5077 9.32066C13.4277 9.32048 13.3484 9.33607 13.2744 9.36653C13.2004 9.39698 13.1331 9.44172 13.0764 9.49818C13.0197 9.55464 12.9747 9.62171 12.9439 9.69558C12.9131 9.76944 12.8972 9.84865 12.897 9.92867C12.8968 10.0087 12.9124 10.088 12.9428 10.162C12.9733 10.236 13.018 10.3033 13.0745 10.36C13.1309 10.4167 13.198 10.4617 13.2719 10.4925C13.3457 10.5233 13.425 10.5392 13.505 10.5394Z" fill="#FFA552"/>
<path d="M14.3705 6.63019C18.2961 6.63019 21.5151 9.85114 21.5459 13.8107C21.5472 13.9714 21.6119 14.1252 21.7261 14.2385C21.8402 14.3517 21.9945 14.4153 22.1553 14.4153H22.1601C22.2402 14.4146 22.3193 14.3983 22.393 14.367C22.4667 14.3358 22.5335 14.2904 22.5896 14.2334C22.6458 14.1764 22.6901 14.1088 22.7202 14.0347C22.7502 13.9605 22.7654 13.8811 22.7647 13.8011C22.7287 9.17524 18.9631 5.41205 14.3706 5.41205C14.209 5.41205 14.054 5.47625 13.9397 5.59053C13.8254 5.70481 13.7612 5.85981 13.7612 6.02142C13.7612 6.18304 13.8254 6.33804 13.9397 6.45232C14.054 6.5666 14.209 6.6308 14.3706 6.6308L14.3705 6.63019Z" fill="#FFA552"/>
<path d="M9.53832 25.0544C9.42403 24.9401 9.26902 24.8759 9.1074 24.8759C8.94578 24.8759 8.79078 24.9401 8.67651 25.0544C8.56223 25.1687 8.49804 25.3237 8.49805 25.4853C8.49806 25.647 8.56227 25.802 8.67656 25.9162L22.9674 40.207C23.082 40.3197 23.2365 40.3826 23.3973 40.382C23.558 40.3813 23.712 40.3172 23.8257 40.2035C23.9394 40.0898 24.0035 39.9358 24.0042 39.7751C24.0048 39.6143 23.9419 39.4598 23.8292 39.3452L9.53832 25.0544Z" fill="#FFA552"/>
<path d="M7.17339 22.6893C7.05918 22.575 6.90422 22.5107 6.7426 22.5106C6.58098 22.5104 6.42593 22.5746 6.31158 22.6888C6.19722 22.803 6.13292 22.9579 6.13281 23.1195C6.13271 23.2812 6.19681 23.4362 6.31102 23.5506L7.16526 24.4057C7.22164 24.4631 7.28883 24.5087 7.36294 24.54C7.43705 24.5713 7.51662 24.5876 7.59706 24.588C7.6775 24.5883 7.75721 24.5728 7.83161 24.5422C7.90601 24.5116 7.97361 24.4666 8.03053 24.4097C8.08744 24.3529 8.13254 24.2853 8.16321 24.211C8.19389 24.1366 8.20954 24.0569 8.20926 23.9765C8.20898 23.896 8.19278 23.8165 8.16159 23.7423C8.13039 23.6682 8.08483 23.6009 8.02752 23.5445L7.17339 22.6893Z" fill="#FFA552"/>
<path d="M49.3355 10.055H28.7803C28.0802 10.0558 27.409 10.3342 26.9139 10.8293C26.4189 11.3243 26.1404 11.9955 26.1396 12.6956V23.9254C26.1404 24.6255 26.4189 25.2967 26.9139 25.7917C27.409 26.2868 28.0802 26.5652 28.7803 26.566H30.3382C30.4036 26.5731 30.4652 26.5997 30.5152 26.6424C30.5651 26.6851 30.601 26.7419 30.6181 26.8053C31.204 30.0502 33.3376 31.0424 33.8094 31.2242C33.8988 31.2713 33.9982 31.2961 34.0992 31.2962C34.131 31.2962 34.1627 31.2937 34.1941 31.2888C34.3214 31.2682 34.4396 31.2097 34.5331 31.121C34.6267 31.0322 34.6913 30.9172 34.7184 30.7911C34.7761 30.5359 34.8127 30.2764 34.8278 30.0152C34.8754 29.5051 34.9408 28.8066 35.1609 28.1834C35.552 27.0799 36.3024 26.566 37.5228 26.566H49.3355C50.0356 26.5652 50.7068 26.2868 51.2019 25.7917C51.6969 25.2967 51.9754 24.6255 51.9761 23.9254V12.6956C51.9754 11.9955 51.6969 11.3243 51.2019 10.8293C50.7068 10.3342 50.0356 10.0558 49.3355 10.055ZM50.7574 23.9254C50.757 24.3024 50.607 24.6638 50.3405 24.9304C50.0739 25.1969 49.7125 25.3469 49.3355 25.3473H37.5228C35.7892 25.3473 34.5752 26.1872 34.0121 27.7767C33.7661 28.4727 33.6829 29.185 33.6296 29.7397C33.4911 29.6404 33.3596 29.5318 33.2357 29.4147C32.5094 28.7294 32.0322 27.7785 31.8172 26.5875C31.7481 26.2436 31.564 25.9334 31.2952 25.708C31.0265 25.4826 30.6889 25.3554 30.3382 25.3473H28.7803C28.4033 25.3469 28.0419 25.1969 27.7753 24.9304C27.5087 24.6638 27.3588 24.3024 27.3584 23.9254V12.6956C27.3588 12.3186 27.5087 11.9572 27.7753 11.6906C28.0419 11.4241 28.4033 11.2741 28.7803 11.2737H49.3355C49.7125 11.2741 50.0739 11.4241 50.3405 11.6906C50.607 11.9572 50.757 12.3186 50.7574 12.6956V23.9254Z" fill="#FFA552"/>
<path d="M47.6767 17.593H30.4385C30.2769 17.593 30.1219 17.6572 30.0076 17.7715C29.8933 17.8857 29.8291 18.0407 29.8291 18.2024C29.8291 18.364 29.8933 18.519 30.0076 18.6333C30.1219 18.7475 30.2769 18.8117 30.4385 18.8117H47.6767C47.8383 18.8117 47.9933 18.7475 48.1076 18.6333C48.2219 18.519 48.2861 18.364 48.2861 18.2024C48.2861 18.0407 48.2219 17.8857 48.1076 17.7715C47.9933 17.6572 47.8383 17.593 47.6767 17.593Z" fill="#FFA552"/>
<path d="M47.6767 20.8013H30.4385C30.2769 20.8013 30.1219 20.8655 30.0076 20.9798C29.8933 21.094 29.8291 21.249 29.8291 21.4107C29.8291 21.5723 29.8933 21.7273 30.0076 21.8415C30.1219 21.9558 30.2769 22.02 30.4385 22.02H47.6767C47.8383 22.02 47.9933 21.9558 48.1076 21.8415C48.2219 21.7273 48.2861 21.5723 48.2861 21.4107C48.2861 21.249 48.2219 21.094 48.1076 20.9798C47.9933 20.8655 47.8383 20.8013 47.6767 20.8013Z" fill="#FFA552"/>
<path d="M30.4385 15.4783H41.6804C41.842 15.4783 41.997 15.4141 42.1113 15.2998C42.2256 15.1855 42.2898 15.0305 42.2898 14.8689C42.2898 14.7073 42.2256 14.5523 42.1113 14.438C41.997 14.3238 41.842 14.2596 41.6804 14.2596H30.4385C30.2769 14.2596 30.1219 14.3238 30.0076 14.438C29.8933 14.5523 29.8291 14.7073 29.8291 14.8689C29.8291 15.0305 29.8933 15.1855 30.0076 15.2998C30.1219 15.4141 30.2769 15.4783 30.4385 15.4783Z" fill="#FFA552"/>
</svg>
