<svg width="83" height="83" viewBox="0 0 83 83" fill="none" xmlns="http://www.w3.org/2000/svg">
<g clip-path="url(#clip0)">
<path d="M46.8567 75.1996C40.5013 75.2156 34.4161 72.632 30.0145 68.0487C22.4561 60.2144 21.568 48.1005 27.9026 39.2472C26.1591 40.4948 24.5967 41.9785 23.2614 43.6558C16.1968 52.5167 16.7973 65.2422 24.6649 73.3983C29.4754 78.3849 36.2488 80.9824 43.16 80.4899C50.0713 79.9975 56.4086 76.4666 60.4633 70.8481C56.4957 73.688 51.7361 75.21 46.8567 75.1996Z" fill="#D4E1F4"/>
<path d="M41.5075 82.154C34.7111 82.1889 28.201 79.4242 23.5069 74.5093C15.0834 65.773 14.4412 52.1462 22.0058 42.6562C26.7278 36.7118 33.9156 33.2617 41.5075 33.2944C55.1663 33.2944 66.2807 44.2534 66.2807 57.7242C66.2807 71.1943 55.1663 82.154 41.5075 82.154ZM41.5075 36.5042C34.8943 36.4735 28.6322 39.4778 24.5176 44.6546C17.9532 52.8873 18.5119 64.7107 25.8237 72.2872C29.9139 76.5683 35.5867 78.9756 41.5075 78.9443C53.3971 78.9443 63.0709 69.4251 63.0709 57.7242C63.0709 46.0234 53.3971 36.5042 41.5075 36.5042Z" fill="#FFA552"/>
<path d="M46.7461 62.4455L41.0462 58.8477V47.0786C41.0462 46.1919 40.328 45.4737 39.4413 45.4737C38.5553 45.4737 37.8364 46.1919 37.8364 47.0786V59.7317C37.8364 60.2826 38.1192 60.7953 38.5852 61.0886L45.034 65.1593C45.5188 65.4685 46.1318 65.4943 46.6417 65.2275C47.1508 64.9607 47.4789 64.4418 47.5005 63.8664C47.5221 63.2918 47.2351 62.7492 46.7468 62.4448L46.7461 62.4455Z" fill="#0635C9"/>
<path d="M25.701 16.3485C26.3279 16.9754 27.3441 16.9754 27.971 16.3485C28.598 15.7216 28.598 14.7053 27.971 14.0784L23.9832 10.0906H62.9057C63.7917 10.0906 64.5106 9.37241 64.5106 8.48568C64.5106 7.59966 63.7917 6.88081 62.9057 6.88081H23.9832L27.971 2.89369C28.5973 2.26678 28.5973 1.2512 27.971 0.624293C27.3441 -0.00261253 26.3279 -0.00261253 25.701 0.624293L18.9736 7.35168C18.3474 7.97789 18.3474 8.99417 18.9736 9.62108L25.701 16.3485Z" fill="#0635C9"/>
<path d="M57.3138 13.5058C56.6869 12.8796 55.6706 12.8796 55.0444 13.5058C54.4175 14.1327 54.4175 15.149 55.0444 15.7759L59.0315 19.7637H20.1098C19.223 19.7637 18.5049 20.4819 18.5049 21.3686C18.5049 22.2546 19.223 22.9735 20.1098 22.9735H59.0315L55.0444 26.9606C54.4175 27.5875 54.4175 28.6038 55.0444 29.2307C55.6706 29.8576 56.6869 29.8576 57.3138 29.2307L64.0412 22.5033C64.6681 21.8764 64.6681 20.8601 64.0412 20.2332L57.3138 13.5058Z" fill="#0635C9"/>
</g>
<defs>
<clipPath id="clip0">
<rect width="82" height="82" fill="white" transform="translate(0.355469 0.154114)"/>
</clipPath>
</defs>
</svg>
