<svg width="83" height="83" viewBox="0 0 83 83" fill="none" xmlns="http://www.w3.org/2000/svg">
<g clip-path="url(#clip0)">
<path d="M47.4226 75.7535C41.0672 75.7695 34.982 73.1859 30.5804 68.6026C23.0221 60.7683 22.1339 48.6544 28.4685 39.8011C26.725 41.0487 25.1626 42.5324 23.8273 44.2097C16.7628 53.0706 17.3632 65.7961 25.2309 73.9522C30.0413 78.9388 36.8147 81.5363 43.726 81.0439C50.6372 80.5514 56.9746 77.0205 61.0292 71.4021C57.0616 74.2419 52.302 75.7639 47.4226 75.7535Z" fill="#D4E1F4"/>
<path d="M42.0729 82.7079C35.2766 82.7427 28.7665 79.9781 24.0724 75.0631C15.6489 66.3268 15.0067 52.7 22.5713 43.21C27.2933 37.2656 34.4811 33.8155 42.0729 33.8483C55.7318 33.8483 66.8461 44.8073 66.8461 58.2781C66.8461 71.7482 55.7318 82.7079 42.0729 82.7079ZM42.0729 37.058C35.4598 37.0274 29.1977 40.0316 25.0831 45.2085C18.5187 53.4411 19.0774 65.2646 26.3892 72.8411C30.4794 77.1221 36.1522 79.5295 42.0729 79.4981C53.9626 79.4981 63.6364 69.9789 63.6364 58.2781C63.6364 46.5772 53.9626 37.058 42.0729 37.058Z" fill="#1AE5BE"/>
<path d="M47.3118 62.9993L41.6119 59.4016V47.6325C41.6119 46.7457 40.8937 46.0276 40.007 46.0276C39.121 46.0276 38.4021 46.7457 38.4021 47.6325V60.2855C38.4021 60.8365 38.6849 61.3491 39.1509 61.6424L45.5997 65.7131C46.0845 66.0224 46.6974 66.0482 47.2073 65.7814C47.7165 65.5146 48.0446 64.9956 48.0662 64.4203C48.0878 63.8456 47.8008 63.303 47.3125 62.9986L47.3118 62.9993Z" fill="#0635C9"/>
<path d="M26.2667 16.9024C26.8936 17.5293 27.9099 17.5293 28.5368 16.9024C29.1637 16.2755 29.1637 15.2592 28.5368 14.6323L24.549 10.6445H63.4714C64.3574 10.6445 65.0763 9.9263 65.0763 9.03958C65.0763 8.15355 64.3574 7.4347 63.4714 7.4347H24.549L28.5368 3.44758C29.163 2.82068 29.163 1.80509 28.5368 1.17819C27.9099 0.551282 26.8936 0.551282 26.2667 1.17819L19.5393 7.90558C18.9131 8.53179 18.9131 9.54807 19.5393 10.175L26.2667 16.9024Z" fill="#0635C9"/>
<path d="M57.8795 14.0597C57.2526 13.4335 56.2363 13.4335 55.6101 14.0597C54.9832 14.6866 54.9832 15.7029 55.6101 16.3298L59.5973 20.3176H20.6755C19.7888 20.3176 19.0706 21.0358 19.0706 21.9225C19.0706 22.8086 19.7888 23.5274 20.6755 23.5274H59.5973L55.6101 27.5145C54.9832 28.1414 54.9832 29.1577 55.6101 29.7846C56.2363 30.4115 57.2526 30.4115 57.8795 29.7846L64.6069 23.0572C65.2338 22.4303 65.2338 21.414 64.6069 20.7871L57.8795 14.0597Z" fill="#0635C9"/>
</g>
<defs>
<clipPath id="clip0">
<rect width="82" height="82" fill="white" transform="translate(0.921143 0.708008)"/>
</clipPath>
</defs>
</svg>
