<svg width="83" height="83" viewBox="0 0 83 83" fill="none" xmlns="http://www.w3.org/2000/svg">
<path d="M51.0748 24.9943C52.8004 23.9243 54.2906 23.0004 57.2208 22.2017C59.6693 21.5342 61.9281 21.3381 63.9504 21.5869C61.0479 19.8514 57.2359 19.5228 52.8066 20.7303C49.8757 21.529 48.3863 22.453 46.6606 23.523C45.5649 24.2272 44.4285 24.8661 43.2574 25.4362C44.9879 26.1729 46.531 26.6153 47.9398 26.7764C49.0151 26.2374 50.0616 25.6426 51.0748 24.9943Z" fill="#D4E1F4"/>
<path d="M54.5868 69.2901C53.9825 62.161 52.1439 56.6347 49.1224 52.8644C48.7143 52.3576 48.197 51.9494 47.6091 51.6704C47.0212 51.3915 46.3779 51.2489 45.7271 51.2533C45.379 51.2535 45.0321 51.2945 44.6935 51.3756C44.6983 51.3816 44.7034 51.3872 44.7084 51.3931C47.7299 55.1633 49.5683 60.6897 50.1726 67.8187C50.4488 70.9952 50.4519 74.1896 50.1819 77.3666C50.1795 77.3909 50.1759 77.4146 50.1713 77.4393C50.124 77.6707 50.1402 77.9105 50.2182 78.1334C50.2962 78.3564 50.433 78.554 50.6142 78.7055C50.7953 78.857 51.0141 78.9566 51.2473 78.9939C51.4805 79.0311 51.7194 79.0046 51.9388 78.9171C52.1362 78.8643 52.3223 78.7761 52.4881 78.6567C53.3991 77.6956 54.1701 76.611 54.7783 75.4348C54.8213 73.3846 54.7574 71.3336 54.5868 69.2901Z" fill="#D4E1F4"/>
<path d="M32.351 77.3672C32.3492 77.3512 32.3438 77.296 32.335 77.208C29.4361 71.9927 28.7829 64.3391 29.2512 58.2135C29.2915 57.685 29.3328 57.1946 29.3714 56.7364C29.6192 53.7895 29.7688 52.0118 28.7723 50.4024C27.8133 48.8532 25.8586 47.6349 22.1058 45.6483C20.0369 44.5531 18.4573 42.3555 17.6576 39.4605C16.8723 36.5128 16.9396 33.4027 17.8517 30.4917C18.7646 27.6373 20.4422 25.339 22.7044 23.8452C25.347 22.1013 28.686 21.4821 32.6301 22.0052C32.7691 22.0238 32.9102 22.0467 33.052 22.0717C31.4064 21.3297 29.7279 20.7344 28.2153 20.5342C24.2711 20.0109 20.9318 20.6303 18.2896 22.3742C16.0272 23.8675 14.3497 26.1657 13.4368 29.0207C12.5246 31.9316 12.4572 35.0417 13.2426 37.9894C14.0422 40.8844 15.622 43.0824 17.6908 44.1772C21.4435 46.1632 23.3982 47.3821 24.3573 48.9313C25.3537 50.541 25.2042 52.3193 24.9566 55.2652C24.918 55.7235 24.8765 56.2143 24.8363 56.7425C24.2698 64.15 25.3406 73.7972 30.0446 78.6576C30.2106 78.7761 30.3967 78.8638 30.5937 78.9166C30.8131 79.0041 31.052 79.0307 31.2852 78.9934C31.5184 78.9562 31.7372 78.8566 31.9184 78.7051C32.0996 78.5537 32.2364 78.356 32.3144 78.1331C32.3924 77.9102 32.4086 77.6703 32.3614 77.439C32.3571 77.4154 32.3537 77.3914 32.351 77.3672Z" fill="#D4E1F4"/>
<path d="M65.874 45.9833C68.5326 44.5718 70.4705 41.6911 71.33 37.8733C72.1411 34.2698 71.8478 30.2869 70.5256 26.9476C69.2408 23.7031 67.0784 21.2396 64.2719 19.8237C61.0262 18.1858 57.0782 17.9828 52.5381 19.2205C49.3603 20.0867 47.6934 21.1203 45.9288 22.2145C44.7194 22.9643 43.4689 23.7398 41.6045 24.5191C41.5445 24.5442 41.4859 24.5728 41.4292 24.6047C40.9987 24.3705 40.4713 24.0659 39.8865 23.7281C36.9544 22.035 32.5234 19.476 28.764 18.9774C20.5863 17.892 14.3365 21.526 12.0447 28.6962C9.84812 35.5682 12.1496 43.3233 17.1751 45.9838C20.5434 47.7661 22.3863 48.8872 23.1145 50.0625C23.7872 51.1493 23.6646 52.6059 23.4423 55.2501C23.418 55.5384 23.3927 55.8409 23.3672 56.1559L21.4508 54.7466C19.0421 52.9675 16.1249 52.0105 13.1304 52.017C12.8755 52.017 12.6311 52.1183 12.4509 52.2985C12.2707 52.4787 12.1694 52.7231 12.1694 52.978C12.1694 53.2328 12.2707 53.4772 12.4509 53.6574C12.6311 53.8376 12.8755 53.9389 13.1304 53.9389C15.715 53.9335 18.2328 54.7597 20.3118 56.2954L23.2234 58.4362C23.024 63.4679 23.3528 74.1323 29.0223 79.9904C29.2972 80.2747 29.7125 80.5096 30.2922 80.7093C30.6323 80.8265 30.9895 80.8864 31.3493 80.8865C31.8111 80.893 32.2686 80.7972 32.689 80.6059C33.1093 80.4146 33.4821 80.1325 33.7804 79.7799C34.0788 79.4273 34.2953 79.0131 34.4145 78.5668C34.5336 78.1206 34.5525 77.6535 34.4696 77.1992C34.3895 76.3713 32.9961 60.7651 39.6402 52.6778C39.8788 52.3953 40.1765 52.1687 40.5123 52.0138C40.8481 51.8589 41.2137 51.7796 41.5835 51.7814C41.9532 51.7832 42.3181 51.8662 42.6523 52.0244C42.9865 52.1826 43.282 52.4122 43.5178 52.697C50.0304 60.8237 48.6594 76.3701 48.5793 77.1995C48.4707 77.8144 48.5453 78.4478 48.7938 79.0206C49.4395 80.5101 51.1801 81.2513 52.7562 80.7092C53.3358 80.5096 53.7511 80.2745 54.0258 79.9905C59.7057 74.1218 60.0254 63.4296 59.8234 58.4092L62.2181 56.5285C64.3559 54.8547 66.9917 53.9434 69.7067 53.9394C69.9615 53.9394 70.206 53.8381 70.3862 53.6579C70.5664 53.4777 70.6676 53.2333 70.6676 52.9784C70.6676 52.7236 70.5664 52.4792 70.3862 52.2989C70.206 52.1187 69.9615 52.0175 69.7067 52.0175C66.5613 52.0222 63.5076 53.078 61.031 55.0171L59.6755 56.0816C59.6522 55.7957 59.6292 55.5211 59.6071 55.2568C59.3848 52.6114 59.2624 51.1541 59.9351 50.0678C60.6623 48.8936 62.5056 47.7711 65.874 45.9833ZM57.6922 55.4178C57.7304 55.872 57.7714 56.359 57.8114 56.8822C58.3743 64.2451 57.3127 73.8309 52.6488 78.6502C52.491 78.7594 52.3159 78.8411 52.1308 78.8919C51.8365 79.0018 51.5117 78.9975 51.2204 78.8798C50.9292 78.7621 50.6926 78.5396 50.5573 78.2561C50.456 78.0217 50.4277 77.7623 50.4761 77.5116C50.481 77.4855 50.4849 77.4591 50.4876 77.4327C50.7572 74.2622 50.7542 71.0744 50.4786 67.9044C49.875 60.7852 48.0374 55.2645 45.0173 51.4952C44.6027 50.9872 44.0808 50.5772 43.4892 50.2944C42.8976 50.0117 42.2508 49.8632 41.595 49.8596C40.9393 49.856 40.2909 49.9974 39.6962 50.2737C39.1015 50.55 38.5753 50.9543 38.1551 51.4577C30.8581 60.34 32.4883 76.7394 32.5613 77.4332C32.564 77.4596 32.5679 77.4857 32.5729 77.5116C32.6212 77.7623 32.5929 78.0217 32.4917 78.2561C32.3563 78.5395 32.1197 78.7621 31.8284 78.8797C31.5372 78.9974 31.2124 79.0018 30.9181 78.8919C30.7351 78.8406 30.5615 78.7603 30.4039 78.654C25.7359 73.8309 24.6744 64.2451 25.2374 56.8822C25.2776 56.3564 25.3186 55.8675 25.357 55.4112C25.8762 49.2389 25.6512 48.2961 18.0752 44.2853C16.034 43.2047 14.4744 41.033 13.6837 38.1704C12.9053 35.249 12.9719 32.1667 13.8759 29.2817C14.8291 26.2993 18.1638 19.5104 28.5118 20.8828C31.893 21.3312 36.1253 23.7754 38.9259 25.3928C39.7677 25.8789 40.4955 26.2988 41.0329 26.5664C46.4589 29.2651 49.5372 29.0988 51.379 28.7393C51.5029 28.7151 51.6208 28.6667 51.7259 28.597C51.8311 28.5272 51.9215 28.4375 51.992 28.3328C52.0625 28.2281 52.1117 28.1106 52.1367 27.9869C52.1618 27.8632 52.1622 27.7358 52.138 27.6119C52.1138 27.4881 52.0655 27.3702 51.9957 27.265C51.926 27.1598 51.8362 27.0694 51.7315 26.999C51.6269 26.9285 51.5093 26.8793 51.3856 26.8543C51.2619 26.8292 51.1345 26.8288 51.0107 26.8529C48.9379 27.2573 46.5843 26.885 43.7045 25.6803C44.8158 25.1295 45.8958 24.5178 46.9397 23.8481C48.6533 22.7855 50.1335 21.8678 53.0416 21.075C60.5498 19.0285 66.2705 21.4273 68.7369 27.6555C69.9205 30.6445 70.1817 34.215 69.4533 37.4516C68.7297 40.6672 67.0961 43.1583 64.9712 44.2861C57.3993 48.3057 57.1741 49.2484 57.6922 55.4178Z" fill="#0635C9"/>
<path d="M41.0117 10.0314C41.2666 10.0314 41.511 9.93019 41.6912 9.74998C41.8714 9.56977 41.9727 9.32535 41.9727 9.07049V3.05054C41.9727 2.79568 41.8714 2.55126 41.6912 2.37105C41.511 2.19084 41.2666 2.0896 41.0117 2.0896C40.7569 2.0896 40.5124 2.19084 40.3322 2.37105C40.152 2.55126 40.0508 2.79568 40.0508 3.05054V9.07049C40.0508 9.32535 40.152 9.56977 40.3322 9.74998C40.5124 9.93019 40.7569 10.0314 41.0117 10.0314Z" fill="#1AE5BE"/>
<path d="M58.6735 12.2156C58.8207 12.2158 58.966 12.1821 59.0982 12.1171C59.2303 12.0521 59.3457 11.9576 59.4355 11.8409L64.9165 4.72416C65.0702 4.52211 65.1377 4.26746 65.1042 4.01582C65.0708 3.76419 64.9391 3.53601 64.738 3.38111C64.5369 3.22622 64.2826 3.1572 64.0308 3.18912C63.779 3.22104 63.55 3.35132 63.3939 3.55149L57.9129 10.6682C57.8033 10.8104 57.7358 10.9804 57.7179 11.1589C57.7 11.3375 57.7325 11.5175 57.8117 11.6786C57.8908 11.8396 58.0135 11.9753 58.1658 12.0702C58.3181 12.1651 58.494 12.2155 58.6735 12.2156Z" fill="#1AE5BE"/>
<path d="M24.3273 12.2156C24.5068 12.2155 24.6826 12.1651 24.8349 12.0702C24.9872 11.9753 25.1099 11.8396 25.1891 11.6786C25.2682 11.5175 25.3007 11.3375 25.2828 11.1589C25.2649 10.9804 25.1974 10.8104 25.0879 10.6682L19.607 3.55149C19.4509 3.35132 19.2219 3.22104 18.9701 3.18912C18.7183 3.1572 18.464 3.22622 18.2629 3.38111C18.0618 3.53601 17.9301 3.76419 17.8967 4.01582C17.8632 4.26746 17.9307 4.52211 18.0844 4.72416L23.5654 11.8409C23.6551 11.9576 23.7705 12.0521 23.9026 12.1171C24.0348 12.1821 24.1801 12.2158 24.3273 12.2156Z" fill="#1AE5BE"/>
<path d="M36.2877 31.5838L37.4471 32.863C38.0627 33.5424 38.8701 34.0188 39.7625 34.2291C40.6548 34.4394 41.59 34.3736 42.4442 34.0406C43.2983 33.7076 44.0312 33.123 44.5457 32.3641C45.0602 31.6053 45.3321 30.7081 45.3253 29.7914L45.3047 26.9596C45.3028 26.706 45.2008 26.4634 45.0208 26.2847C44.8407 26.106 44.5974 26.0057 44.3437 26.0057H44.3365C44.2104 26.0067 44.0856 26.0324 43.9693 26.0816C43.8531 26.1307 43.7477 26.2023 43.6591 26.2922C43.5705 26.3821 43.5005 26.4885 43.4531 26.6055C43.4057 26.7224 43.3817 26.8475 43.3827 26.9737L43.4033 29.8054C43.4072 30.3329 43.2508 30.8491 42.9548 31.2857C42.6588 31.7222 42.2372 32.0586 41.7458 32.2502C41.2543 32.4418 40.7163 32.4796 40.2029 32.3585C39.6895 32.2375 39.225 31.9634 38.8709 31.5725L37.7115 30.2933C37.3822 29.9298 36.9787 29.6412 36.5282 29.4471C36.0778 29.2529 35.5909 29.1577 35.1005 29.1679C34.6102 29.1781 34.1277 29.2934 33.6857 29.506C33.2437 29.7187 32.8525 30.0238 32.5385 30.4006C32.4403 30.5183 32.3185 30.6141 32.181 30.6818C32.0435 30.7494 31.8933 30.7875 31.7401 30.7935L30.5726 30.8383C30.4277 30.8439 30.2832 30.8206 30.1474 30.7698C30.0117 30.719 29.8873 30.6418 29.7817 30.5426C29.676 30.4434 29.5911 30.3241 29.5319 30.1918C29.4727 30.0595 29.4404 29.9167 29.4369 29.7718L29.3839 27.5999C29.3735 27.1742 29.2731 26.7555 29.0893 26.3714C28.9054 25.9873 28.6423 25.6464 28.3173 25.3713C27.9922 25.0962 27.6126 24.893 27.2034 24.7752C26.7942 24.6574 26.3647 24.6275 25.9431 24.6877C25.7578 24.7141 25.5689 24.6926 25.3944 24.6252C25.2198 24.5578 25.0655 24.4468 24.9461 24.3027C24.8267 24.1586 24.7462 23.9863 24.7124 23.8023C24.6786 23.6183 24.6926 23.4286 24.753 23.2515L25.8332 20.0832C25.8739 19.9637 25.8907 19.8374 25.8827 19.7115C25.8746 19.5856 25.8418 19.4625 25.7861 19.3492C25.7305 19.2359 25.653 19.1348 25.5583 19.0514C25.4635 18.9681 25.3533 18.9042 25.2338 18.8635C25.1144 18.8228 24.9881 18.806 24.8622 18.814C24.7362 18.8221 24.6131 18.8549 24.4999 18.9106C24.3866 18.9662 24.2854 19.0437 24.2021 19.1384C24.1187 19.2332 24.0549 19.3434 24.0142 19.4629L22.9339 22.6313C22.7674 23.1195 22.7289 23.6423 22.8221 24.1496C22.9153 24.657 23.1371 25.1319 23.4662 25.5291C23.7954 25.9263 24.2209 26.2324 24.7021 26.4181C25.1834 26.6039 25.7042 26.6631 26.2149 26.5902C26.3679 26.5682 26.5239 26.5789 26.6725 26.6216C26.8211 26.6643 26.959 26.738 27.077 26.8379C27.1951 26.9378 27.2906 27.0616 27.3573 27.2011C27.424 27.3405 27.4604 27.4926 27.4641 27.6472L27.5171 29.8191C27.5268 30.2185 27.6158 30.612 27.7789 30.9768C27.942 31.3415 28.176 31.6702 28.4672 31.9438C28.7584 32.2174 29.101 32.4304 29.4752 32.5704C29.8495 32.7105 30.2478 32.7747 30.647 32.7595L31.8147 32.7145C32.2369 32.698 32.6509 32.5931 33.03 32.4066C33.4091 32.22 33.7449 31.9561 34.0156 31.6317C34.1534 31.4661 34.3252 31.3321 34.5193 31.2386C34.7134 31.1451 34.9253 31.0944 35.1407 31.0899C35.3561 31.0853 35.57 31.127 35.7678 31.2122C35.9657 31.2974 36.143 31.4241 36.2877 31.5837V31.5838Z" fill="#1AE5BE"/>
</svg>
