<svg width="83" height="83" viewBox="0 0 83 83" fill="none" xmlns="http://www.w3.org/2000/svg">
<path d="M51.4287 25.3193C53.1542 24.2493 54.6445 23.3253 57.5747 22.5266C60.0232 21.8591 62.282 21.6631 64.3043 21.9118C61.4018 20.1763 57.5898 19.8477 53.1605 21.0553C50.2296 21.854 48.7402 22.7779 47.0145 23.8479C45.9188 24.5522 44.7824 25.191 43.6113 25.7611C45.3418 26.4979 46.8849 26.9402 48.2937 27.1013C49.369 26.5624 50.4155 25.9675 51.4287 25.3193Z" fill="#D4E1F4"/>
<path d="M54.9402 69.615C54.3359 62.486 52.4973 56.9596 49.4758 53.1894C49.0677 52.6825 48.5504 52.2744 47.9625 51.9954C47.3746 51.7164 46.7312 51.5738 46.0805 51.5782C45.7324 51.5784 45.3854 51.6195 45.0469 51.7006C45.0517 51.7065 45.0568 51.7121 45.0618 51.718C48.0833 55.4883 49.9217 61.0146 50.526 68.1437C50.8022 71.3202 50.8053 74.5145 50.5353 77.6915C50.5329 77.7159 50.5293 77.7396 50.5247 77.7643C50.4774 77.9956 50.4936 78.2355 50.5716 78.4584C50.6496 78.6813 50.7864 78.879 50.9676 79.0304C51.1487 79.1819 51.3675 79.2816 51.6007 79.3188C51.8339 79.3561 52.0728 79.3295 52.2922 79.242C52.4896 79.1892 52.6757 79.101 52.8415 78.9816C53.7525 78.0206 54.5235 76.936 55.1317 75.7597C55.1747 73.7096 55.1108 71.6585 54.9402 69.615Z" fill="#D4E1F4"/>
<path d="M32.7049 77.6922C32.7031 77.6762 32.6976 77.6209 32.6888 77.533C29.79 72.3176 29.1367 64.6641 29.605 58.5384C29.6454 58.0099 29.6867 57.5195 29.7253 57.0613C29.9731 54.1144 30.1227 52.3367 29.1262 50.7273C28.1671 49.1781 26.2124 47.9598 22.4597 45.9732C20.3908 44.8781 18.8111 42.6804 18.0115 39.7854C17.2262 36.8377 17.2935 33.7277 18.2056 30.8167C19.1185 27.9622 20.7961 25.664 23.0583 24.1702C25.7009 22.4263 29.0398 21.8071 32.984 22.3302C33.123 22.3487 33.2641 22.3716 33.4059 22.3966C31.7603 21.6546 30.0818 21.0593 28.5691 20.8591C24.625 20.3359 21.2857 20.9552 18.6435 22.6992C16.3811 24.1925 14.7036 26.4907 13.7907 29.3456C12.8785 32.2566 12.8111 35.3667 13.5965 38.3144C14.3961 41.2094 15.9759 43.4074 18.0446 44.5022C21.7974 46.4881 23.7521 47.7071 24.7111 49.2563C25.7076 50.866 25.558 52.6442 25.3104 55.5901C25.2718 56.0485 25.2304 56.5392 25.1902 57.0674C24.6237 64.475 25.6945 74.1221 30.3984 78.9826C30.5645 79.1011 30.7505 79.1888 30.9476 79.2415C31.167 79.3291 31.4059 79.3556 31.6391 79.3184C31.8723 79.2812 32.0911 79.1815 32.2723 79.0301C32.4535 78.8786 32.5903 78.681 32.6683 78.4581C32.7463 78.2352 32.7625 77.9953 32.7153 77.7639C32.7109 77.7404 32.7076 77.7164 32.7049 77.6922Z" fill="#D4E1F4"/>
<path d="M66.2276 46.3083C68.8862 44.8968 70.8241 42.0161 71.6837 38.1983C72.4947 34.5948 72.2015 30.6118 70.8792 27.2726C69.5944 24.0281 67.432 21.5646 64.6256 20.1487C61.3799 18.5107 57.4318 18.3078 52.8917 19.5455C49.7139 20.4116 48.047 21.4453 46.2824 22.5395C45.0731 23.2893 43.8226 24.0648 41.9582 24.8441C41.8981 24.8692 41.8396 24.8978 41.7828 24.9297C41.3523 24.6955 40.8249 24.3909 40.2402 24.0531C37.308 22.3599 32.877 19.801 29.1177 19.3024C20.9399 18.217 14.6901 21.851 12.3983 29.0212C10.2018 35.8931 12.5032 43.6482 17.5287 46.3088C20.897 48.0911 22.7399 49.2122 23.4681 50.3874C24.1408 51.4743 24.0183 52.9309 23.796 55.5751C23.7716 55.8633 23.7463 56.1659 23.7209 56.4809L21.8044 55.0715C19.3957 53.2924 16.4785 52.3354 13.484 52.342C13.2291 52.342 12.9847 52.4432 12.8045 52.6234C12.6243 52.8037 12.5231 53.0481 12.5231 53.3029C12.5231 53.5578 12.6243 53.8022 12.8045 53.9824C12.9847 54.1626 13.2291 54.2639 13.484 54.2639C16.0687 54.2584 18.5865 55.0847 20.6654 56.6204L23.577 58.7612C23.3777 63.7928 23.7065 74.4573 29.376 80.3154C29.6508 80.5996 30.0661 80.8346 30.6459 81.0343C30.986 81.1515 31.3432 81.2114 31.7029 81.2114C32.1647 81.218 32.6222 81.1222 33.0426 80.9309C33.463 80.7395 33.8357 80.4575 34.1341 80.1049C34.4324 79.7523 34.649 79.3381 34.7681 78.8918C34.8873 78.4456 34.9061 77.9785 34.8232 77.5242C34.7431 76.6963 33.3498 61.09 39.9939 53.0028C40.2325 52.7203 40.5302 52.4937 40.8659 52.3388C41.2017 52.1839 41.5674 52.1046 41.9371 52.1064C42.3069 52.1082 42.6717 52.1912 43.006 52.3494C43.3402 52.5076 43.6356 52.7372 43.8714 53.022C50.384 61.1487 49.0131 76.695 48.933 77.5245C48.8243 78.1394 48.8989 78.7727 49.1474 79.3456C49.7932 80.8351 51.5338 81.5763 53.1099 81.0341C53.6895 80.8346 54.1048 80.5995 54.3794 80.3155C60.0594 74.4468 60.379 63.7546 60.1771 58.7341L62.5717 56.8534C64.7095 55.1797 67.3453 54.2684 70.0603 54.2643C70.3152 54.2643 70.5596 54.1631 70.7398 53.9829C70.92 53.8027 71.0213 53.5583 71.0213 53.3034C71.0213 53.0486 70.92 52.8041 70.7398 52.6239C70.5596 52.4437 70.3152 52.3425 70.0603 52.3425C66.9149 52.3472 63.8613 53.403 61.3847 55.342L60.0291 56.4066C60.0059 56.1207 59.9828 55.8461 59.9607 55.5818C59.7384 52.9363 59.6161 51.4791 60.2887 50.3927C61.016 49.2186 62.8592 48.0961 66.2276 46.3083ZM58.0459 55.7428C58.084 56.197 58.125 56.684 58.165 57.2072C58.728 64.5701 57.6663 74.1559 53.0024 78.9752C52.8446 79.0844 52.6695 79.1661 52.4844 79.2169C52.1902 79.3268 51.8654 79.3225 51.5741 79.2048C51.2828 79.0871 51.0462 78.8646 50.9109 78.581C50.8096 78.3467 50.7813 78.0873 50.8297 77.8366C50.8347 77.8105 50.8385 77.7841 50.8412 77.7577C51.1108 74.5871 51.1078 71.3993 50.8323 68.2293C50.2286 61.1102 48.391 55.5895 45.371 51.8202C44.9563 51.3122 44.4345 50.9022 43.8429 50.6194C43.2512 50.3366 42.6044 50.1882 41.9487 50.1846C41.2929 50.181 40.6445 50.3224 40.0499 50.5987C39.4552 50.875 38.9289 51.2793 38.5087 51.7827C31.2117 60.665 32.8419 77.0644 32.915 77.7581C32.9177 77.7846 32.9215 77.8107 32.9265 77.8366C32.9748 78.0873 32.9465 78.3467 32.8453 78.581C32.7099 78.8645 32.4733 79.087 32.1821 79.2047C31.8908 79.3224 31.566 79.3267 31.2718 79.2169C31.0887 79.1655 30.9151 79.0853 30.7575 78.979C26.0896 74.1559 25.0281 64.5701 25.591 57.2072C25.6312 56.6814 25.6722 56.1925 25.7106 55.7362C26.2299 49.5639 26.0049 48.6211 18.4288 44.6103C16.3876 43.5297 14.828 41.358 14.0373 38.4954C13.2589 35.574 13.3256 32.4917 14.2295 29.6067C15.1828 26.6243 18.5174 19.8354 28.8654 21.2078C32.2466 21.6562 36.4789 24.1004 39.2796 25.7178C40.1213 26.2039 40.8491 26.6238 41.3866 26.8914C46.8125 29.59 49.8909 29.4238 51.7327 29.0642C51.8565 29.0401 51.9744 28.9917 52.0796 28.922C52.1848 28.8522 52.2752 28.7624 52.3456 28.6578C52.4161 28.5531 52.4653 28.4355 52.4903 28.3119C52.5154 28.1882 52.5158 28.0608 52.4917 27.9369C52.4675 27.813 52.4191 27.6952 52.3494 27.59C52.2796 27.4848 52.1899 27.3944 52.0852 27.3239C51.9805 27.2535 51.863 27.2043 51.7393 27.1792C51.6156 27.1542 51.4882 27.1537 51.3643 27.1779C49.2916 27.5823 46.9379 27.21 44.0581 26.0053C45.1694 25.4545 46.2494 24.8428 47.2933 24.1731C49.007 23.1104 50.4871 22.1927 53.3953 21.4C60.9034 19.3535 66.6242 21.7523 69.0906 27.9805C70.2741 30.9695 70.5353 34.54 69.807 37.7766C69.0834 40.9922 67.4498 43.4833 65.3248 44.6111C57.753 48.6307 57.5278 49.5734 58.0459 55.7428Z" fill="#0635C9"/>
<path d="M41.3652 10.3564C41.6201 10.3564 41.8645 10.2551 42.0447 10.0749C42.2249 9.89472 42.3262 9.6503 42.3262 9.39544V3.37549C42.3262 3.12063 42.2249 2.87621 42.0447 2.696C41.8645 2.51579 41.6201 2.41455 41.3652 2.41455C41.1104 2.41455 40.866 2.51579 40.6857 2.696C40.5055 2.87621 40.4043 3.12063 40.4043 3.37549V9.39544C40.4043 9.6503 40.5055 9.89472 40.6857 10.0749C40.866 10.2551 41.1104 10.3564 41.3652 10.3564Z" fill="#FFA552"/>
<path d="M59.0267 12.5406C59.174 12.5408 59.3193 12.5071 59.4514 12.4421C59.5836 12.3771 59.699 12.2826 59.7887 12.1658L65.2698 5.04914C65.4235 4.84709 65.4909 4.59244 65.4575 4.3408C65.424 4.08917 65.2924 3.86099 65.0913 3.70609C64.8902 3.5512 64.6359 3.48218 64.3841 3.5141C64.1323 3.54602 63.9033 3.6763 63.7472 3.87647L58.2661 10.9932C58.1566 11.1353 58.0891 11.3053 58.0712 11.4839C58.0533 11.6625 58.0858 11.8425 58.1649 12.0035C58.2441 12.1646 58.3668 12.3003 58.5191 12.3952C58.6714 12.4901 58.8473 12.5405 59.0267 12.5406Z" fill="#FFA552"/>
<path d="M24.6807 12.5406C24.8601 12.5405 25.036 12.4901 25.1883 12.3952C25.3406 12.3003 25.4633 12.1646 25.5425 12.0035C25.6216 11.8425 25.6541 11.6625 25.6362 11.4839C25.6183 11.3053 25.5508 11.1353 25.4413 10.9932L19.9604 3.87647C19.8043 3.6763 19.5753 3.54602 19.3235 3.5141C19.0716 3.48218 18.8174 3.5512 18.6163 3.70609C18.4152 3.86099 18.2835 4.08917 18.2501 4.3408C18.2166 4.59244 18.2841 4.84709 18.4378 5.04914L23.9188 12.1658C24.0085 12.2826 24.1239 12.3771 24.256 12.4421C24.3881 12.5071 24.5334 12.5408 24.6807 12.5406Z" fill="#FFA552"/>
<path d="M36.6412 31.9088L37.8006 33.1879C38.4162 33.8673 39.2236 34.3437 40.116 34.554C41.0083 34.7643 41.9435 34.6986 42.7977 34.3656C43.6518 34.0325 44.3847 33.4479 44.8992 32.6891C45.4137 31.9303 45.6856 31.0331 45.6789 30.1163L45.6582 27.2846C45.6563 27.031 45.5543 26.7883 45.3743 26.6097C45.1943 26.431 44.9509 26.3307 44.6973 26.3307H44.6901C44.5639 26.3316 44.4391 26.3574 44.3229 26.4065C44.2066 26.4557 44.1012 26.5272 44.0126 26.6171C43.924 26.707 43.854 26.8135 43.8066 26.9304C43.7592 27.0473 43.7352 27.1725 43.7362 27.2987L43.7568 30.1304C43.7607 30.6578 43.6044 31.174 43.3084 31.6106C43.0124 32.0472 42.5907 32.3835 42.0993 32.5751C41.6078 32.7667 41.0698 32.8045 40.5564 32.6835C40.043 32.5625 39.5785 32.2883 39.2244 31.8974L38.065 30.6182C37.7357 30.2547 37.3322 29.9662 36.8817 29.772C36.4313 29.5779 35.9444 29.4827 35.4541 29.4928C34.9637 29.503 34.4812 29.6183 34.0392 29.831C33.5972 30.0436 33.206 30.3487 32.892 30.7255C32.7938 30.8432 32.672 30.939 32.5345 31.0067C32.397 31.0744 32.2468 31.1124 32.0936 31.1184L30.9261 31.1632C30.7812 31.1688 30.6367 31.1455 30.501 31.0948C30.3652 31.044 30.2408 30.9668 30.1352 30.8675C30.0295 30.7683 29.9446 30.6491 29.8854 30.5168C29.8263 30.3844 29.7939 30.2417 29.7904 30.0968L29.7374 27.9249C29.727 27.4992 29.6266 27.0805 29.4428 26.6964C29.259 26.3122 28.9959 25.9714 28.6708 25.6963C28.3458 25.4212 27.9661 25.218 27.5569 25.1002C27.1477 24.9823 26.7182 24.9525 26.2966 25.0126C26.1114 25.0391 25.9224 25.0176 25.7479 24.9502C25.5733 24.8828 25.419 24.7717 25.2996 24.6276C25.1802 24.4836 25.0998 24.3113 25.0659 24.1273C25.0321 23.9432 25.0461 23.7536 25.1065 23.5765L26.1867 20.4081C26.2275 20.2887 26.2443 20.1624 26.2362 20.0364C26.2281 19.9105 26.1953 19.7874 26.1396 19.6741C26.084 19.5609 26.0066 19.4597 25.9118 19.3764C25.817 19.293 25.7068 19.2292 25.5873 19.1884C25.4679 19.1477 25.3416 19.1309 25.2157 19.139C25.0897 19.1471 24.9666 19.1799 24.8534 19.2355C24.7401 19.2912 24.6389 19.3686 24.5556 19.4634C24.4723 19.5581 24.4084 19.6684 24.3677 19.7878L23.2874 22.9562C23.1209 23.4444 23.0824 23.9672 23.1756 24.4746C23.2688 24.9819 23.4906 25.4569 23.8197 25.854C24.1489 26.2512 24.5744 26.5573 25.0557 26.7431C25.5369 26.9289 26.0577 26.9881 26.5684 26.9151C26.7214 26.8931 26.8774 26.9038 27.026 26.9465C27.1746 26.9893 27.3125 27.063 27.4306 27.1629C27.5486 27.2627 27.6441 27.3865 27.7108 27.526C27.7776 27.6655 27.8139 27.8175 27.8176 27.9721L27.8706 30.144C27.8803 30.5435 27.9693 30.937 28.1324 31.3017C28.2955 31.6665 28.5295 31.9952 28.8207 32.2688C29.1119 32.5424 29.4545 32.7553 29.8288 32.8954C30.203 33.0354 30.6013 33.0997 31.0005 33.0845L32.1682 33.0395C32.5904 33.0229 33.0044 32.918 33.3835 32.7315C33.7626 32.545 34.0984 32.281 34.3691 31.9567C34.507 31.7911 34.6787 31.6571 34.8728 31.5636C35.0669 31.4701 35.2788 31.4194 35.4942 31.4148C35.7096 31.4103 35.9235 31.452 36.1214 31.5372C36.3192 31.6224 36.4965 31.749 36.6412 31.9086V31.9088Z" fill="#FFA552"/>
</svg>
