<svg width="83" height="83" viewBox="0 0 83 83" fill="none" xmlns="http://www.w3.org/2000/svg">
<path d="M48.0692 7.0232C49.0942 6.38802 49.9786 5.83932 51.7184 5.3651C53.014 4.98543 54.3711 4.8614 55.7141 4.99995C53.9907 3.96966 51.7274 3.77443 49.0974 4.49145C47.3578 4.96567 46.4728 5.51437 45.4483 6.14955C44.7977 6.56773 44.1231 6.94705 43.4277 7.28554C44.3114 7.68294 45.2477 7.95096 46.2077 8.08135C46.8462 7.76132 47.4676 7.40812 48.0692 7.0232Z" fill="#D4E1F4"/>
<path d="M50.1545 33.3236C49.7957 29.0908 48.7041 25.8095 46.91 23.571C46.6678 23.27 46.3606 23.0276 46.0115 22.862C45.6624 22.6963 45.2804 22.6116 44.894 22.6143C44.6873 22.6144 44.4813 22.6388 44.2803 22.687C44.2832 22.6905 44.2862 22.6937 44.2891 22.6974C46.0828 24.9359 47.1748 28.2172 47.5335 32.4499C47.6975 34.3361 47.6993 36.2329 47.539 38.1195C47.5375 38.1339 47.5355 38.1483 47.5327 38.1625C47.5047 38.2999 47.5143 38.4424 47.5606 38.5747C47.6069 38.7071 47.6881 38.8245 47.7957 38.9144C47.9033 39.0044 48.0332 39.0635 48.1716 39.0856C48.3101 39.1078 48.452 39.092 48.5822 39.04C48.6994 39.0087 48.8099 38.9563 48.9083 38.8853C49.4493 38.3148 49.9072 37.6708 50.2685 36.9724C50.2939 35.755 50.2559 34.5371 50.1545 33.3236Z" fill="#D4E1F4"/>
<path d="M36.9521 38.1196C36.951 38.1097 36.9478 38.0773 36.943 38.0251C35.2218 34.9285 34.8339 30.3842 35.1119 26.7474C35.136 26.434 35.16 26.1425 35.1834 25.8704C35.3306 24.1212 35.4193 23.0654 34.8277 22.1096C34.2582 21.1898 33.098 20.4664 30.8694 19.2868C29.641 18.6366 28.7031 17.3318 28.2283 15.6129C27.762 13.8628 27.802 12.0163 28.3436 10.288C28.8854 8.59305 29.8811 7.229 31.225 6.34189C32.7945 5.30632 34.7766 4.93876 37.1187 5.24947C37.2013 5.26036 37.2851 5.27397 37.3692 5.28887C36.3922 4.84828 35.3956 4.49481 34.4977 4.37597C32.1559 4.06527 30.1735 4.43283 28.604 5.4684C27.2606 6.35503 26.2643 7.71972 25.7225 9.41449C25.1809 11.1428 25.141 12.9893 25.6072 14.7394C26.082 16.4583 27.0199 17.7631 28.2483 18.4134C30.4765 19.5929 31.6372 20.3163 32.2066 21.2361C32.7982 22.1919 32.7094 23.2477 32.5623 24.9969C32.5394 25.2692 32.5142 25.5605 32.491 25.8739C32.1547 30.2723 32.7903 36.0003 35.5833 38.8861C35.6818 38.9563 35.792 39.0084 35.9087 39.0399C36.039 39.0919 36.1808 39.1077 36.3193 39.0856C36.4578 39.0635 36.5877 39.0043 36.6953 38.9144C36.8029 38.8245 36.8841 38.7071 36.9304 38.5747C36.9767 38.4424 36.9863 38.2999 36.9582 38.1625C36.9558 38.1482 36.9537 38.1339 36.9521 38.1196Z" fill="#D4E1F4"/>
<path d="M23.2706 70.0037V79.2244C23.2706 79.398 23.3176 79.5683 23.4067 79.7173C23.4957 79.8663 23.6235 79.9884 23.7764 80.0706C23.9292 80.1529 24.1015 80.1921 24.2749 80.1843C24.4483 80.1765 24.6164 80.1218 24.7612 80.0261L39.3417 70.3924C39.4742 70.3049 39.583 70.1858 39.6583 70.0459C39.7335 69.906 39.7729 69.7496 39.773 69.5907V58.846C39.773 58.6667 39.7228 58.491 39.6282 58.3387C39.5336 58.1865 39.3983 58.0637 39.2376 57.9843C39.0768 57.9049 38.8971 57.8721 38.7187 57.8895C38.5403 57.9069 38.3703 57.9739 38.2279 58.0828L36.6597 59.283C36.6076 59.0343 36.574 58.7821 36.5591 58.5284L36.4382 56.4463C36.4367 56.4201 36.434 56.3938 36.4305 56.3677C36.1431 54.2965 35.2881 52.3453 33.9602 50.7301C32.6323 49.1148 30.8833 47.8985 28.9068 47.2159L28.2297 46.98C27.3076 46.6577 26.4699 46.1323 25.7783 45.4425L22.5075 42.1716L21.3897 38.3892C21.117 37.3799 20.5482 36.4754 19.7566 35.7924C18.965 35.1093 17.987 34.6791 16.9486 34.5571L16.7843 34.0109C16.782 34.0033 16.7795 33.9948 16.7771 33.9878C16.2457 32.364 14.5009 31.3098 12.7056 31.3905L12.6744 31.2861C12.3275 30.1198 11.544 29.1323 10.4871 28.5293C9.43026 27.9263 8.1815 27.7544 7.00098 28.0492C6.76324 28.1082 6.55701 28.2557 6.42443 28.4617C6.29184 28.6677 6.24292 28.9165 6.28764 29.1573L9.89372 48.562C9.90214 48.6067 9.91365 48.6508 9.92816 48.694C10.7828 51.2063 12.4185 53.3794 14.5964 54.8957L22.4713 60.3215C22.4882 60.3332 22.5055 60.3442 22.5233 60.3548C23.0719 60.6821 23.4763 61.205 23.655 61.8183L24.9734 67.6698C25.0073 67.8179 25.0762 67.9558 25.1742 68.0719L23.6471 69.2411C23.5301 69.3308 23.4352 69.4462 23.3699 69.5785C23.3046 69.7107 23.2706 69.8562 23.2706 70.0037ZM37.8511 69.0739L25.1925 77.4377V70.4784L37.8511 60.7912V69.0739ZM19.5356 38.8971C19.5379 38.9055 19.5403 38.914 19.5427 38.9224L19.8444 39.943C19.3933 39.7233 18.9146 39.5652 18.4214 39.473L17.5873 36.6896C18.0606 36.8819 18.4828 37.1814 18.8209 37.5644C19.1589 37.9474 19.4036 38.4036 19.5356 38.8971ZM14.9478 34.5757L16.4119 39.4605C16.0046 39.5313 15.6064 39.6469 15.2245 39.8051L15.1925 39.7023L13.2894 33.3406C14.0506 33.4641 14.7317 33.9322 14.9478 34.5757ZM25.5237 61.3686C25.5198 61.3518 25.5155 61.3351 25.5109 61.3183C25.2062 60.2341 24.5009 59.3062 23.5379 58.7223L15.6891 53.3148C13.8696 52.0474 12.4979 50.2365 11.7706 48.1418L8.36984 29.8396C8.93399 29.8852 9.47116 30.1004 9.91084 30.4568C10.3505 30.8132 10.6721 31.2942 10.8335 31.8367L13.3542 40.2626L13.5491 40.8894C13.504 40.9317 13.4586 40.9732 13.4148 41.0175C13.323 41.1094 13.2508 41.2189 13.2025 41.3394C13.1543 41.4599 13.1309 41.589 13.1339 41.7188C13.1369 41.8486 13.1662 41.9765 13.22 42.0946C13.2737 42.2128 13.3509 42.3189 13.4468 42.4064L17.3921 46.0099C18.5357 47.055 19.5816 48.2022 20.5169 49.4373C20.593 49.5379 20.6883 49.6225 20.7971 49.6864C20.906 49.7502 21.0264 49.7919 21.1514 49.8092C21.2764 49.8265 21.4036 49.8191 21.5257 49.7872C21.6478 49.7554 21.7625 49.6998 21.8631 49.6236C21.9637 49.5474 22.0484 49.4522 22.1122 49.3433C22.176 49.2345 22.2178 49.1141 22.2351 48.9891C22.2524 48.8641 22.2449 48.7369 22.213 48.6148C22.1812 48.4927 22.1256 48.378 22.0494 48.2774C21.0435 46.9489 19.9184 45.715 18.6882 44.5909L15.5881 41.7603C16.2899 41.3712 17.0992 41.2208 17.894 41.3319C18.6887 41.4429 19.4258 41.8094 19.9941 42.376L24.4191 46.8011C25.3157 47.6956 26.402 48.3769 27.5976 48.7947L28.2749 49.0306C29.9111 49.5958 31.3598 50.6012 32.4617 51.9363C33.5636 53.2713 34.2762 54.8843 34.5209 56.598L34.6395 58.6398C34.6768 59.2876 34.8035 59.9271 35.016 60.5401L26.7601 66.8581L25.5237 61.3686Z" fill="#0635C9"/>
<path d="M76.8243 28.0492C75.6439 27.7544 74.3952 27.9263 73.3383 28.5293C72.2815 29.1322 71.498 30.1196 71.1511 31.2858L71.1191 31.3905C69.3239 31.3104 67.5796 32.364 67.0476 33.9878C67.0452 33.9955 67.0426 34.0038 67.0404 34.0108L66.8768 34.5568C65.8385 34.6788 64.8604 35.109 64.0688 35.792C63.2772 36.475 62.7084 37.3795 62.4357 38.3889L61.3181 42.1711L58.0469 45.4422C57.3555 46.1319 56.5177 46.6574 55.5958 46.9797L54.9188 47.2152C52.9423 47.8979 51.1933 49.1142 49.8653 50.7295C48.5374 52.3447 47.6824 54.296 47.395 56.3672C47.3914 56.3933 47.3887 56.4196 47.3873 56.4459L47.2663 58.5279C47.2515 58.7815 47.2178 59.0337 47.1658 59.2824L45.5975 58.0822C45.4552 57.9732 45.2852 57.9062 45.1068 57.8888C44.9283 57.8714 44.7486 57.9043 44.5879 57.9836C44.4271 58.063 44.2918 58.1858 44.1972 58.3381C44.1026 58.4903 44.0525 58.666 44.0525 58.8453V69.59C44.0525 69.7489 44.0919 69.9053 44.1672 70.0452C44.2424 70.1851 44.3512 70.3042 44.4838 70.3918L59.0657 80.0261C59.2105 80.1215 59.3784 80.1759 59.5517 80.1836C59.7249 80.1913 59.897 80.1519 60.0497 80.0697C60.2024 79.9875 60.33 79.8656 60.419 79.7168C60.5079 79.5679 60.555 79.3978 60.5552 79.2244V70.0037C60.5552 69.8561 60.5212 69.7105 60.4558 69.5781C60.3905 69.4458 60.2955 69.3303 60.1783 69.2406L58.6512 68.0714C58.7493 67.9553 58.8181 67.8174 58.852 67.6693L60.1708 61.8183C60.3495 61.205 60.7538 60.6821 61.3024 60.3548C61.3202 60.3442 61.3375 60.3332 61.3545 60.3215L69.2315 54.8941C71.4084 53.378 73.0434 51.2055 73.8976 48.694C73.9121 48.6508 73.9236 48.6067 73.932 48.562L77.5376 29.1573C77.5824 28.9165 77.5334 28.6677 77.4009 28.4617C77.2683 28.2557 77.062 28.1082 76.8243 28.0492ZM68.878 34.5757C69.0939 33.9327 69.7749 33.4639 70.5364 33.3404L68.6357 39.6943L68.6014 39.8056C68.2195 39.6474 67.8213 39.5319 67.414 39.4611L68.878 34.5757ZM64.2902 38.897C64.4222 38.4036 64.6669 37.9474 65.0049 37.5644C65.343 37.1814 65.7652 36.8819 66.2385 36.6896L65.4044 39.473C64.9111 39.5652 64.4325 39.7234 63.9814 39.9432L64.2831 38.9223C64.2855 38.9131 64.2879 38.9049 64.2902 38.897ZM58.6333 77.4377L45.9747 69.0738V60.7912L58.6333 70.4784V77.4377ZM72.0544 48.1424C71.3274 50.2361 69.9565 52.0461 68.1381 53.3132L60.2871 58.7223C59.3242 59.3065 58.6193 60.2346 58.3149 61.3189C58.3102 61.3349 58.3059 61.3524 58.3021 61.3692L57.065 66.8586L48.8091 60.5407C49.0216 59.9277 49.1483 59.2882 49.1857 58.6405L49.3042 56.5985C49.549 54.8848 50.2615 53.2717 51.3634 51.9367C52.4654 50.6016 53.9141 49.5962 55.5503 49.0309L56.228 48.7947C57.4237 48.3769 58.51 47.6955 59.4067 46.8011L63.8316 42.3761C64.3998 41.8093 65.1369 41.4426 65.9317 41.3315C66.7265 41.2205 67.5359 41.371 68.2377 41.7603L65.139 44.5909C63.9088 45.715 62.7837 46.9489 61.7778 48.2774C61.624 48.4806 61.5572 48.7366 61.5922 48.9891C61.6271 49.2415 61.7609 49.4698 61.9641 49.6236C62.1674 49.7774 62.4234 49.8442 62.6758 49.8092C62.9283 49.7743 63.1565 49.6405 63.3103 49.4372C64.2456 48.2022 65.2915 47.055 66.4351 46.0099L70.3804 42.4064C70.4763 42.3189 70.5535 42.2128 70.6073 42.0946C70.661 41.9765 70.6903 41.8486 70.6933 41.7188C70.6963 41.589 70.6729 41.4599 70.6247 41.3394C70.5764 41.2189 70.5042 41.1094 70.4125 41.0175C70.3686 40.9735 70.3232 40.932 70.2781 40.8894L70.4749 40.2537L72.9931 31.8364C73.1544 31.2939 73.476 30.8129 73.9157 30.4566C74.3553 30.1002 74.8925 29.8851 75.4566 29.8396L72.0544 48.1424Z" fill="#0635C9"/>
<path d="M30.702 22.2991C31.0183 22.81 30.9725 23.5353 30.8386 25.1274C30.8153 25.401 30.7905 25.6939 30.7667 26.0091C30.6275 27.8283 30.5841 30.603 31.167 33.4906C31.7407 36.3334 32.7774 38.5455 34.2483 40.0652C34.5047 40.3083 34.8148 40.4876 35.1535 40.5884C35.3957 40.6719 35.6501 40.7145 35.9062 40.7143C36.2353 40.7184 36.5613 40.65 36.861 40.5138C37.1607 40.3777 37.4267 40.1772 37.6401 39.9266C37.8535 39.6761 38.0091 39.3815 38.0958 39.064C38.1825 38.7465 38.1983 38.4138 38.1418 38.0895C38.0858 37.4915 37.3201 28.5064 41.114 23.8883C41.2163 23.7657 41.3446 23.6675 41.4896 23.6006C41.6346 23.5337 41.7926 23.5 41.9523 23.5017C42.1136 23.5007 42.2731 23.5355 42.4193 23.6037C42.5655 23.672 42.6946 23.7718 42.7974 23.8962C46.5225 28.5444 45.7637 37.4934 45.7083 38.0898C45.6413 38.4784 45.6776 38.8778 45.8134 39.248C45.9493 39.6182 46.18 39.9462 46.4825 40.1992C46.785 40.4522 47.1486 40.6213 47.537 40.6895C47.9254 40.7578 48.3249 40.7229 48.6955 40.5883C49.0342 40.4875 49.3444 40.3082 49.6009 40.065C51.0717 38.5453 52.1083 36.3334 52.682 33.4905C53.2648 30.603 53.2214 27.8283 53.0823 26.0089C53.0585 25.6954 53.0343 25.4035 53.0111 25.1313C52.8772 23.5385 52.8314 22.8127 53.1477 22.302C53.5281 21.6874 54.6227 21.0282 56.5097 20.0266C56.7851 19.88 57.0474 19.7099 57.2937 19.5181C60.2886 17.1891 61.1316 11.5757 59.097 7.50529C57.1498 3.60933 53.2273 2.14005 48.3355 3.47319C46.4009 4.00059 45.3446 4.65547 44.3231 5.28889C43.5485 5.79239 42.733 6.22987 41.8852 6.59672C41.6704 6.4766 41.4222 6.3331 41.1529 6.17775C39.3922 5.16092 36.7312 3.62406 34.4307 3.31912C29.6912 2.69035 26.0372 4.60133 24.4004 8.56104C22.7862 12.4656 23.7526 17.3828 26.5544 19.5223C26.8024 19.7119 27.0657 19.8807 27.3414 20.0271C29.226 21.026 30.3203 21.6838 30.702 22.2991ZM27.7194 17.9949C25.6015 16.3773 24.8944 12.3939 26.1751 9.29535C26.9264 7.47838 28.9662 4.53311 34.1765 5.22434C36.0984 5.47931 38.5611 6.90134 40.1906 7.84226C40.6943 8.1331 41.1292 8.38422 41.4585 8.54806C43.0468 9.3378 45.4341 10.3343 47.8279 9.86679C47.9527 9.84361 48.0717 9.79593 48.178 9.72651C48.2843 9.65709 48.3757 9.5673 48.4471 9.46233C48.5185 9.35736 48.5684 9.23929 48.5938 9.11493C48.6193 8.99058 48.6199 8.86241 48.5956 8.73782C48.5713 8.61324 48.5225 8.49471 48.4521 8.38908C48.3817 8.28345 48.2911 8.19282 48.1854 8.12242C48.0798 8.05201 47.9613 8.00323 47.8367 7.9789C47.7121 7.95456 47.5839 7.95515 47.4596 7.98063C46.5067 8.16625 45.4362 8.05094 44.1692 7.61708C44.6026 7.37684 44.9799 7.14221 45.3343 6.92248C46.3218 6.3102 47.1748 5.78137 48.8395 5.32748C52.8227 4.24178 55.8551 5.32028 57.3766 8.36469C59.0067 11.6261 58.4043 16.2192 56.1127 18.001C55.954 18.1247 55.7849 18.2345 55.6072 18.3291C53.2776 19.5659 52.1334 20.2869 51.5122 21.2904C50.8483 22.3635 50.9462 23.5281 51.0945 25.2922C51.1171 25.5602 51.1411 25.8472 51.1648 26.1558C51.4899 30.4086 50.8933 35.9269 48.25 38.696C48.1917 38.7257 48.1312 38.7508 48.069 38.771C48.0129 38.7973 47.9506 38.8073 47.8891 38.8C47.8276 38.7927 47.7694 38.7683 47.7211 38.7297C47.6727 38.691 47.6362 38.6395 47.6156 38.5811C47.595 38.5227 47.5912 38.4597 47.6045 38.3993C47.6096 38.373 47.6135 38.3466 47.6164 38.32C47.6596 37.9052 48.6282 28.0991 44.2965 22.694C44.0147 22.348 43.6599 22.0687 43.2574 21.876C42.8549 21.6833 42.4148 21.5821 41.9686 21.5797C41.5224 21.5772 41.0812 21.6735 40.6766 21.8617C40.272 22.05 39.9141 22.3254 39.6286 22.6682C35.2099 28.0468 36.1891 37.9037 36.2333 38.3206C36.236 38.3471 36.2398 38.3733 36.245 38.3993C36.2583 38.4597 36.2544 38.5227 36.2338 38.5811C36.2132 38.6395 36.1767 38.6909 36.1284 38.7296C36.08 38.7683 36.0218 38.7927 35.9604 38.8001C35.8989 38.8074 35.8366 38.7974 35.7805 38.7711C35.7183 38.7508 35.6578 38.7257 35.5995 38.696C32.956 35.9263 32.3594 30.4081 32.6847 26.1558C32.7085 25.8456 32.7327 25.5575 32.7553 25.2884C33.0769 21.4631 32.8216 20.7537 28.2413 18.3288C28.0582 18.2321 27.8834 18.1204 27.7187 17.9949H27.7194Z" fill="#1AE5BE"/>
</svg>
