<svg width="83" height="83" viewBox="0 0 83 83" fill="none" xmlns="http://www.w3.org/2000/svg">
<path d="M47.5629 6.84363C48.5879 6.20845 49.4723 5.65976 51.212 5.18554C52.5077 4.80586 53.8648 4.68184 55.2078 4.82038C53.4843 3.79009 51.221 3.59486 48.5911 4.31188C46.8515 4.78611 45.9664 5.3348 44.9419 5.96998C44.2914 6.38816 43.6167 6.76749 42.9214 7.10597C43.805 7.50337 44.7413 7.7714 45.7014 7.90179C46.3399 7.58176 46.9612 7.22856 47.5629 6.84363Z" fill="#D4E1F4"/>
<path d="M49.6481 33.144C49.2894 28.9113 48.1978 25.63 46.4037 23.3915C46.1614 23.0904 45.8542 22.8481 45.5052 22.6824C45.1561 22.5167 44.774 22.432 44.3876 22.4347C44.1809 22.4348 43.9749 22.4592 43.7739 22.5074C43.7768 22.5109 43.7799 22.5141 43.7827 22.5178C45.5765 24.7563 46.6684 28.0376 47.0272 32.2704C47.1912 34.1566 47.193 36.0534 47.0326 37.9399C47.0312 37.9543 47.0291 37.9687 47.0264 37.983C46.9983 38.1204 47.0079 38.2628 47.0542 38.3952C47.1005 38.5275 47.1818 38.6449 47.2893 38.7348C47.3969 38.8248 47.5268 38.884 47.6653 38.9061C47.8038 38.9282 47.9456 38.9124 48.0759 38.8605C48.1931 38.8291 48.3036 38.7767 48.402 38.7058C48.943 38.1352 49.4009 37.4912 49.7622 36.7929C49.7876 35.5754 49.7495 34.3575 49.6481 33.144Z" fill="#D4E1F4"/>
<path d="M36.4458 37.9401C36.4447 37.9301 36.4415 37.8978 36.4367 37.8456C34.7155 34.7489 34.3276 30.2047 34.6056 26.5678C34.6296 26.2544 34.6536 25.9629 34.677 25.6908C34.8242 23.9416 34.9129 22.8858 34.3213 21.93C33.7518 21.0103 32.5916 20.2868 30.3631 19.1073C29.1347 18.457 28.1968 17.1523 27.7219 15.4333C27.2556 13.6832 27.2956 11.8367 27.8372 10.1084C28.379 8.41348 29.3747 7.04943 30.7186 6.16233C32.2881 5.12676 34.2702 4.7592 36.6124 5.0699C36.695 5.08079 36.7788 5.09441 36.8628 5.1093C35.8859 4.66871 34.8892 4.31524 33.9914 4.19641C31.6496 3.88571 29.6672 4.25326 28.0976 5.28883C26.7543 6.17546 25.7579 7.54015 25.2161 9.23493C24.6746 10.9632 24.6346 12.8097 25.1008 14.5598C25.5757 16.2788 26.5135 17.5836 27.7419 18.2338C29.9702 19.4133 31.1308 20.1368 31.7002 21.0565C32.2918 22.0124 32.2031 23.0681 32.0559 24.8173C32.033 25.0896 32.0079 25.3809 31.9846 25.6943C31.6483 30.0927 32.284 35.8207 35.0769 38.7066C35.1754 38.7768 35.2856 38.8288 35.4024 38.8603C35.5326 38.9123 35.6745 38.9281 35.813 38.906C35.9514 38.8839 36.0814 38.8248 36.1889 38.7348C36.2965 38.6449 36.3778 38.5275 36.4241 38.3952C36.4704 38.2628 36.48 38.1204 36.4519 37.983C36.4494 37.9687 36.4474 37.9544 36.4458 37.9401Z" fill="#D4E1F4"/>
<path d="M22.7643 69.8242V79.0448C22.7643 79.2184 22.8113 79.3887 22.9003 79.5377C22.9894 79.6867 23.1171 79.8088 23.27 79.8911C23.4229 79.9733 23.5952 80.0126 23.7686 80.0047C23.942 79.9969 24.11 79.9423 24.2548 79.8466L38.8353 70.2129C38.9679 70.1253 39.0767 70.0062 39.1519 69.8663C39.2272 69.7264 39.2666 69.57 39.2666 69.4111V58.6664C39.2666 58.4871 39.2165 58.3114 39.1219 58.1592C39.0273 58.0069 38.892 57.8841 38.7312 57.8047C38.5705 57.7253 38.3908 57.6925 38.2123 57.7099C38.0339 57.7273 37.8639 57.7943 37.7216 57.9032L36.1533 59.1035C36.1013 58.8547 36.0676 58.6025 36.0527 58.3488L35.9318 56.2668C35.9304 56.2405 35.9277 56.2142 35.9241 56.1881C35.6367 54.117 34.7817 52.1657 33.4538 50.5505C32.1259 48.9352 30.3769 47.719 28.4005 47.0363L27.7233 46.8004C26.8013 46.4782 25.9635 45.9527 25.272 45.2629L22.0011 41.992L20.8834 38.2096C20.6107 37.2003 20.0419 36.2958 19.2503 35.6128C18.4587 34.9298 17.4806 34.4995 16.4423 34.3776L16.2779 33.8313C16.2757 33.8238 16.2731 33.8153 16.2707 33.8082C15.7393 32.1844 13.9946 31.1303 12.1992 31.211L12.168 31.1065C11.8211 29.9403 11.0376 28.9528 9.98078 28.3498C8.92392 27.7468 7.67516 27.5748 6.49463 27.8696C6.2569 27.9286 6.05066 28.0762 5.91808 28.2821C5.7855 28.4881 5.73657 28.7369 5.7813 28.9778L9.38737 48.3824C9.39579 48.4272 9.4073 48.4713 9.42181 48.5144C10.2764 51.0267 11.9122 53.1999 14.09 54.7161L21.9649 60.1419C21.9819 60.1536 21.9992 60.1647 22.017 60.1752C22.5656 60.5025 22.9699 61.0254 23.1486 61.6387L24.467 67.4902C24.501 67.6383 24.5698 67.7762 24.6679 67.8924L23.1408 69.0615C23.0237 69.1512 22.9289 69.2666 22.8636 69.3989C22.7983 69.5312 22.7643 69.6767 22.7643 69.8242ZM37.3447 68.8943L24.6861 77.2581V70.2989L37.3447 60.6117V68.8943ZM19.0293 38.7175C19.0315 38.726 19.0339 38.7345 19.0363 38.7428L19.338 39.7635C18.8869 39.5437 18.4083 39.3856 17.9151 39.2934L17.081 36.5101C17.5542 36.7024 17.9765 37.0018 18.3145 37.3848C18.6526 37.7678 18.8972 38.224 19.0293 38.7175ZM14.4414 34.3962L15.9056 39.2809C15.4983 39.3517 15.1001 39.4673 14.7182 39.6256L14.6861 39.5228L12.783 33.161C13.5442 33.2845 14.2254 33.7527 14.4414 34.3962ZM25.0173 61.189C25.0135 61.1722 25.0092 61.1555 25.0045 61.1387C24.6998 60.0545 23.9946 59.1266 23.0316 58.5428L15.1828 53.1352C13.3633 51.8678 11.9916 50.057 11.2642 47.9622L7.86349 29.66C8.42764 29.7056 8.96481 29.9208 9.40449 30.2772C9.84417 30.6336 10.1658 31.1147 10.3272 31.6572L12.8479 40.083L13.0428 40.7098C12.9976 40.7521 12.9523 40.7936 12.9084 40.838C12.8166 40.9298 12.7445 41.0393 12.6962 41.1599C12.6479 41.2804 12.6246 41.4094 12.6276 41.5392C12.6306 41.6691 12.6598 41.7969 12.7136 41.9151C12.7674 42.0333 12.8445 42.1393 12.9404 42.2268L16.8857 45.8304C18.0294 46.8754 19.0753 48.0226 20.0105 49.2577C20.0867 49.3583 20.1819 49.443 20.2908 49.5068C20.3997 49.5706 20.52 49.6124 20.645 49.6297C20.77 49.647 20.8972 49.6395 21.0194 49.6076C21.1415 49.5758 21.2561 49.5202 21.3567 49.444C21.4574 49.3679 21.542 49.2726 21.6058 49.1638C21.6697 49.0549 21.7114 48.9345 21.7287 48.8095C21.746 48.6845 21.7385 48.5573 21.7067 48.4352C21.6748 48.3131 21.6192 48.1985 21.5431 48.0978C20.5371 46.7694 19.412 45.5354 18.1819 44.4114L15.0817 41.5808C15.7836 41.1916 16.5929 41.0413 17.3876 41.1523C18.1824 41.2634 18.9195 41.6298 19.4878 42.1964L23.9127 46.6215C24.8093 47.516 25.8956 48.1974 27.0912 48.6152L27.7685 48.8511C29.4047 49.4163 30.8534 50.4216 31.9554 51.7567C33.0573 53.0917 33.7698 54.7048 34.0146 56.4184L34.1331 58.4603C34.1705 59.108 34.2972 59.7475 34.5096 60.3605L26.2537 66.6785L25.0173 61.189Z" fill="#0635C9"/>
<path d="M76.3177 27.8696C75.1373 27.5748 73.8886 27.7467 72.8318 28.3497C71.7749 28.9526 70.9914 29.94 70.6445 31.1062L70.6125 31.2109C68.8173 31.1308 67.073 32.1844 66.541 33.8082C66.5386 33.8159 66.536 33.8242 66.5338 33.8312L66.3703 34.3772C65.3319 34.4992 64.3538 34.9294 63.5622 35.6124C62.7706 36.2954 62.2018 37.1999 61.9291 38.2093L60.8115 41.9915L57.5404 45.2626C56.8489 45.9523 56.0111 46.4778 55.0892 46.8001L54.4122 47.0356C52.4357 47.7183 50.6867 48.9346 49.3587 50.5499C48.0308 52.1652 47.1758 54.1164 46.8884 56.1876C46.8848 56.2137 46.8821 56.24 46.8807 56.2663L46.7598 58.3483C46.7449 58.6019 46.7112 58.8541 46.6592 59.1028L45.0909 57.9026C44.9486 57.7936 44.7786 57.7266 44.6002 57.7092C44.4217 57.6918 44.242 57.7247 44.0813 57.804C43.9205 57.8834 43.7852 58.0062 43.6906 58.1585C43.596 58.3107 43.5459 58.4864 43.5459 58.6657V69.4104C43.5459 69.5693 43.5853 69.7257 43.6606 69.8656C43.7358 70.0055 43.8446 70.1246 43.9772 70.2122L58.5591 79.8465C58.7039 79.9419 58.8719 79.9963 59.0451 80.004C59.2183 80.0117 59.3904 79.9723 59.5431 79.8901C59.6958 79.8079 59.8234 79.686 59.9124 79.5372C60.0014 79.3883 60.0484 79.2182 60.0486 79.0448V69.8241C60.0486 69.6765 60.0146 69.5309 59.9492 69.3985C59.8839 69.2662 59.7889 69.1507 59.6717 69.061L58.1446 67.8918C58.2427 67.7757 58.3115 67.6378 58.3455 67.4897L59.6642 61.6387C59.8429 61.0254 60.2472 60.5025 60.7959 60.1752C60.8136 60.1646 60.8309 60.1536 60.8479 60.1419L68.7249 54.7145C70.9018 53.1985 72.5368 51.0259 73.391 48.5144C73.4055 48.4712 73.417 48.4271 73.4255 48.3824L77.0311 28.9777C77.0758 28.7369 77.0269 28.4881 76.8943 28.2821C76.7617 28.0761 76.5555 27.9286 76.3177 27.8696ZM68.3714 34.3961C68.5873 33.7531 69.2683 33.2843 70.0298 33.1608L68.1291 39.5147L68.0948 39.626C67.7129 39.4678 67.3147 39.3523 66.9074 39.2815L68.3714 34.3961ZM63.7836 38.7174C63.9156 38.224 64.1603 37.7678 64.4983 37.3848C64.8364 37.0018 65.2586 36.7023 65.7319 36.51L64.8978 39.2934C64.4045 39.3857 63.9259 39.5438 63.4748 39.7636L63.7765 38.7428C63.7789 38.7335 63.7813 38.7253 63.7836 38.7174ZM58.1267 77.2581L45.4681 68.8943V60.6116L58.1267 70.2988V77.2581ZM71.5478 47.9628C70.8208 50.0565 69.4499 51.8665 67.6315 53.1336L59.7805 58.5427C58.8176 59.1269 58.1127 60.055 57.8083 61.1393C57.8036 61.1553 57.7993 61.1728 57.7955 61.1896L56.5584 66.679L48.3025 60.3611C48.515 59.7481 48.6417 59.1086 48.6791 58.4609L48.7976 56.4189C49.0424 54.7052 49.7549 53.0921 50.8568 51.7571C51.9588 50.422 53.4075 49.4166 55.0437 48.8513L55.7215 48.6151C56.9171 48.1973 58.0034 47.5159 58.9001 46.6215L63.325 42.1965C63.8932 41.6297 64.6303 41.263 65.4251 41.1519C66.2199 41.0409 67.0293 41.1914 67.7311 41.5807L64.6324 44.4113C63.4022 45.5354 62.2772 46.7693 61.2712 48.0978C61.1174 48.301 61.0506 48.557 61.0856 48.8095C61.1205 49.062 61.2543 49.2902 61.4575 49.444C61.6608 49.5978 61.9168 49.6646 62.1692 49.6296C62.4217 49.5947 62.6499 49.4609 62.8037 49.2577C63.739 48.0226 64.7849 46.8754 65.9285 45.8303L69.8738 42.2268C69.9697 42.1393 70.0469 42.0332 70.1007 41.915C70.1544 41.7969 70.1837 41.669 70.1867 41.5392C70.1897 41.4094 70.1664 41.2803 70.1181 41.1598C70.0698 41.0393 69.9976 40.9298 69.9059 40.8379C69.862 40.7939 69.8167 40.7524 69.7715 40.7098L69.9683 40.0741L72.4865 31.6568C72.6478 31.1143 72.9694 30.6333 73.4091 30.277C73.8487 29.9206 74.3859 29.7055 74.95 29.66L71.5478 47.9628Z" fill="#0635C9"/>
<path d="M30.1956 22.1195C30.5119 22.6304 30.4661 23.3558 30.3322 24.9479C30.309 25.2214 30.2842 25.5143 30.2603 25.8295C30.1211 27.6487 30.0777 30.4235 30.6607 33.3111C31.2344 36.1538 32.2711 38.3659 33.7419 39.8856C33.9984 40.1288 34.3085 40.308 34.6471 40.4089C34.8893 40.4924 35.1437 40.5349 35.3999 40.5348C35.729 40.5389 36.055 40.4704 36.3546 40.3343C36.6543 40.1981 36.9203 39.9976 37.1337 39.7471C37.3472 39.4965 37.5028 39.202 37.5895 38.8845C37.6762 38.5669 37.6919 38.2342 37.6355 37.91C37.5794 37.3119 36.8137 28.3268 40.6077 23.7087C40.71 23.5862 40.8383 23.4879 40.9833 23.421C41.1283 23.3542 41.2863 23.3204 41.4459 23.3221C41.6072 23.3211 41.7668 23.3559 41.9129 23.4242C42.0591 23.4924 42.1883 23.5923 42.2911 23.7166C46.0162 28.3648 45.2573 37.3139 45.2019 37.9103C45.1349 38.2989 45.1712 38.6983 45.3071 39.0684C45.443 39.4386 45.6737 39.7666 45.9762 40.0196C46.2787 40.2726 46.6423 40.4417 47.0307 40.51C47.419 40.5783 47.8185 40.5433 48.1892 40.4087C48.5279 40.3079 48.8381 40.1286 49.0945 39.8855C50.5654 38.3658 51.6019 36.1538 52.1756 33.3109C52.7584 30.4235 52.715 27.6487 52.576 25.8294C52.5521 25.5158 52.528 25.224 52.5047 24.9517C52.3708 23.359 52.325 22.6331 52.6413 22.1224C53.0217 21.5079 54.1164 20.8487 56.0033 19.8471C56.2788 19.7004 56.5411 19.5303 56.7873 19.3386C59.7822 17.0096 60.6253 11.3961 58.5907 7.32572C56.6435 3.42976 52.7209 1.96049 47.8291 3.29363C45.8946 3.82102 44.8382 4.4759 43.8167 5.10932C43.0422 5.61282 42.2267 6.05031 41.3788 6.41716C41.1641 6.29704 40.9158 6.15354 40.6466 5.99819C38.8858 4.98136 36.2248 3.4445 33.9244 3.13956C29.1849 2.51079 25.5309 4.42177 23.8941 8.38147C22.2799 12.2861 23.2463 17.2032 26.048 19.3427C26.2961 19.5323 26.5593 19.7011 26.835 19.8475C28.7196 20.8464 29.814 21.5042 30.1956 22.1195ZM27.213 17.8153C25.0951 16.1977 24.388 12.2143 25.6688 9.11579C26.4201 7.29882 28.4598 4.35354 33.6702 5.04478C35.5921 5.29975 38.0548 6.72177 39.6842 7.66269C40.1879 7.95353 40.6229 8.20466 40.9522 8.3685C42.5404 9.15823 44.9277 10.1547 47.3216 9.68723C47.4464 9.66405 47.5654 9.61637 47.6716 9.54695C47.7779 9.47753 47.8694 9.38774 47.9408 9.28277C48.0121 9.17779 48.062 9.05972 48.0875 8.93537C48.113 8.81101 48.1136 8.68284 48.0892 8.55826C48.0649 8.43367 48.0161 8.31514 47.9457 8.20952C47.8753 8.10389 47.7847 8.01325 47.6791 7.94285C47.5735 7.87245 47.4549 7.82367 47.3303 7.79933C47.2058 7.775 47.0776 7.77559 46.9532 7.80107C46.0003 7.98669 44.9298 7.87137 43.6628 7.43751C44.0962 7.19728 44.4735 6.96265 44.828 6.74291C45.8155 6.13064 46.6685 5.6018 48.3331 5.14792C52.3164 4.06222 55.3488 5.14071 56.8703 8.18512C58.5003 11.4465 57.898 16.0397 55.6063 17.8214C55.4476 17.9452 55.2785 18.055 55.1009 18.1496C52.7712 19.3863 51.6271 20.1073 51.0058 21.1109C50.342 22.1839 50.4398 23.3486 50.5881 25.1127C50.6107 25.3806 50.6347 25.6676 50.6584 25.9762C50.9836 30.229 50.387 35.7474 47.7436 38.5165C47.6853 38.5462 47.6248 38.5712 47.5626 38.5914C47.5066 38.6177 47.4443 38.6278 47.3828 38.6205C47.3213 38.6132 47.2631 38.5888 47.2147 38.5501C47.1664 38.5114 47.1298 38.4599 47.1092 38.4016C47.0886 38.3432 47.0848 38.2802 47.0982 38.2197C47.1033 38.1934 47.1071 38.167 47.11 38.1404C47.1533 37.7256 48.1219 27.9196 43.7901 22.5145C43.5084 22.1685 43.1535 21.8891 42.7511 21.6964C42.3486 21.5038 41.9085 21.4026 41.4623 21.4001C41.0161 21.3977 40.5749 21.494 40.1703 21.6822C39.7657 21.8704 39.4078 22.1458 39.1222 22.4887C34.7035 27.8672 35.6827 37.7242 35.7269 38.1411C35.7296 38.1675 35.7335 38.1938 35.7386 38.2197C35.7519 38.2802 35.7481 38.3431 35.7275 38.4015C35.7069 38.4599 35.6704 38.5114 35.622 38.5501C35.5737 38.5888 35.5155 38.6132 35.454 38.6205C35.3925 38.6278 35.3302 38.6178 35.2742 38.5916C35.212 38.5713 35.1515 38.5462 35.0932 38.5165C32.4496 35.7467 31.8531 30.2285 32.1783 25.9762C32.2022 25.666 32.2264 25.3779 32.249 25.1088C32.5706 21.2835 32.3153 20.5742 27.735 18.1492C27.5519 18.0525 27.3771 17.9408 27.2124 17.8153H27.213Z" fill="#FFA552"/>
</svg>
