<svg width="83" height="83" viewBox="0 0 83 83" fill="none" xmlns="http://www.w3.org/2000/svg">
<path d="M56.9605 18.3455C58.396 18.1402 59.6352 17.9629 61.7915 18.2731C63.5931 18.5322 65.1388 19.043 66.4056 19.7747C64.969 17.8323 62.5426 16.5437 59.2836 16.0751C57.1276 15.7649 55.8883 15.9422 54.4525 16.1475C53.5332 16.294 52.6061 16.3867 51.676 16.4251C52.4753 17.2794 53.3914 18.0164 54.3972 18.6139C55.2557 18.5687 56.1113 18.4792 56.9605 18.3455Z" fill="#D4E1F4"/>
<path d="M48.3085 48.9628C49.8814 44.1788 50.1959 40.0836 49.2435 36.7909C49.1116 36.3448 48.8819 35.9337 48.5711 35.5875C48.2603 35.2414 47.8762 34.9689 47.4468 34.79C47.217 34.6918 46.9766 34.6204 46.7304 34.5773C46.732 34.5826 46.734 34.5877 46.7354 34.5933C47.6879 37.8859 47.3733 41.9811 45.8004 46.7652C45.1042 48.8988 44.2226 50.9674 43.1655 52.9472C43.157 52.9622 43.1481 52.977 43.1385 52.9912C43.0303 53.1499 42.9736 53.338 42.9759 53.53C42.9894 53.7694 43.0909 53.9954 43.2609 54.1645C43.4309 54.3337 43.6573 54.434 43.8968 54.4464C44.0414 54.468 44.1887 54.4634 44.3316 54.433C45.1969 54.0696 46.0063 53.5853 46.7356 52.9946C47.3309 51.6795 47.856 50.3337 48.3085 48.9628Z" fill="#D4E1F4"/>
<path d="M30.1093 47.9135C30.1128 47.9021 30.1242 47.8655 30.1431 47.806C29.6716 43.613 31.3571 38.4757 33.3606 34.6441C33.5334 34.3138 33.697 34.0078 33.8486 33.7222C34.8272 31.8857 35.4182 30.7773 35.205 29.4542C35.0003 28.181 34.0464 26.8408 32.1177 24.4959C31.0545 23.2032 30.6192 21.3353 30.8918 19.2361C31.188 17.1078 32.0942 15.1108 33.5009 13.4865C34.893 11.8968 36.6368 10.8833 38.5439 10.5556C40.7712 10.1728 43.1476 10.7147 45.6068 12.1666C45.6935 12.2177 45.7803 12.2725 45.8671 12.3285C44.9862 11.3836 44.0413 10.525 43.0988 9.96848C40.6389 8.51651 38.2621 7.9747 36.0359 8.35747C34.1289 8.68531 32.3843 9.69878 30.9929 11.2883C29.5863 12.9124 28.6802 14.9091 28.3839 17.0371C28.1117 19.1363 28.5465 21.0042 29.6098 22.297C31.5384 24.6418 32.4926 25.982 32.6971 27.2553C32.9098 28.5783 32.3191 29.6868 31.3407 31.5233C31.1884 31.8088 31.0254 32.1149 30.8527 32.4451C28.4296 37.0791 26.4683 43.624 28.2302 48.0972C28.3072 48.2209 28.4054 48.3301 28.5204 48.4196C28.6948 48.5842 28.9239 48.6786 29.1637 48.6845C29.4035 48.6904 29.6369 48.6075 29.8193 48.4516C29.9597 48.3206 30.0565 48.1496 30.0965 47.9617C30.1 47.9463 30.1043 47.9298 30.1093 47.9135Z" fill="#D4E1F4"/>
<path d="M77.0997 43.5928C71.279 41.5641 66.4033 41.5854 62.6079 43.6569C56.9842 46.7254 55.6765 53.1975 54.4118 59.4564C53.2989 64.9648 52.2476 70.1678 48.4176 72.6754C45.7536 74.4195 41.9473 74.6324 37.1048 73.3083C33.2705 72.2668 29.896 69.9701 27.5204 66.7852C25.1187 63.5914 23.8048 59.7115 23.7717 55.7157C23.7124 51.1137 21.7615 47.078 18.5531 44.9211C12.8195 41.0647 5.25006 44.6992 4.93055 44.8555C4.70209 44.9679 4.52759 45.1664 4.44538 45.4074C4.36317 45.6484 4.37997 45.9122 4.4921 46.1408C4.60422 46.3694 4.80249 46.5442 5.04337 46.6267C5.28426 46.7092 5.54805 46.6928 5.77681 46.581C5.84488 46.5474 12.6576 43.2723 17.4806 46.5155C20.1654 48.3209 21.7988 51.7694 21.8499 55.7405C21.8875 60.1448 23.3367 64.421 25.9847 67.9407C28.6154 71.4669 32.3522 74.0094 36.5979 75.162C38.8484 75.7774 40.9105 76.085 42.7841 76.0848C45.4 76.0848 47.6369 75.4837 49.4703 74.2834C53.9723 71.3365 55.1535 65.4908 56.2957 59.8373C57.5275 53.7416 58.6908 47.984 63.5285 45.3439C66.8277 43.5441 71.1805 43.5662 76.4671 45.408C76.7077 45.4919 76.9719 45.4767 77.2014 45.3659C77.4309 45.255 77.6069 45.0575 77.6908 44.8169C77.7747 44.5762 77.7596 44.3121 77.6487 44.0826C77.5378 43.8531 77.3403 43.677 77.0997 43.5931V43.5928Z" fill="#0635C9"/>
<path d="M32.5354 50.5642C32.8745 50.2023 33.1005 49.7492 33.1856 49.2606C33.3523 48.6039 36.1485 37.9535 42.4266 34.1907C42.6199 34.0791 42.8352 34.0111 43.0576 33.9915C43.2799 33.9719 43.5038 34.0012 43.7136 34.0773C43.9234 34.1534 44.114 34.2745 44.2721 34.432C44.4302 34.5896 44.5518 34.7798 44.6286 34.9894C47.0093 41.8835 42.4473 51.8559 42.1622 52.4677C41.9438 52.8521 41.8305 53.2873 41.8336 53.7294C41.8366 54.1716 41.956 54.6051 42.1796 54.9865C42.4033 55.3679 42.7234 55.6837 43.1077 55.9022C43.4921 56.1207 43.9272 56.2343 44.3693 56.2314H44.4227C44.7995 56.2472 45.1749 56.1764 45.5202 56.0246C47.7755 54.9109 49.825 52.8423 51.6124 49.876C53.0354 47.5142 54.2686 44.5686 55.0851 41.5819C55.185 41.2159 55.2755 40.8748 55.36 40.5569C55.8666 38.6472 56.1166 37.7822 56.7332 37.2897C57.4539 36.7141 58.9303 36.4127 61.5762 36.0269C63.7843 35.7048 65.8476 34.1891 67.3863 31.7589C68.8337 29.4573 69.5729 26.7812 69.5123 24.063C69.321 18.4297 65.3983 14.7725 59.0188 14.2804C56.6335 14.0965 55.2457 14.3949 53.7759 14.7112C52.6533 14.9782 51.5095 15.1473 50.3576 15.2165L50.3449 15.2173C50.1337 14.977 49.8866 14.6862 49.6164 14.3685C48.0374 12.5087 45.6511 9.69829 43.1941 8.43498C37.8276 5.67533 32.6228 6.64588 29.2716 11.0314C26.0665 15.2258 25.7579 21.1519 28.5837 24.2419C30.3867 26.2134 31.3376 27.3799 31.5314 28.2838C31.6966 29.0549 31.3421 29.8821 30.5241 31.6791C30.387 31.9804 30.2402 32.3037 30.0848 32.6512C28.8239 35.4791 27.9115 38.5394 27.5158 41.2677C27.0193 44.695 27.2938 47.5938 28.3326 49.8841C28.5127 50.2359 28.7729 50.5404 29.0923 50.7733C29.5883 51.1755 30.2171 51.3772 30.8545 51.3385C31.492 51.2998 32.0917 51.0236 32.5354 50.5642ZM30.0723 49.0666C28.1465 44.784 29.7213 38.1867 31.8405 33.4341C31.9936 33.0907 32.1385 32.7725 32.2737 32.4754C33.1733 30.4984 33.7162 29.3053 33.4108 27.8807C33.1212 26.5298 32.1254 25.2661 30.0023 22.9447C27.8125 20.5502 28.1766 15.6287 30.7988 12.1982C32.1146 10.4765 35.871 6.82974 42.3155 10.1438C44.4329 11.2329 46.6706 13.8681 48.1514 15.6119C48.6037 16.1447 48.9945 16.6049 49.2981 16.9204C50.7629 18.4419 53.04 20.5165 55.891 20.9486C56.0161 20.9684 56.1439 20.9632 56.2671 20.9334C56.3902 20.9036 56.5062 20.8498 56.6085 20.775C56.7107 20.7001 56.7971 20.6058 56.8628 20.4975C56.9285 20.3891 56.972 20.2689 56.991 20.1436C57.0101 20.0184 57.0041 19.8906 56.9735 19.7676C56.943 19.6447 56.8884 19.529 56.8129 19.4272C56.7375 19.3254 56.6427 19.2396 56.5339 19.1746C56.4252 19.1096 56.3046 19.0668 56.1793 19.0485C54.8799 18.8515 53.5711 18.1821 52.1446 16.972C52.9154 16.8621 53.5725 16.7207 54.1805 16.59C55.5673 16.2914 56.7645 16.0338 58.8713 16.1965C64.2564 16.6119 67.4349 19.5029 67.5918 24.1279C67.7494 28.7724 64.6911 33.6312 61.2986 34.1261C58.1841 34.5803 56.6126 34.9282 55.5345 35.7882C54.3956 36.6966 54.0594 37.9644 53.5022 40.0644C53.419 40.3786 53.3296 40.7151 53.2309 41.0761C51.859 46.0956 48.8969 52.1972 44.6936 54.2903C44.5939 54.3085 44.4924 54.3153 44.3911 54.3103C44.2814 54.3173 44.1719 54.2939 44.0746 54.2428C43.9773 54.1917 43.8959 54.1148 43.8394 54.0206C43.7829 53.9263 43.7534 53.8183 43.7541 53.7084C43.7549 53.5985 43.7859 53.4909 43.8437 53.3974C43.8573 53.3745 43.8698 53.351 43.8813 53.3269C44.0977 52.8758 49.1492 42.1905 46.4456 34.3614C46.2773 33.8769 46.0018 33.4367 45.6396 33.0735C45.2774 32.7104 44.8379 32.4338 44.3538 32.2643C43.9778 32.1295 43.5814 32.0603 43.1819 32.0599C42.5681 32.0594 41.9656 32.2259 41.4391 32.5415C34.3003 36.82 31.4293 48.348 31.3107 48.8366C31.3044 48.8624 31.2993 48.8884 31.2947 48.9145C31.28 49.0233 31.2357 49.126 31.1666 49.2113C31.0975 49.2966 31.0062 49.3613 30.9029 49.3983C30.7995 49.4353 30.6879 49.4432 30.5804 49.4211C30.4728 49.399 30.3734 49.3477 30.293 49.2729C30.2123 49.2122 30.1383 49.1431 30.0723 49.0666Z" fill="#1AE5BE"/>
</svg>
