<svg width="83" height="83" viewBox="0 0 83 83" fill="none" xmlns="http://www.w3.org/2000/svg">
<path d="M57.2987 18.6704C58.7342 18.4651 59.9733 18.2878 62.1296 18.598C63.9312 18.8571 65.4769 19.3679 66.7437 20.0996C65.3071 18.1572 62.8808 16.8686 59.6217 16.4C57.4657 16.0898 56.2264 16.2671 54.7906 16.4724C53.8713 16.6189 52.9443 16.7115 52.0142 16.7499C52.8134 17.6043 53.7296 18.3412 54.7354 18.9388C55.5939 18.8936 56.4494 18.804 57.2987 18.6704Z" fill="#D4E1F4"/>
<path d="M48.6466 49.2878C50.2195 44.5037 50.534 40.4086 49.5816 37.1159C49.4497 36.6698 49.2201 36.2587 48.9093 35.9125C48.5985 35.5663 48.2144 35.2939 47.785 35.1149C47.5551 35.0167 47.3147 34.9454 47.0686 34.9022C47.0702 34.9075 47.0721 34.9126 47.0735 34.9182C48.026 38.2109 47.7114 42.3061 46.1385 47.0901C45.4424 49.2238 44.5607 51.2923 43.5037 53.2721C43.4952 53.2872 43.4862 53.3019 43.4766 53.3162C43.3684 53.4749 43.3117 53.6629 43.314 53.855C43.3276 54.0944 43.4291 54.3203 43.599 54.4895C43.769 54.6586 43.9955 54.759 44.2349 54.7714C44.3795 54.7929 44.5268 54.7884 44.6698 54.7579C45.5351 54.3945 46.3444 53.9103 47.0737 53.3196C47.6691 52.0045 48.1941 50.6586 48.6466 49.2878Z" fill="#D4E1F4"/>
<path d="M30.4473 48.2384C30.4508 48.2271 30.4622 48.1904 30.4811 48.131C30.0096 43.9379 31.6951 38.8006 33.6986 34.969C33.8715 34.6388 34.035 34.3327 34.1866 34.0471C35.1652 32.2106 35.7562 31.1022 35.543 29.7791C35.3383 28.5059 34.3844 27.1657 32.4557 24.8209C31.3926 23.5281 30.9573 21.6602 31.2298 19.561C31.526 17.4327 32.4322 15.4357 33.8389 13.8114C35.231 12.2217 36.9748 11.2082 38.8819 10.8805C41.1092 10.4978 43.4856 11.0396 45.9448 12.4915C46.0315 12.5426 46.1183 12.5974 46.2051 12.6535C45.3242 11.7085 44.3793 10.8499 43.4368 10.2934C40.9769 8.84143 38.6001 8.29962 36.3739 8.68239C34.4669 9.01023 32.7223 10.0237 31.3309 11.6133C29.9243 13.2374 29.0182 15.2341 28.722 17.3621C28.4497 19.4612 28.8845 21.3291 29.9478 22.6219C31.8764 24.9668 32.8306 26.307 33.0351 27.5802C33.2478 28.9032 32.6572 30.0117 31.6788 31.8482C31.5264 32.1338 31.3634 32.4398 31.1908 32.7701C28.7676 37.404 26.8063 43.949 28.5682 48.4221C28.6452 48.5459 28.7434 48.655 28.8584 48.7445C29.0328 48.9091 29.2619 49.0035 29.5017 49.0094C29.7415 49.0153 29.975 48.9324 30.1573 48.7766C30.2977 48.6455 30.3945 48.4745 30.4345 48.2866C30.438 48.2713 30.4424 48.2548 30.4473 48.2384Z" fill="#D4E1F4"/>
<path d="M77.4372 43.9177C71.6165 41.889 66.7408 41.9103 62.9455 43.9818C57.3217 47.0504 56.0141 53.5225 54.7493 59.7814C53.6364 65.2898 52.5851 70.4928 48.7551 73.0003C46.0911 74.7444 42.2848 74.9573 37.4423 73.6333C33.608 72.5917 30.2335 70.295 27.858 67.1101C25.4563 63.9164 24.1423 60.0365 24.1092 56.0406C24.0499 51.4387 22.0991 47.4029 18.8906 45.2461C13.1571 41.3897 5.58759 45.0241 5.26807 45.1804C5.03961 45.2928 4.86511 45.4914 4.78291 45.7324C4.7007 45.9733 4.7175 46.2371 4.82962 46.4657C4.94174 46.6943 5.14002 46.8691 5.3809 46.9517C5.62178 47.0342 5.88557 47.0177 6.11434 46.9059C6.18241 46.8723 12.9951 43.5973 17.8181 46.8404C20.5029 48.6459 22.1364 52.0944 22.1875 56.0654C22.225 60.4698 23.6742 64.746 26.3222 68.2657C28.9529 71.7918 32.6897 74.3344 36.9354 75.4869C39.186 76.1024 41.248 76.41 43.1216 76.4098C45.7375 76.4098 47.9744 75.8087 49.8078 74.6083C54.3098 71.6614 55.491 65.8157 56.6332 60.1622C57.865 54.0665 59.0284 48.3089 63.866 45.6689C67.1653 43.8691 71.518 43.8912 76.8046 45.733C77.0452 45.8168 77.3094 45.8017 77.5389 45.6908C77.7684 45.58 77.9444 45.3825 78.0283 45.1418C78.1122 44.9011 78.0971 44.637 77.9862 44.4075C77.8754 44.178 77.6779 44.002 77.4372 43.9181V43.9177Z" fill="#0635C9"/>
<path d="M32.873 50.8892C33.2121 50.5273 33.4381 50.0742 33.5233 49.5856C33.69 48.9289 36.4862 38.2785 42.7643 34.5157C42.9575 34.404 43.1729 34.3361 43.3952 34.3165C43.6175 34.2969 43.8414 34.3262 44.0513 34.4023C44.2611 34.4784 44.4517 34.5994 44.6097 34.757C44.7678 34.9146 44.8895 35.1048 44.9663 35.3144C47.347 42.2084 42.7849 52.1809 42.4999 52.7927C42.2815 53.1771 42.1681 53.6123 42.1712 54.0544C42.1743 54.4965 42.2936 54.9301 42.5173 55.3115C42.7409 55.6929 43.061 56.0087 43.4454 56.2272C43.8297 56.4457 44.2648 56.5592 44.707 56.5564H44.7603C45.1371 56.5722 45.5126 56.5014 45.8579 56.3496C48.1132 55.2359 50.1627 53.1673 51.95 50.201C53.373 47.8392 54.6062 44.8936 55.4227 41.9069C55.5226 41.5409 55.6131 41.1998 55.6977 40.8819C56.2043 38.9722 56.4543 38.1072 57.0709 37.6147C57.7916 37.0391 59.2679 36.7377 61.9138 36.3518C64.1219 36.0298 66.1852 34.514 67.724 32.0838C69.1713 29.7823 69.9106 27.1062 69.8499 24.388C69.6587 18.7547 65.736 15.0975 59.3565 14.6053C56.9711 14.4215 55.5833 14.7199 54.1136 15.0362C52.9909 15.3032 51.8472 15.4723 50.6952 15.5415L50.6826 15.5423C50.4713 15.302 50.2242 15.0112 49.954 14.6934C48.375 12.8337 45.9887 10.0233 43.5317 8.75996C38.1652 6.00031 32.9605 6.97086 29.6092 11.3564C26.4042 15.5507 26.0955 21.4768 28.9213 24.5669C30.7244 26.5384 31.6752 27.7048 31.869 28.6088C32.0343 29.3799 31.6797 30.2071 30.8618 32.0041C30.7247 32.3053 30.5778 32.6287 30.4225 32.9762C29.1616 35.8041 28.2492 38.8644 27.8534 41.5926C27.3569 45.02 27.6314 47.9188 28.6702 50.209C28.8503 50.5608 29.1106 50.8654 29.43 51.0982C29.926 51.5005 30.5547 51.7022 31.1922 51.6635C31.8296 51.6248 32.4294 51.3485 32.873 50.8892ZM30.41 49.3916C28.4841 45.109 30.0589 38.5117 32.1781 33.7591C32.3312 33.4157 32.4762 33.0975 32.6113 32.8004C33.5109 30.8234 34.0539 29.6302 33.7484 28.2057C33.4589 26.8547 32.463 25.5911 30.34 23.2696C28.1502 20.8751 28.5142 15.9537 31.1365 12.5232C32.4523 10.8015 36.2086 7.15472 42.6531 10.4688C44.7706 11.5579 47.0083 14.1931 48.4891 15.9369C48.9413 16.4697 49.3321 16.9299 49.6358 17.2454C51.1006 18.7668 53.3777 20.8415 56.2286 21.2736C56.3538 21.2934 56.4816 21.2882 56.6047 21.2584C56.7278 21.2286 56.8439 21.1748 56.9461 21.0999C57.0484 21.0251 57.1348 20.9308 57.2004 20.8225C57.2661 20.7141 57.3097 20.5939 57.3287 20.4686C57.3477 20.3433 57.3417 20.2156 57.3112 20.0926C57.2806 19.9697 57.226 19.854 57.1506 19.7522C57.0751 19.6504 56.9803 19.5646 56.8716 19.4996C56.7628 19.4346 56.6423 19.3917 56.5169 19.3735C55.2176 19.1765 53.9088 18.5071 52.4822 17.2969C53.2531 17.1871 53.9102 17.0456 54.5181 16.915C55.9049 16.6164 57.1021 16.3587 59.209 16.5215C64.5941 16.9369 67.7725 19.8279 67.9295 24.4529C68.0871 29.0974 65.0287 33.9562 61.6363 34.4511C58.5217 34.9053 56.9503 35.2532 55.8721 36.1132C54.7332 37.0216 54.3971 38.2894 53.8399 40.3894C53.7566 40.7036 53.6672 41.0401 53.5686 41.4011C52.1967 46.4205 49.2346 52.5222 45.0313 54.6153C44.9315 54.6335 44.83 54.6402 44.7288 54.6353C44.6191 54.6423 44.5096 54.6189 44.4123 54.5678C44.3149 54.5167 44.2336 54.4398 44.177 54.3455C44.1205 54.2513 44.091 54.1433 44.0918 54.0334C44.0925 53.9235 44.1235 53.8159 44.1813 53.7224C44.1949 53.6994 44.2074 53.6759 44.219 53.6519C44.4353 53.2008 49.4868 42.5155 46.7832 34.6864C46.615 34.2019 46.3395 33.7616 45.9773 33.3985C45.6151 33.0354 45.1755 32.7588 44.6914 32.5893C44.3154 32.4544 43.919 32.3853 43.5196 32.3849C42.9057 32.3844 42.3032 32.5509 41.7768 32.8665C34.6379 37.1449 31.767 48.673 31.6483 49.1616C31.6421 49.1874 31.6369 49.2133 31.6323 49.2395C31.6176 49.3483 31.5733 49.451 31.5042 49.5363C31.4351 49.6216 31.3439 49.6863 31.2405 49.7233C31.1371 49.7603 31.0256 49.7682 30.918 49.7461C30.8105 49.7239 30.7111 49.6727 30.6307 49.5979C30.5499 49.5372 30.476 49.4681 30.41 49.3916Z" fill="#FFA552"/>
</svg>
