<svg width="151" height="151" viewBox="0 0 151 151" fill="none" xmlns="http://www.w3.org/2000/svg">
<g clip-path="url(#clip0)">
<path d="M74.8479 81.5467C74.8442 80.0731 75.2736 78.632 76.0824 77.4013C76.14 77.3124 76.2014 77.2285 76.2627 77.1446C76.1926 77.1421 76.1237 77.1396 76.0524 77.1396C72.4441 77.1459 69.3379 79.6874 68.6142 83.2218C67.8906 86.7575 69.751 90.3144 73.0663 91.738C76.3817 93.1615 80.2416 92.0597 82.3061 89.1012C78.1745 89.0424 74.8542 85.6783 74.8479 81.5467Z" fill="#D4E1F4"/>
<path d="M76.8637 144.318L74.4811 122.833L67.2796 122.838L67.2721 112.581C67.2733 108.75 68.9097 105.102 71.7693 102.552C65.4467 103.804 60.8818 109.34 60.8618 115.786L60.8693 126.043L68.0709 126.038L70.4534 147.523H81.7327L82.0645 144.318H76.8637Z" fill="#D4E1F4"/>
<path d="M100.344 141.113C99.1107 141.113 98.0929 139.918 98.0253 138.389L96.4615 100.716L92.7881 100.72H92.7856C92.1396 100.704 91.5349 100.393 91.1455 99.876C90.6948 99.2926 90.4544 98.5739 90.4644 97.8365L90.4594 86.9002C90.4294 83.501 91.3058 80.1544 92.9985 77.206C90.4707 77.9885 88.2446 79.5322 86.627 81.6255C84.103 84.7593 82.7158 88.9097 82.7183 93.3105L82.7233 101.04C82.7145 101.778 82.9536 102.496 83.4044 103.081C83.7937 103.598 84.3985 103.909 85.0457 103.925H85.047L88.7204 103.92L90.2841 144.798C90.353 146.328 91.3709 147.522 92.6028 147.522H110.033C111.263 147.522 112.279 146.332 112.351 144.808L112.526 141.113H100.344Z" fill="#D4E1F4"/>
<path d="M49.2245 143.998C47.6933 143.998 46.4288 142.802 46.3437 141.273L44.0813 100.396L39.519 100.399H39.5165C37.9227 100.399 36.6319 99.1085 36.6319 97.5147L36.6256 80.1682C36.6169 76.6839 37.7224 73.2872 39.7794 70.4739C32.3112 72.2443 27.0315 78.9037 27.0103 86.5785L27.0165 103.925C27.0165 105.519 28.3073 106.81 29.9011 106.81H29.9036L34.4659 106.806L36.7283 147.684C36.8134 149.212 38.078 150.408 39.6092 150.408H61.2601C62.7875 150.408 64.0495 149.217 64.1397 147.692L64.3563 143.998H49.2245Z" fill="#D4E1F4"/>
<path d="M59.894 60.6294H59.8864C55.1877 60.6357 50.8432 58.1304 48.497 54.0589C46.1495 49.9887 46.1582 44.9731 48.5195 40.9104C41.6673 41.8256 36.7006 47.8978 37.1626 54.7951C37.6246 61.6911 43.3575 67.0472 50.2698 67.0397H50.2773C54.9498 67.0322 59.2667 64.547 61.6205 60.5105C61.0483 60.5881 60.4711 60.6269 59.894 60.6294Z" fill="#D4E1F4"/>
<path d="M109.881 68.2541H109.873C104.951 68.2679 100.437 65.5223 98.1844 61.1465C95.9321 56.7708 96.3202 51.5011 99.191 47.5034C92.1673 48.0668 86.8425 54.0764 87.1292 61.1165C87.4159 68.1552 93.2114 73.7129 100.258 73.7029H100.265C104.5 73.6903 108.47 71.6458 110.939 68.2053C110.589 68.2341 110.236 68.2541 109.881 68.2541Z" fill="#D4E1F4"/>
<path d="M90.5256 44.9406C90.473 44.9619 90.4217 44.9806 90.3678 44.9994C89.8658 45.1747 89.3399 45.2699 88.8078 45.2799C88.2795 45.2711 87.7562 45.1785 87.2579 45.0032C87.2065 44.9869 87.1565 44.9681 87.1064 44.9481C65.8211 36.5021 58.6371 20.5228 60.9583 8.43092C61.4516 5.67526 62.5233 3.05482 64.1033 0.743618C57.6292 2.07325 52.7727 7.31413 51.3429 14.8412C49.0217 26.933 56.2057 42.9123 77.491 51.3584C77.5411 51.3784 77.5911 51.3972 77.6425 51.4134C78.1408 51.5887 78.6641 51.6814 79.1925 51.6901C79.7246 51.6801 80.2504 51.585 80.7525 51.4097C80.8063 51.3909 80.8576 51.3721 80.9102 51.3508C86.8773 48.9332 91.7363 45.9409 95.5874 42.6206C93.9961 43.4407 92.3097 44.2144 90.5256 44.9406Z" fill="#D4E1F4"/>
<path d="M70.8414 77.3111C67.7615 72.7588 62.6258 70.0282 57.1295 70.0232H57.117L43.5565 70.0332C34.4269 70.0545 27.0313 77.4501 27.0088 86.5797L27.0163 103.925C27.0163 105.519 28.3071 106.81 29.9009 106.81H29.9022L34.4645 106.807L36.7281 147.684C36.8132 149.212 38.0777 150.408 39.6089 150.408H61.2611C62.7798 150.408 64.038 149.231 64.1394 147.716L65.404 128.733C65.5104 127.143 64.3072 125.769 62.7184 125.662C61.1284 125.557 59.7537 126.759 59.6473 128.349L58.5618 144.639H42.3371L40.0747 103.758C39.9896 102.231 38.725 101.034 37.1938 101.034H37.1926L32.7843 101.038L32.778 86.5772C32.8031 80.6339 37.617 75.8225 43.5603 75.8025L57.122 75.7937H57.1295C60.7152 75.8 64.0631 77.5841 66.07 80.5551C66.1915 80.7354 66.3092 80.9207 66.4218 81.1085V81.2286C66.4218 82.8224 67.7139 84.1133 69.3065 84.1133C70.9003 84.1133 72.1911 82.8224 72.1911 81.2286V80.366C72.1911 79.9078 72.0809 79.4558 71.8706 79.0477C71.5626 78.4479 71.2195 77.8683 70.8414 77.3111Z" fill="#0635C9"/>
<path d="M50.2771 67.0384C57.525 67.0359 63.3981 61.159 63.3956 53.9112C63.3931 46.6633 57.5162 40.7902 50.2684 40.7927H50.2584C43.0118 40.7952 37.1386 46.6721 37.1411 53.9199C37.1436 61.1678 43.0205 67.0409 50.2684 67.0384H50.2771ZM42.8966 53.9212C42.8991 49.8547 46.1969 46.5594 50.2634 46.5619H50.2684C54.3299 46.5607 57.6226 49.8522 57.6239 53.9137C57.6251 57.9739 54.3349 61.268 50.2734 61.2692H50.2684C46.2031 61.2742 42.9041 57.9852 42.8966 53.9212Z" fill="#0635C9"/>
<path d="M107.117 76.6876H107.104L93.544 76.6976C89.778 76.7077 86.1284 77.9972 83.1937 80.3547C82.7254 80.7316 82.2772 81.1335 81.8515 81.5579C81.7426 81.6681 81.6424 81.7858 81.5523 81.911L80.8374 82.9013L85.5124 86.2805L86.0845 85.488C86.3174 85.2639 86.5603 85.0523 86.8095 84.8519C88.7138 83.3057 91.0938 82.4631 93.5477 82.4681L107.108 82.4581H107.116C113.063 82.4594 117.888 87.2696 117.907 93.2166L117.913 104.346L113.503 104.349C111.973 104.349 110.71 105.545 110.625 107.074L108.519 144.639H92.2669L90.9561 127.564L85.2031 128.005L86.7181 147.743C86.8332 149.246 88.0865 150.408 89.5952 150.408H111.247C112.778 150.408 114.043 149.212 114.128 147.684L116.234 110.114L120.801 110.11C122.394 110.109 123.685 108.818 123.685 107.225L123.677 93.2116C123.653 84.0807 116.247 76.6914 107.117 76.6876Z" fill="#0635C9"/>
<path d="M100.265 73.7028C105.032 73.7003 109.424 71.1174 111.746 66.952H112.73C117.247 66.9245 120.895 63.2536 120.895 58.7364C120.895 54.2179 117.247 50.5483 112.73 50.5195H108.679C106.319 48.5388 103.336 47.4546 100.255 47.4583H100.245C92.9981 47.4608 87.1237 53.3377 87.1274 60.5856C87.1299 67.8322 93.0069 73.7053 100.255 73.7028H100.265ZM115.177 58.7351C115.175 59.8331 114.442 60.7959 113.384 61.0914C113.391 60.9174 113.396 60.7446 113.396 60.5706C113.396 59.112 113.15 57.6647 112.671 56.2887H112.73C114.081 56.29 115.176 57.3855 115.177 58.7364V58.7351ZM92.8842 60.5856C92.8867 56.5203 96.1844 53.2263 100.25 53.2288H100.255C104.317 53.2288 107.614 56.5153 107.626 60.5768C107.624 64.6433 104.326 67.9374 100.261 67.9361H100.255C96.1919 67.9349 92.8954 64.6483 92.8842 60.5856Z" fill="#0635C9"/>
<path d="M77.6473 99.4015H77.6348L74.352 99.4115C65.3175 99.434 57.9996 106.752 57.9771 115.786L57.9846 126.045C57.9858 127.637 59.2766 128.927 60.8692 128.927H60.8717L65.4866 128.924L67.5849 147.841C67.7477 149.303 68.9834 150.409 70.4533 150.408H81.7326C83.2099 150.408 84.4494 149.291 84.6009 147.821L86.564 128.901L91.1664 128.899C92.7602 128.899 94.0523 127.605 94.051 126.012L94.0435 115.754C94.0197 106.716 86.6855 99.4015 77.6473 99.4015ZM83.9611 123.134C82.4838 123.136 81.2468 124.252 81.094 125.721L79.1309 144.639H73.0361L70.9378 125.72C70.775 124.259 69.5406 123.153 68.0707 123.153H68.0682L63.7513 123.156L63.7463 115.783C63.7701 109.932 68.5114 105.197 74.3633 105.181L77.646 105.171H77.6535C83.5054 105.172 88.2542 109.906 88.2718 115.758L88.2768 123.129L83.9611 123.134Z" fill="#FFA552"/>
<path d="M76.0185 95.1922C81.789 95.191 86.464 90.5122 86.4615 84.7418C86.4602 78.9725 81.7815 74.2976 76.011 74.2988H76.0035C70.2343 74.3013 65.5593 78.98 65.5605 84.7493C65.5631 90.5185 70.2418 95.1947 76.011 95.1922H76.0185ZM71.321 84.7493C71.321 83.506 71.8143 82.3154 72.6945 81.4377C73.5734 80.5601 74.7653 80.068 76.0085 80.0693H76.011C78.5964 80.0693 80.6935 82.1589 80.7023 84.7443C80.6998 87.3309 78.6014 89.4255 76.0148 89.423H76.011C73.4256 89.4268 71.326 87.3347 71.321 84.7493Z" fill="#FFA552"/>
<path d="M107.039 14.8374L107.034 14.8161C105.284 6.141 98.9528 0.535786 90.9036 0.535786C87.1401 0.535786 83.1337 1.83536 79.2162 4.31183C75.2523 1.72018 71.291 0.408081 67.4148 0.408081C59.3143 0.408081 53.0042 6.07715 51.3416 14.8437C49.0229 26.9355 56.2081 42.9148 77.4909 51.3596C77.5397 51.3796 77.5898 51.3972 77.6399 51.4134C78.6415 51.7828 79.7408 51.7828 80.7424 51.4134C80.7987 51.3947 80.8551 51.3746 80.9114 51.3521C102.183 42.7333 109.362 26.8028 107.039 14.8374ZM79.1861 45.8245C61.3013 38.5629 55.1514 25.6122 57.0094 15.9254C58.1487 9.91204 62.1364 6.17731 67.4148 6.17731C70.5298 6.17731 74.0053 7.542 77.4659 10.1236C78.4775 10.8786 79.8635 10.8886 80.8851 10.1474C84.3481 7.63339 87.8137 6.30502 90.9036 6.30502C96.1595 6.30502 100.173 9.99968 101.378 15.9467C103.938 29.1766 92.1469 40.4284 79.1861 45.8245Z" fill="#FFA552"/>
</g>
<defs>
<clipPath id="clip0">
<rect width="150" height="150" fill="white" transform="translate(0.40625 0.408081)"/>
</clipPath>
</defs>
</svg>
