<svg width="150" height="151" viewBox="0 0 150 151" fill="none" xmlns="http://www.w3.org/2000/svg">
<g clip-path="url(#clip0)">
<path d="M74.4416 81.3901C74.4378 79.9165 74.8673 78.4755 75.6761 77.2448C75.7336 77.1559 75.795 77.072 75.8563 76.9881C75.7862 76.9856 75.7174 76.9831 75.646 76.9831C72.0377 76.9894 68.9315 79.5309 68.2079 83.0653C67.4842 86.601 69.3447 90.1579 72.66 91.5814C75.9753 93.005 79.8352 91.9032 81.8998 88.9447C77.7681 88.8859 74.4478 85.5217 74.4416 81.3901Z" fill="#D4E1F4"/>
<path d="M76.4573 144.162L74.0747 122.676L66.8732 122.681L66.8657 112.425C66.867 108.594 68.5033 104.945 71.3629 102.395C65.0403 103.647 60.4755 109.183 60.4554 115.63L60.463 125.886L67.6645 125.881L70.047 147.367H81.3263L81.6581 144.162H76.4573Z" fill="#D4E1F4"/>
<path d="M99.9374 140.957C98.7041 140.957 97.6863 139.761 97.6186 138.232L96.0549 100.56L92.3815 100.563H92.379C91.733 100.547 91.1283 100.237 90.7389 99.7195C90.2882 99.136 90.0478 98.4174 90.0578 97.6799L90.0528 86.7437C90.0227 83.3445 90.8991 79.9979 92.5918 77.0494C90.0641 77.8319 87.838 79.3757 86.2204 81.469C83.6964 84.6028 82.3091 88.7532 82.3116 93.154L82.3167 100.884C82.3079 101.621 82.547 102.34 82.9977 102.925C83.3871 103.442 83.9918 103.752 84.6391 103.768H84.6404L88.3138 103.763L89.8775 144.641C89.9464 146.171 90.9642 147.366 92.1962 147.366H109.627C110.856 147.366 111.873 146.175 111.944 144.651L112.119 140.957H99.9374Z" fill="#D4E1F4"/>
<path d="M48.8181 143.841C47.2869 143.841 46.0223 142.646 45.9372 141.117L43.6748 100.239L39.1125 100.243H39.11C37.5162 100.243 36.2254 98.952 36.2254 97.3582L36.2191 80.0117C36.2104 76.5274 37.3159 73.1307 39.3729 70.3174C31.9047 72.0878 26.625 78.7472 26.6038 86.422L26.61 103.768C26.61 105.362 27.9008 106.653 29.4946 106.653H29.4971L34.0594 106.649L36.3218 147.527C36.4069 149.056 37.6715 150.252 39.2027 150.252H60.8536C62.381 150.252 63.643 149.061 63.7332 147.536L63.9498 143.841H48.8181Z" fill="#D4E1F4"/>
<path d="M59.4877 60.4729H59.4802C54.7814 60.4792 50.437 57.9739 48.0907 53.9024C45.7432 49.8321 45.752 44.8166 48.1133 40.7538C41.261 41.6691 36.2943 47.7413 36.7563 54.6386C37.2183 61.5346 42.9512 66.8907 49.8636 66.8832H49.8711C54.5435 66.8756 58.8605 64.3904 61.2142 60.354C60.6421 60.4316 60.0649 60.4704 59.4877 60.4729Z" fill="#D4E1F4"/>
<path d="M109.474 68.0976H109.466C104.545 68.1114 100.03 65.3658 97.7777 60.99C95.5253 56.6143 95.9134 51.3446 98.7843 47.3469C91.7605 47.9103 86.4358 53.9199 86.7225 60.96C87.0092 67.9987 92.8047 73.5564 99.851 73.5463H99.8585C104.093 73.5338 108.063 71.4893 110.532 68.0488C110.183 68.0776 109.829 68.0976 109.474 68.0976Z" fill="#D4E1F4"/>
<path d="M90.1191 44.7841C90.0665 44.8053 90.0152 44.8241 89.9613 44.8429C89.4593 45.0182 88.9334 45.1133 88.4013 45.1234C87.873 45.1146 87.3497 45.0219 86.8514 44.8467C86.8 44.8304 86.75 44.8116 86.6999 44.7916C65.4146 36.3456 58.2306 20.3662 60.5518 8.2744C61.0451 5.51874 62.1168 2.89829 63.6968 0.587097C57.2227 1.91672 52.3662 7.15761 50.9364 14.6847C48.6152 26.7765 55.7992 42.7558 77.0845 51.2018C77.1346 51.2219 77.1847 51.2406 77.236 51.2569C77.7343 51.4322 78.2576 51.5248 78.786 51.5336C79.3181 51.5236 79.8439 51.4284 80.346 51.2532C80.3998 51.2344 80.4511 51.2156 80.5037 51.1943C86.4708 48.7767 91.3298 45.7844 95.1809 42.4641C93.5897 43.2842 91.9032 44.0579 90.1191 44.7841Z" fill="#D4E1F4"/>
<path d="M70.4352 77.1546C67.3552 72.6023 62.2195 69.8717 56.7232 69.8667H56.7107L43.1503 69.8767C34.0207 69.898 26.6251 77.2936 26.6025 86.4232L26.6101 103.768C26.6101 105.362 27.9009 106.653 29.4947 106.653H29.4959L34.0582 106.651L36.3218 147.527C36.407 149.056 37.6715 150.252 39.2027 150.252H60.8548C62.3735 150.252 63.6318 149.075 63.7332 147.56L64.9977 128.577C65.1041 126.987 63.901 125.612 62.3122 125.506C60.7221 125.401 59.3474 126.602 59.241 128.193L58.1555 144.482H41.9308L39.6684 103.602C39.5833 102.074 38.3188 100.878 36.7876 100.878H36.7863L32.378 100.881L32.3718 86.4207C32.3968 80.4774 37.2108 75.666 43.154 75.6459L56.7157 75.6372H56.7232C60.309 75.6434 63.6568 77.4275 65.6638 80.3986C65.7852 80.5788 65.9029 80.7641 66.0156 80.9519V81.0721C66.0156 82.6659 67.3077 83.9567 68.9002 83.9567C70.494 83.9567 71.7848 82.6659 71.7848 81.0721V80.2095C71.7848 79.7513 71.6747 79.2993 71.4643 78.8911C71.1563 78.2914 70.8133 77.7118 70.4352 77.1546Z" fill="#0635C9"/>
<path d="M49.871 66.8819C57.1188 66.8794 62.992 61.0025 62.9895 53.7547C62.987 46.5068 57.1101 40.6337 49.8622 40.6362H49.8522C42.6056 40.6387 36.7325 46.5156 36.735 53.7634C36.7375 61.0113 42.6144 66.8844 49.8622 66.8819H49.871ZM42.4904 53.7647C42.4929 49.6982 45.7907 46.4029 49.8572 46.4054H49.8622C53.9237 46.4041 57.2165 49.6957 57.2178 53.7572C57.219 57.8174 53.9287 61.1114 49.8672 61.1127H49.8622C45.797 61.1177 42.498 57.8287 42.4904 53.7647Z" fill="#0635C9"/>
<path d="M106.711 76.5311H106.698L93.1377 76.5411C89.3717 76.5512 85.7221 77.8407 82.7874 80.1982C82.3192 80.5751 81.871 80.977 81.4453 81.4014C81.3364 81.5116 81.2362 81.6293 81.146 81.7545L80.4312 82.7448L85.1061 86.124L85.6783 85.3315C85.9112 85.1073 86.1541 84.8958 86.4032 84.6954C88.3075 83.1492 90.6876 82.3066 93.1415 82.3116L106.702 82.3016H106.709C112.656 82.3029 117.482 87.1131 117.5 93.0601L117.507 104.189L113.097 104.193C111.567 104.193 110.304 105.389 110.219 106.917L108.113 144.482H91.8607L90.5498 127.408L84.7969 127.848L86.3118 147.586C86.427 149.09 87.6802 150.252 89.1889 150.252H110.841C112.372 150.252 113.637 149.056 113.722 147.527L115.828 109.957L120.395 109.953C121.988 109.952 123.278 108.661 123.278 107.069L123.271 93.0551C123.247 83.9242 115.84 76.5349 106.711 76.5311Z" fill="#0635C9"/>
<path d="M99.8585 73.5463C104.626 73.5438 109.018 70.9609 111.339 66.7955H112.323C116.841 66.768 120.489 63.0971 120.489 58.5799C120.489 54.0614 116.841 50.3918 112.323 50.363H108.273C105.913 48.3823 102.93 47.2981 99.8484 47.3018H99.8384C92.5918 47.3043 86.7174 53.1812 86.7212 60.4291C86.7237 67.6757 92.6006 73.5488 99.8484 73.5463H99.8585ZM114.771 58.5786C114.769 59.6766 114.036 60.6394 112.978 60.9349C112.984 60.7609 112.989 60.5881 112.989 60.4141C112.989 58.9555 112.744 57.5082 112.265 56.1322H112.323C113.674 56.1335 114.77 57.229 114.771 58.5799V58.5786ZM92.4779 60.4291C92.4804 56.3638 95.7782 53.0698 99.8434 53.0723H99.8484C103.911 53.0723 107.208 56.3588 107.22 60.4203C107.218 64.4868 103.92 67.7808 99.8547 67.7796H99.8484C95.7857 67.7783 92.4892 64.4918 92.4779 60.4291Z" fill="#0635C9"/>
<path d="M77.241 99.245H77.2285L73.9457 99.255C64.9113 99.2775 57.5933 106.596 57.5708 115.63L57.5783 125.889C57.5796 127.48 58.8704 128.771 60.4629 128.771H60.4654L65.0803 128.767L67.1787 147.685C67.3414 149.146 68.5772 150.253 70.047 150.252H81.3263C82.8037 150.252 84.0432 149.135 84.1946 147.665L86.1578 128.745L90.7602 128.742C92.354 128.742 93.646 127.449 93.6448 125.855L93.6373 115.597C93.6135 106.559 86.2792 99.245 77.241 99.245ZM83.5549 122.978C82.0775 122.979 80.8405 124.096 80.6878 125.565L78.7246 144.482H72.6299L70.5315 125.563C70.3688 124.102 69.1343 122.997 67.6644 122.997H67.6619L63.345 122.999L63.34 115.626C63.3638 109.776 68.1052 105.041 73.957 105.024L77.2398 105.014H77.2473C83.0991 105.015 87.848 109.749 87.8655 115.601L87.8705 122.973L83.5549 122.978Z" fill="#1AE5BE"/>
<path d="M75.6123 95.0358C81.3828 95.0345 86.0578 90.3558 86.0552 84.5853C86.054 78.8161 81.3753 74.1411 75.6048 74.1423H75.5973C69.828 74.1448 65.153 78.8236 65.1543 84.5928C65.1568 90.362 69.8355 95.0383 75.6048 95.0358H75.6123ZM70.9148 84.5928C70.9148 83.3496 71.4081 82.1589 72.2882 81.2813C73.1671 80.4036 74.359 79.9116 75.6023 79.9128H75.6048C78.1902 79.9128 80.2873 82.0024 80.296 84.5878C80.2935 87.1744 78.1952 89.269 75.6085 89.2665H75.6048C73.0194 89.2703 70.9198 87.1782 70.9148 84.5928Z" fill="#1AE5BE"/>
<path d="M106.633 14.6809L106.628 14.6596C104.878 5.98451 98.5464 0.379291 90.4973 0.379291C86.7337 0.379291 82.7273 1.67887 78.8098 4.15533C74.846 1.56369 70.8846 0.251587 67.0084 0.251587C58.908 0.251587 52.5979 5.92066 50.9352 14.6872C48.6165 26.779 55.8017 42.7584 77.0845 51.2031C77.1334 51.2231 77.1835 51.2407 77.2335 51.2569C78.2351 51.6263 79.3344 51.6263 80.336 51.2569C80.3923 51.2382 80.4487 51.2181 80.505 51.1956C101.777 42.5768 108.956 26.6463 106.633 14.6809ZM78.7798 45.668C60.8949 38.4064 54.7451 25.4557 56.603 15.7689C57.7423 9.75554 61.73 6.02082 67.0084 6.02082C70.1234 6.02082 73.599 7.3855 77.0595 9.96713C78.0711 10.7221 79.4571 10.7321 80.4787 9.99092C83.9418 7.4769 87.4073 6.14852 90.4973 6.14852C95.7532 6.14852 99.7671 9.84318 100.972 15.7902C103.532 29.0201 91.7405 40.2719 78.7798 45.668Z" fill="#1AE5BE"/>
</g>
<defs>
<clipPath id="clip0">
<rect width="150" height="150" fill="white" transform="translate(0 0.251587)"/>
</clipPath>
</defs>
</svg>
