<svg width="83" height="83" viewBox="0 0 83 83" fill="none" xmlns="http://www.w3.org/2000/svg">
<path d="M51.2255 12.6921C49.8992 12.4591 48.6049 12.0709 47.3691 11.5357C48.4529 10.9965 49.5066 10.3988 50.5255 9.7452C52.2115 8.6997 53.6674 7.7969 56.5278 7.0171C57.5874 6.72419 58.6691 6.51856 59.7622 6.40226C57.8229 6.18236 55.6622 6.37999 53.3247 7.0171C50.4643 7.7969 49.0083 8.6997 47.3224 9.7452C46.3034 10.3984 45.2498 10.9958 44.166 11.5348C46.9414 12.6921 49.218 13.0593 51.2255 12.6921Z" fill="#D4E1F4"/>
<path d="M22.1097 29.8369C20.1042 28.7753 18.5717 26.6409 17.7945 23.8272C17.0292 20.9542 17.0949 17.923 17.9839 15.0859C18.7802 12.5947 21.2671 7.40337 28.2384 6.72575C18.7938 5.89293 15.6887 12.2455 14.7808 15.0859C13.8918 17.923 13.8261 20.9542 14.5913 23.8272C15.3686 26.6409 16.9011 28.7761 18.9066 29.8369C26.3724 33.7896 26.5941 34.7188 26.0826 40.8033C26.0712 40.9384 26.0596 41.0764 26.0478 41.2173H29.2509C29.2627 41.0763 29.2743 40.9383 29.2857 40.8033C29.7974 34.7188 29.5756 33.7896 22.1097 29.8369Z" fill="#D4E1F4"/>
<path d="M38.5049 36.7212C38.6024 36.8013 38.7148 36.8615 38.8355 36.8981C38.9563 36.9348 39.0831 36.9474 39.2086 36.9351C39.3342 36.9228 39.4562 36.8858 39.5675 36.8264C39.6788 36.7669 39.7773 36.6862 39.8574 36.5886C40.1265 36.2698 40.4623 36.014 40.8411 35.8392C41.2199 35.6644 41.6325 35.5749 42.0496 35.577C42.4668 35.5791 42.8784 35.6728 43.2554 35.8514C43.6324 36.03 43.9656 36.2892 44.2315 36.6107C44.3927 36.8035 44.6231 36.9254 44.8731 36.9503C45.1232 36.9753 45.3731 36.9013 45.5692 36.7442C45.7654 36.5871 45.8922 36.3594 45.9224 36.1099C45.9527 35.8604 45.8841 35.609 45.7312 35.4096C45.2864 34.8649 44.7268 34.4253 44.0924 34.1221C43.4579 33.819 42.7643 33.6598 42.0612 33.656C41.358 33.6521 40.6627 33.8038 40.025 34.1C39.3873 34.3962 38.8229 34.8297 38.3723 35.3695C38.2108 35.5664 38.134 35.8194 38.1589 36.0728C38.1838 36.3263 38.3082 36.5595 38.5049 36.7212Z" fill="#0635C9"/>
<path d="M32.8981 71.3954C32.7852 71.4523 32.6847 71.531 32.6023 71.627C32.5198 71.7229 32.4572 71.8341 32.4178 71.9543C32.3785 72.0745 32.3632 72.2012 32.373 72.3273C32.3827 72.4534 32.4173 72.5763 32.4746 72.689C32.532 72.8018 32.611 72.902 32.7072 72.9841C32.8034 73.0662 32.9148 73.1286 33.0351 73.1675C33.1555 73.2064 33.2823 73.2213 33.4083 73.2111C33.5344 73.2009 33.6572 73.166 33.7697 73.1082L34.7513 72.6087V74.2707C34.7513 74.4484 34.8006 74.6227 34.8937 74.7741C34.9868 74.9255 35.1201 75.0481 35.2787 75.1283L41.6142 78.3314C41.7473 78.3987 41.8943 78.434 42.0435 78.4347C42.1927 78.4354 42.34 78.4013 42.4737 78.3353L48.9508 75.1321C49.1114 75.0527 49.2466 74.9299 49.3411 74.7777C49.4356 74.6255 49.4857 74.4498 49.4857 74.2707V65.1112L52.0642 63.799C52.1767 63.7418 52.2768 63.6629 52.3588 63.567C52.4408 63.4711 52.5031 63.36 52.5421 63.24C52.5812 63.12 52.5962 62.9934 52.5864 62.8676C52.5765 62.7418 52.542 62.6192 52.4848 62.5067C52.4275 62.3942 52.3487 62.2941 52.2528 62.2121C52.1568 62.1301 52.0457 62.0678 51.9257 62.0288C51.8057 61.9897 51.6792 61.9747 51.5534 61.9845C51.4276 61.9944 51.3049 62.0289 51.1925 62.0861L49.4857 62.9545V59.3648L52.0824 58.0435C52.3097 57.9279 52.4817 57.7267 52.5607 57.4843C52.6396 57.2419 52.619 56.978 52.5034 56.7508C52.3878 56.5235 52.1867 56.3515 51.9443 56.2725C51.7018 56.1936 51.438 56.2142 51.2107 56.3298L49.4857 57.2084V53.6185L52.1005 52.2879C52.3277 52.1723 52.4996 51.9712 52.5785 51.7289C52.6573 51.4865 52.6367 51.2228 52.5211 50.9956C52.4055 50.7685 52.2044 50.5966 51.9621 50.5177C51.7197 50.4388 51.456 50.4595 51.2288 50.5751L49.4857 51.462V47.2444C49.4857 46.9896 49.3844 46.7452 49.2042 46.565C49.024 46.3848 48.7796 46.2835 48.5247 46.2835C48.2699 46.2835 48.0255 46.3848 47.8452 46.565C47.665 46.7452 47.5638 46.9896 47.5638 47.2444V52.4401L36.6732 57.9815V47.2444C36.6732 46.9896 36.5719 46.7452 36.3917 46.565C36.2115 46.3848 35.9671 46.2835 35.7122 46.2835C35.4574 46.2835 35.213 46.3848 35.0328 46.565C34.8525 46.7452 34.7513 46.9896 34.7513 47.2444V58.9597L32.9343 59.8845C32.8219 59.9417 32.7218 60.0206 32.6398 60.1165C32.5578 60.2125 32.4955 60.3236 32.4564 60.4436C32.4174 60.5636 32.4024 60.6902 32.4123 60.816C32.4221 60.9418 32.4567 61.0645 32.5139 61.1769C32.5712 61.2894 32.65 61.3895 32.746 61.4715C32.8419 61.5535 32.9531 61.6158 33.0731 61.6548C33.1931 61.6938 33.3196 61.7089 33.4454 61.699C33.5713 61.6891 33.6939 61.6546 33.8064 61.5973L34.7513 61.1169V64.7068L32.9162 65.6405C32.689 65.7561 32.517 65.9572 32.438 66.1996C32.359 66.442 32.3796 66.7058 32.4952 66.9331C32.6108 67.1603 32.8119 67.3324 33.0543 67.4113C33.2967 67.4903 33.5606 67.4697 33.7878 67.3541L34.7513 66.8625V70.4524L32.8981 71.3954ZM47.5638 73.6739L42.0525 76.3995L36.6732 73.6795V71.6308L47.5638 66.0894V73.6739ZM36.6732 60.1383L47.5638 54.5969V58.1868L36.6732 63.7282V60.1383ZM36.6732 65.8846L47.5638 60.3431V63.9329L36.6732 69.4743V65.8846Z" fill="#FFA552"/>
<path d="M18.0077 31.5356C21.3201 33.2891 23.1327 34.3908 23.8472 35.5451C24.5067 36.6106 24.3863 38.0435 24.1675 40.6422C24.1294 41.0959 24.0885 41.582 24.0485 42.1049C24.0384 42.2369 24.0557 42.3696 24.0992 42.4946C24.1428 42.6196 24.2117 42.7342 24.3017 42.8313C24.3917 42.9284 24.5007 43.0059 24.622 43.0589C24.7434 43.1119 24.8743 43.1392 25.0067 43.1392H31.5484V47.2445C31.5484 47.4993 31.6497 47.7438 31.8299 47.924C32.0101 48.1042 32.2545 48.2054 32.5094 48.2054H51.7281C51.983 48.2054 52.2274 48.1042 52.4076 47.924C52.5878 47.7438 52.6891 47.4993 52.6891 47.2445V43.1392H58.9577C59.0901 43.1392 59.221 43.1118 59.3423 43.0588C59.4636 43.0058 59.5727 42.9284 59.6626 42.8313C59.7526 42.7342 59.8215 42.6195 59.8651 42.4945C59.9086 42.3695 59.9259 42.2369 59.9158 42.1049C59.8761 41.5846 59.8357 41.1007 59.7974 40.6489C59.579 38.0481 59.4585 36.6154 60.1178 35.55C60.8312 34.3969 62.6441 33.2936 65.9574 31.5351C68.579 30.1436 70.489 27.3049 71.3357 23.542C72.1348 19.9913 71.8458 16.0683 70.5431 12.7785C69.2779 9.58134 67.1459 7.15369 64.3801 5.75825C61.1815 4.1442 57.2918 3.94416 52.8193 5.16343C49.689 6.01658 48.0466 7.03454 46.3094 8.11223C44.9599 8.98994 43.5366 9.74868 42.0556 10.3799C41.9986 10.4035 41.9429 10.4303 41.8888 10.46C41.4666 10.2301 40.9501 9.93144 40.3779 9.60136C37.4902 7.93542 33.1277 5.41488 29.4243 4.92448C21.3673 3.85608 15.2088 7.43621 12.9503 14.5018C10.7861 21.2718 13.0547 28.9135 18.0077 31.5356ZM50.7672 46.2835H33.4703V43.1392H50.7672V46.2835ZM14.781 15.0859C15.7183 12.1538 18.9965 5.48006 29.1716 6.8289C32.4969 7.26997 36.6614 9.67487 39.4171 11.2663C40.2459 11.7451 40.9618 12.1584 41.4921 12.4222C46.8371 15.0808 49.8702 14.9165 51.6865 14.5622C51.8103 14.538 51.9282 14.4897 52.0334 14.4199C52.1386 14.3502 52.229 14.2604 52.2995 14.1557C52.3699 14.051 52.4191 13.9335 52.4442 13.8098C52.4692 13.6861 52.4697 13.5587 52.4455 13.4349C52.4213 13.311 52.3729 13.1931 52.3032 13.0879C52.2334 12.9828 52.1437 12.8924 52.039 12.8219C51.9343 12.7514 51.8168 12.7022 51.6931 12.6772C51.5694 12.6521 51.442 12.6517 51.3181 12.6759C49.2881 13.0721 46.9838 12.7092 44.1659 11.5352C45.2497 10.9962 46.3035 10.3986 47.3225 9.74518C49.0085 8.69968 50.4645 7.79688 53.3249 7.01708C60.7073 5.00504 66.3318 7.36254 68.7566 13.4856C69.9206 16.4251 70.1773 19.9366 69.4613 23.1197C68.75 26.2805 67.1448 28.7288 65.057 29.8369C57.5937 33.7986 57.3717 34.7278 57.882 40.8094C57.8927 40.9423 57.904 41.0781 57.9161 41.2168H26.048C26.0598 41.0758 26.0714 40.9378 26.0828 40.8028C26.5953 34.7183 26.3727 33.7891 18.9068 29.8365C16.9013 28.7748 15.3688 26.6404 14.5916 23.8268C13.8264 20.9539 13.8921 17.9229 14.781 15.0859Z" fill="#0635C9"/>
</svg>
