<svg width="83" height="83" viewBox="0 0 83 83" fill="none" xmlns="http://www.w3.org/2000/svg">
<path d="M50.2789 12.3589C48.9526 12.1259 47.6582 11.7378 46.4225 11.2026C47.5062 10.6634 48.5599 10.0656 49.5788 9.41207C51.2648 8.36657 52.7208 7.46377 55.5812 6.68397C56.6407 6.39106 57.7224 6.18543 58.8155 6.06913C56.8762 5.84923 54.7155 6.04686 52.3781 6.68397C49.5177 7.46377 48.0617 8.36657 46.3757 9.41207C45.3568 10.0653 44.3031 10.6627 43.2194 11.2017C45.9947 12.3589 48.2713 12.7262 50.2789 12.3589Z" fill="#D4E1F4"/>
<path d="M21.1631 29.5038C19.1576 28.4421 17.625 26.3077 16.8478 23.4941C16.0825 20.6211 16.1482 17.5899 17.0373 14.7528C17.8336 12.2615 20.3205 7.07024 27.2918 6.39262C17.8472 5.5598 14.7421 11.9124 13.8341 14.7528C12.9451 17.5899 12.8794 20.6211 13.6447 23.4941C14.4219 26.3077 15.9545 28.4429 17.9599 29.5038C25.4258 33.4565 25.6474 34.3857 25.1359 40.4702C25.1246 40.6053 25.113 40.7433 25.1011 40.8842H28.3043C28.316 40.7431 28.3276 40.6051 28.339 40.4702C28.8507 34.3857 28.6289 33.4565 21.1631 29.5038Z" fill="#D4E1F4"/>
<path d="M37.5579 36.3881C37.6554 36.4682 37.7678 36.5283 37.8885 36.565C38.0092 36.6017 38.136 36.6143 38.2616 36.6019C38.3872 36.5896 38.5092 36.5527 38.6205 36.4933C38.7318 36.4338 38.8303 36.353 38.9104 36.2555C39.1795 35.9367 39.5153 35.6809 39.8941 35.5061C40.2729 35.3313 40.6854 35.2418 41.1026 35.2439C41.5198 35.246 41.9314 35.3396 42.3084 35.5183C42.6854 35.6969 43.0186 35.9561 43.2844 36.2776C43.4457 36.4704 43.676 36.5923 43.9261 36.6172C44.1762 36.6422 44.4261 36.5682 44.6222 36.411C44.8184 36.2539 44.9451 36.0263 44.9754 35.7768C45.0057 35.5273 44.937 35.2759 44.7841 35.0764C44.3394 34.5318 43.7798 34.0921 43.1454 33.789C42.5109 33.4858 41.8173 33.3267 41.1142 33.3228C40.411 33.319 39.7157 33.4706 39.078 33.7669C38.4403 34.0631 37.8759 34.4966 37.4253 35.0364C37.2638 35.2333 37.187 35.4862 37.2119 35.7397C37.2367 35.9932 37.3612 36.2264 37.5579 36.3881Z" fill="#0635C9"/>
<path d="M31.9516 71.0622C31.8387 71.1192 31.7382 71.1979 31.6557 71.2938C31.5733 71.3897 31.5106 71.501 31.4713 71.6212C31.4319 71.7413 31.4167 71.8681 31.4264 71.9942C31.4362 72.1203 31.4707 72.2432 31.5281 72.3559C31.5854 72.4686 31.6645 72.5689 31.7607 72.651C31.8568 72.7331 31.9683 72.7954 32.0886 72.8344C32.2089 72.8733 32.3357 72.8881 32.4618 72.878C32.5878 72.8678 32.7107 72.8328 32.8232 72.7751L33.8048 72.2756V73.9375C33.8048 74.1153 33.854 74.2895 33.9472 74.4409C34.0403 74.5923 34.1735 74.715 34.3322 74.7952L40.6676 77.9983C40.8008 78.0655 40.9478 78.1009 41.0969 78.1016C41.2461 78.1022 41.3934 78.0682 41.5272 78.0021L48.0042 74.799C48.1648 74.7196 48.3 74.5968 48.3946 74.4446C48.4891 74.2923 48.5392 74.1167 48.5391 73.9375V64.778L51.1177 63.4659C51.2301 63.4086 51.3302 63.3298 51.4122 63.2339C51.4942 63.138 51.5565 63.0268 51.5956 62.9068C51.6346 62.7868 51.6497 62.6603 51.6398 62.5345C51.63 62.4087 51.5955 62.286 51.5382 62.1736C51.481 62.0611 51.4022 61.961 51.3062 61.879C51.2103 61.797 51.0992 61.7347 50.9792 61.6956C50.8592 61.6566 50.7327 61.6415 50.6068 61.6514C50.481 61.6612 50.3584 61.6958 50.2459 61.753L48.5391 62.6214V59.0316L51.1359 57.7103C51.3632 57.5947 51.5352 57.3936 51.6141 57.1512C51.6931 56.9087 51.6725 56.6449 51.5569 56.4176C51.4413 56.1904 51.2401 56.0184 50.9977 55.9394C50.7553 55.8605 50.4914 55.8811 50.2642 55.9967L48.5391 56.8753V53.2854L51.154 51.9548C51.3811 51.8392 51.5531 51.6381 51.6319 51.3957C51.7108 51.1534 51.6902 50.8896 51.5746 50.6625C51.459 50.4354 51.2579 50.2634 51.0155 50.1846C50.7732 50.1057 50.5094 50.1263 50.2823 50.2419L48.5391 51.1289V46.9113C48.5391 46.6565 48.4379 46.412 48.2577 46.2318C48.0775 46.0516 47.8331 45.9504 47.5782 45.9504C47.3233 45.9504 47.0789 46.0516 46.8987 46.2318C46.7185 46.412 46.6173 46.6565 46.6173 46.9113V52.1069L35.7266 57.6484V46.9113C35.7266 46.6565 35.6254 46.412 35.4452 46.2318C35.265 46.0516 35.0206 45.9504 34.7657 45.9504C34.5108 45.9504 34.2664 46.0516 34.0862 46.2318C33.906 46.412 33.8048 46.6565 33.8048 46.9113V58.6266L31.9878 59.5513C31.8753 59.6086 31.7752 59.6874 31.6932 59.7834C31.6112 59.8793 31.549 59.9905 31.5099 60.1105C31.4709 60.2305 31.4559 60.357 31.4657 60.4829C31.4756 60.6087 31.5101 60.7313 31.5674 60.8438C31.6246 60.9563 31.7035 61.0563 31.7994 61.1383C31.8954 61.2203 32.0065 61.2826 32.1265 61.3217C32.2466 61.3607 32.3731 61.3757 32.4989 61.3659C32.6247 61.356 32.7474 61.3215 32.8598 61.2642L33.8048 60.7837V64.3736L31.9697 65.3073C31.7425 65.4229 31.5704 65.624 31.4915 65.8665C31.4125 66.1089 31.4331 66.3727 31.5486 66.6C31.6642 66.8272 31.8653 66.9992 32.1078 67.0782C32.3502 67.1572 32.614 67.1366 32.8413 67.021L33.8048 66.5293V70.1192L31.9516 71.0622ZM46.6173 73.3408L41.106 76.0663L35.7266 73.3464V71.2977L46.6173 65.7563V73.3408ZM35.7266 59.8052L46.6173 54.2638V57.8537L35.7266 63.3951V59.8052ZM35.7266 65.5514L46.6173 60.01V63.5998L35.7266 69.1412V65.5514Z" fill="#1AE5BE"/>
<path d="M17.0608 31.2024C20.3732 32.956 22.1858 34.0577 22.9003 35.2119C23.5598 36.2775 23.4394 37.7104 23.2206 40.3091C23.1825 40.7628 23.1416 41.2489 23.1016 41.7718C23.0915 41.9038 23.1088 42.0364 23.1523 42.1614C23.1959 42.2864 23.2648 42.4011 23.3548 42.4982C23.4448 42.5953 23.5538 42.6728 23.6751 42.7258C23.7965 42.7787 23.9274 42.8061 24.0598 42.8061H30.6015V46.9114C30.6015 47.1662 30.7028 47.4106 30.883 47.5908C31.0632 47.771 31.3076 47.8723 31.5625 47.8723H50.7812C51.0361 47.8723 51.2805 47.771 51.4607 47.5908C51.6409 47.4106 51.7422 47.1662 51.7422 46.9114V42.8061H58.0108C58.1432 42.8061 58.2741 42.7787 58.3954 42.7257C58.5167 42.6727 58.6258 42.5952 58.7157 42.4981C58.8057 42.401 58.8746 42.2864 58.9182 42.1614C58.9617 42.0364 58.979 41.9038 58.9689 41.7718C58.9292 41.2514 58.8888 40.7676 58.8505 40.3158C58.6321 37.715 58.5117 36.2823 59.1709 35.2169C59.8843 34.0638 61.6972 32.9605 65.0105 31.2019C67.6321 29.8105 69.5421 26.9717 70.3888 23.2089C71.1879 19.6582 70.8989 15.7352 69.5962 12.4454C68.331 9.24821 66.199 6.82056 63.4333 5.42512C60.2346 3.81107 56.3449 3.61103 51.8724 4.8303C48.7421 5.68345 47.0997 6.70141 45.3625 7.7791C44.013 8.65681 42.5897 9.41555 41.1087 10.0468C41.0517 10.0704 40.996 10.0971 40.9419 10.1268C40.5197 9.897 40.0032 9.59831 39.431 9.26823C36.5433 7.60229 32.1808 5.08175 28.4774 4.59135C20.4204 3.52295 14.2619 7.10308 12.0034 14.1687C9.8392 20.9387 12.1078 28.5803 17.0608 31.2024ZM49.8203 45.9504H32.5234V42.8061H49.8203V45.9504ZM13.8341 14.7528C14.7714 11.8206 18.0496 5.14693 28.2247 6.49577C31.55 6.93684 35.7145 9.34174 38.4702 10.9332C39.299 11.4119 40.0149 11.8253 40.5452 12.0891C45.8902 14.7477 48.9233 14.5833 50.7396 14.2291C50.8634 14.2049 50.9813 14.1565 51.0865 14.0868C51.1917 14.017 51.2821 13.9273 51.3526 13.8226C51.423 13.7179 51.4722 13.6004 51.4973 13.4767C51.5223 13.353 51.5228 13.2256 51.4986 13.1017C51.4744 12.9779 51.426 12.86 51.3563 12.7548C51.2865 12.6496 51.1968 12.5592 51.0921 12.4888C50.9874 12.4183 50.8699 12.3691 50.7462 12.3441C50.6225 12.319 50.4951 12.3186 50.3712 12.3427C48.3412 12.739 46.0369 12.3761 43.219 11.2021C44.3028 10.663 45.3566 10.0655 46.3756 9.41205C48.0616 8.36655 49.5176 7.46375 52.378 6.68395C59.7604 4.67191 65.3849 7.02941 67.8097 13.1525C68.9737 16.092 69.2304 19.6034 68.5144 22.7865C67.8031 25.9474 66.1979 28.3957 64.1101 29.5038C56.6468 33.4654 56.4248 34.3947 56.9351 40.4763C56.9458 40.6092 56.9571 40.745 56.9692 40.8837H25.1011C25.1129 40.7427 25.1245 40.6047 25.1359 40.4697C25.6484 34.3852 25.4258 33.456 17.9599 29.5033C15.9545 28.4417 14.4219 26.3073 13.6447 23.4936C12.8795 20.6208 12.9452 17.5898 13.8341 14.7528Z" fill="#0635C9"/>
</svg>
