<svg width="151" height="151" viewBox="0 0 151 151" fill="none" xmlns="http://www.w3.org/2000/svg">
<path d="M77.6596 62.2482C75.7666 61.1414 74.0238 59.7958 72.474 58.2445C69.088 54.8597 66.7248 50.5888 65.6555 45.922C64.5861 41.2552 64.8541 36.3815 66.4284 31.8601C68.0028 27.3386 70.82 23.3525 74.5566 20.3592C78.2932 17.3658 82.798 15.4865 87.554 14.9367C86.5815 14.8238 85.6034 14.7661 84.6243 14.7642C79.5868 14.7642 74.6625 16.2581 70.474 19.0568C66.2855 21.8555 63.0209 25.8334 61.0931 30.4874C59.1654 35.1415 58.6609 40.2626 59.6437 45.2033C60.6264 50.1441 63.0521 54.6824 66.6141 58.2445C69.3213 60.9595 72.6083 63.0261 76.2284 64.2891C79.8485 65.5521 83.7077 65.9788 87.5162 65.5371C84.0388 65.1334 80.6827 64.0136 77.6596 62.2482Z" fill="#D4E1F4"/>
<path d="M55.7726 19.4066C55.7726 18.9404 55.5874 18.4933 55.2577 18.1636C54.9281 17.834 54.4809 17.6488 54.0147 17.6488H32.708C32.2418 17.6488 31.7947 17.834 31.465 18.1636C31.1354 18.4933 30.9502 18.9404 30.9502 19.4066C30.9502 19.8728 31.1354 20.3199 31.465 20.6495C31.7947 20.9792 32.2418 21.1644 32.708 21.1644H54.0147C54.4809 21.1644 54.9281 20.9792 55.2577 20.6495C55.5874 20.3199 55.7726 19.8728 55.7726 19.4066Z" fill="#0635C9"/>
<path d="M33.877 127.557C34.2909 127.557 34.6996 127.535 35.1045 127.499H35.12H67.6844V132.43C67.6889 136.413 69.2729 140.231 72.0891 143.047C74.9052 145.863 78.7234 147.447 82.706 147.452H128.292C128.512 147.468 128.735 147.477 128.961 147.477C129.429 147.471 129.877 147.281 130.206 146.947C130.535 146.613 130.719 146.163 130.718 145.694C130.718 145.228 130.533 144.781 130.203 144.451C129.874 144.122 129.427 143.936 128.961 143.936H128.439C127.084 143.805 125.826 143.174 124.911 142.167C123.995 141.159 123.487 139.847 123.485 138.486V109.218C123.481 105.235 121.897 101.417 119.081 98.6008C116.264 95.7845 112.446 94.2004 108.463 94.1959H86.4537V67.4622C86.4537 66.996 86.2685 66.5489 85.9389 66.2192C85.6092 65.8896 85.1621 65.7044 84.6959 65.7044C84.2297 65.7044 83.7826 65.8896 83.4529 66.2192C83.1233 66.5489 82.9381 66.996 82.9381 67.4622V94.1973H58.1673C58.1304 94.1973 58.0935 94.1973 58.0571 94.2009C57.956 94.1985 57.8544 94.1973 57.7524 94.1973C54.1872 94.2014 50.7692 95.6194 48.2482 98.1404C45.7273 100.661 44.3092 104.079 44.3052 107.645V113.614C44.2616 116.351 43.1438 118.961 41.1928 120.881C39.2419 122.801 36.6142 123.877 33.8768 123.877C31.1394 123.877 28.5117 122.801 26.5608 120.881C24.6098 118.961 23.492 116.351 23.4484 113.614V7.17566C23.8688 7.37182 24.2697 7.60724 24.6458 7.87878C25.7213 8.60359 27.0599 9.50535 29.565 9.50535C32.0702 9.50535 33.4091 8.60359 34.4846 7.87878C35.369 7.28318 36.008 6.85339 37.4397 6.85339C38.8715 6.85339 39.511 7.28406 40.3952 7.87878C41.4707 8.60359 42.8093 9.50535 45.315 9.50535C47.8208 9.50535 49.1594 8.60359 50.2352 7.87878C51.1196 7.28318 51.7586 6.85339 53.1906 6.85339C54.6227 6.85339 55.2616 7.28406 56.1464 7.87878C57.2222 8.6033 58.5604 9.50505 61.0662 9.50505C63.572 9.50505 64.9105 8.6033 65.9863 7.87878C66.8708 7.28289 67.5098 6.85339 68.9421 6.85339C70.3744 6.85339 71.0137 7.28406 71.8984 7.87878C72.9739 8.6033 74.3131 9.50505 76.8203 9.50505C79.3275 9.50505 80.6652 8.6033 81.7422 7.87878C82.1186 7.60624 82.52 7.36993 82.941 7.17302V13.0057C82.941 13.4719 83.1262 13.919 83.4559 14.2487C83.7855 14.5784 84.2326 14.7635 84.6988 14.7635C85.165 14.7635 85.6121 14.5784 85.9418 14.2487C86.2714 13.919 86.4566 13.4719 86.4566 13.0057V5.09558C86.4566 4.62938 86.2714 4.18227 85.9418 3.85262C85.6121 3.52297 85.165 3.33777 84.6988 3.33777C82.1928 3.33777 80.8539 4.23953 79.7769 4.96404C78.8922 5.55994 78.2535 5.98943 76.8203 5.98943C75.3871 5.98943 74.7487 5.55876 73.8637 4.96404C72.787 4.23953 71.4478 3.33777 68.9421 3.33777C66.4363 3.33777 65.0975 4.23953 64.022 4.96404C63.1372 5.55994 62.4985 5.98943 61.0662 5.98943C59.6339 5.98943 58.9952 5.55876 58.1107 4.96404C57.035 4.23953 55.6967 3.33777 53.1906 3.33777C50.6846 3.33777 49.3466 4.23953 48.2708 4.96404C47.386 5.55994 46.7474 5.98943 45.315 5.98943C43.8827 5.98943 43.244 5.55876 42.3596 4.96404C41.2841 4.23953 39.9455 3.33777 37.4397 3.33777C34.934 3.33777 33.5957 4.23953 32.5202 4.96433C31.636 5.55994 30.9968 5.98972 29.565 5.98972C28.1333 5.98972 27.4946 5.55906 26.6102 4.96433C25.5347 4.23953 24.1952 3.33777 21.6909 3.33777C21.2247 3.33777 20.7776 3.52297 20.448 3.85262C20.1183 4.18227 19.9331 4.62938 19.9331 5.09558V113.614C19.9375 117.31 21.4081 120.854 24.0221 123.468C26.6361 126.082 30.1803 127.552 33.877 127.557ZM108.462 97.713C111.512 97.7165 114.437 98.9299 116.594 101.087C118.751 103.244 119.965 106.169 119.968 109.22V138.487C119.966 140.458 120.615 142.374 121.814 143.938H82.706C79.6555 143.934 76.7309 142.721 74.5738 140.564C72.4167 138.407 71.2034 135.482 71.2 132.432V107.645C71.2008 105.775 70.8106 103.925 70.0545 102.215C69.2983 100.504 68.193 98.9709 66.8093 97.713H108.462ZM47.8211 113.614V107.645C47.8211 106.34 48.078 105.049 48.5771 103.844C49.0762 102.639 49.8078 101.544 50.73 100.622C51.6522 99.6996 52.7471 98.9681 53.9521 98.469C55.157 97.9698 56.4485 97.713 57.7527 97.713C59.057 97.713 60.3484 97.9698 61.5534 98.469C62.7584 98.9681 63.8532 99.6996 64.7755 100.622C65.6977 101.544 66.4293 102.639 66.9284 103.844C67.4275 105.049 67.6844 106.34 67.6844 107.645V123.986H43.1846C44.6437 122.68 45.811 121.082 46.6099 119.294C47.4089 117.507 47.8216 115.571 47.8211 113.614Z" fill="#0635C9"/>
<path d="M58.4971 30.3389H43.9014C43.4352 30.3389 42.9881 30.5241 42.6584 30.8537C42.3288 31.1834 42.1436 31.6305 42.1436 32.0967C42.1436 32.5629 42.3288 33.01 42.6584 33.3397C42.9881 33.6693 43.4352 33.8545 43.9014 33.8545H58.4971C58.9633 33.8545 59.4104 33.6693 59.74 33.3397C60.0697 33.01 60.2549 32.5629 60.2549 32.0967C60.2549 31.6305 60.0697 31.1834 59.74 30.8537C59.4104 30.5241 58.9633 30.3389 58.4971 30.3389Z" fill="#0635C9"/>
<path d="M37.5314 30.3389H32.708C32.2418 30.3389 31.7947 30.5241 31.465 30.8537C31.1354 31.1834 30.9502 31.6305 30.9502 32.0967C30.9502 32.5629 31.1354 33.01 31.465 33.3397C31.7947 33.6693 32.2418 33.8545 32.708 33.8545H37.5314C37.9976 33.8545 38.4447 33.6693 38.7744 33.3397C39.1041 33.01 39.2893 32.5629 39.2893 32.0967C39.2893 31.6305 39.1041 31.1834 38.7744 30.8537C38.4447 30.5241 37.9976 30.3389 37.5314 30.3389Z" fill="#0635C9"/>
<path d="M43.9014 46.5448H57.6182C58.0844 46.5448 58.5315 46.3596 58.8611 46.0299C59.1908 45.7003 59.376 45.2532 59.376 44.787C59.376 44.3208 59.1908 43.8737 58.8611 43.544C58.5315 43.2144 58.0844 43.0292 57.6182 43.0292H43.9014C43.4352 43.0292 42.9881 43.2144 42.6584 43.544C42.3288 43.8737 42.1436 44.3208 42.1436 44.787C42.1436 45.2532 42.3288 45.7003 42.6584 46.0299C42.9881 46.3596 43.4352 46.5448 43.9014 46.5448Z" fill="#0635C9"/>
<path d="M37.5314 43.0292H32.708C32.2418 43.0292 31.7947 43.2144 31.465 43.544C31.1354 43.8737 30.9502 44.3208 30.9502 44.787C30.9502 45.2532 31.1354 45.7003 31.465 46.0299C31.7947 46.3596 32.2418 46.5448 32.708 46.5448H37.5314C37.9976 46.5448 38.4447 46.3596 38.7744 46.0299C39.1041 45.7003 39.2893 45.2532 39.2893 44.787C39.2893 44.3208 39.1041 43.8737 38.7744 43.544C38.4447 43.2144 37.9976 43.0292 37.5314 43.0292Z" fill="#0635C9"/>
<path d="M43.9014 59.2362H63.4775C63.9437 59.2362 64.3908 59.051 64.7205 58.7213C65.0502 58.3917 65.2354 57.9446 65.2354 57.4784C65.2354 57.0122 65.0502 56.5651 64.7205 56.2354C64.3908 55.9057 63.9437 55.7206 63.4775 55.7206H43.9014C43.4352 55.7206 42.9881 55.9057 42.6584 56.2354C42.3288 56.5651 42.1436 57.0122 42.1436 57.4784C42.1436 57.9446 42.3288 58.3917 42.6584 58.7213C42.9881 59.051 43.4352 59.2362 43.9014 59.2362Z" fill="#0635C9"/>
<path d="M37.5314 55.7206H32.708C32.2418 55.7206 31.7947 55.9057 31.465 56.2354C31.1354 56.5651 30.9502 57.0122 30.9502 57.4784C30.9502 57.9446 31.1354 58.3917 31.465 58.7213C31.7947 59.051 32.2418 59.2362 32.708 59.2362H37.5314C37.9976 59.2362 38.4447 59.051 38.7744 58.7213C39.1041 58.3917 39.2893 57.9446 39.2893 57.4784C39.2893 57.0122 39.1041 56.5651 38.7744 56.2354C38.4447 55.9057 37.9976 55.7206 37.5314 55.7206Z" fill="#0635C9"/>
<path d="M73.6778 68.4099H43.9014C43.4352 68.4099 42.9881 68.5951 42.6584 68.9248C42.3288 69.2544 42.1436 69.7015 42.1436 70.1677C42.1436 70.6339 42.3288 71.081 42.6584 71.4107C42.9881 71.7403 43.4352 71.9255 43.9014 71.9255H73.6778C74.144 71.9255 74.5911 71.7403 74.9208 71.4107C75.2504 71.081 75.4356 70.6339 75.4356 70.1677C75.4356 69.7015 75.2504 69.2544 74.9208 68.9248C74.5911 68.5951 74.144 68.4099 73.6778 68.4099Z" fill="#0635C9"/>
<path d="M37.5314 68.4099H32.708C32.2418 68.4099 31.7947 68.5951 31.465 68.9248C31.1354 69.2544 30.9502 69.7015 30.9502 70.1677C30.9502 70.6339 31.1354 71.081 31.465 71.4107C31.7947 71.7403 32.2418 71.9255 32.708 71.9255H37.5314C37.9976 71.9255 38.4447 71.7403 38.7744 71.4107C39.1041 71.081 39.2893 70.6339 39.2893 70.1677C39.2893 69.7015 39.1041 69.2544 38.7744 68.9248C38.4447 68.5951 37.9976 68.4099 37.5314 68.4099Z" fill="#0635C9"/>
<path d="M73.6778 79.6357H43.9014C43.4352 79.6357 42.9881 79.8208 42.6584 80.1505C42.3288 80.4802 42.1436 80.9273 42.1436 81.3935C42.1436 81.8597 42.3288 82.3068 42.6584 82.6364C42.9881 82.9661 43.4352 83.1513 43.9014 83.1513H73.6778C74.144 83.1513 74.5911 82.9661 74.9208 82.6364C75.2504 82.3068 75.4356 81.8597 75.4356 81.3935C75.4356 80.9273 75.2504 80.4802 74.9208 80.1505C74.5911 79.8208 74.144 79.6357 73.6778 79.6357Z" fill="#0635C9"/>
<path d="M37.5314 79.6357H32.708C32.2418 79.6357 31.7947 79.8208 31.465 80.1505C31.1354 80.4802 30.9502 80.9273 30.9502 81.3935C30.9502 81.8597 31.1354 82.3068 31.465 82.6364C31.7947 82.9661 32.2418 83.1513 32.708 83.1513H37.5314C37.9976 83.1513 38.4447 82.9661 38.7744 82.6364C39.1041 82.3068 39.2893 81.8597 39.2893 81.3935C39.2893 80.9273 39.1041 80.4802 38.7744 80.1505C38.4447 79.8208 37.9976 79.6357 37.5314 79.6357Z" fill="#0635C9"/>
<path d="M91.603 132.059H109.591C110.057 132.059 110.505 131.874 110.834 131.544C111.164 131.215 111.349 130.768 111.349 130.301C111.349 129.835 111.164 129.388 110.834 129.058C110.505 128.729 110.057 128.544 109.591 128.544H91.603C91.1368 128.544 90.6897 128.729 90.3601 129.058C90.0304 129.388 89.8452 129.835 89.8452 130.301C89.8452 130.768 90.0304 131.215 90.3601 131.544C90.6897 131.874 91.1368 132.059 91.603 132.059Z" fill="#0635C9"/>
<path d="M80.5986 132.059H85.5987C86.0649 132.059 86.512 131.874 86.8417 131.544C87.1713 131.215 87.3565 130.768 87.3565 130.301C87.3565 129.835 87.1713 129.388 86.8417 129.058C86.512 128.729 86.0649 128.544 85.5987 128.544H80.5986C80.1324 128.544 79.6853 128.729 79.3557 129.058C79.026 129.388 78.8408 129.835 78.8408 130.301C78.8408 130.768 79.026 131.215 79.3557 131.544C79.6853 131.874 80.1324 132.059 80.5986 132.059Z" fill="#0635C9"/>
<path d="M91.603 121.805H109.591C110.057 121.805 110.505 121.62 110.834 121.29C111.164 120.961 111.349 120.514 111.349 120.047C111.349 119.581 111.164 119.134 110.834 118.805C110.505 118.475 110.057 118.29 109.591 118.29H91.603C91.1368 118.29 90.6897 118.475 90.3601 118.805C90.0304 119.134 89.8452 119.581 89.8452 120.047C89.8452 120.514 90.0304 120.961 90.3601 121.29C90.6897 121.62 91.1368 121.805 91.603 121.805Z" fill="#0635C9"/>
<path d="M80.5986 121.805H85.5987C86.0649 121.805 86.512 121.62 86.8417 121.29C87.1713 120.961 87.3565 120.514 87.3565 120.047C87.3565 119.581 87.1713 119.134 86.8417 118.805C86.512 118.475 86.0649 118.29 85.5987 118.29H80.5986C80.1324 118.29 79.6853 118.475 79.3557 118.805C79.026 119.134 78.8408 119.581 78.8408 120.047C78.8408 120.514 79.026 120.961 79.3557 121.29C79.6853 121.62 80.1324 121.805 80.5986 121.805Z" fill="#0635C9"/>
<path d="M91.603 111.551H109.591C110.057 111.551 110.505 111.366 110.834 111.037C111.164 110.707 111.349 110.26 111.349 109.794C111.349 109.327 111.164 108.88 110.834 108.551C110.505 108.221 110.057 108.036 109.591 108.036H91.603C91.1368 108.036 90.6897 108.221 90.3601 108.551C90.0304 108.88 89.8452 109.327 89.8452 109.794C89.8452 110.26 90.0304 110.707 90.3601 111.037C90.6897 111.366 91.1368 111.551 91.603 111.551Z" fill="#0635C9"/>
<path d="M80.5986 111.551H85.5987C86.0649 111.551 86.512 111.366 86.8417 111.037C87.1713 110.707 87.3565 110.26 87.3565 109.794C87.3565 109.327 87.1713 108.88 86.8417 108.551C86.512 108.221 86.0649 108.036 85.5987 108.036H80.5986C80.1324 108.036 79.6853 108.221 79.3557 108.551C79.026 108.88 78.8408 109.327 78.8408 109.794C78.8408 110.26 79.026 110.707 79.3557 111.037C79.6853 111.366 80.1324 111.551 80.5986 111.551Z" fill="#0635C9"/>
<path d="M70.0285 65.2846C75.2995 68.3549 81.4049 69.684 87.4752 69.0824C93.5455 68.4809 99.2713 65.9794 103.837 61.9342L112.209 70.3046L109.826 72.6873C109.497 73.0169 109.311 73.464 109.311 73.9302C109.311 74.3964 109.497 74.8435 109.826 75.1731L119.126 84.4731C120.418 85.7623 122.169 86.4864 123.994 86.4864C125.82 86.4864 127.57 85.7623 128.862 84.4731C130.152 83.1809 130.875 81.4301 130.875 79.6049C130.875 77.7796 130.152 76.0288 128.862 74.7366L119.562 65.4366C119.399 65.2733 119.205 65.1438 118.992 65.0555C118.779 64.9671 118.55 64.9216 118.319 64.9216C118.089 64.9216 117.86 64.9671 117.647 65.0555C117.433 65.1438 117.24 65.2733 117.076 65.4366L114.693 67.8202L106.321 59.4477C111.207 53.9172 113.803 46.7326 113.58 39.3559C113.357 31.9793 110.331 24.9647 105.119 19.7396C102.205 16.8286 98.7026 14.5724 94.8471 13.1213C90.9916 11.6703 86.8711 11.0577 82.7602 11.3244C78.6494 11.5912 74.6426 12.7311 71.0069 14.6683C67.3713 16.6054 64.1903 19.2953 61.6761 22.5586C59.1618 25.8219 57.372 29.5836 56.426 33.593C55.48 37.6024 55.3995 41.7675 56.1898 45.8105C56.9802 49.8535 58.6233 53.6815 61.0095 57.0395C63.3958 60.3976 66.4704 63.2083 70.0285 65.2846ZM118.32 69.1655L126.377 77.2221C127.009 77.854 127.363 78.7109 127.364 79.6045C127.364 80.498 127.009 81.355 126.377 81.9868C125.745 82.6187 124.888 82.9737 123.994 82.9737C123.101 82.9737 122.244 82.6188 121.612 81.987L113.555 73.9304L118.32 69.1655ZM66.6139 22.2243C69.9791 18.861 74.2191 16.5075 78.8533 15.4305C83.4875 14.3535 88.3308 14.596 92.8343 16.1306C97.3377 17.6652 101.321 20.4305 104.334 24.1131C107.346 27.7958 109.267 32.2485 109.878 36.9668C110.489 41.6852 109.767 46.4804 107.792 50.8091C105.818 55.1378 102.671 58.827 98.707 61.4586C94.7433 64.0902 90.1218 65.559 85.3661 65.6986C80.6104 65.8381 75.9107 64.6429 71.7995 62.2482C69.9065 61.1414 68.1637 59.7958 66.6139 58.2445C61.8374 53.4679 59.154 46.9895 59.154 40.2344C59.154 33.4793 61.8374 27.0009 66.6139 22.2243Z" fill="#FFA552"/>
<path d="M71.8733 39.5285C72.5975 39.9117 74.1039 40.7095 74.3515 41.1105C74.4655 41.2948 74.399 42.0855 74.3287 42.9228C74.309 43.1572 74.2882 43.406 74.2674 43.6746C74.113 45.6961 73.8866 52.5753 77.4719 56.279C77.7913 56.5926 78.181 56.8254 78.6086 56.9578C79.0738 57.1236 79.5741 57.1657 80.0604 57.0798C80.5468 56.9939 81.0024 56.7831 81.3827 56.4679C81.7629 56.1528 82.0547 55.7442 82.2293 55.2822C82.4039 54.8203 82.4555 54.3209 82.3789 53.833C82.3203 53.1885 81.766 46.144 84.6581 42.583C87.5017 46.1736 86.9489 53.1984 86.892 53.833C86.8155 54.321 86.8671 54.8205 87.0419 55.2825C87.2168 55.7445 87.5088 56.153 87.8892 56.4681C88.2697 56.7831 88.7255 56.9938 89.212 57.0794C89.6985 57.165 90.1989 57.1226 90.664 56.9563C91.0911 56.8238 91.4803 56.5913 91.7996 56.2781C95.384 52.5744 95.1587 45.694 95.0041 43.6734C94.9838 43.406 94.963 43.1569 94.9431 42.9249C94.8728 42.087 94.8066 41.2957 94.9203 41.112C95.1678 40.7121 96.6754 39.9108 97.3997 39.5273C100.961 37.6377 101.794 32.156 100.313 28.418C99.6354 26.5932 98.3034 25.0857 96.5761 24.1884C94.6639 23.2239 92.3849 23.0912 89.8021 23.7952C88.507 24.1395 87.2774 24.6944 86.1625 25.4379C85.677 25.7513 85.173 26.035 84.6532 26.2875L84.4572 26.1744C82.9044 25.2779 80.5586 23.9229 78.4285 23.6405C74.7608 23.1542 70.2781 24.4049 68.6905 29.3736C67.3923 33.4356 68.7904 37.8964 71.8733 39.5285ZM72.0397 30.4436C72.5102 28.9731 73.9065 26.5872 77.9667 27.1251C79.4049 27.3158 81.4674 28.507 82.6997 29.2186C83.1391 29.4721 83.5173 29.6909 83.822 29.8424C85.2869 30.571 87.5029 31.4883 89.8047 31.0377C90.2214 30.9567 90.5946 30.7277 90.8556 30.3929C91.1165 30.0582 91.2476 29.6403 91.2245 29.2165C91.2014 28.7927 91.0257 28.3916 90.7299 28.0872C90.4341 27.7828 90.0382 27.5957 89.6152 27.5604C89.9772 27.4126 90.3483 27.2879 90.7261 27.1872C94.6912 26.1061 96.3511 27.9636 97.0434 29.7126C98.0395 32.2248 97.3979 35.5482 95.7511 36.4216C91.6885 38.5778 91.1243 39.4685 91.4392 43.2185C91.4583 43.4426 91.4785 43.6828 91.4978 43.9409C91.7644 47.4272 91.2444 50.0971 90.4882 51.8736C90.4947 48.8754 90.0678 43.7112 87.3763 40.3532C87.0502 39.9511 86.6389 39.6263 86.1721 39.4023C85.7054 39.1783 85.1947 39.0607 84.677 39.0579C84.1592 39.0551 83.6473 39.1672 83.1781 39.3861C82.7089 39.605 82.2942 39.9253 81.9637 40.3239C79.2148 43.6714 78.7771 48.8651 78.7821 51.8745C78.0259 50.0977 77.5062 47.4284 77.7728 43.9418C77.7927 43.6825 77.8129 43.4414 77.8314 43.2167C78.1472 39.4626 77.583 38.5734 73.5183 36.4216C71.9741 35.6039 71.2832 32.8104 72.0397 30.4436Z" fill="#FFA552"/>
</svg>
