<svg width="151" height="151" viewBox="0 0 151 151" fill="none" xmlns="http://www.w3.org/2000/svg">
<path d="M77.7532 61.8759C75.8603 60.7691 74.1175 59.4235 72.5677 57.8722C69.1817 54.4873 66.8184 50.2165 65.7491 45.5497C64.6798 40.8829 64.9477 36.0092 66.5221 31.4877C68.0965 26.9663 70.9136 22.9802 74.6502 19.9869C78.3868 16.9935 82.8916 15.1142 87.6477 14.5644C86.6751 14.4514 85.697 14.3938 84.718 14.3918C79.6805 14.3919 74.7561 15.8858 70.5676 18.6845C66.3791 21.4832 63.1146 25.4611 61.1868 30.1151C59.259 34.7691 58.7546 39.8903 59.7373 44.831C60.72 49.7717 63.1457 54.3101 66.7077 57.8722C69.4149 60.5872 72.702 62.6538 76.3221 63.9168C79.9421 65.1798 83.8013 65.6065 87.6099 65.1648C84.1324 64.7611 80.7763 63.6413 77.7532 61.8759Z" fill="#D4E1F4"/>
<path d="M55.8663 19.0343C55.8663 18.5681 55.6811 18.121 55.3515 17.7913C55.0218 17.4617 54.5747 17.2765 54.1085 17.2765H32.8018C32.3356 17.2765 31.8884 17.4617 31.5588 17.7913C31.2291 18.121 31.0439 18.5681 31.0439 19.0343C31.0439 19.5005 31.2291 19.9476 31.5588 20.2773C31.8884 20.6069 32.3356 20.7921 32.8018 20.7921H54.1085C54.5747 20.7921 55.0218 20.6069 55.3515 20.2773C55.6811 19.9476 55.8663 19.5005 55.8663 19.0343Z" fill="#0635C9"/>
<path d="M33.9707 127.184C34.3847 127.184 34.7934 127.163 35.1982 127.127H35.2138H67.7781V132.058C67.7826 136.04 69.3667 139.859 72.1828 142.675C74.9989 145.491 78.8172 147.075 82.7998 147.08H128.386C128.606 147.096 128.829 147.104 129.054 147.104C129.523 147.099 129.971 146.908 130.3 146.575C130.629 146.241 130.813 145.791 130.812 145.322C130.812 144.856 130.627 144.409 130.297 144.079C129.968 143.749 129.52 143.564 129.054 143.564H128.533C127.178 143.433 125.92 142.802 125.004 141.795C124.089 140.787 123.581 139.475 123.579 138.113V108.846C123.575 104.863 121.99 101.045 119.174 98.2285C116.358 95.4122 112.54 93.8281 108.557 93.8236H86.5475V67.0899C86.5475 66.6237 86.3623 66.1766 86.0326 65.8469C85.7029 65.5173 85.2558 65.3321 84.7896 65.3321C84.3234 65.3321 83.8763 65.5173 83.5467 65.8469C83.217 66.1766 83.0318 66.6237 83.0318 67.0899V93.825H58.261C58.2241 93.825 58.1872 93.825 58.1509 93.8285C58.0497 93.8262 57.9481 93.825 57.8462 93.825C54.281 93.8291 50.863 95.2471 48.342 97.7681C45.821 100.289 44.403 103.707 44.3989 107.272V113.241C44.3554 115.978 43.2376 118.589 41.2866 120.509C39.3356 122.429 36.708 123.505 33.9706 123.505C31.2332 123.505 28.6055 122.429 26.6545 120.509C24.7036 118.589 23.5857 115.978 23.5422 113.241V6.80334C23.9626 6.99951 24.3635 7.23493 24.7395 7.50647C25.815 8.23127 27.1536 9.13303 29.6588 9.13303C32.164 9.13303 33.5028 8.23127 34.5783 7.50647C35.4628 6.91086 36.1018 6.48108 37.5335 6.48108C38.9652 6.48108 39.6048 6.91174 40.489 7.50647C41.5645 8.23127 42.903 9.13303 45.4088 9.13303C47.9145 9.13303 49.2531 8.23127 50.3289 7.50647C51.2134 6.91086 51.8523 6.48108 53.2844 6.48108C54.7164 6.48108 55.3554 6.91174 56.2401 7.50647C57.3159 8.23098 58.6542 9.13274 61.16 9.13274C63.6657 9.13274 65.0043 8.23098 66.0801 7.50647C66.9646 6.91057 67.6035 6.48108 69.0358 6.48108C70.4682 6.48108 71.1074 6.91174 71.9922 7.50647C73.0677 8.23098 74.4068 9.13274 76.9141 9.13274C79.4213 9.13274 80.759 8.23098 81.8359 7.50647C82.2124 7.23392 82.6138 6.99761 83.0348 6.80071V12.6334C83.0348 13.0996 83.22 13.5467 83.5496 13.8764C83.8793 14.206 84.3264 14.3912 84.7926 14.3912C85.2588 14.3912 85.7059 14.206 86.0355 13.8764C86.3652 13.5467 86.5504 13.0996 86.5504 12.6334V4.72327C86.5504 4.25707 86.3652 3.80996 86.0355 3.48031C85.7059 3.15065 85.2588 2.96545 84.7926 2.96545C82.2865 2.96545 80.9477 3.86721 79.8707 4.59172C78.9859 5.18762 78.3473 5.61711 76.9141 5.61711C75.4809 5.61711 74.8425 5.18645 73.9574 4.59172C72.8808 3.86721 71.5416 2.96545 69.0358 2.96545C66.5301 2.96545 65.1912 3.86721 64.1157 4.59172C63.2309 5.18762 62.5923 5.61711 61.16 5.61711C59.7276 5.61711 59.089 5.18645 58.2045 4.59172C57.1287 3.86721 55.7904 2.96545 53.2844 2.96545C50.7783 2.96545 49.4403 3.86721 48.3645 4.59172C47.4798 5.18762 46.8411 5.61711 45.4088 5.61711C43.9765 5.61711 43.3378 5.18645 42.4533 4.59172C41.3778 3.86721 40.0393 2.96545 37.5335 2.96545C35.0277 2.96545 33.6895 3.86721 32.614 4.59202C31.7298 5.18762 31.0905 5.61741 29.6588 5.61741C28.227 5.61741 27.5884 5.18674 26.7039 4.59202C25.6284 3.86721 24.289 2.96545 21.7847 2.96545C21.3185 2.96545 20.8714 3.15065 20.5417 3.48031C20.2121 3.80996 20.0269 4.25707 20.0269 4.72327V113.241C20.0313 116.938 21.5018 120.482 24.1158 123.096C26.7299 125.71 30.274 127.18 33.9707 127.184ZM108.556 97.3407C111.606 97.3441 114.531 98.5576 116.688 100.715C118.845 102.872 120.058 105.797 120.062 108.847V138.115C120.06 140.085 120.709 142.002 121.908 143.566H82.7998C79.7492 143.562 76.8246 142.349 74.6675 140.192C72.5105 138.034 71.2972 135.11 71.2937 132.059V107.272C71.2946 105.402 70.9044 103.553 70.1482 101.842C69.3921 100.132 68.2867 98.5986 66.903 97.3407H108.556ZM47.9148 113.241V107.272C47.9148 105.968 48.1717 104.677 48.6708 103.472C49.17 102.267 49.9015 101.172 50.8237 100.25C51.746 99.3273 52.8408 98.5958 54.0458 98.0966C55.2508 97.5975 56.5422 97.3407 57.8465 97.3407C59.1507 97.3407 60.4422 97.5975 61.6472 98.0966C62.8521 98.5958 63.947 99.3273 64.8692 100.25C65.7914 101.172 66.523 102.267 67.0221 103.472C67.5212 104.677 67.7781 105.968 67.7781 107.272V123.613H43.2783C44.7375 122.308 45.9047 120.709 46.7037 118.922C47.5027 117.135 47.9154 115.199 47.9148 113.241Z" fill="#0635C9"/>
<path d="M58.5906 29.9666H43.9949C43.5287 29.9666 43.0816 30.1517 42.7519 30.4814C42.4223 30.8111 42.2371 31.2582 42.2371 31.7244C42.2371 32.1906 42.4223 32.6377 42.7519 32.9673C43.0816 33.297 43.5287 33.4822 43.9949 33.4822H58.5906C59.0568 33.4822 59.5039 33.297 59.8335 32.9673C60.1632 32.6377 60.3484 32.1906 60.3484 31.7244C60.3484 31.2582 60.1632 30.8111 59.8335 30.4814C59.5039 30.1517 59.0568 29.9666 58.5906 29.9666Z" fill="#0635C9"/>
<path d="M37.6252 29.9666H32.8018C32.3356 29.9666 31.8884 30.1517 31.5588 30.4814C31.2291 30.8111 31.0439 31.2582 31.0439 31.7244C31.0439 32.1906 31.2291 32.6377 31.5588 32.9673C31.8884 33.297 32.3356 33.4822 32.8018 33.4822H37.6252C38.0914 33.4822 38.5385 33.297 38.8682 32.9673C39.1978 32.6377 39.383 32.1906 39.383 31.7244C39.383 31.2582 39.1978 30.8111 38.8682 30.4814C38.5385 30.1517 38.0914 29.9666 37.6252 29.9666Z" fill="#0635C9"/>
<path d="M43.9949 46.1725H57.7117C58.1779 46.1725 58.625 45.9873 58.9546 45.6576C59.2843 45.328 59.4695 44.8809 59.4695 44.4147C59.4695 43.9485 59.2843 43.5014 58.9546 43.1717C58.625 42.8421 58.1779 42.6569 57.7117 42.6569H43.9949C43.5287 42.6569 43.0816 42.8421 42.7519 43.1717C42.4223 43.5014 42.2371 43.9485 42.2371 44.4147C42.2371 44.8809 42.4223 45.328 42.7519 45.6576C43.0816 45.9873 43.5287 46.1725 43.9949 46.1725Z" fill="#0635C9"/>
<path d="M37.6252 42.6569H32.8018C32.3356 42.6569 31.8884 42.8421 31.5588 43.1717C31.2291 43.5014 31.0439 43.9485 31.0439 44.4147C31.0439 44.8809 31.2291 45.328 31.5588 45.6576C31.8884 45.9873 32.3356 46.1725 32.8018 46.1725H37.6252C38.0914 46.1725 38.5385 45.9873 38.8682 45.6576C39.1978 45.328 39.383 44.8809 39.383 44.4147C39.383 43.9485 39.1978 43.5014 38.8682 43.1717C38.5385 42.8421 38.0914 42.6569 37.6252 42.6569Z" fill="#0635C9"/>
<path d="M43.9949 58.8639H63.571C64.0373 58.8639 64.4844 58.6787 64.814 58.349C65.1437 58.0194 65.3289 57.5723 65.3289 57.1061C65.3289 56.6399 65.1437 56.1928 64.814 55.8631C64.4844 55.5335 64.0373 55.3483 63.571 55.3483H43.9949C43.5287 55.3483 43.0816 55.5335 42.7519 55.8631C42.4223 56.1928 42.2371 56.6399 42.2371 57.1061C42.2371 57.5723 42.4223 58.0194 42.7519 58.349C43.0816 58.6787 43.5287 58.8639 43.9949 58.8639Z" fill="#0635C9"/>
<path d="M37.6252 55.3483H32.8018C32.3356 55.3483 31.8884 55.5335 31.5588 55.8631C31.2291 56.1928 31.0439 56.6399 31.0439 57.1061C31.0439 57.5723 31.2291 58.0194 31.5588 58.349C31.8884 58.6787 32.3356 58.8639 32.8018 58.8639H37.6252C38.0914 58.8639 38.5385 58.6787 38.8682 58.349C39.1978 58.0194 39.383 57.5723 39.383 57.1061C39.383 56.6399 39.1978 56.1928 38.8682 55.8631C38.5385 55.5335 38.0914 55.3483 37.6252 55.3483Z" fill="#0635C9"/>
<path d="M73.7713 68.0376H43.9949C43.5287 68.0376 43.0816 68.2228 42.7519 68.5524C42.4223 68.8821 42.2371 69.3292 42.2371 69.7954C42.2371 70.2616 42.4223 70.7087 42.7519 71.0384C43.0816 71.368 43.5287 71.5532 43.9949 71.5532H73.7713C74.2375 71.5532 74.6846 71.368 75.0143 71.0384C75.3439 70.7087 75.5291 70.2616 75.5291 69.7954C75.5291 69.3292 75.3439 68.8821 75.0143 68.5524C74.6846 68.2228 74.2375 68.0376 73.7713 68.0376Z" fill="#0635C9"/>
<path d="M37.6252 68.0376H32.8018C32.3356 68.0376 31.8884 68.2228 31.5588 68.5524C31.2291 68.8821 31.0439 69.3292 31.0439 69.7954C31.0439 70.2616 31.2291 70.7087 31.5588 71.0384C31.8884 71.368 32.3356 71.5532 32.8018 71.5532H37.6252C38.0914 71.5532 38.5385 71.368 38.8682 71.0384C39.1978 70.7087 39.383 70.2616 39.383 69.7954C39.383 69.3292 39.1978 68.8821 38.8682 68.5524C38.5385 68.2228 38.0914 68.0376 37.6252 68.0376Z" fill="#0635C9"/>
<path d="M73.7713 79.2634H43.9949C43.5287 79.2634 43.0816 79.4486 42.7519 79.7782C42.4223 80.1079 42.2371 80.555 42.2371 81.0212C42.2371 81.4874 42.4223 81.9345 42.7519 82.2641C43.0816 82.5938 43.5287 82.779 43.9949 82.779H73.7713C74.2375 82.779 74.6846 82.5938 75.0143 82.2641C75.3439 81.9345 75.5291 81.4874 75.5291 81.0212C75.5291 80.555 75.3439 80.1079 75.0143 79.7782C74.6846 79.4486 74.2375 79.2634 73.7713 79.2634Z" fill="#0635C9"/>
<path d="M37.6252 79.2634H32.8018C32.3356 79.2634 31.8884 79.4486 31.5588 79.7782C31.2291 80.1079 31.0439 80.555 31.0439 81.0212C31.0439 81.4874 31.2291 81.9345 31.5588 82.2641C31.8884 82.5938 32.3356 82.779 32.8018 82.779H37.6252C38.0914 82.779 38.5385 82.5938 38.8682 82.2641C39.1978 81.9345 39.383 81.4874 39.383 81.0212C39.383 80.555 39.1978 80.1079 38.8682 79.7782C38.5385 79.4486 38.0914 79.2634 37.6252 79.2634Z" fill="#0635C9"/>
<path d="M91.697 131.687H109.685C110.151 131.687 110.599 131.502 110.928 131.172C111.258 130.842 111.443 130.395 111.443 129.929C111.443 129.463 111.258 129.016 110.928 128.686C110.599 128.356 110.151 128.171 109.685 128.171H91.697C91.2308 128.171 90.7837 128.356 90.4541 128.686C90.1244 129.016 89.9392 129.463 89.9392 129.929C89.9392 130.395 90.1244 130.842 90.4541 131.172C90.7837 131.502 91.2308 131.687 91.697 131.687Z" fill="#0635C9"/>
<path d="M80.6921 131.687H85.6922C86.1584 131.687 86.6055 131.502 86.9352 131.172C87.2649 130.842 87.4501 130.395 87.4501 129.929C87.4501 129.463 87.2649 129.016 86.9352 128.686C86.6055 128.356 86.1584 128.171 85.6922 128.171H80.6921C80.2259 128.171 79.7788 128.356 79.4492 128.686C79.1195 129.016 78.9343 129.463 78.9343 129.929C78.9343 130.395 79.1195 130.842 79.4492 131.172C79.7788 131.502 80.2259 131.687 80.6921 131.687Z" fill="#0635C9"/>
<path d="M91.697 121.433H109.685C110.151 121.433 110.599 121.248 110.928 120.918C111.258 120.588 111.443 120.141 111.443 119.675C111.443 119.209 111.258 118.762 110.928 118.432C110.599 118.103 110.151 117.917 109.685 117.917H91.697C91.2308 117.917 90.7837 118.103 90.4541 118.432C90.1244 118.762 89.9392 119.209 89.9392 119.675C89.9392 120.141 90.1244 120.588 90.4541 120.918C90.7837 121.248 91.2308 121.433 91.697 121.433Z" fill="#0635C9"/>
<path d="M80.6921 121.433H85.6922C86.1584 121.433 86.6055 121.248 86.9352 120.918C87.2649 120.588 87.4501 120.141 87.4501 119.675C87.4501 119.209 87.2649 118.762 86.9352 118.432C86.6055 118.103 86.1584 117.917 85.6922 117.917H80.6921C80.2259 117.917 79.7788 118.103 79.4492 118.432C79.1195 118.762 78.9343 119.209 78.9343 119.675C78.9343 120.141 79.1195 120.588 79.4492 120.918C79.7788 121.248 80.2259 121.433 80.6921 121.433Z" fill="#0635C9"/>
<path d="M91.697 111.179H109.685C110.151 111.179 110.599 110.994 110.928 110.664C111.258 110.335 111.443 109.887 111.443 109.421C111.443 108.955 111.258 108.508 110.928 108.178C110.599 107.849 110.151 107.663 109.685 107.663H91.697C91.2308 107.663 90.7837 107.849 90.4541 108.178C90.1244 108.508 89.9392 108.955 89.9392 109.421C89.9392 109.887 90.1244 110.335 90.4541 110.664C90.7837 110.994 91.2308 111.179 91.697 111.179Z" fill="#0635C9"/>
<path d="M80.6921 111.179H85.6922C86.1584 111.179 86.6055 110.994 86.9352 110.664C87.2649 110.335 87.4501 109.887 87.4501 109.421C87.4501 108.955 87.2649 108.508 86.9352 108.178C86.6055 107.849 86.1584 107.663 85.6922 107.663H80.6921C80.2259 107.663 79.7788 107.849 79.4492 108.178C79.1195 108.508 78.9343 108.955 78.9343 109.421C78.9343 109.887 79.1195 110.335 79.4492 110.664C79.7788 110.994 80.2259 111.179 80.6921 111.179Z" fill="#0635C9"/>
<path d="M70.1223 64.9123C75.3932 67.9826 81.4986 69.3117 87.5689 68.7101C93.6392 68.1086 99.365 65.6071 103.931 61.5619L112.303 69.9323L109.92 72.315C109.59 72.6446 109.405 73.0917 109.405 73.5579C109.405 74.0241 109.59 74.4712 109.92 74.8008L119.22 84.1008C120.512 85.39 122.263 86.1141 124.088 86.1141C125.913 86.1141 127.664 85.39 128.956 84.1008C130.245 82.8086 130.969 81.0578 130.969 79.2326C130.969 77.4073 130.245 75.6565 128.956 74.3643L119.656 65.0643C119.493 64.901 119.299 64.7715 119.086 64.6832C118.873 64.5948 118.644 64.5493 118.413 64.5493C118.182 64.5493 117.954 64.5948 117.74 64.6832C117.527 64.7715 117.333 64.901 117.17 65.0643L114.787 67.4479L106.414 59.0754C111.301 53.5449 113.897 46.3603 113.673 38.9836C113.45 31.607 110.425 24.5924 105.213 19.3673C102.298 16.4563 98.7964 14.2001 94.9409 12.749C91.0854 11.298 86.9649 10.6854 82.854 10.9521C78.7431 11.2189 74.7363 12.3588 71.1007 14.296C67.465 16.2331 64.2841 18.923 61.7698 22.1863C59.2555 25.4496 57.4658 29.2113 56.5198 33.2207C55.5737 37.2301 55.4932 41.3952 56.2836 45.4382C57.0739 49.4812 58.717 53.3092 61.1033 56.6672C63.4896 60.0253 66.5642 62.836 70.1223 64.9123ZM118.414 68.7932L126.47 76.8498C127.102 77.4817 127.457 78.3386 127.457 79.2322C127.457 80.1257 127.102 80.9827 126.471 81.6145C125.839 82.2464 124.982 82.6014 124.088 82.6014C123.195 82.6014 122.338 82.2465 121.706 81.6147L113.649 73.5581L118.414 68.7932ZM66.7077 21.852C70.0729 18.4887 74.3128 16.1352 78.9471 15.0582C83.5813 13.9812 88.4246 14.2237 92.928 15.7583C97.4315 17.2929 101.415 20.0582 104.427 23.7408C107.44 27.4235 109.36 31.8762 109.972 36.5945C110.583 41.3129 109.861 46.1081 107.886 50.4368C105.912 54.7655 102.764 58.4547 98.8008 61.0863C94.8371 63.7179 90.2155 65.1867 85.4598 65.3263C80.7041 65.4658 76.0044 64.2706 71.8932 61.8759C70.0003 60.7691 68.2575 59.4235 66.7077 57.8722C61.9312 53.0956 59.2478 46.6172 59.2478 39.8621C59.2478 33.107 61.9312 26.6286 66.7077 21.852Z" fill="#1AE5BE"/>
<path d="M71.967 39.1562C72.6913 39.5394 74.1977 40.3372 74.4453 40.7382C74.5592 40.9225 74.4927 41.7132 74.4224 42.5505C74.4028 42.7849 74.382 43.0336 74.3612 43.3023C74.2068 45.3238 73.9803 52.203 77.5657 55.9067C77.8851 56.2203 78.2748 56.4531 78.7024 56.5855C79.1676 56.7513 79.6679 56.7934 80.1542 56.7075C80.6405 56.6216 81.0962 56.4107 81.4764 56.0956C81.8566 55.7805 82.1484 55.3719 82.323 54.9099C82.4977 54.448 82.5492 53.9486 82.4726 53.4607C82.414 52.8162 81.8597 45.7717 84.7519 42.2107C87.5955 45.8013 87.0426 52.8261 86.9858 53.4607C86.9092 53.9487 86.9609 54.4482 87.1357 54.9102C87.3105 55.3722 87.6025 55.7807 87.983 56.0958C88.3634 56.4108 88.8193 56.6215 89.3058 56.7071C89.7922 56.7927 90.2926 56.7503 90.7578 56.584C91.1848 56.4514 91.5741 56.2189 91.8933 55.9058C95.4778 52.2021 95.2525 45.3217 95.0978 43.3011C95.0776 43.0336 95.0568 42.7846 95.0369 42.5526C94.9666 41.7147 94.9003 40.9234 95.014 40.7397C95.2616 40.3398 96.7692 39.5385 97.4934 39.155C101.054 37.2654 101.888 31.7836 100.407 28.0457C99.7291 26.2209 98.3972 24.7134 96.6699 23.8161C94.7577 22.8516 92.4787 22.7189 89.8958 23.4229C88.6008 23.7671 87.3712 24.3221 86.2563 25.0656C85.7708 25.379 85.2667 25.6627 84.7469 25.9152L84.5509 25.8021C82.9982 24.9056 80.6524 23.5506 78.5222 23.2682C74.8545 22.7819 70.3718 24.0326 68.7842 29.0013C67.4861 33.0633 68.8841 37.5241 71.967 39.1562ZM72.1334 30.0712C72.604 28.6008 74.0002 26.2149 78.0605 26.7528C79.4987 26.9435 81.5612 28.1347 82.7934 28.8463C83.2329 29.0998 83.6111 29.3186 83.9158 29.4701C85.3806 30.1987 87.5966 31.116 89.8985 30.6654C90.3151 30.5844 90.6884 30.3554 90.9493 30.0206C91.2103 29.6859 91.3413 29.268 91.3182 28.8442C91.2951 28.4204 91.1194 28.0192 90.8236 27.7149C90.5278 27.4105 90.1319 27.2234 89.7089 27.1881C90.071 27.0403 90.442 26.9156 90.8199 26.8149C94.7849 25.7338 96.4449 27.5913 97.1372 29.3403C98.1333 31.8525 97.4917 35.1759 95.8449 36.0493C91.7823 38.2055 91.218 39.0961 91.533 42.8461C91.552 43.0703 91.5722 43.3105 91.5916 43.5686C91.8582 47.0549 91.3381 49.7248 90.582 51.5013C90.5884 48.5031 90.1616 43.3389 87.4701 39.9809C87.144 39.5788 86.7327 39.254 86.2659 39.03C85.7991 38.806 85.2884 38.6884 84.7707 38.6856C84.253 38.6828 83.741 38.7949 83.2719 39.0138C82.8027 39.2327 82.3879 39.553 82.0575 39.9516C79.3085 43.2991 78.8708 48.4928 78.8758 51.5022C78.1197 49.7253 77.5999 47.0561 77.8665 43.5695C77.8865 43.3102 77.9067 43.0691 77.9251 42.8444C78.241 39.0903 77.6767 38.2011 73.6121 36.0493C72.0678 35.2316 71.377 32.4381 72.1334 30.0712Z" fill="#1AE5BE"/>
</svg>
