<?xml version="1.0" encoding="UTF-8"?>
<svg xmlns="http://www.w3.org/2000/svg" xmlns:xlink="http://www.w3.org/1999/xlink" width="320pt" height="223pt" viewBox="0 0 320 223" version="1.1">
<g id="surface1">
<path style="fill-rule:nonzero;fill:rgb(98.039216%,66.666667%,26.27451%);fill-opacity:0.490196;stroke-width:1;stroke-linecap:butt;stroke-linejoin:miter;stroke:rgb(98.039216%,66.666667%,26.27451%);stroke-opacity:0.439216;stroke-miterlimit:4;" d="M 0 2.354085 C 42.33999 -0.350774 135.124475 0.413134 167.542493 15.543196 C 208.065015 34.453826 247.245886 79.033335 279.663904 81.730399 C 312.089722 84.435258 345.794788 73.631411 384.99906 68.221693 C 424.211133 62.819769 480.942664 69.57802 495.802222 99.292496 C 510.66178 129.014767 505.263977 169.540884 552.541553 168.192352 C 599.819128 166.836025 634.943848 214.120393 637.650549 246.539728 C 640.349451 278.959063 598.469678 345.15406 552.541553 343.805528 C 506.613428 342.449201 428.259485 392.430633 336.403235 308.681334 C 244.539185 224.92424 251.294238 349.207452 229.679626 365.413222 C 208.065015 381.626787 179.46134 423.501436 134.99967 416.750981 C 90.545801 409.992731 37.792419 468.829264 0 432.348742 Z M 0 2.354085 " transform="matrix(0.500782,0,0,0.501124,0,0)"/>
</g>
</svg>
