<svg width="639" height="445" viewBox="0 0 639 445" fill="none" xmlns="http://www.w3.org/2000/svg">
<path d="M0.00012207 2.35209C42.3387 -0.349708 135.121 0.410208 167.542 15.54C208.068 34.4523 247.244 79.0313 279.665 81.733C312.086 84.4348 345.792 73.6278 385 68.2243C424.208 62.8208 480.945 69.5752 495.805 99.2944C510.664 129.014 505.261 169.54 552.541 168.189C599.822 166.838 634.945 214.119 637.647 246.54C640.348 278.961 598.471 345.154 552.541 343.803C506.612 342.452 428.261 392.434 336.401 308.68C244.542 224.926 251.296 349.206 229.682 365.417C208.068 381.627 179.458 423.504 135 416.75C90.5422 409.996 37.7912 468.826 0.00012207 432.352V2.35209Z" fill="#FAAA43" fill-opacity="0.49" stroke="#FAAA43" stroke-opacity="0.44"/>
</svg>
