<?xml version="1.0" encoding="utf-8"?>
<!-- Generator: Adobe Illustrator 22.0.0, SVG Export Plug-In . SVG Version: 6.00 Build 0)  -->
<svg version="1.1" id="Слой_1" xmlns="http://www.w3.org/2000/svg" xmlns:xlink="http://www.w3.org/1999/xlink" x="0px" y="0px"
	 width="2675.4px" height="994.5px" viewBox="0 0 2675.4 994.5" style="enable-background:new 0 0 2675.4 994.5;"
	 xml:space="preserve">
<style type="text/css">
	.st0{fill:#FFA552;}
	.st1{fill:#1C7498;}
	.st2{fill:#E3F2FF;}
	.st3{fill:none;stroke:#1C7498;stroke-width:5;stroke-miterlimit:10;}
	.st4{fill:#FF7D47;}
	.st5{fill:#FF3838;}
	.st6{fill:#FFB454;}
	.st7{fill:#966117;}
</style>
<g>
	<path class="st0" d="M1124,215.9h59.9h14h35.5c5.4,0.2,11.6,1.5,18.5,3.9c6.3,2.2,11.7,4.6,16.3,7.2c5.9,3.3,10.5,7.4,14,12.4
		c3.7,5,6.4,11.2,8.1,18.5c7.6,30.2-0.8,51.5-25.1,64.1c22.8,9.8,35.6,30.9,38.4,63.5c0.7,7.4,0.3,15.3-1,23.8
		c-1.1,7.4-3.1,13.5-6.2,18.2c-3.5,5.4-6.6,9.5-9.4,12.4c-2.2,2.4-6.7,5.3-13.7,8.8c-0.9,0.4-6,2.1-15.3,4.9
		c-4.1,1.3-10,2.2-17.6,2.6c-7.4,0.4-13.2,0.7-17.6,0.7c-4.3,0.2-10.5,0.2-18.5,0c-5.9,0-11.6,0-17.2,0H1124l24.7-28.3h38.4
		c20.2-1.1,33.7-3,40.7-5.9c16.3-6.7,25.6-22.1,28-46.2c0.4-4.3-0.1-9.2-1.6-14.6c-1.5-5.4-3-9.3-4.6-11.7c-2.4-3.7-5-6.6-7.8-8.8
		c-5-3.7-8-5.9-9.1-6.5c-2.8-1.5-6.3-3-10.4-4.6c-5.6-2.2-8.7-3.3-9.1-3.3c-0.4-0.2-3.3-0.9-8.5-2c-3.9-0.9-8-1.2-12.4-1v-3.3
		c1.1-0.2,2.6-0.4,4.6-0.7c2.4-0.2,6.1-1.1,11.1-2.6c5.6-1.7,10.2-3.7,13.7-5.9c4.1-2.6,8.1-6.5,12-11.7c3.7-5.2,6-11.2,6.8-17.9
		c0.4-3.9,0.4-8.1,0-12.7c-0.4-3.7-1.5-6.8-3.3-9.4c-1.7-2.4-3.6-4.6-5.5-6.5c-2.2-2-4.7-3.5-7.5-4.6c-3.3-1.1-6.1-2-8.5-2.6
		c-3.3-1.1-6.2-1.6-8.8-1.6c-3.5,0-6.2-0.1-8.1-0.3c-2.8-0.4-5.2-0.5-7.2-0.3c-2.8,0.2-4.3,0.3-4.6,0.3c-8.7,0.2-16.5,0.3-23.4,0.3
		h-16.3C1137,230.4,1129.2,220.9,1124,215.9z"/>
	<path class="st0" d="M1409.4,264c5,0,10.2,0.3,15.6,1c5.4,0.7,11.3,2,17.7,4.1c6.4,2.1,12.6,4.7,18.5,7.8c6,3.1,11.7,7.3,17.2,12.4
		c5.5,5.1,10.4,10.9,14.5,17.2c4.1,6.4,7.4,14.2,9.9,23.3c2.5,9.1,3.7,19.1,3.7,29.9c0,11.3-1.3,21.7-3.7,31.2
		c-2.5,9.5-5.8,17.6-9.9,24.1c-4.1,6.5-9,12.3-14.6,17.4c-5.6,5.1-11.3,9.1-17.1,12c-5.7,2.9-11.8,5.4-18.2,7.3
		c-6.4,2-12.1,3.3-17.1,3.9c-5,0.7-9.7,1-14,1c-3,0-6.6-0.3-10.7-0.8c-4.1-0.5-9.3-1.6-15.6-3.3c-6.3-1.6-12.4-3.8-18.4-6.7
		c-6-2.8-12.2-6.7-18.5-11.6c-6.4-4.9-11.9-10.5-16.6-16.9c-4.7-6.4-8.5-14.5-11.4-24.4c-2.9-9.9-4.3-20.5-4.1-32.1
		c0.2-11.3,1.6-21.6,4.1-30.9c2.5-9.3,5.9-17.2,10.1-23.8s9.1-12.3,14.6-17.4c5.5-5.1,11.2-9.2,16.9-12.2c5.7-3,11.6-5.5,17.6-7.5
		c6-2,11.3-3.3,16.1-4.1C1400.8,264.4,1405.3,264,1409.4,264z M1413.6,289.1c-4.8,0-9.6,0.7-14.5,2.1c-4.9,1.4-9.6,3.4-14.2,6
		s-8.8,5.9-12.7,9.9c-3.9,4-7.3,8.5-10.3,13.3c-2.9,4.9-5.2,10.4-6.7,16.6c-1.5,6.2-2.3,12.5-2.3,19c0.2,20.2,5.6,37.3,16.1,51.2
		c10.5,14,23,21.1,37.6,21.3c19.1,0.2,34.2-5.2,45.4-16.3c11.2-11.1,16.9-28.3,17.1-51.7c0.2-9.5-0.8-18.4-3.1-26.5
		c-2.3-8.1-5.3-14.9-8.9-20.3c-3.7-5.4-8-10-12.9-13.8c-4.9-3.8-9.9-6.6-15.1-8.3C1424,290,1418.8,289.1,1413.6,289.1z"/>
	<path class="st0" d="M1586.4,456.7h-67l87.9-178.6l-14-14h65.4l81,169.9l22.5,22.8H1700l-69.6-150h-0.7l-60.8,133.7L1586.4,456.7z"
		/>
	<path class="st0" d="M1867.5,264c5,0,10.2,0.3,15.6,1c5.4,0.7,11.3,2,17.7,4.1c6.4,2.1,12.6,4.7,18.5,7.8c6,3.1,11.7,7.3,17.2,12.4
		c5.5,5.1,10.4,10.9,14.5,17.2c4.1,6.4,7.4,14.2,9.9,23.3c2.5,9.1,3.7,19.1,3.7,29.9c0,11.3-1.3,21.7-3.7,31.2
		c-2.5,9.5-5.8,17.6-9.9,24.1c-4.1,6.5-9,12.3-14.6,17.4c-5.6,5.1-11.3,9.1-17.1,12c-5.8,2.9-11.8,5.4-18.2,7.3
		c-6.4,2-12.1,3.3-17.1,3.9c-5,0.7-9.7,1-14,1c-3,0-6.6-0.3-10.7-0.8c-4.1-0.5-9.3-1.6-15.6-3.3c-6.3-1.6-12.4-3.8-18.4-6.7
		c-6-2.8-12.2-6.7-18.5-11.6c-6.4-4.9-11.9-10.5-16.6-16.9c-4.7-6.4-8.5-14.5-11.4-24.4c-2.9-9.9-4.3-20.5-4.1-32.1
		c0.2-11.3,1.6-21.6,4.1-30.9c2.5-9.3,5.9-17.2,10.1-23.8s9.1-12.3,14.6-17.4c5.5-5.1,11.2-9.2,16.9-12.2c5.7-3,11.6-5.5,17.6-7.5
		c6-2,11.3-3.3,16.1-4.1C1859,264.4,1863.4,264,1867.5,264z M1871.8,289.1c-4.8,0-9.6,0.7-14.5,2.1c-4.9,1.4-9.6,3.4-14.2,6
		s-8.8,5.9-12.7,9.9c-3.9,4-7.3,8.5-10.3,13.3s-5.2,10.4-6.7,16.6c-1.5,6.2-2.3,12.5-2.3,19c0.2,20.2,5.6,37.3,16.1,51.2
		c10.5,14,23,21.1,37.6,21.3c19.1,0.2,34.2-5.2,45.4-16.3c11.2-11.1,16.9-28.3,17.1-51.7c0.2-9.5-0.8-18.4-3.1-26.5
		c-2.3-8.1-5.3-14.9-8.9-20.3c-3.7-5.4-8-10-12.9-13.8c-4.9-3.8-9.9-6.6-15.1-8.3C1882.2,290,1877,289.1,1871.8,289.1z"/>
	<path class="st0" d="M2048.8,290.1h-46.9l-24.4,16.3V264H2161v42.3l-22.5-16.3h-48.2v166.6h-40.3L2048.8,290.1z"/>
	<path class="st0" d="M2218.6,443.3l15.3,13.3h-60.2l87.5-181.6l-11.7-11.1h60.8l81,172.8l19.2,19.8h-56.9l-35.1-72.6h-74.2
		L2218.6,443.3z M2281.8,299.8l-24.7,59.5h53.4L2281.8,299.8z"/>
	<path class="st0" d="M2506.3,363.9c-0.9-0.2-1.7-0.3-2.6-0.3c-0.6-0.4-2.3-1.2-4.9-2.3c-2.4-1.1-4.9-2.1-7.5-2.9
		c-1.3-0.7-4.1-2.3-8.5-4.9c-3.3-2-6.1-4.2-8.5-6.8c-1.3-1.1-3.8-3.9-7.5-8.5c-2-2.6-3.7-6.2-5.2-10.7c-1.1-3-1.6-7.5-1.6-13.3
		c0-4.1,0.8-9.3,2.3-15.6c1.5-5.6,4.1-10.6,7.8-15c3.7-4.3,8.1-7.6,13.3-9.8c6.5-2.8,11.7-4.7,15.6-5.5c5.4-1.5,11.6-2.4,18.5-2.6
		c6.7-0.4,12.6-0.8,17.6-1c4.8-0.4,10.3-0.7,16.6-0.7c6.3,0,10.6,0,13,0h65.4l-25.1,22.5l0.3,144.8l24.7,25.4h-67l-0.3-169.2
		c0,0.4-2,0.4-5.9-0.2c-3.9-0.5-8.7-0.3-14.3,0.8c-5.6,0.9-11.2,2.2-16.6,3.9c-5.9,2-10.5,5.1-14,9.4c-3.7,5-5.3,10.5-4.9,16.4
		c0.4,6,2.4,11.1,5.9,15.5c3.9,5,8,8.6,12.4,10.7c5,2.6,9.9,4.8,14.6,6.5c5.2,2.2,9.1,3.5,11.7,3.9l5.2,0.7l-81.3,101.5h-52.4
		L2506.3,363.9z"/>
	<path class="st0" d="M1342.5,769.1l19.2-22.1V550.5l-21.8-22.1h69.6c4.1,0,9.9-0.1,17.2-0.3h18.9c9.1,0.9,15.2,1.3,18.2,1.3
		c8.5,0.2,14.5,0.7,18.2,1.3c3.3,0.7,8.6,2.3,15.9,4.9c6.3,2.2,11,4.9,14,8.1c2.4,2.6,5.6,6.9,9.8,13c3.3,4.8,5.5,10.7,6.8,17.9
		c1.1,7.2,1.3,15.3,0.7,24.4c-0.9,12.2-3.3,22.3-7.2,30.6c-3.9,8.2-8.8,15-14.6,20.2c-4.8,4.3-11.3,8-19.5,11.1
		c-6.5,2.4-13.5,4.1-20.8,5.2c-3.3,0.4-10.1,0.7-20.5,0.7c-4.8,0-10.1-0.4-15.9-1.3c-6.3-0.9-9.4-1.4-9.4-1.6
		c0-0.2,3.6-1.2,10.7-2.9c6.9-1.7,14-4.1,21.2-7.2c7.4-3,13.8-8.2,19.2-15.6c5.6-7.8,8.2-17.1,7.8-28c-0.4-9.8-2-18-4.6-24.7
		c-2.8-7.4-5.8-12.6-8.8-15.6c-3-3-7.8-5.7-14.3-8.1c-6.1-2.2-11.6-3.6-16.6-4.2c-4.8-0.4-11.1-0.9-18.9-1.3
		c-3.9-0.2-6.1-0.3-6.5-0.3v213.5L1342.5,769.1L1342.5,769.1z"/>
	<path class="st0" d="M1545.2,576.5h57.9v168.6c2.2-0.2,6-0.4,11.4-0.7c5.2-0.2,9.1-0.4,11.7-0.7c2.6,0,6.2-0.4,10.7-1.3
		c4.6-0.7,7.9-1.5,10.1-2.4c2.2-1,4.8-2.4,8-4.4c3.1-2,5.5-4.3,7-7.2c1.5-2.8,2.9-6.3,4.2-10.4c1.3-4.1,2.1-8.7,2.3-13.7
		c0.2-6.9-1.3-13.1-4.6-18.5c-3-5.6-7.2-9.8-12.4-12.4c-4.6-2.6-9.5-4.8-15-6.5c-5.2-1.7-9.9-3-14-3.9c-4.3-0.9-6.7-1.3-7.2-1.3
		v-1.3c10.8-0.9,18.4-1.3,22.8-1.3c7.2,0,13.3,0.1,18.5,0.3c5.4,0.4,11.7,1.8,18.9,4.2c7.2,2.4,13,5.4,17.6,9.1
		c5,3.9,9.3,9.3,13,16.3c3.7,6.7,5.9,14.9,6.5,24.4c0.6,7.4,0,14.4-2,21.2c-1.3,5.9-3.5,11.1-6.5,15.6c-2.4,3.5-6.4,6.7-12,9.8
		c-4.1,2.2-9,4.1-14.6,5.9c-4.6,1.5-10.4,2.5-17.6,2.9c-7.2,0.7-13.2,1-18.2,1c-5,0-11.4,0-19.2,0c-5.9,0-11.7,0-17.6,0
		c-13.5,0-21.9,0-25.4,0c-10.4-0.4-19.2-0.9-26.4-1.3h-11.1l19.2-16.6V597L1545.2,576.5z M1727.4,577.2h37.7h37.7l-19.2,25.4v145.8
		l16.9,20.8h-36.4h-36.1l18.5-20.8V602.5L1727.4,577.2z"/>
	<path class="st0" d="M1953.2,576.5v40.3l-13-11.7H1882v142.5c1.3,0,3.1-0.1,5.5-0.3c19.3-1.1,32.6-3.4,40-6.8
		c13-6.1,20.1-18.4,21.1-37.1c0.2-7.2-1.2-13.2-4.2-18.2c-3-5.2-7.4-9.3-13-12.4c-4.1-2.2-9.1-4.3-15-6.5c-5.4-2-10.2-3.3-14.3-3.9
		c-4.3-0.9-6.6-1.4-6.8-1.6c4.3-0.9,7.2-1.4,8.5-1.6c5.2-0.4,10-0.8,14.3-1c6.9-0.2,13.2-0.1,18.9,0.5c5.6,0.5,11.8,2,18.5,4.4
		c6.5,2,12.4,5,17.6,9.1c5.2,3.7,9.6,9,13.3,15.9c3.7,6.7,5.9,14.9,6.5,24.4c0.4,8.7-0.1,15.8-1.6,21.5c-1.5,5.6-3.9,10.7-7.2,15.3
		c-2.4,3.9-6.4,7.3-12,10.1c-3.9,2.4-8.7,4.4-14.3,6.2c-3.7,1.1-9.7,2.1-17.9,2.9c-7.4,0.7-13.5,1-18.4,1s-11.3,0-19.4,0
		c-7.8-0.2-13.7-0.3-17.6-0.3h-58.9h-10.1l20.2-21.2V594.1l-14.6-17.6L1953.2,576.5L1953.2,576.5z"/>
	<path class="st0" d="M2024.8,600.9l-19.2-24.4h55.3v92.1h0.6l50.1-92.4h42.6l-56.9,91.8l78.7,101.8h-53l-62.1-92.4h-0.3v91.8h-53.4
		l18.5-20.8L2024.8,600.9z"/>
	<path class="st0" d="M2233.7,755.8l15.3,13.3h-60.2l87.5-181.6l-11.7-11.1h60.8l81,172.8l19.2,19.8h-56.9l-35.1-72.6h-74.2
		L2233.7,755.8z M2296.8,612.3l-24.7,59.5h53.4L2296.8,612.3z"/>
</g>
<g>
	<path class="st1" d="M1423,184.2c-5.9,1.4-12,2.3-18.5,2.7c-6.5,0.4-13.3,0.4-20.6-0.1c-7.2-0.5-14.3-2-21.2-4.5
		c-6.9-2.5-12.8-5.9-17.8-10.4c-5.3-4.6-9.3-10.8-11.9-18.7c-2.6-7.9-3.9-15.8-3.8-23.9c0.1-8,1.4-15.4,3.8-22.2
		c1.9-5.4,4.9-10,9.1-13.8c4.2-3.8,8.9-6.7,14.1-8.6c5.2-1.9,10.7-3.4,16.5-4.5c5.8-1.1,11.5-1.6,17-1.6c5.5,0,10.4,0.1,14.8,0.3
		c4.4,0.2,8,0.5,10.7,0.9l4,0.6l-0.3,18.8c-2.3-1.2-4.9-2.3-8.1-3.3c-3.1-1-7-1.9-11.7-2.5c-4.7-0.6-9.2-0.8-13.7-0.6
		c-4.5,0.2-9.1,1.4-13.9,3.5c-4.8,2.1-9,5.1-12.5,9c-3.4,3.9-5.7,9-6.8,15.2c-1.1,6.2-0.8,12.8,0.9,19.8c1.7,7,4.8,13.1,9.2,18.5
		c3.1,3.8,7.4,6.7,12.9,8.5c5.5,1.9,11,2.8,16.6,2.8c5.6,0,11.2-0.4,16.7-1.2c5.6-0.8,10.2-1.7,13.8-2.6c3.6-1,6.1-1.8,7.3-2.5
		C1427.4,172.7,1425.1,179.5,1423,184.2z"/>
	<path class="st1" d="M1467.8,111.6h-21.2l-11,7.3V99.9h82.8V119l-10.1-7.3h-21.7v75.2h-18.2L1467.8,111.6z"/>
	<path class="st1" d="M1566.1,99.9c2.3,0,4.6,0.1,7.1,0.4c2.4,0.3,5.1,0.9,8,1.8c2.9,0.9,5.7,2.1,8.4,3.5c2.7,1.4,5.3,3.3,7.8,5.6
		c2.5,2.3,4.7,4.9,6.5,7.8c1.9,2.9,3.4,6.4,4.5,10.5c1.1,4.1,1.7,8.6,1.7,13.5c0,5.1-0.6,9.8-1.7,14.1c-1.1,4.3-2.6,7.9-4.5,10.9
		c-1.9,2.9-4.1,5.6-6.6,7.9c-2.5,2.3-5.1,4.1-7.7,5.4c-2.6,1.3-5.3,2.4-8.2,3.3c-2.9,0.9-5.5,1.5-7.7,1.8c-2.3,0.3-4.4,0.4-6.3,0.4
		c-1.4,0-3-0.1-4.8-0.4c-1.9-0.2-4.2-0.7-7.1-1.5c-2.8-0.7-5.6-1.7-8.3-3c-2.7-1.3-5.5-3-8.4-5.2c-2.9-2.2-5.4-4.7-7.5-7.6
		c-2.1-2.9-3.8-6.6-5.1-11c-1.3-4.5-1.9-9.3-1.8-14.5c0.1-5.1,0.7-9.7,1.8-14c1.1-4.2,2.6-7.8,4.6-10.7s4.1-5.6,6.6-7.9
		c2.5-2.3,5-4.1,7.6-5.5c2.6-1.4,5.2-2.5,7.9-3.4c2.7-0.9,5.1-1.5,7.3-1.8C1562.2,100.1,1564.2,99.9,1566.1,99.9z M1568,111.2
		c-2.2,0-4.3,0.3-6.5,1c-2.2,0.6-4.3,1.5-6.4,2.7c-2.1,1.2-4,2.7-5.7,4.5c-1.8,1.8-3.3,3.8-4.6,6c-1.3,2.2-2.3,4.7-3,7.5
		c-0.7,2.8-1,5.7-1,8.6c0.1,9.1,2.5,16.8,7.3,23.1c4.7,6.3,10.4,9.5,17,9.6c8.6,0.1,15.4-2.4,20.5-7.3c5-5,7.6-12.8,7.7-23.4
		c0.1-4.3-0.4-8.3-1.4-12c-1-3.7-2.4-6.7-4-9.2c-1.7-2.4-3.6-4.5-5.8-6.2c-2.2-1.7-4.5-3-6.8-3.7
		C1572.7,111.6,1570.3,111.2,1568,111.2z"/>
	<path class="st1" d="M1615.7,186.8l7.1-8.8l9.5-69.6l-9.5-8.5h32.3l26.6,52l0.3-0.1l22.2-51.4h32.5l-8.1,6.3l10.4,72.3l8.5,7.9
		h-26.3l-9.1-69.6h-0.3l-29.4,68.9l-38.3-71.4h-0.4v72.1H1615.7z"/>
	<path class="st1" d="M1773.5,180.8l6.9,6h-27.2l39.5-82l-5.3-5h27.5l36.6,78l8.7,9h-25.7l-15.9-32.8h-33.5L1773.5,180.8z M1802,116
		l-11.2,26.9h24.1L1802,116z"/>
	<path class="st1" d="M1898.1,111.6h-21.2l-11,7.3V99.9h82.8V119l-10.1-7.3h-21.7v75.2h-18.2L1898.1,111.6z"/>
	<path class="st1" d="M1996.3,99.9c2.3,0,4.6,0.1,7.1,0.4c2.4,0.3,5.1,0.9,8,1.8c2.9,0.9,5.7,2.1,8.4,3.5c2.7,1.4,5.3,3.3,7.8,5.6
		c2.5,2.3,4.7,4.9,6.5,7.8c1.9,2.9,3.4,6.4,4.5,10.5c1.1,4.1,1.7,8.6,1.7,13.5c0,5.1-0.6,9.8-1.7,14.1c-1.1,4.3-2.6,7.9-4.5,10.9
		c-1.9,2.9-4.1,5.6-6.6,7.9c-2.5,2.3-5.1,4.1-7.7,5.4c-2.6,1.3-5.3,2.4-8.2,3.3c-2.9,0.9-5.5,1.5-7.7,1.8c-2.3,0.3-4.4,0.4-6.3,0.4
		c-1.4,0-3-0.1-4.8-0.4c-1.9-0.2-4.2-0.7-7.1-1.5c-2.8-0.7-5.6-1.7-8.3-3c-2.7-1.3-5.5-3-8.4-5.2c-2.9-2.2-5.4-4.7-7.5-7.6
		c-2.1-2.9-3.8-6.6-5.1-11c-1.3-4.5-1.9-9.3-1.8-14.5c0.1-5.1,0.7-9.7,1.8-14c1.1-4.2,2.6-7.8,4.6-10.7c1.9-2.9,4.1-5.6,6.6-7.9
		c2.5-2.3,5-4.1,7.6-5.5c2.6-1.4,5.2-2.5,7.9-3.4c2.7-0.9,5.1-1.5,7.3-1.8C1992.5,100.1,1994.5,99.9,1996.3,99.9z M1998.2,111.2
		c-2.2,0-4.3,0.3-6.5,1c-2.2,0.6-4.3,1.5-6.4,2.7c-2.1,1.2-4,2.7-5.7,4.5c-1.8,1.8-3.3,3.8-4.6,6c-1.3,2.2-2.3,4.7-3,7.5
		c-0.7,2.8-1,5.7-1,8.6c0.1,9.1,2.5,16.8,7.3,23.1c4.7,6.3,10.4,9.5,17,9.6c8.6,0.1,15.4-2.4,20.5-7.3c5-5,7.6-12.8,7.7-23.4
		c0.1-4.3-0.4-8.3-1.4-12c-1-3.7-2.4-6.7-4-9.2c-1.7-2.4-3.6-4.5-5.8-6.2c-2.2-1.7-4.5-3-6.8-3.7
		C2002.9,111.6,2000.6,111.2,1998.2,111.2z"/>
	<path class="st1" d="M2076.2,186.8H2046l39.7-80.6l-6.3-6.3h29.5l36.6,76.7l10.1,10.3h-28.1l-31.4-67.7h-0.3l-27.5,60.4
		L2076.2,186.8z"/>
	<path class="st1" d="M2203.2,99.9c2.3,0,4.6,0.1,7.1,0.4c2.4,0.3,5.1,0.9,8,1.8c2.9,0.9,5.7,2.1,8.4,3.5c2.7,1.4,5.3,3.3,7.8,5.6
		c2.5,2.3,4.7,4.9,6.5,7.8c1.9,2.9,3.4,6.4,4.5,10.5c1.1,4.1,1.7,8.6,1.7,13.5c0,5.1-0.6,9.8-1.7,14.1c-1.1,4.3-2.6,7.9-4.5,10.9
		c-1.9,2.9-4.1,5.6-6.6,7.9c-2.5,2.3-5.1,4.1-7.7,5.4c-2.6,1.3-5.3,2.4-8.2,3.3c-2.9,0.9-5.5,1.5-7.7,1.8c-2.3,0.3-4.4,0.4-6.3,0.4
		c-1.4,0-3-0.1-4.8-0.4c-1.9-0.2-4.2-0.7-7.1-1.5c-2.8-0.7-5.6-1.7-8.3-3c-2.7-1.3-5.5-3-8.4-5.2c-2.9-2.2-5.4-4.7-7.5-7.6
		c-2.1-2.9-3.8-6.6-5.1-11c-1.3-4.5-1.9-9.3-1.8-14.5c0.1-5.1,0.7-9.7,1.8-14c1.1-4.2,2.6-7.8,4.6-10.7c1.9-2.9,4.1-5.6,6.6-7.9
		c2.5-2.3,5-4.1,7.6-5.5c2.6-1.4,5.2-2.5,7.9-3.4c2.7-0.9,5.1-1.5,7.3-1.8C2199.3,100.1,2201.3,99.9,2203.2,99.9z M2205.1,111.2
		c-2.2,0-4.3,0.3-6.5,1c-2.2,0.6-4.3,1.5-6.4,2.7c-2.1,1.2-4,2.7-5.7,4.5c-1.8,1.8-3.3,3.8-4.6,6c-1.3,2.2-2.3,4.7-3,7.5
		c-0.7,2.8-1,5.7-1,8.6c0.1,9.1,2.5,16.8,7.3,23.1c4.7,6.3,10.4,9.5,17,9.6c8.6,0.1,15.4-2.4,20.5-7.3c5-5,7.6-12.8,7.7-23.4
		c0.1-4.3-0.4-8.3-1.4-12c-1-3.7-2.4-6.7-4-9.2c-1.7-2.4-3.6-4.5-5.8-6.2c-2.2-1.7-4.5-3-6.8-3.7
		C2209.8,111.6,2207.4,111.2,2205.1,111.2z"/>
	<path class="st1" d="M2281.6,186.8h-28.8l9-9.4v-69.6l-7.1-7.6h59.6v18.1l-5.4-5.4h-27.3L2281.6,186.8L2281.6,186.8z"/>
	<path class="st1" d="M2426.4,186.8h-25.1v-59.9h-0.3l-71,64v-83l-10-8.1h25.4v52.6h0.3l50.7-52.6h27.9l-8.2,8.1v68.6L2426.4,186.8z
		"/>
	<path class="st1" d="M2469.6,145c-0.4-0.1-0.8-0.1-1.2-0.1c-0.3-0.2-1-0.5-2.2-1c-1.1-0.5-2.2-0.9-3.4-1.3c-0.6-0.3-1.9-1-3.8-2.2
		c-1.5-0.9-2.7-1.9-3.8-3.1c-0.6-0.5-1.7-1.8-3.4-3.8c-0.9-1.2-1.7-2.8-2.3-4.8c-0.5-1.4-0.7-3.4-0.7-6c0-1.9,0.3-4.2,1-7.1
		c0.7-2.5,1.9-4.8,3.5-6.8c1.7-2,3.7-3.4,6-4.4c2.9-1.3,5.3-2.1,7.1-2.5c2.4-0.7,5.2-1.1,8.4-1.2c3-0.2,5.7-0.3,7.9-0.4
		c2.2-0.2,4.7-0.3,7.5-0.3c2.8,0,4.8,0,5.9,0h29.5l-11.3,10.1l0.1,65.4l11.2,11.5h-30.3l-0.1-76.4c0,0.2-0.9,0.2-2.6-0.1
		c-1.8-0.2-3.9-0.1-6.5,0.4c-2.5,0.4-5,1-7.5,1.8c-2.6,0.9-4.8,2.3-6.3,4.3c-1.7,2.3-2.4,4.7-2.2,7.4c0.2,2.7,1.1,5,2.6,7
		c1.8,2.3,3.6,3.9,5.6,4.8c2.3,1.2,4.5,2.2,6.6,2.9c2.4,1,4.1,1.6,5.3,1.8l2.4,0.3l-36.7,45.8h-23.6L2469.6,145z"/>
</g>
<g>
	<path class="st1" d="M244.7,975.7h-28.6v-76.8h-0.3L135,981V874.6l-11.4-10.4h28.9v67.5h0.3l57.8-67.5h31.8l-9.3,10.4v88
		L244.7,975.7z"/>
	<path class="st1" d="M337,973.6c-5.4,1.1-11.1,1.8-17.1,2.2c-6,0.4-12.3,0.3-19-0.1c-6.7-0.4-13.2-1.6-19.5-3.7
		c-6.3-2.1-11.8-4.9-16.4-8.5c-4.8-3.7-8.5-8.8-10.9-15.3c-2.5-6.5-3.6-13-3.5-19.6c0.1-6.6,1.3-12.7,3.5-18.3
		c1.8-4.4,4.6-8.2,8.5-11.3c3.9-3.1,8.2-5.4,13-7c4.8-1.6,9.8-2.8,15.2-3.7c5.4-0.9,10.6-1.4,15.7-1.4c5.1,0,9.6,0.1,13.7,0.2
		c4.1,0.1,7.4,0.4,9.9,0.8l3.8,0.5l-0.3,15.4c-2.1-0.9-4.6-1.8-7.5-2.6c-2.9-0.8-6.5-1.6-10.8-2.1c-4.3-0.6-8.5-0.7-12.7-0.5
		c-4.1,0.2-8.4,1.2-12.8,2.9c-4.4,1.8-8.2,4.2-11.4,7.5c-3.2,3.2-5.3,7.4-6.4,12.4c-1.1,5.1-0.8,10.5,0.8,16.2
		c1.6,5.7,4.4,10.8,8.4,15.2c2.9,3.1,6.9,5.4,12,7c5.1,1.6,10.2,2.3,15.4,2.3c5.2,0,10.3-0.3,15.4-1c5.1-0.7,9.4-1.4,12.7-2.2
		c3.4-0.8,5.6-1.5,6.9-2.1C341.1,964.1,338.9,969.7,337,973.6z"/>
	<path class="st1" d="M414,975.7v-75.9h-38.3v75.9h-26.4l8.6-11.1v-67l-8.3-11h24.4h41.6h25.2l-8.6,11.1v67.2l9,10.8H414z"/>
	<path class="st1" d="M490,886.5c2.3,0,4.7,0.2,7.2,0.5c2.5,0.3,5.2,0.9,8.2,1.9c3,1,5.8,2.2,8.6,3.6c2.8,1.5,5.4,3.4,8,5.7
		c2.6,2.4,4.8,5,6.7,8c1.9,3,3.4,6.6,4.6,10.8c1.2,4.2,1.7,8.8,1.7,13.9c0,5.2-0.6,10-1.7,14.5c-1.2,4.4-2.7,8.1-4.6,11.1
		c-1.9,3-4.2,5.7-6.8,8.1c-2.6,2.4-5.2,4.2-7.9,5.6c-2.7,1.4-5.5,2.5-8.4,3.4c-3,0.9-5.6,1.5-7.9,1.8c-2.3,0.3-4.5,0.5-6.5,0.5
		c-1.4,0-3.1-0.1-5-0.4c-1.9-0.3-4.3-0.8-7.2-1.5c-2.9-0.8-5.7-1.8-8.5-3.1c-2.8-1.3-5.6-3.1-8.6-5.3c-3-2.3-5.5-4.9-7.7-7.8
		c-2.2-3-3.9-6.7-5.3-11.3c-1.4-4.6-2-9.5-1.9-14.8c0.1-5.2,0.7-10,1.9-14.3c1.2-4.3,2.7-8,4.7-11c2-3,4.2-5.7,6.8-8.1
		c2.6-2.4,5.2-4.2,7.8-5.6c2.7-1.4,5.4-2.6,8.1-3.5c2.8-0.9,5.2-1.5,7.5-1.9C486.1,886.7,488.1,886.5,490,886.5z M492,898.1
		c-2.2,0-4.4,0.3-6.7,1c-2.3,0.7-4.4,1.6-6.6,2.8c-2.1,1.2-4.1,2.7-5.9,4.6c-1.8,1.9-3.4,3.9-4.7,6.2c-1.4,2.3-2.4,4.8-3.1,7.7
		c-0.7,2.9-1.1,5.8-1.1,8.8c0.1,9.3,2.6,17.2,7.5,23.7c4.9,6.5,10.7,9.8,17.4,9.9c8.8,0.1,15.8-2.4,21-7.5s7.8-13.1,7.9-23.9
		c0.1-4.4-0.4-8.5-1.4-12.3c-1.1-3.8-2.4-6.9-4.1-9.4c-1.7-2.5-3.7-4.6-6-6.4c-2.3-1.8-4.6-3-7-3.8
		C496.8,898.5,494.4,898.1,492,898.1z"/>
	<path class="st1" d="M572,975.7h-31l40.7-82.7l-6.5-6.5h30.3l37.5,78.6l10.4,10.5h-28.8l-32.2-69.4H592l-28.2,61.9L572,975.7z"/>
	<path class="st1" d="M725.4,975.9v-42h-41.3v41.9h-25l8.6-11.6v-66.7l-8.3-11h24.4v34.3h41.6v-33.9h25.2l-8.6,10.7v66.9l9,11.4
		L725.4,975.9L725.4,975.9z"/>
	<path class="st1" d="M866,975.7h-25.8v-61.5h-0.3l-72.7,65.7v-85.1l-10.2-8.3H783v53.9h0.3l52-53.9h28.6l-8.4,8.3v70.3L866,975.7z"
		/>
	<path class="st1" d="M871.8,975.7l7.2-9l9.8-71.4l-9.8-8.7h33.1l27.3,53.3l0.3-0.1l22.7-52.7h33.3l-8.3,6.5l10.7,74.1l8.7,8.1h-27
		l-9.3-71.4h-0.3L940.2,975l-39.3-73.2h-0.5v74H871.8z"/>
	<path class="st1" d="M1073,975.7l9.9-11v-67.5l-7.5-9l-2.3-1.7h30.4h7.2h5.4c2.4,0.1,5,0.2,7.8,0.3c3,0.1,5.6,0.5,7.8,1.2
		c2.2,0.7,4.4,1.6,6.6,2.7c2.3,1.1,4.2,2.6,5.8,4.6c1.6,2,2.8,4.3,3.5,7c3.4,11.6-0.1,19.8-10.4,24.6c9.7,3.7,15.1,11.5,16,23.3
		c0.2,3.6-0.1,6.8-0.8,9.6c-0.8,2.8-1.7,5.1-2.9,6.9c-1.2,1.8-3,3.3-5.3,4.6c-2.4,1.3-4.5,2.2-6.6,2.8c-2,0.6-4.7,1.1-8,1.4
		c-3.3,0.3-6,0.5-8.1,0.5c-2.1,0-5-0.1-8.7-0.2c-3.7-0.1-6.4-0.2-8-0.2L1073,975.7L1073,975.7z M1103.6,965.2c0.6,0,2-0.1,4.1-0.2
		c2.2-0.2,3.6-0.3,4.2-0.3c0.7,0,1.9-0.2,3.8-0.4c1.9-0.2,3.2-0.4,3.9-0.6c0.8-0.2,1.9-0.6,3.4-1.1c1.5-0.5,2.6-1.1,3.2-1.7
		c0.6-0.6,1.4-1.4,2.4-2.3c1-1,1.7-2,2.2-3.2c0.5-1.2,0.9-2.5,1.3-4.1c0.4-1.6,0.7-3.4,0.8-5.3c0.1-1.9-0.1-3.7-0.7-5.3
		c-0.6-1.7-1.2-3.1-2-4.2c-0.8-1.2-1.8-2.3-3.2-3.3c-1.4-1.1-2.7-2-3.8-2.8c-1.1-0.8-2.5-1.5-4.3-2.1c-1.8-0.6-3-1-3.8-1.2
		c-0.8-0.2-2-0.5-3.5-0.8l-2.4-0.5c-0.4-0.1-0.8-0.2-1.1-0.3c-0.5,0-0.9,0-1.2,0c0.4,0,1.1,0,2-0.2c0.9-0.1,2.4-0.4,4.5-1
		c2.1-0.5,4-1.3,5.7-2.3c1.7-1,3.4-2.4,5-4.3c1.6-1.9,2.6-4.1,2.9-6.6c0.5-3,0-5.5-1.4-7.5c-1.5-2-3.4-3.4-5.8-4.2
		c-2.4-0.8-4.8-1.4-7.2-1.8c-2-0.4-4.1-0.6-6.3-0.6h-2.6L1103.6,965.2L1103.6,965.2z"/>
	<path class="st1" d="M1245.8,973.6c-5.4,1.1-11.1,1.8-17.1,2.2c-6,0.4-12.3,0.3-19-0.1c-6.7-0.4-13.2-1.6-19.5-3.7
		c-6.3-2.1-11.8-4.9-16.4-8.5c-4.8-3.7-8.5-8.8-10.9-15.3c-2.5-6.5-3.6-13-3.5-19.6c0.1-6.6,1.3-12.7,3.5-18.3
		c1.8-4.4,4.6-8.2,8.5-11.3c3.9-3.1,8.2-5.4,13-7c4.8-1.6,9.8-2.8,15.2-3.7c5.4-0.9,10.6-1.4,15.7-1.4c5.1,0,9.6,0.1,13.7,0.2
		c4.1,0.1,7.4,0.4,9.9,0.8l3.8,0.5l-0.3,15.4c-2.1-0.9-4.6-1.8-7.5-2.6c-2.9-0.8-6.5-1.6-10.8-2.1c-4.3-0.6-8.5-0.7-12.7-0.5
		c-4.1,0.2-8.4,1.2-12.8,2.9c-4.4,1.8-8.2,4.2-11.4,7.5c-3.2,3.2-5.3,7.4-6.4,12.4c-1.1,5.1-0.8,10.5,0.8,16.2
		c1.6,5.7,4.4,10.8,8.4,15.2c2.9,3.1,6.9,5.4,12,7c5.1,1.6,10.2,2.3,15.4,2.3c5.2,0,10.3-0.3,15.4-1s9.4-1.4,12.7-2.2
		c3.4-0.8,5.6-1.5,6.9-2.1C1249.9,964.1,1247.7,969.7,1245.8,973.6z"/>
	<path class="st1" d="M1311.6,920v14.2h-24.6v28.5h51.4l-12.4,13.1h-67.9l10.5-11.1v-67.2l-10.1-10.8h61.8v20.2l-7.2-6.9h-26.7v20.8
		L1311.6,920z"/>
	<path class="st1" d="M1404.5,975.7l9.9-11v-67.5l-7.5-9l-2.3-1.7h30.4h7.2h5.4c2.4,0.1,5,0.2,7.8,0.3c3,0.1,5.6,0.5,7.8,1.2
		c2.2,0.7,4.4,1.6,6.6,2.7c2.3,1.1,4.2,2.6,5.8,4.6c1.6,2,2.8,4.3,3.5,7c3.4,11.6-0.1,19.8-10.4,24.6c9.7,3.7,15.1,11.5,16,23.3
		c0.2,3.6-0.1,6.8-0.8,9.6c-0.8,2.8-1.7,5.1-2.9,6.9c-1.2,1.8-3,3.3-5.3,4.6c-2.4,1.3-4.5,2.2-6.6,2.8c-2,0.6-4.7,1.1-8,1.4
		c-3.3,0.3-6,0.5-8.1,0.5c-2.1,0-5-0.1-8.7-0.2c-3.7-0.1-6.4-0.2-8-0.2L1404.5,975.7L1404.5,975.7z M1435.1,965.2
		c0.6,0,2-0.1,4.1-0.2c2.2-0.2,3.6-0.3,4.2-0.3c0.7,0,1.9-0.2,3.8-0.4c1.9-0.2,3.2-0.4,3.9-0.6c0.8-0.2,1.9-0.6,3.4-1.1
		c1.5-0.5,2.6-1.1,3.2-1.7c0.6-0.6,1.4-1.4,2.4-2.3c1-1,1.7-2,2.2-3.2c0.5-1.2,0.9-2.5,1.3-4.1c0.4-1.6,0.7-3.4,0.8-5.3
		c0.1-1.9-0.1-3.7-0.7-5.3c-0.6-1.7-1.2-3.1-2-4.2c-0.8-1.2-1.8-2.3-3.2-3.3c-1.4-1.1-2.7-2-3.8-2.8c-1.1-0.8-2.5-1.5-4.3-2.1
		c-1.8-0.6-3-1-3.8-1.2c-0.8-0.2-2-0.5-3.5-0.8l-2.4-0.5c-0.4-0.1-0.8-0.2-1.1-0.3c-0.5,0-0.9,0-1.2,0c0.4,0,1.1,0,2-0.2
		c0.9-0.1,2.4-0.4,4.5-1c2.1-0.5,4-1.3,5.7-2.3c1.7-1,3.4-2.4,5-4.3c1.6-1.9,2.6-4.1,2.9-6.6c0.5-3,0-5.5-1.4-7.5
		c-1.5-2-3.4-3.4-5.8-4.2c-2.4-0.8-4.8-1.4-7.2-1.8c-2-0.4-4.1-0.6-6.3-0.6h-2.6L1435.1,965.2L1435.1,965.2z"/>
	<path class="st1" d="M1511.6,969.5l7.1,6.2h-27.9l40.5-84l-5.4-5.1h28.2l37.5,80l8.9,9.2h-26.4l-16.3-33.6h-34.3L1511.6,969.5z
		 M1540.9,903.1l-11.4,27.6h24.7L1540.9,903.1z"/>
	<path class="st1" d="M1647.9,886.5h17.6h17.5l-8.9,11.4v63.9h25.6V887h25l-8.7,11v66.6l8.6,11.1h-117.9l8.4-11.1V898l-8.7-11.6h25
		v75.5h25.8V898L1647.9,886.5z"/>
	<path class="st1" d="M1839.7,975.7h-25.8v-61.5h-0.3l-72.7,65.7v-85.1l-10.2-8.3h26.1v53.9h0.3l52-53.9h28.6l-8.4,8.3v70.3
		L1839.7,975.7z"/>
	<path class="st1" d="M1932.3,886.5l23.5,42.3h0.2l-0.2-31.2l-8.6-11.1h17.3h17l-8.4,11.1l0.2,31.2h0.1l23-42.3h18.7l-24.4,41.9
		l33.1,47.3h-22.1l-28.8-42.9h-0.1v30.6v3.6l8.1,8.7h-16.3h-16.4l8-8.3v-4.1v-30.6h-0.2l-28.8,42.9h-21.5l32.1-47.3l-25.5-41.9
		L1932.3,886.5L1932.3,886.5z"/>
	<path class="st1" d="M2083.2,920v14.2h-24.6v28.5h51.4l-12.4,13.1h-67.9l10.5-11.1v-67.2l-10.1-10.8h61.8v20.2l-7.2-6.9h-26.7v20.8
		L2083.2,920z"/>
	<path class="st1" d="M2146.9,975.7h-31l40.7-82.7l-6.5-6.5h30.3l37.5,78.6l10.4,10.5h-28.8l-32.2-69.4h-0.3l-28.2,61.9
		L2146.9,975.7z"/>
	<path class="st1" d="M2254.9,969.5l7.1,6.2h-27.9l40.5-84l-5.4-5.1h28.2l37.5,80l8.9,9.2h-26.4l-16.3-33.6h-34.3L2254.9,969.5z
		 M2284.1,903.1l-11.4,27.6h24.7L2284.1,903.1z"/>
	<path class="st1" d="M2415.9,975.9v-42h-41.3v41.9h-25l8.6-11.6v-66.7l-8.3-11h24.4v34.3h41.6v-33.9h25.2l-8.6,10.7v66.9l9,11.4
		L2415.9,975.9L2415.9,975.9z"/>
	<path class="st1" d="M2556.4,975.7h-25.8v-61.5h-0.3l-72.7,65.7v-85.1l-10.2-8.3h26.1v53.9h0.3l52-53.9h28.6l-8.4,8.3v70.3
		L2556.4,975.7z"/>
	<path class="st1" d="M2600.7,932.8c-0.4-0.1-0.8-0.2-1.2-0.2c-0.3-0.2-1.1-0.6-2.3-1.1c-1.1-0.5-2.3-1-3.5-1.4
		c-0.6-0.3-1.9-1.1-3.9-2.3c-1.5-0.9-2.8-2-3.9-3.2c-0.6-0.5-1.8-1.8-3.5-3.9c-0.9-1.2-1.7-2.9-2.4-5c-0.5-1.4-0.8-3.5-0.8-6.2
		c0-1.9,0.3-4.3,1.1-7.2c0.7-2.6,1.9-4.9,3.6-6.9c1.7-2,3.8-3.5,6.2-4.5c3-1.3,5.4-2.2,7.2-2.6c2.5-0.7,5.4-1.1,8.6-1.2
		c3.1-0.2,5.8-0.3,8.1-0.4c2.2-0.2,4.8-0.3,7.7-0.3c2.9,0,4.9,0,6,0h30.3l-11.6,10.4l0.2,67l11.4,11.7h-31l-0.2-78.3
		c0,0.2-0.9,0.2-2.7-0.1c-1.8-0.2-4-0.1-6.6,0.4c-2.6,0.4-5.2,1-7.7,1.8c-2.7,0.9-4.9,2.4-6.5,4.4c-1.7,2.3-2.5,4.8-2.3,7.6
		c0.2,2.8,1.1,5.1,2.7,7.2c1.8,2.3,3.7,4,5.7,5c2.3,1.2,4.6,2.2,6.8,3c2.4,1,4.2,1.6,5.4,1.8l2.4,0.3l-37.7,47h-24.2L2600.7,932.8z"
		/>
</g>
<path class="st2" d="M724.8,56.6c-2.4-0.8-4.8-1.5-7.1-2.2c-48.7-14.6-92.6-9.6-126.8,0.9c-27.8,8.5-49.3,20.7-61.8,29
	c-13-8.6-35.6-21.3-64.9-29.9c-2.4,0.7-4.7,1.4-7.1,2.2c-110.6,37.1-162.2,208.2-72.2,346.3c69,105.8,51,177.4,73.2,268.2
	c16.8-76.3,23.5-165.7,71-166c38.1-0.3,50,57.5,61.9,119.8c6,31.8,12.1,64.7,21.6,91.7c34.5,98.2,64.8,79.7,95.4,3.9
	c6.9-17.2,12-33.7,15.8-49.8c21.1-88.7,5.8-164.3,73.4-268C887.2,264.4,835,93.4,724.8,56.6z"/>
<path class="st3" d="M843,267.8c120.3,16.7,197.5,42.7,197.5,71.9c0,50.5-231.3,91.5-516.7,91.5S7.1,390.2,7.1,339.7
	c0-30.6,84.6-57.6,214.7-74.2"/>
<path class="st1" d="M725.1,39.7c-90.8-30.4-166.7,3.6-201.5,24.6c-34.8-21-110.7-55-201.5-24.6C201.8,80,145.4,263.4,241.9,411.3
	c45.7,70.1,51.8,124.1,58.3,181.3c4.7,41.9,9.6,85.2,30,135.8c13.7,34,33.2,73,61.9,73c0.3,0,0.5,0,0.8,0
	c23.1-0.6,41.7-24.5,60.4-77.6c9.5-27.1,15.6-59,21.5-89.8c10.6-55.6,21.5-113,49.1-113.2c0,0,0.1,0,0.1,0
	c27.2,0,38.1,57.5,48.7,113c5.9,31,12,63,21.5,90c18.7,53.1,37.3,77.1,60.4,77.7c0.3,0,0.5,0,0.8,0c28.7,0,48.1-39,61.9-73.1
	c19.5-48.4,24.6-91.6,29.6-133.4c7-58.8,13.5-114.4,58.8-183.9l0,0C903.1,261.3,843.4,79.3,725.1,39.7z M781.5,394.2
	c-49.2,75.6-56.5,137.4-63.6,197.2c-4.9,41.6-9.6,80.8-27.5,125.3c-21.3,52.8-33.7,54.6-35.2,54.6c0,0,0,0,0,0
	c-0.6,0-13.9-1-33.8-57.9c-8.7-24.8-14.6-55.7-20.3-85.5c-6.4-33.5-12.4-65.1-22.3-89.8c-12.7-31.6-31.1-47.6-54.8-47.6
	c-0.1,0-0.3,0-0.4,0c-23.8,0.2-42.3,16.3-55,48c-9.9,24.7-15.9,56.2-22.3,89.6c-5.7,29.7-11.5,60.5-20.2,85.3
	c-19.9,56.7-33.3,57.7-33.8,57.7c-1.3,0-13.8-1.2-35.3-54.5c-18.8-46.7-23.3-86-28-127.6c-6.6-58.3-13.4-118.6-63.1-194.8
	C178.9,261,231.3,101.9,331,68.5c86.7-29,158.2,8.7,184.9,26.2c4.7,3.1,10.7,3.1,15.4,0c26.7-17.5,98.3-55.2,185-26.2
	C817.9,102.6,866.7,263.4,781.5,394.2z"/>
<g>
	<path class="st4" d="M756.8,311.6c-12.9,0-24.4,7.4-30.6,18.5c-21-2.3-39.2,15.3-39.2,37.7c0,20.9,16,37.9,35.6,37.9
		c12.9,0,24.4-7.4,30.6-18.5c21,2.3,39.2-15.3,39.2-37.7C792.3,328.6,776.4,311.6,756.8,311.6L756.8,311.6z"/>
	<path class="st4" d="M690.6,421.2c3.9,3.8,2.5,10.6-2.6,12.4c-0.9,0.3-22.4,8.4-42,39.1c-2.5,3.9-7.8,4.5-11,1.1
		c-15.4-16.1-23.1-37.2-10.2-55.7c0,0,0-0.1-0.1-0.1c-12.8-18.5-5.2-39.5,10.2-55.6c3.2-3.3,8.5-2.8,11,1.1
		c19.6,30.7,41.1,38.8,42,39.1c5,1.8,6.4,8.6,2.6,12.4c-0.9,0.9-2.1,2.1-3,3C688.4,419.1,689.5,420.1,690.6,421.2z"/>
	<path class="st5" d="M688,433.6c-0.9,0.3-22.4,8.4-42,39.1c-2.5,3.9-7.8,4.5-11,1.1c-15.4-16.1-23.1-37.2-10.2-55.7
		c0,0,0-0.1-0.1-0.1c67.7,0,62.9,0,62.7,0.1c0.9,0.9,1.9,1.9,3,3C694.4,425,693,431.8,688,433.6z"/>
	<path class="st6" d="M860,422c-0.4,0.6-9.1,14.9-24.4,29.3C815.1,470.7,792.4,481,770,481c-25.2,0-51.3-6.5-71.6-17.9
		c-21.8-12.2-34.2-28.6-34.2-45c0-16.4,12.5-32.8,34.2-45c20.3-11.4,46.4-17.9,71.6-17.9c22.4,0,45.1,10.3,65.6,29.7
		c15.3,14.4,24,28.7,24.4,29.3C861.5,416.5,861.5,419.6,860,422z"/>
	<path class="st4" d="M861.1,418.1c0,1.4-0.4,2.8-1.1,4c-0.4,0.6-9.1,14.9-24.4,29.3C815.1,470.7,792.4,481,770,481
		c-25.2,0-51.3-6.5-71.6-17.9c-21.8-12.2-34.2-28.6-34.2-45H861.1z"/>
	<path class="st5" d="M766.9,427.2c-0.1,0-8.6,4.3-21.2,7.6c-11.5,3-23.1-0.1-23.2-0.2c-3.7-1.1-7.6,1.2-8.7,5.1
		c-0.1,0.2-7.1,24.6-23.4,34.8c-4.9,3.1-4.5,10.7,0.8,13.2c7.4,3.4,15.6,5.1,23.8,5.1c28.1,0,53.4-18.8,61.9-57.2
		C778.3,429.5,772.3,424.5,766.9,427.2L766.9,427.2z"/>
	<path class="st7" d="M800.4,409.6c-3.5,0-6.7-2.7-7.1-6.7c-0.4-3.9,2.3-7.7,6.4-8.1c4.1-0.4,7.8,2.9,7.8,7.4
		C807.5,406.3,804.3,409.6,800.4,409.6L800.4,409.6z"/>
</g>
<rect x="112.3" y="809.2" class="st1" width="2544.2" height="6"/>
</svg>
