<svg width="53" height="53" viewBox="0 0 53 53" fill="none" xmlns="http://www.w3.org/2000/svg">
<g clip-path="url(#clip0)">
<path d="M49.9815 41.0365H9.94481C7.25806 41.0336 5.08109 38.8561 5.07815 36.1699V9.78472C5.07766 9.22784 5.17333 8.67538 5.36075 8.15089C3.4242 8.84367 2.13087 10.6777 2.12842 12.7344V39.1191C2.13136 41.8059 4.30833 43.9828 6.99508 43.9858H47.0318C49.0891 43.9838 50.9236 42.6905 51.6163 40.7534C51.0918 40.9409 50.5389 41.037 49.9815 41.0365Z" fill="#D4E1F4"/>
<path d="M26.6279 33.0857C28.0272 33.0852 29.3809 32.5867 30.4461 31.679L52.3105 13.1348L51.1732 11.7939L29.3088 30.3376C27.7652 31.654 25.4941 31.655 23.9495 30.3396L2.06845 11.812L0.932129 13.1539L22.8132 31.682C23.8779 32.5877 25.2296 33.0852 26.6279 33.0857Z" fill="#FFA552"/>
<path d="M6.52448 45.6186H46.7177C49.9765 45.6152 52.6177 42.9741 52.6211 39.7152V12.4415C52.6177 9.1827 49.9765 6.54159 46.7177 6.53815H6.52448C3.26564 6.54159 0.624528 9.1827 0.621094 12.4415V39.7152C0.624528 42.9741 3.26564 45.6152 6.52448 45.6186ZM2.37955 12.4415C2.382 10.1532 4.23613 8.29906 6.52448 8.2966H46.7177C49.0061 8.29906 50.8602 10.1532 50.8626 12.4415V39.7152C50.8636 40.3992 50.6939 41.0723 50.3695 41.6739L38.3901 29.4854C38.0491 29.1419 37.4952 29.1385 37.1497 29.4775C36.8048 29.8171 36.7984 30.371 37.136 30.7179L49.2224 43.0153C48.5027 43.5643 47.6229 43.8611 46.7177 43.8602H6.52448C5.61728 43.8611 4.73511 43.5628 4.01485 43.0114L16.035 30.7164C16.2578 30.4922 16.3432 30.1659 16.2588 29.8617C16.1744 29.557 15.9335 29.3215 15.6273 29.244C15.3207 29.1665 14.9964 29.2592 14.7775 29.4874L2.86921 41.6675C2.54735 41.0674 2.37906 40.3967 2.37955 39.7152V12.4415Z" fill="#FFA552"/>
</g>
<defs>
<clipPath id="clip0">
<rect width="52" height="52" fill="white" transform="translate(0.621094 0.132355)"/>
</clipPath>
</defs>
</svg>
