<svg width="53" height="53" viewBox="0 0 53 53" fill="none" xmlns="http://www.w3.org/2000/svg">
<path d="M9.06208 27.7816C8.16828 25.3673 7.79013 22.7926 7.952 20.2233C8.26981 15.5196 10.2708 11.0875 13.5887 7.73825C16.5159 4.77485 20.3765 2.91293 24.518 2.46715C23.8433 2.39413 23.1653 2.35748 22.4867 2.35736C20.077 2.34641 17.6893 2.81672 15.4638 3.74072C13.2382 4.66471 11.2196 6.02379 9.52622 7.73825C6.20827 11.0875 4.20731 15.5196 3.8895 20.2233C3.72763 22.7926 4.10578 25.3673 4.99958 27.7816C5.92075 30.3054 7.42083 32.5784 9.25911 34.5375L22.4866 48.6263L24.5179 46.4625L13.3216 34.5375C11.4833 32.5784 9.98325 30.3054 9.06208 27.7816Z" fill="#D4E1F4"/>
<path d="M41.6929 20.1826C41.3736 15.3297 39.3086 10.7563 35.8795 7.30762C34.1227 5.54536 32.0354 4.14714 29.7373 3.19311C27.4391 2.23909 24.9753 1.74803 22.487 1.74808C19.9987 1.74812 17.5348 2.23928 15.2367 3.19339C12.9386 4.1475 10.8513 5.5458 9.09468 7.30813C5.665 10.7562 3.59998 15.3296 3.28155 20.1825C3.11128 22.8367 3.50165 25.4971 4.42728 27.9905C5.33413 30.4753 6.81034 32.8183 8.81478 34.9547L22.0423 49.0434C22.0993 49.1041 22.1681 49.1525 22.2445 49.1856C22.3209 49.2187 22.4033 49.2357 22.4866 49.2357C22.5698 49.2357 22.6522 49.2187 22.7286 49.1856C22.805 49.1525 22.8739 49.1041 22.9308 49.0434L26.8872 44.8286L26.8906 44.8253L26.0287 43.9635L26.0185 43.9736L26.0051 43.9875L22.4864 47.7361L9.70355 34.1206C7.81236 32.105 6.42227 29.9019 5.57209 27.5727C4.70499 25.2388 4.33891 22.7485 4.49766 20.2639C4.79643 15.7047 6.73616 11.4079 9.95807 8.16837C11.6015 6.51967 13.5542 5.21154 15.7041 4.31895C17.8541 3.42637 20.1591 2.96688 22.487 2.96683C24.8148 2.96679 27.1199 3.42618 29.2699 4.31868C31.4199 5.21117 33.3726 6.51923 35.0161 8.16786C38.2375 11.4081 40.1772 15.7047 40.4768 20.264C40.617 22.4509 40.3487 24.6448 39.6857 26.7335L40.8488 27.0974C41.557 24.8648 41.8433 22.5199 41.6929 20.1826Z" fill="#FFA552"/>
<path d="M22.4867 11.2594C17.7843 11.2594 13.9595 15.1797 13.9595 19.9989C13.9595 24.818 17.7847 28.7393 22.4867 28.7393C27.1886 28.7393 31.0139 24.8183 31.0139 19.9989C31.0139 15.1794 27.1886 11.2594 22.4867 11.2594ZM22.4867 27.5206C18.4568 27.5206 15.1782 24.1464 15.1782 19.9989C15.1782 15.8514 18.4568 12.4782 22.4867 12.4782C26.5166 12.4782 29.7951 15.852 29.7951 19.9989C29.7951 24.1458 26.5166 27.5206 22.4867 27.5206Z" fill="#FFA552"/>
<path d="M17.9476 5.84517C17.8872 5.69525 17.7698 5.57543 17.6211 5.51209C17.4724 5.44874 17.3047 5.44704 17.1548 5.50737C15.0256 6.36532 13.0937 7.64855 11.4774 9.27859C9.63401 11.1249 8.21365 13.3497 7.31457 15.7989C7.28685 15.874 7.2742 15.9538 7.27732 16.0338C7.28045 16.1137 7.29929 16.1923 7.33278 16.265C7.36627 16.3377 7.41375 16.403 7.4725 16.4574C7.53126 16.5117 7.60014 16.5539 7.67522 16.5817C7.75029 16.6094 7.83009 16.622 7.91006 16.6189C7.99003 16.6158 8.06859 16.5969 8.14128 16.5634C8.21396 16.53 8.27934 16.4825 8.33368 16.4237C8.38801 16.365 8.43024 16.2961 8.45796 16.221C9.29657 13.9365 10.6214 11.8614 12.3407 10.1392C13.8408 8.62614 15.6337 7.43491 17.6099 6.63837C17.6841 6.60849 17.7518 6.56426 17.809 6.50822C17.8661 6.45217 17.9117 6.38541 17.9431 6.31175C17.9744 6.23808 17.991 6.15896 17.9917 6.07891C17.9925 5.99885 17.9775 5.91942 17.9476 5.84517Z" fill="#FFA552"/>
<path d="M20.1933 5.83823C20.2345 5.83821 20.2756 5.83402 20.316 5.82573C21.3646 5.61234 22.4321 5.50523 23.5022 5.50602C23.6638 5.50602 23.8188 5.44181 23.933 5.32753C24.0473 5.21325 24.1115 5.05826 24.1115 4.89664C24.1115 4.73502 24.0473 4.58003 23.933 4.46575C23.8188 4.35147 23.6638 4.28727 23.5022 4.28727C22.3501 4.28651 21.201 4.40192 20.0721 4.63177C19.9241 4.66194 19.7926 4.746 19.7031 4.86764C19.6135 4.98928 19.5724 5.13983 19.5876 5.2901C19.6027 5.44037 19.6732 5.57964 19.7852 5.68092C19.8973 5.78219 20.0429 5.83825 20.194 5.83823H20.1933Z" fill="#FFA552"/>
<path d="M40.3905 26.3945C38.6846 25.9912 36.9144 25.9403 35.1881 26.2449C33.4619 26.5495 31.816 27.2031 30.3511 28.1658C28.8863 29.1285 27.6332 30.38 26.6688 31.8437C25.7043 33.3074 25.0487 34.9525 24.742 36.6784C24.714 36.8376 24.7505 37.0013 24.8432 37.1337C24.936 37.266 25.0776 37.3561 25.2367 37.384C25.3959 37.412 25.5597 37.3756 25.692 37.2828C25.8244 37.1901 25.9144 37.0485 25.9424 36.8893C26.4637 33.9195 28.1112 31.2656 30.5415 29.4808C32.9717 27.696 35.9971 26.9183 38.9868 27.3096C41.9765 27.701 44.6998 29.2313 46.5888 31.5814C48.4778 33.9316 49.3867 36.9202 49.126 39.9241C48.8654 42.928 47.4552 45.7154 45.1896 47.705C42.9241 49.6947 39.9779 50.733 36.9655 50.6035C33.953 50.474 31.1069 49.1867 29.0204 47.01C26.9339 44.8333 25.7681 41.9352 25.7662 38.92C25.7662 38.7584 25.702 38.6034 25.5877 38.4891C25.4734 38.3748 25.3184 38.3106 25.1568 38.3106C24.9952 38.3106 24.8402 38.3748 24.7259 38.4891C24.6116 38.6034 24.5474 38.7584 24.5474 38.92C24.5412 40.9191 25.0062 42.8915 25.9048 44.6773C26.8735 46.6132 28.3148 48.2735 30.0954 49.5046C31.876 50.7357 33.9384 51.4979 36.0917 51.7206C38.2449 51.9432 40.4196 51.6192 42.4144 50.7785C44.4093 49.9377 46.1598 48.6075 47.5042 46.9107C48.8485 45.214 49.7432 43.2056 50.1055 41.0714C50.4677 38.9371 50.2859 36.746 49.5767 34.7007C48.8675 32.6554 47.6539 30.822 46.0482 29.3701C44.4426 27.9183 42.4966 26.8948 40.3905 26.3945Z" fill="#FFA552"/>
<path d="M41.466 45.4702C42.361 44.5745 42.934 43.4074 43.0952 42.1515C43.2564 40.8956 42.9969 39.6216 42.3571 38.5289L37.9432 30.9949C37.8894 30.9032 37.8126 30.8271 37.7204 30.7743C37.6282 30.7214 37.5237 30.6936 37.4174 30.6936C37.3111 30.6936 37.2066 30.7214 37.1144 30.7743C37.0221 30.8271 36.9453 30.9032 36.8916 30.9949L32.4787 38.5291C31.7767 39.7301 31.536 41.1456 31.8016 42.5112C32.0672 43.8767 32.8209 45.0989 33.9219 45.9492C35.0229 46.7996 36.3959 47.2199 37.7842 47.1318C39.1726 47.0436 40.4813 46.453 41.466 45.4702ZM32.9123 41.4205C32.9129 40.6206 33.1263 39.8352 33.5305 39.1448L37.4176 32.5084L41.3057 39.1447C41.6557 39.7422 41.8633 40.4122 41.9124 41.1029C41.9615 41.7935 41.8507 42.4862 41.5887 43.1271C41.3267 43.7681 40.9205 44.34 40.4017 44.7985C39.8829 45.257 39.2654 45.5898 38.5971 45.771C37.9288 45.9522 37.2278 45.9769 36.5484 45.8433C35.869 45.7097 35.2296 45.4212 34.6797 45.0005C34.1299 44.5797 33.6844 44.0378 33.3778 43.4169C33.0713 42.7961 32.912 42.1129 32.9123 41.4205Z" fill="#FFA552"/>
<path d="M38.3457 44.0847C38.4132 44.0847 38.4801 44.0734 38.5439 44.0514C38.7876 43.968 39.021 43.857 39.2397 43.7208C39.6407 43.4717 39.9864 43.1431 40.2558 42.7554C40.5251 42.3676 40.7123 41.9289 40.8058 41.4661C40.8223 41.3874 40.8231 41.3062 40.808 41.2271C40.793 41.1481 40.7625 41.0728 40.7182 41.0056C40.6739 40.9384 40.6168 40.8807 40.5501 40.8357C40.4834 40.7907 40.4084 40.7594 40.3295 40.7435C40.2507 40.7277 40.1694 40.7276 40.0905 40.7433C40.0116 40.759 39.9366 40.7901 39.8698 40.835C39.803 40.8798 39.7457 40.9374 39.7013 41.0045C39.6569 41.0716 39.6262 41.1468 39.611 41.2258C39.5502 41.5256 39.4287 41.8098 39.2541 42.0609C39.0794 42.312 38.8553 42.5247 38.5954 42.686C38.4547 42.7736 38.3045 42.8448 38.1477 42.8985C38.0112 42.9453 37.8957 43.039 37.8218 43.1629C37.7479 43.2869 37.7204 43.433 37.7442 43.5754C37.768 43.7177 37.8415 43.847 37.9517 43.9402C38.0618 44.0334 38.2015 44.0845 38.3458 44.0843L38.3457 44.0847Z" fill="#FFA552"/>
</svg>
