<svg width="61" height="61" viewBox="0 0 61 61" fill="none" xmlns="http://www.w3.org/2000/svg">
<path d="M20.9038 9.62454C20.905 8.56818 21.3251 7.55543 22.0721 6.80847C22.8191 6.06151 23.8318 5.64135 24.8882 5.64017H21.3726C20.3162 5.64135 19.3034 6.06151 18.5565 6.80847C17.8095 7.55543 17.3894 8.56818 17.3882 9.62454V11.2652H20.9038V9.62454Z" fill="#D4E1F4"/>
<path d="M20.9038 12.6714H17.3882V46.187H20.9038V12.6714Z" fill="#D4E1F4"/>
<path d="M20.9038 50.6402V47.5933H17.3882V50.6402C17.3894 51.6965 17.8095 52.7093 18.5565 53.4562C19.3034 54.2032 20.3162 54.6234 21.3726 54.6245H24.8882C23.8318 54.6234 22.8191 54.2032 22.0721 53.4562C21.3251 52.7093 20.905 51.6965 20.9038 50.6402Z" fill="#D4E1F4"/>
<path d="M40.1226 4.23392H21.3726C19.9434 4.23553 18.5732 4.80399 17.5626 5.81458C16.552 6.82517 15.9835 8.19535 15.9819 9.62454V50.6402C15.9835 52.0694 16.552 53.4395 17.5626 54.4501C18.5732 55.4607 19.9434 56.0292 21.3726 56.0308H40.1226C41.5517 56.0292 42.9219 55.4607 43.9325 54.4501C44.9431 53.4395 45.5116 52.0694 45.5132 50.6402V9.62454C45.5116 8.19535 44.9431 6.82517 43.9325 5.81458C42.9219 4.80399 41.5517 4.23553 40.1226 4.23392ZM40.1226 54.6245H21.3726C20.3162 54.6234 19.3034 54.2032 18.5565 53.4562C17.8095 52.7093 17.3894 51.6965 17.3882 50.6402V47.5933H44.1069V50.6402C44.1058 51.6965 43.6856 52.7093 42.9386 53.4562C42.1917 54.2032 41.1789 54.6234 40.1226 54.6245ZM44.1069 11.2652H42.4663C42.2798 11.2652 42.101 11.3392 41.9691 11.4711C41.8373 11.603 41.7632 11.7818 41.7632 11.9683C41.7632 12.1548 41.8373 12.3336 41.9691 12.4655C42.101 12.5973 42.2798 12.6714 42.4663 12.6714H44.1069V46.187H17.3882V12.6714H36.4897C36.6762 12.6714 36.8551 12.5973 36.9869 12.4655C37.1188 12.3336 37.1929 12.1548 37.1929 11.9683C37.1929 11.7818 37.1188 11.603 36.9869 11.4711C36.8551 11.3392 36.6762 11.2652 36.4897 11.2652H17.3882V9.62454C17.3894 8.56818 17.8095 7.55543 18.5565 6.80847C19.3034 6.06151 20.3162 5.64135 21.3726 5.64017H40.1226C41.1789 5.64135 42.1917 6.06151 42.9386 6.80847C43.6856 7.55543 44.1058 8.56818 44.1069 9.62454V11.2652Z" fill="#0635C9"/>
<path d="M40.1003 11.2652H38.7983C38.6119 11.2652 38.433 11.3392 38.3012 11.4711C38.1693 11.603 38.0952 11.7818 38.0952 11.9683C38.0952 12.1548 38.1693 12.3336 38.3012 12.4655C38.433 12.5973 38.6119 12.6714 38.7983 12.6714H40.1003C40.2868 12.6714 40.4656 12.5973 40.5975 12.4655C40.7293 12.3336 40.8034 12.1548 40.8034 11.9683C40.8034 11.7818 40.7293 11.603 40.5975 11.4711C40.4656 11.3392 40.2868 11.2652 40.1003 11.2652Z" fill="#0635C9"/>
<path d="M30.7476 53.5699C31.2343 53.5699 31.7101 53.4255 32.1148 53.1551C32.5195 52.8847 32.8349 52.5004 33.0212 52.0507C33.2074 51.601 33.2562 51.1062 33.1612 50.6288C33.0663 50.1514 32.8319 49.7129 32.4877 49.3688C32.1435 49.0246 31.705 48.7902 31.2277 48.6953C30.7503 48.6003 30.2555 48.649 29.8058 48.8353C29.3561 49.0216 28.9718 49.337 28.7014 49.7417C28.431 50.1464 28.2866 50.6222 28.2866 51.1089C28.2874 51.7614 28.5469 52.3869 29.0082 52.8482C29.4696 53.3096 30.0951 53.5691 30.7476 53.5699ZM30.7476 50.0542C30.9562 50.0542 31.1601 50.1161 31.3335 50.232C31.507 50.3479 31.6421 50.5126 31.722 50.7053C31.8018 50.898 31.8227 51.1101 31.782 51.3147C31.7413 51.5193 31.6408 51.7072 31.4933 51.8547C31.3458 52.0022 31.1579 52.1026 30.9533 52.1433C30.7487 52.184 30.5367 52.1631 30.344 52.0833C30.1512 52.0035 29.9865 51.8683 29.8706 51.6949C29.7547 51.5214 29.6929 51.3175 29.6929 51.1089C29.6932 50.8293 29.8044 50.5612 30.0021 50.3635C30.1999 50.1658 30.4679 50.0545 30.7476 50.0542Z" fill="#FFA552"/>
</svg>
