<svg width="60" height="61" viewBox="0 0 60 61" fill="none" xmlns="http://www.w3.org/2000/svg">
<path d="M20.1562 9.68945C20.1574 8.63309 20.5776 7.62034 21.3245 6.87338C22.0715 6.12642 23.0843 5.70626 24.1406 5.70508H20.625C19.5686 5.70626 18.5559 6.12642 17.8089 6.87338C17.062 7.62034 16.6418 8.63309 16.6406 9.68945V11.3301H20.1562V9.68945Z" fill="#D4E1F4"/>
<path d="M20.1562 12.7363H16.6406V46.252H20.1562V12.7363Z" fill="#D4E1F4"/>
<path d="M20.1562 50.7051V47.6582H16.6406V50.7051C16.6418 51.7614 17.062 52.7742 17.8089 53.5212C18.5559 54.2681 19.5686 54.6883 20.625 54.6895H24.1406C23.0843 54.6883 22.0715 54.2681 21.3245 53.5212C20.5776 52.7742 20.1574 51.7614 20.1562 50.7051Z" fill="#D4E1F4"/>
<path d="M39.375 4.29883H20.625C19.1958 4.30044 17.8256 4.8689 16.815 5.87949C15.8044 6.89008 15.236 8.26027 15.2344 9.68945V50.7051C15.236 52.1343 15.8044 53.5045 16.815 54.515C17.8256 55.5256 19.1958 56.0941 20.625 56.0957H39.375C40.8042 56.0941 42.1744 55.5256 43.185 54.515C44.1956 53.5045 44.764 52.1343 44.7656 50.7051V9.68945C44.764 8.26027 44.1956 6.89008 43.185 5.87949C42.1744 4.8689 40.8042 4.30044 39.375 4.29883ZM39.375 54.6895H20.625C19.5686 54.6883 18.5559 54.2681 17.8089 53.5212C17.062 52.7742 16.6418 51.7614 16.6406 50.7051V47.6582H43.3594V50.7051C43.3582 51.7614 42.938 52.7742 42.1911 53.5212C41.4441 54.2681 40.4314 54.6883 39.375 54.6895ZM43.3594 11.3301H41.7188C41.5323 11.3301 41.3534 11.4042 41.2216 11.536C41.0897 11.6679 41.0156 11.8467 41.0156 12.0332C41.0156 12.2197 41.0897 12.3985 41.2216 12.5304C41.3534 12.6622 41.5323 12.7363 41.7188 12.7363H43.3594V46.252H16.6406V12.7363H35.7422C35.9287 12.7363 36.1075 12.6622 36.2394 12.5304C36.3712 12.3985 36.4453 12.2197 36.4453 12.0332C36.4453 11.8467 36.3712 11.6679 36.2394 11.536C36.1075 11.4042 35.9287 11.3301 35.7422 11.3301H16.6406V9.68945C16.6418 8.63309 17.062 7.62034 17.8089 6.87338C18.5559 6.12642 19.5686 5.70626 20.625 5.70508H39.375C40.4314 5.70626 41.4441 6.12642 42.1911 6.87338C42.938 7.62034 43.3582 8.63309 43.3594 9.68945V11.3301Z" fill="#0635C9"/>
<path d="M39.3527 11.3301H38.0508C37.8643 11.3301 37.6855 11.4042 37.5536 11.536C37.4217 11.6679 37.3477 11.8467 37.3477 12.0332C37.3477 12.2197 37.4217 12.3985 37.5536 12.5304C37.6855 12.6622 37.8643 12.7363 38.0508 12.7363H39.3527C39.5392 12.7363 39.7181 12.6622 39.8499 12.5304C39.9818 12.3985 40.0559 12.2197 40.0559 12.0332C40.0559 11.8467 39.9818 11.6679 39.8499 11.536C39.7181 11.4042 39.5392 11.3301 39.3527 11.3301Z" fill="#0635C9"/>
<path d="M30 53.6348C30.4867 53.6348 30.9625 53.4904 31.3672 53.22C31.7719 52.9496 32.0874 52.5653 32.2736 52.1156C32.4599 51.6659 32.5086 51.1711 32.4137 50.6937C32.3187 50.2163 32.0843 49.7779 31.7402 49.4337C31.396 49.0895 30.9575 48.8551 30.4801 48.7602C30.0027 48.6652 29.5079 48.714 29.0582 48.9002C28.6086 49.0865 28.2242 49.4019 27.9538 49.8066C27.6834 50.2113 27.5391 50.6871 27.5391 51.1738C27.5398 51.8263 27.7993 52.4518 28.2607 52.9132C28.722 53.3745 29.3476 53.634 30 53.6348ZM30 50.1191C30.2086 50.1191 30.4125 50.181 30.586 50.2969C30.7594 50.4128 30.8946 50.5775 30.9744 50.7702C31.0542 50.9629 31.0751 51.175 31.0344 51.3796C30.9937 51.5842 30.8933 51.7721 30.7458 51.9196C30.5983 52.0671 30.4104 52.1676 30.2058 52.2082C30.0012 52.2489 29.7891 52.2281 29.5964 52.1482C29.4037 52.0684 29.239 51.9332 29.1231 51.7598C29.0072 51.5863 28.9453 51.3824 28.9453 51.1738C28.9456 50.8942 29.0568 50.6261 29.2546 50.4284C29.4523 50.2307 29.7204 50.1195 30 50.1191Z" fill="#1AE5BE"/>
</svg>
