<svg width="151" height="151" viewBox="0 0 151 151" fill="none" xmlns="http://www.w3.org/2000/svg">
<path d="M24.8387 99.3645C24.6838 99.4108 24.5212 99.4253 24.3605 99.4073C24.1999 99.3892 24.0446 99.3389 23.9038 99.2593L14.9806 94.2464C14.7097 94.0965 14.5084 93.8464 14.4198 93.5497C14.3312 93.2531 14.3625 92.9335 14.5068 92.6596L37.0039 49.7263C36.9539 49.7879 36.9102 49.8543 36.8733 49.9246L11.8701 97.6401C11.7258 97.914 11.6945 98.2335 11.7831 98.5302C11.8717 98.8268 12.073 99.0769 12.3439 99.2268L21.2671 104.241C21.4072 104.32 21.5617 104.37 21.7215 104.389C21.8813 104.407 22.0431 104.393 22.1975 104.348C22.3518 104.303 22.4956 104.227 22.6203 104.125C22.745 104.024 22.8481 103.898 22.9235 103.756L25.4985 98.8694C25.3448 99.108 25.1107 99.2837 24.8387 99.3645Z" fill="#D4E1F4"/>
<path d="M31.1445 123.158C31.0611 122.652 31.079 122.135 31.1973 121.635C31.3156 121.136 31.5319 120.666 31.8336 120.251L41.685 106.621C42.1424 105.992 42.7756 105.512 43.5049 105.242C44.2343 104.972 45.0273 104.923 45.7842 105.102C45.5102 104.402 45.0388 103.797 44.4275 103.36L43.654 102.803C42.8079 102.197 41.7563 101.95 40.7287 102.116C39.7012 102.282 38.7811 102.848 38.1693 103.691L28.3171 117.322C28.0162 117.738 27.8006 118.209 27.6824 118.708C27.5643 119.208 27.5461 119.726 27.6288 120.233C27.7115 120.739 27.8935 121.225 28.1644 121.661C28.4352 122.097 28.7896 122.475 29.2071 122.774L29.9803 123.329C30.3962 123.628 30.8667 123.842 31.3651 123.96C31.2635 123.701 31.1895 123.432 31.1445 123.158Z" fill="#D4E1F4"/>
<path d="M41.1415 130.338C41.058 129.832 41.076 129.315 41.1942 128.816C41.3125 128.317 41.5288 127.846 41.8305 127.431L49.1293 117.333C49.5869 116.705 50.2198 116.226 50.9485 115.957C51.6772 115.687 52.4693 115.639 53.2253 115.819C52.9513 115.119 52.4799 114.513 51.8685 114.076L51.0954 113.519C50.2501 112.913 49.1996 112.666 48.1727 112.831C47.1459 112.997 46.2261 113.561 45.6136 114.402L38.3149 124.5C38.014 124.916 37.7984 125.388 37.6802 125.887C37.5621 126.387 37.5439 126.905 37.6266 127.412C37.7093 127.918 37.8913 128.404 38.1622 128.84C38.433 129.276 38.7874 129.654 39.2049 129.953L39.9781 130.51C40.394 130.808 40.8645 131.023 41.363 131.14C41.2609 130.881 41.1867 130.613 41.1415 130.338Z" fill="#D4E1F4"/>
<path d="M51.1394 137.518C51.056 137.012 51.0739 136.494 51.1922 135.995C51.3105 135.497 51.5268 135.026 51.8285 134.611L57.0325 127.41C57.4901 126.781 58.1234 126.302 58.8528 126.031C59.5823 125.761 60.3753 125.713 61.1323 125.892C60.8582 125.192 60.3869 124.587 59.7756 124.149L59.0021 123.593C58.1559 122.986 57.1043 122.739 56.0766 122.906C55.049 123.072 54.1288 123.638 53.5169 124.48L48.3126 131.682C48.0118 132.098 47.7961 132.569 47.678 133.069C47.5599 133.568 47.5417 134.086 47.6244 134.593C47.7071 135.099 47.8891 135.585 48.1599 136.021C48.4308 136.457 48.7851 136.835 49.2026 137.134L49.9758 137.69C50.3917 137.989 50.8622 138.203 51.3606 138.321C51.2587 138.062 51.1845 137.793 51.1394 137.518Z" fill="#D4E1F4"/>
<path d="M61.1373 144.698C61.0539 144.192 61.0718 143.674 61.1901 143.175C61.3084 142.676 61.5247 142.206 61.8264 141.791L64.9395 137.485C65.3966 136.855 66.0299 136.375 66.7595 136.105C67.4891 135.835 68.2824 135.787 69.0393 135.967C68.7652 135.267 68.2936 134.661 67.6819 134.223L66.9085 133.667C66.0624 133.06 65.0108 132.813 63.9833 132.979C62.9557 133.146 62.0356 133.712 61.4238 134.554L58.3108 138.86C58.0099 139.276 57.7942 139.748 57.6761 140.247C57.558 140.747 57.5397 141.265 57.6224 141.772C57.7051 142.278 57.8872 142.764 58.158 143.2C58.4289 143.636 58.7833 144.014 59.2008 144.313L59.9739 144.869C60.39 145.168 60.8606 145.382 61.3591 145.5C61.2569 145.241 61.1826 144.972 61.1373 144.698Z" fill="#D4E1F4"/>
<path d="M54.8317 82.8452C55.3971 81.1237 56.0329 79.4002 56.7254 77.7221L59.5643 70.827C60.186 69.3595 61.1191 68.0445 62.2992 66.9732C63.4792 65.9019 64.878 65.0998 66.3987 64.6226L75.711 61.6861C77.7608 61.0385 79.9551 61.0031 82.0248 61.5842L91.6746 64.2877C96.2569 65.5718 99.4813 65.6849 103.995 64.7198C104.105 64.6964 104.212 64.6626 104.315 64.6187L105.606 64.0706L104.207 61.1131L102.85 61.6891C102.747 61.7329 102.64 61.7667 102.53 61.7901C98.0165 62.7552 94.7921 62.6421 90.2097 61.358L80.5599 58.6554C78.4902 58.0743 76.296 58.1097 74.2461 58.7573L64.9338 61.6937C63.4132 62.171 62.0144 62.9731 60.8343 64.0444C59.6543 65.1157 58.7211 66.4307 58.0995 67.8982L55.2606 74.7933C54.5695 76.4714 53.9323 78.1949 53.3668 79.9164L51.0354 87.0098C51.7669 87.262 52.5231 87.436 53.2913 87.5289L54.8317 82.8452Z" fill="#D4E1F4"/>
<path d="M127.445 101.843L106.006 56.5308C105.937 56.3833 105.898 56.2231 105.893 56.0601C105.888 55.8971 105.917 55.7348 105.978 55.5834C106.038 55.432 106.129 55.2946 106.245 55.1798C106.361 55.065 106.499 54.9753 106.651 54.9162L116.311 51.1226C116.527 51.0376 116.763 51.0169 116.99 51.0631C117.218 51.1093 117.427 51.2203 117.593 51.3827L116.376 48.797C116.245 48.5213 116.014 48.3057 115.73 48.1936C115.446 48.0815 115.13 48.0813 114.846 48.1929L105.187 51.9863C105.035 52.0453 104.897 52.1351 104.781 52.2498C104.666 52.3646 104.575 52.502 104.514 52.6534C104.454 52.8049 104.425 52.9671 104.43 53.1301C104.435 53.2931 104.473 53.4533 104.543 53.6008L125.981 98.9125C126.172 99.1416 126.302 99.4154 126.358 99.7082L127.579 102.29C127.639 102.414 127.721 102.528 127.82 102.624C127.762 102.336 127.633 102.068 127.445 101.843Z" fill="#D4E1F4"/>
<path d="M119.558 47.3008C119.045 46.2185 118.141 45.371 117.028 44.9292C115.915 44.4875 114.676 44.4844 113.561 44.9207L103.902 48.7141C103.302 48.9492 102.756 49.3052 102.299 49.76C101.842 50.2149 101.483 50.7588 101.245 51.358C101.007 51.9573 100.895 52.599 100.915 53.2435C100.936 53.8879 101.088 54.5213 101.364 55.1043L102.702 57.9324L101.633 58.3868C97.7842 59.1907 95.1187 59.0826 91.1584 57.9731L81.5086 55.2696C78.7813 54.5028 75.8894 54.5494 73.1883 55.4037L63.8757 58.3402C61.989 58.9355 60.2438 59.9098 58.747 61.2034C57.1122 60.6034 53.9921 59.8329 49.7139 60.4496L50.9809 58.0446C51.5374 56.9837 51.6687 55.7507 51.3483 54.5965C51.0278 53.4422 50.2796 52.4534 49.2559 51.8313L40.3881 46.4515C39.8369 46.1171 39.2232 45.899 38.5845 45.8108C37.9459 45.7226 37.296 45.7661 36.6749 45.9386C36.0537 46.1111 35.4745 46.409 34.9728 46.8139C34.4711 47.2188 34.0577 47.7221 33.7579 48.2928L8.75624 96.0089C8.18276 97.0921 8.05695 98.3569 8.40583 99.5318C8.75472 100.707 9.55047 101.698 10.6222 102.293L19.5454 107.305C20.2487 107.703 21.0428 107.913 21.8508 107.913C22.3071 107.913 22.7609 107.847 23.1984 107.717C23.8034 107.541 24.3664 107.244 24.8539 106.845C25.3414 106.446 25.7432 105.952 26.0352 105.394L27.4122 102.779L31.8337 106.455L25.4675 115.262C24.8957 116.053 24.4857 116.949 24.2611 117.899C24.0365 118.849 24.0016 119.833 24.1585 120.797C24.3155 121.76 24.6611 122.683 25.1755 123.512C25.69 124.341 26.3632 125.061 27.1564 125.63L27.9296 126.185C29.1931 127.094 30.7108 127.583 32.2676 127.581C32.8799 127.58 33.49 127.505 34.084 127.356C34.1001 127.561 34.1229 127.766 34.1563 127.972C34.3107 128.937 34.6553 129.862 35.1701 130.692C35.6848 131.522 36.3595 132.242 37.1549 132.81L37.928 133.366C39.1915 134.276 40.7093 134.764 42.266 134.762C42.8784 134.761 43.4884 134.686 44.0824 134.537C44.0988 134.742 44.1214 134.947 44.1548 135.154C44.3091 136.119 44.6537 137.043 45.1685 137.873C45.6832 138.704 46.3579 139.424 47.1533 139.991L47.9265 140.548C49.1901 141.457 50.7078 141.945 52.2644 141.943C52.8768 141.943 53.4868 141.867 54.0809 141.718C54.0973 141.924 54.1198 142.129 54.1532 142.334C54.3076 143.298 54.6521 144.223 55.1669 145.053C55.6817 145.884 56.3564 146.603 57.1517 147.171L57.9249 147.727C59.5274 148.875 61.5189 149.342 63.4647 149.027C65.4105 148.711 67.1524 147.639 68.3103 146.044L70.8094 142.587L74.751 145.726C75.9744 146.774 77.47 147.453 79.0641 147.685C80.6582 147.917 82.2853 147.692 83.7565 147.036C85.2277 146.38 86.4826 145.32 87.3755 143.979C88.2684 142.638 88.7625 141.072 88.8006 139.461C90.4553 140.156 92.2871 140.311 94.0348 139.903C95.7825 139.495 97.3568 138.546 98.5333 137.191C99.8323 135.7 100.565 133.801 100.604 131.824C102.259 132.519 104.09 132.673 105.838 132.265C107.586 131.857 109.16 130.908 110.336 129.553C111.578 128.128 112.303 126.328 112.397 124.44C114.103 125.333 116.061 125.623 117.953 125.264C119.846 124.904 121.561 123.916 122.821 122.459L122.932 122.331C123.647 121.507 124.192 120.55 124.535 119.514C124.879 118.479 125.015 117.386 124.935 116.298C124.855 115.211 124.561 114.149 124.07 113.175C123.579 112.201 122.9 111.334 122.073 110.623L119.29 108.227C121.239 107.04 122.958 105.508 124.361 103.707L124.403 103.797C124.782 104.605 125.383 105.288 126.136 105.767C126.889 106.246 127.763 106.5 128.656 106.5C129.305 106.499 129.946 106.365 130.542 106.107L139.94 102.048C140.519 101.799 141.042 101.436 141.478 100.98C141.914 100.524 142.254 99.9857 142.478 99.396C142.701 98.8064 142.804 98.1778 142.78 97.5477C142.755 96.9175 142.605 96.2987 142.337 95.728L119.558 47.3008ZM22.9236 103.755C22.8482 103.897 22.745 104.023 22.6203 104.124C22.4956 104.226 22.3519 104.301 22.1975 104.346C22.0432 104.392 21.8814 104.405 21.7216 104.387C21.5618 104.369 21.4073 104.319 21.2672 104.24L12.3439 99.2269C12.0731 99.077 11.8717 98.8269 11.7832 98.5302C11.6946 98.2336 11.7258 97.914 11.8702 97.6402L36.8727 49.9249C36.9483 49.7795 37.0532 49.6512 37.1809 49.5483C37.3085 49.4454 37.456 49.37 37.6143 49.327C37.7209 49.2971 37.8311 49.2818 37.9418 49.2816C38.1618 49.2817 38.3776 49.3425 38.5652 49.4574L47.4337 54.8372C47.6925 54.9939 47.8819 55.2434 47.9632 55.5349C48.0445 55.8264 48.0117 56.1379 47.8714 56.406L22.9236 103.755ZM29.9804 123.329L29.2072 122.774C28.7897 122.475 28.4353 122.097 28.1644 121.661C27.8936 121.225 27.7116 120.739 27.6289 120.233C27.5461 119.726 27.5644 119.208 27.6825 118.708C27.8006 118.209 28.0163 117.738 28.3172 117.322L38.1685 103.691C38.7803 102.849 39.7004 102.283 40.7279 102.117C41.7555 101.951 42.8071 102.198 43.6532 102.804L44.4267 103.361C44.8441 103.659 45.1985 104.038 45.4693 104.474C45.7402 104.91 45.9222 105.395 46.0049 105.902C46.0876 106.408 46.0694 106.926 45.9513 107.426C45.8332 107.926 45.6175 108.397 45.3167 108.813L42.7638 112.345L42.7605 112.349L35.4656 122.443C34.8537 123.285 33.9334 123.851 32.9057 124.017C31.878 124.183 30.8264 123.936 29.9804 123.329ZM39.9782 130.509L39.2051 129.953C38.7875 129.654 38.4332 129.276 38.1623 128.839C37.8914 128.403 37.7094 127.918 37.6267 127.411C37.544 126.905 37.5622 126.387 37.6804 125.887C37.7985 125.387 38.0142 124.916 38.315 124.5L45.6138 114.402C46.2262 113.561 47.1461 112.996 48.1729 112.831C49.1997 112.666 50.2502 112.913 51.0955 113.519L51.8686 114.076C52.2861 114.374 52.6405 114.753 52.9113 115.189C53.1822 115.625 53.3642 116.11 53.4468 116.617C53.5295 117.124 53.5113 117.642 53.3931 118.141C53.275 118.641 53.0593 119.112 52.7584 119.528L45.4635 129.622C44.8517 130.464 43.9315 131.03 42.9038 131.197C41.8761 131.363 40.8244 131.116 39.9782 130.509ZM49.9761 137.689L49.2029 137.133C48.7854 136.834 48.4311 136.456 48.1603 136.02C47.8894 135.584 47.7074 135.098 47.6247 134.592C47.542 134.085 47.5602 133.567 47.6783 133.067C47.7964 132.568 48.0121 132.096 48.3129 131.681L53.5169 124.48C54.1288 123.637 55.049 123.072 56.0766 122.905C57.1043 122.739 58.1559 122.986 59.0021 123.593L59.7756 124.149C60.193 124.448 60.5474 124.826 60.8182 125.262C61.089 125.698 61.271 126.184 61.3536 126.69C61.4363 127.197 61.4181 127.715 61.2999 128.214C61.1818 128.714 60.9661 129.185 60.6653 129.601L55.461 136.802C54.8492 137.644 53.929 138.21 52.9014 138.377C51.8738 138.543 50.8222 138.296 49.9761 137.689ZM65.4589 143.982C64.8471 144.825 63.9268 145.391 62.8988 145.557C61.8709 145.723 60.819 145.476 59.9727 144.869L59.1996 144.313C58.7821 144.014 58.4277 143.636 58.1568 143.2C57.886 142.764 57.7039 142.278 57.6212 141.772C57.5385 141.265 57.5568 140.747 57.6749 140.247C57.793 139.748 58.0087 139.276 58.3096 138.86L61.4226 134.554C62.0344 133.711 62.9545 133.146 63.9821 132.979C65.0097 132.813 66.0612 133.06 66.9073 133.667L67.6808 134.223C68.0983 134.522 68.4527 134.9 68.7235 135.336C68.9944 135.772 69.1764 136.258 69.2591 136.764C69.3418 137.271 69.3236 137.789 69.2055 138.289C69.0873 138.788 68.8717 139.26 68.5708 139.676L65.4589 143.982ZM121.427 116.554C121.475 117.18 121.397 117.81 121.199 118.405C121.001 119.001 120.687 119.552 120.274 120.025L120.163 120.153C119.293 121.16 118.06 121.782 116.734 121.882C115.407 121.983 114.095 121.555 113.083 120.692C111.957 119.722 110.728 118.663 109.489 117.596L109.457 117.567L100.285 109.669L100.153 109.554L100 109.423L99.8909 109.329C99.5371 109.029 99.079 108.881 98.6166 108.917C98.1542 108.954 97.7248 109.171 97.4221 109.523C97.1194 109.874 96.968 110.331 97.0007 110.794C97.0335 111.257 97.2478 111.688 97.597 111.993L97.7455 112.121C98.5825 112.842 102.94 116.594 107.179 120.245C107.672 120.672 108.076 121.191 108.368 121.774C108.66 122.357 108.834 122.992 108.881 123.642C108.927 124.293 108.845 124.946 108.639 125.564C108.433 126.183 108.107 126.755 107.679 127.247C106.81 128.247 105.579 128.862 104.258 128.958C102.936 129.054 101.63 128.623 100.625 127.76L97.6559 125.204L91.0567 119.523C90.8821 119.37 90.679 119.254 90.4591 119.18C90.2392 119.106 90.0068 119.077 89.7754 119.093C89.5441 119.109 89.3182 119.171 89.1109 119.275C88.9036 119.38 88.7189 119.524 88.5675 119.699C88.4162 119.875 88.3011 120.079 88.2289 120.3C88.1568 120.52 88.129 120.753 88.1471 120.984C88.1653 121.215 88.229 121.441 88.3347 121.647C88.4404 121.854 88.5858 122.037 88.7628 122.187L95.361 127.868C95.857 128.294 96.2639 128.814 96.5583 129.398C96.8528 129.982 97.029 130.618 97.0768 131.27C97.1246 131.922 97.0432 132.577 96.837 133.197C96.6309 133.818 96.3043 134.391 95.8758 134.885C95.0058 135.885 93.7757 136.5 92.4539 136.596C91.1322 136.692 89.826 136.262 88.8205 135.399L82.2228 129.717C82.0479 129.567 81.845 129.452 81.6258 129.38C81.4065 129.308 81.1751 129.279 80.9449 129.296C80.7147 129.314 80.4902 129.376 80.2841 129.48C80.078 129.584 79.8944 129.728 79.7437 129.902C79.5931 130.077 79.4784 130.28 79.4062 130.5C79.334 130.719 79.3057 130.95 79.3229 131.18C79.3401 131.411 79.4024 131.635 79.5064 131.841C79.6104 132.047 79.754 132.231 79.9289 132.382L82.0676 134.223L83.5582 135.506C84.0542 135.932 84.461 136.452 84.7555 137.036C85.0499 137.619 85.2261 138.256 85.274 138.908C85.3218 139.56 85.2403 140.215 85.0342 140.835C84.8281 141.456 84.5014 142.029 84.0729 142.523C83.203 143.523 81.973 144.138 80.6513 144.234C79.3295 144.33 78.0234 143.9 77.018 143.036C77.0013 143.022 76.9837 143.007 76.9664 142.993L72.5347 139.465C72.9615 137.991 72.9212 136.421 72.4195 134.971C71.9178 133.521 70.9791 132.262 69.7327 131.367L68.9593 130.81C67.6951 129.902 66.1768 129.414 64.6198 129.416C65.0536 127.94 65.0179 126.365 64.5174 124.91C64.017 123.454 63.0766 122.19 61.8264 121.293L61.0529 120.736C59.7887 119.827 58.2702 119.34 56.7132 119.342C57.147 117.866 57.1113 116.291 56.6107 114.835C56.1102 113.38 55.1698 112.116 53.9194 111.218L53.1463 110.662C51.949 109.8 50.5219 109.316 49.0476 109.27C49.6591 107.731 49.7382 106.032 49.2725 104.443C48.8067 102.854 47.8229 101.466 46.4774 100.501L45.704 99.9444C44.1015 98.7967 42.11 98.3297 40.1644 98.645C38.2187 98.9604 36.4768 100.033 35.3188 101.628L33.8985 103.599L29.088 99.5993L47.5901 64.4834C51.4485 63.4162 54.377 63.6716 56.1882 64.0929C55.6672 64.8651 55.2213 65.6853 54.8566 66.5424L52.0107 73.4538C51.2871 75.2117 50.6203 77.0155 50.0276 78.8181L47.1879 87.4583C47.0518 87.8723 47.0744 88.322 47.2511 88.7202C47.4279 89.1185 47.7462 89.4369 48.1444 89.6137L48.7558 89.8853C50.9162 90.8709 53.2912 91.2929 55.6589 91.1119C58.0265 90.9308 60.3097 90.1526 62.2951 88.8499C64.0075 87.7239 65.4461 86.2287 66.5052 84.474C67.5643 82.7194 68.217 80.7499 68.4155 78.71C68.4302 78.5568 68.4448 78.4024 68.4551 78.2459C68.5796 77.6348 69.5727 73.2921 72.6152 73.0786L76.7168 74.232C78.3093 74.6807 79.7626 75.5244 80.942 76.6847L106.344 101.719C106.374 101.746 106.403 101.773 106.432 101.799L119.78 113.284C120.257 113.692 120.649 114.192 120.932 114.753C121.215 115.315 121.383 115.927 121.427 116.554ZM116.444 105.778L108.768 99.1733L83.4102 74.1807C81.8075 72.6038 79.8323 71.4574 77.6681 70.8479L73.3028 69.6206C73.148 69.577 72.9879 69.5548 72.827 69.5547H72.8197C70.0995 69.5662 67.863 71.0465 66.3524 73.8362C65.7038 75.0571 65.2398 76.3674 64.9755 77.7245C64.9658 77.783 64.9588 77.8416 64.9547 77.9002C64.9438 78.0605 64.9307 78.2184 64.916 78.3737C64.7668 79.8929 64.2793 81.3595 63.4893 82.6657C62.6993 83.9719 61.6269 85.0847 60.3507 85.9223C58.9841 86.8027 57.4342 87.3585 55.8196 87.5471C54.205 87.7357 52.5687 87.5521 51.036 87.0104L53.3675 79.917C53.9329 78.1955 54.5686 76.472 55.2612 74.7939L58.1001 67.8989C58.7217 66.4313 59.6549 65.1163 60.8349 64.045C62.015 62.9737 63.4138 62.1717 64.9345 61.6944L74.2468 58.7579C76.2966 58.1103 78.4909 58.0749 80.5605 58.656L90.2103 61.3595C94.7927 62.6436 98.0171 62.7567 102.531 61.7916C102.641 61.7682 102.748 61.7344 102.851 61.6906L104.207 61.1146L122.62 100.033C121.138 102.487 118.998 104.477 116.444 105.778ZM139.188 98.1438C139.132 98.2938 139.046 98.4309 138.935 98.5467C138.824 98.6625 138.691 98.7547 138.544 98.8176L129.145 102.876C128.859 103.002 128.536 103.011 128.243 102.902C127.95 102.792 127.712 102.573 127.579 102.29L126.357 99.7088C126.301 99.416 126.171 99.1422 125.981 98.9131L104.541 53.6011C104.472 53.4536 104.434 53.2934 104.429 53.1304C104.424 52.9674 104.452 52.8052 104.513 52.6537C104.573 52.5023 104.664 52.3649 104.78 52.2501C104.896 52.1354 105.034 52.0456 105.186 51.9866L114.846 48.1929C115.13 48.0813 115.446 48.0816 115.73 48.1937C116.014 48.3058 116.245 48.5214 116.377 48.797L139.153 97.2212C139.221 97.3646 139.259 97.5203 139.265 97.6788C139.271 97.8374 139.245 97.9956 139.188 98.1438Z" fill="#0635C9"/>
<path d="M75.4998 2.05383C70.9208 2.05928 66.4462 3.42208 62.6416 5.96999C58.837 8.5179 55.8731 12.1365 54.1245 16.3685C52.376 20.6005 51.9213 25.2559 52.818 29.7463C53.7146 34.2366 55.9224 38.3603 59.1621 41.5962C62.4019 44.8321 66.5282 47.035 71.0196 47.9263C75.511 48.8176 80.1659 48.3574 84.3958 46.6038C88.6257 44.8503 92.2408 41.8821 94.7842 38.0744C97.3276 34.2668 98.6851 29.7905 98.6851 25.2115C98.6744 19.0682 96.2274 13.18 91.8809 8.83858C87.5343 4.49718 81.6431 2.05716 75.4998 2.05383ZM75.4998 44.8536C71.6162 44.8482 67.8213 43.6916 64.5948 41.53C61.3683 39.3684 58.855 36.2988 57.3725 32.7092C55.8901 29.1196 55.505 25.1711 56.266 21.3627C57.0271 17.5543 58.8999 14.057 61.648 11.3128C64.3961 8.56854 67.8961 6.70055 71.7055 5.94488C75.5149 5.18922 79.4629 5.5798 83.0504 7.06727C86.6379 8.55474 89.704 11.0723 91.8611 14.3019C94.0181 17.5314 95.1694 21.3279 95.1694 25.2115C95.1599 30.4228 93.0836 35.4175 89.3961 39.0998C85.7086 42.7821 80.7111 44.8514 75.4998 44.8536Z" fill="#1AE5BE"/>
<path d="M76.0476 16.4913C76.8601 16.4904 77.6506 16.7547 78.2991 17.2441C78.9476 17.7335 79.4186 18.4212 79.6406 19.2028C79.7513 19.6538 80.0361 20.0428 80.4326 20.2846C80.8292 20.5264 81.3053 20.6014 81.757 20.4933C82.2087 20.3851 82.5993 20.1026 82.8433 19.7074C83.0874 19.3122 83.1651 18.8365 83.0596 18.3842C82.7161 17.0936 82.0235 15.9226 81.0578 15C80.0921 14.0774 78.8907 13.4389 77.5857 13.1547V12.0031C77.5857 11.5369 77.4005 11.0897 77.0709 10.7601C76.7412 10.4304 76.2941 10.2452 75.8279 10.2452C75.3617 10.2452 74.9146 10.4304 74.585 10.7601C74.2553 11.0897 74.0701 11.5369 74.0701 12.0031V13.1676C73.0051 13.4073 72.0261 13.9341 71.2394 14.691C69.3331 16.5467 69.2197 19.1503 69.2306 19.9041C69.2727 22.8499 71.4571 25.3343 74.5444 25.9454L74.8081 25.9982C75.0193 26.0404 75.2739 26.0913 75.4301 26.1218C75.5054 26.1373 75.7204 26.203 75.8144 26.2317C75.8304 26.2367 75.846 26.2426 75.8613 26.2492C75.8845 26.2595 75.9082 26.2692 75.9322 26.2785L76.3236 26.4309C76.3421 26.4382 76.36 26.4464 76.3755 26.4543C76.5469 26.5422 76.6002 26.5747 76.7136 26.6418L76.9432 26.7792C76.9623 26.7915 76.9805 26.8032 76.9966 26.8129C77.2204 26.9509 79.1842 28.2104 79.2551 29.9363C79.2975 30.9687 79.0465 31.7424 78.4869 32.3008C77.589 33.1973 76.1112 33.3848 75.3814 33.352C74.3452 33.3074 72.2317 32.3407 72.0545 30.7267C72.0307 30.4961 71.9616 30.2724 71.8511 30.0686C71.7405 29.8648 71.5908 29.6849 71.4104 29.5392C71.2301 29.3935 71.0227 29.2849 70.8002 29.2198C70.5777 29.1546 70.3445 29.134 70.114 29.1593C69.8835 29.1847 69.6604 29.2553 69.4573 29.3672C69.2543 29.4792 69.0754 29.6301 68.9309 29.8115C68.7865 29.9929 68.6793 30.201 68.6157 30.4239C68.552 30.6469 68.5331 30.8802 68.56 31.1105C68.748 32.8226 69.7213 34.3674 71.3004 35.4602C72.1401 36.0376 73.0789 36.4557 74.0698 36.6936V37.6161C74.0698 38.0823 74.255 38.5294 74.5847 38.8591C74.9143 39.1888 75.3614 39.374 75.8276 39.374C76.2938 39.374 76.7409 39.1888 77.0706 38.8591C77.4002 38.5294 77.5854 38.0823 77.5854 37.6161V36.62C78.8586 36.328 80.0284 35.6952 80.9695 34.7893C82.2293 33.5327 82.8498 31.8045 82.7669 29.7918C82.6283 26.4174 79.7358 24.3737 78.837 23.8185C78.8062 23.7989 78.7198 23.7441 78.7122 23.7403L78.5071 23.619C78.3346 23.5164 78.2531 23.4681 77.9894 23.3316C77.8622 23.2662 77.7317 23.2075 77.5983 23.1558L77.2383 23.0157C77.1082 22.9597 76.9752 22.9108 76.8398 22.8693C76.5975 22.7907 76.3512 22.7246 76.1021 22.6712C75.9495 22.6419 75.7022 22.5921 75.4974 22.5511L75.2288 22.4972C73.5354 22.1617 72.762 20.9281 72.7465 19.8543C72.7353 19.0703 72.9765 17.9075 73.6925 17.2106C74.2321 16.6832 75.002 16.4468 76.0476 16.4913Z" fill="#1AE5BE"/>
</svg>
