<svg width="151" height="151" viewBox="0 0 151 151" fill="none" xmlns="http://www.w3.org/2000/svg">
<path d="M24.7447 99.1837C24.5898 99.2299 24.4272 99.2445 24.2665 99.2264C24.1059 99.2083 23.9506 99.158 23.8098 99.0785L14.8866 94.0655C14.6157 93.9156 14.4144 93.6655 14.3258 93.3689C14.2372 93.0722 14.2685 92.7527 14.4129 92.4788L36.9099 49.5454C36.8599 49.6071 36.8162 49.6735 36.7793 49.7438L11.7761 97.4593C11.6318 97.7331 11.6005 98.0527 11.6891 98.3493C11.7777 98.646 11.979 98.8961 12.2499 99.046L21.1731 104.06C21.3132 104.139 21.4677 104.189 21.6275 104.208C21.7873 104.226 21.9491 104.212 22.1035 104.167C22.2578 104.122 22.4016 104.046 22.5263 103.945C22.651 103.843 22.7541 103.718 22.8296 103.576L25.4045 98.6886C25.2508 98.9272 25.0167 99.1028 24.7447 99.1837Z" fill="#D4E1F4"/>
<path d="M31.0506 122.977C30.9671 122.471 30.985 121.954 31.1033 121.455C31.2216 120.956 31.4379 120.485 31.7396 120.07L41.591 106.44C42.0484 105.811 42.6816 105.331 43.4109 105.061C44.1403 104.791 44.9333 104.742 45.6902 104.921C45.4162 104.221 44.9448 103.616 44.3335 103.179L43.56 102.622C42.7139 102.016 41.6623 101.769 40.6347 101.935C39.6072 102.101 38.6871 102.667 38.0754 103.51L28.2231 117.141C27.9223 117.557 27.7066 118.028 27.5884 118.528C27.4703 119.027 27.4521 119.545 27.5348 120.052C27.6175 120.559 27.7995 121.044 28.0704 121.48C28.3412 121.916 28.6956 122.294 29.1131 122.593L29.8863 123.148C30.3022 123.447 30.7727 123.661 31.2712 123.779C31.1695 123.52 31.0955 123.251 31.0506 122.977Z" fill="#D4E1F4"/>
<path d="M41.0477 130.157C40.9643 129.651 40.9822 129.134 41.1005 128.635C41.2188 128.136 41.4351 127.665 41.7368 127.25L49.0355 117.152C49.4932 116.524 50.1261 116.045 50.8548 115.776C51.5835 115.507 52.3756 115.458 53.1315 115.638C52.8575 114.938 52.3862 114.332 51.7748 113.895L51.0016 113.338C50.1563 112.733 49.1058 112.485 48.079 112.651C47.0522 112.816 46.1323 113.38 45.5199 114.221L38.2212 124.32C37.9203 124.736 37.7046 125.207 37.5865 125.706C37.4684 126.206 37.4501 126.724 37.5328 127.231C37.6155 127.737 37.7976 128.223 38.0684 128.659C38.3393 129.095 38.6937 129.473 39.1112 129.772L39.8843 130.329C40.3002 130.627 40.7708 130.842 41.2692 130.959C41.1672 130.7 41.0929 130.432 41.0477 130.157Z" fill="#D4E1F4"/>
<path d="M51.0454 137.337C50.962 136.831 50.9799 136.314 51.0982 135.815C51.2165 135.316 51.4328 134.845 51.7345 134.43L56.9385 127.23C57.3961 126.601 58.0294 126.121 58.7588 125.851C59.4883 125.58 60.2813 125.532 61.0383 125.711C60.7642 125.011 60.2929 124.406 59.6816 123.969L58.9081 123.412C58.0619 122.806 57.0103 122.559 55.9826 122.725C54.955 122.891 54.0348 123.457 53.4229 124.299L48.2186 131.501C47.9178 131.917 47.7021 132.388 47.584 132.888C47.4659 133.387 47.4477 133.905 47.5304 134.412C47.6131 134.918 47.7951 135.404 48.0659 135.84C48.3368 136.276 48.6911 136.654 49.1086 136.953L49.8818 137.51C50.2977 137.808 50.7682 138.022 51.2666 138.14C51.1647 137.881 51.0905 137.612 51.0454 137.337Z" fill="#D4E1F4"/>
<path d="M61.0433 144.517C60.9599 144.011 60.9778 143.494 61.0961 142.995C61.2144 142.495 61.4307 142.025 61.7324 141.61L64.8455 137.304C65.3026 136.674 65.9359 136.194 66.6655 135.924C67.3952 135.654 68.1884 135.606 68.9453 135.786C68.6712 135.086 68.1997 134.48 67.588 134.042L66.8145 133.486C65.9684 132.879 64.9169 132.632 63.8893 132.798C62.8617 132.965 61.9416 133.531 61.3298 134.373L58.2168 138.679C57.9159 139.095 57.7002 139.567 57.5821 140.066C57.464 140.566 57.4457 141.084 57.5284 141.591C57.6111 142.097 57.7932 142.583 58.064 143.019C58.3349 143.455 58.6893 143.833 59.1068 144.132L59.8799 144.688C60.296 144.987 60.7666 145.201 61.2651 145.319C61.1629 145.06 61.0886 144.791 61.0433 144.517Z" fill="#D4E1F4"/>
<path d="M54.7377 82.6644C55.3031 80.9429 55.9389 79.2193 56.6314 77.5412L59.4703 70.6462C60.092 69.1786 61.0251 67.8637 62.2052 66.7924C63.3852 65.7211 64.784 64.919 66.3047 64.4417L75.617 61.5053C77.6668 60.8577 79.8611 60.8222 81.9308 61.4033L91.5806 64.1068C96.1629 65.3909 99.3873 65.504 103.901 64.539C104.011 64.5156 104.118 64.4817 104.221 64.4379L105.512 63.8898L104.113 60.9322L102.756 61.5082C102.653 61.552 102.546 61.5859 102.436 61.6093C97.9225 62.5743 94.6981 62.4612 90.1157 61.1772L80.4659 58.4745C78.3962 57.8934 76.202 57.9289 74.1522 58.5765L64.8398 61.5129C63.3192 61.9902 61.9204 62.7922 60.7403 63.8635C59.5603 64.9349 58.6271 66.2498 58.0055 67.7174L55.1666 74.6124C54.4755 76.2905 53.8383 78.0141 53.2728 79.7355L50.9414 86.8289C51.6729 87.0811 52.4291 87.2552 53.1973 87.348L54.7377 82.6644Z" fill="#D4E1F4"/>
<path d="M127.351 101.662L105.912 56.3499C105.843 56.2024 105.804 56.0422 105.799 55.8792C105.794 55.7162 105.823 55.554 105.884 55.4025C105.944 55.2511 106.035 55.1137 106.151 54.9989C106.267 54.8842 106.405 54.7944 106.557 54.7354L116.217 50.9417C116.433 50.8567 116.669 50.8361 116.896 50.8822C117.124 50.9284 117.333 51.0394 117.499 51.2019L116.282 48.6161C116.151 48.3405 115.92 48.1249 115.636 48.0128C115.352 47.9007 115.036 47.9004 114.752 48.012L105.093 51.8054C104.941 51.8645 104.803 51.9542 104.687 52.0689C104.572 52.1837 104.481 52.3211 104.42 52.4725C104.36 52.624 104.331 52.7862 104.336 52.9492C104.341 53.1122 104.379 53.2724 104.449 53.4199L125.887 98.7316C126.078 98.9608 126.208 99.2345 126.264 99.5274L127.485 102.109C127.545 102.234 127.627 102.347 127.726 102.443C127.668 102.156 127.539 101.887 127.351 101.662Z" fill="#D4E1F4"/>
<path d="M119.464 47.1199C118.951 46.0376 118.047 45.1901 116.934 44.7483C115.821 44.3066 114.582 44.3035 113.467 44.7398L103.808 48.5332C103.208 48.7683 102.662 49.1243 102.205 49.5791C101.748 50.034 101.389 50.5779 101.151 51.1771C100.913 51.7763 100.801 52.4181 100.821 53.0626C100.842 53.707 100.994 54.3404 101.27 54.9234L102.608 57.7515L101.539 58.2059C97.6902 59.0098 95.0247 58.9017 91.0644 57.7922L81.4146 55.0887C78.6873 54.3219 75.7954 54.3685 73.0943 55.2228L63.7817 58.1593C61.895 58.7546 60.1498 59.7289 58.653 61.0225C57.0182 60.4225 53.8981 59.6519 49.6199 60.2686L50.887 57.8637C51.4434 56.8028 51.5748 55.5698 51.2543 54.4156C50.9338 53.2613 50.1856 52.2725 49.162 51.6504L40.2941 46.2706C39.7429 45.9362 39.1292 45.7181 38.4906 45.6299C37.8519 45.5417 37.202 45.5852 36.5809 45.7577C35.9597 45.9302 35.3805 46.2281 34.8788 46.633C34.3771 47.0378 33.9637 47.5412 33.6639 48.1119L8.66225 95.828C8.08877 96.9112 7.96296 98.176 8.31184 99.3509C8.66072 100.526 9.45647 101.517 10.5282 102.112L19.4514 107.124C20.1547 107.522 20.9488 107.732 21.7568 107.733C22.2131 107.732 22.6669 107.666 23.1044 107.537C23.7094 107.36 24.2724 107.064 24.7599 106.664C25.2474 106.265 25.6492 105.772 25.9413 105.213L27.3182 102.598L31.7397 106.274L25.3735 115.081C24.8017 115.872 24.3917 116.768 24.1671 117.718C23.9425 118.668 23.9076 119.653 24.0645 120.616C24.2215 121.579 24.5671 122.502 25.0815 123.331C25.596 124.161 26.2692 124.88 27.0624 125.449L27.8356 126.004C29.0991 126.913 30.6168 127.402 32.1736 127.4C32.786 127.399 33.396 127.324 33.99 127.175C34.0061 127.38 34.0289 127.585 34.0623 127.791C34.2167 128.756 34.5613 129.681 35.0761 130.511C35.5908 131.341 36.2655 132.061 37.0609 132.629L37.834 133.185C39.0975 134.095 40.6153 134.583 42.172 134.581C42.7844 134.581 43.3944 134.505 43.9884 134.356C44.0048 134.561 44.0274 134.766 44.0608 134.973C44.2151 135.938 44.5597 136.862 45.0745 137.693C45.5892 138.523 46.2639 139.243 47.0593 139.81L47.8325 140.367C49.0961 141.276 50.6138 141.764 52.1704 141.763C52.7828 141.762 53.3928 141.686 53.9869 141.538C54.0033 141.743 54.0258 141.948 54.0592 142.153C54.2136 143.118 54.5581 144.042 55.0729 144.872C55.5877 145.703 56.2624 146.422 57.0578 146.99L57.8309 147.546C59.4334 148.694 61.4249 149.161 63.3707 148.846C65.3165 148.531 67.0585 147.458 68.2163 145.863L70.7154 142.406L74.657 145.545C75.8804 146.593 77.376 147.273 78.9701 147.504C80.5642 147.736 82.1913 147.511 83.6625 146.855C85.1337 146.199 86.3886 145.139 87.2815 143.798C88.1744 142.458 88.6685 140.891 88.7066 139.281C90.3613 139.975 92.1931 140.13 93.9408 139.722C95.6885 139.314 97.2628 138.365 98.4393 137.01C99.7383 135.52 100.471 133.62 100.51 131.643C102.165 132.338 103.996 132.492 105.744 132.084C107.492 131.676 109.066 130.727 110.242 129.372C111.484 127.947 112.209 126.147 112.303 124.259C114.009 125.152 115.967 125.442 117.859 125.083C119.752 124.723 121.467 123.735 122.727 122.278L122.838 122.15C123.553 121.326 124.098 120.369 124.441 119.333C124.785 118.298 124.921 117.205 124.841 116.117C124.761 115.03 124.467 113.968 123.976 112.994C123.485 112.02 122.806 111.153 121.979 110.442L119.196 108.046C121.145 106.859 122.864 105.327 124.267 103.526L124.309 103.616C124.688 104.424 125.289 105.107 126.042 105.586C126.795 106.065 127.669 106.319 128.562 106.319C129.211 106.318 129.852 106.185 130.448 105.926L139.846 101.868C140.425 101.618 140.948 101.255 141.384 100.799C141.82 100.343 142.16 99.8048 142.384 99.2151C142.607 98.6255 142.71 97.9969 142.686 97.3668C142.661 96.7366 142.511 96.1178 142.243 95.5471L119.464 47.1199ZM22.8296 103.574C22.7542 103.716 22.651 103.842 22.5263 103.943C22.4017 104.045 22.2579 104.12 22.1036 104.166C21.9492 104.211 21.7874 104.225 21.6276 104.206C21.4678 104.188 21.3133 104.138 21.1732 104.059L12.2499 99.046C11.9791 98.8961 11.7777 98.646 11.6892 98.3493C11.6006 98.0527 11.6319 97.7331 11.7762 97.4593L36.7788 49.744C36.8543 49.5985 36.9592 49.4703 37.0869 49.3674C37.2145 49.2645 37.3621 49.1891 37.5203 49.1461C37.6269 49.1162 37.7371 49.1009 37.8478 49.1007C38.0678 49.1008 38.2836 49.1616 38.4712 49.2765L47.3397 54.6562C47.5985 54.813 47.7879 55.0625 47.8692 55.354C47.9505 55.6455 47.9177 55.957 47.7774 56.2251L22.8296 103.574ZM29.8864 123.148L29.1132 122.593C28.6957 122.294 28.3413 121.916 28.0705 121.48C27.7996 121.044 27.6176 120.559 27.5349 120.052C27.4522 119.545 27.4704 119.027 27.5885 118.528C27.7066 118.028 27.9223 117.557 28.2232 117.141L38.0746 103.511C38.6863 102.668 39.6064 102.102 40.6339 101.936C41.6615 101.77 42.7131 102.017 43.5592 102.623L44.3327 103.18C44.7501 103.478 45.1045 103.857 45.3753 104.293C45.6462 104.729 45.8282 105.214 45.9109 105.721C45.9936 106.227 45.9754 106.745 45.8573 107.245C45.7392 107.745 45.5235 108.216 45.2227 108.632L42.6698 112.164L42.6665 112.168L35.3716 122.262C34.7597 123.104 33.8394 123.67 32.8117 123.836C31.784 124.002 30.7324 123.755 29.8864 123.148ZM39.8842 130.328L39.1111 129.772C38.6936 129.473 38.3392 129.095 38.0683 128.659C37.7974 128.222 37.6154 127.737 37.5327 127.23C37.45 126.724 37.4682 126.206 37.5864 125.706C37.7045 125.207 37.9202 124.735 38.221 124.319L45.5198 114.221C46.1322 113.38 47.0521 112.816 48.0789 112.65C49.1057 112.485 50.1562 112.732 51.0015 113.338L51.7746 113.895C52.1922 114.194 52.5465 114.572 52.8173 115.008C53.0882 115.444 53.2702 115.929 53.3529 116.436C53.4355 116.943 53.4173 117.461 53.2991 117.96C53.181 118.46 52.9653 118.931 52.6644 119.347L45.3695 129.441C44.7577 130.283 43.8375 130.849 42.8098 131.016C41.7821 131.182 40.7304 130.935 39.8842 130.328ZM49.8821 137.508L49.1089 136.952C48.6914 136.653 48.3371 136.275 48.0663 135.839C47.7954 135.403 47.6134 134.917 47.5307 134.411C47.448 133.904 47.4662 133.386 47.5843 132.886C47.7024 132.387 47.9181 131.916 48.2189 131.5L53.4229 124.299C54.0348 123.457 54.955 122.891 55.9827 122.724C57.0103 122.558 58.062 122.805 58.9081 123.412L59.6816 123.968C60.099 124.267 60.4534 124.645 60.7242 125.081C60.995 125.517 61.177 126.003 61.2596 126.509C61.3423 127.016 61.3241 127.534 61.206 128.034C61.0878 128.533 60.8722 129.004 60.5713 129.42L55.367 136.621C54.7552 137.463 53.835 138.029 52.8074 138.196C51.7798 138.362 50.7282 138.115 49.8821 137.508ZM65.3649 143.801C64.7531 144.644 63.8328 145.21 62.8048 145.376C61.7769 145.543 60.725 145.295 59.8787 144.688L59.1056 144.132C58.6881 143.833 58.3337 143.455 58.0628 143.019C57.792 142.583 57.6099 142.097 57.5272 141.591C57.4445 141.084 57.4628 140.566 57.5809 140.066C57.699 139.567 57.9147 139.095 58.2156 138.679L61.3287 134.373C61.9404 133.531 62.8605 132.965 63.8881 132.798C64.9157 132.632 65.9672 132.879 66.8133 133.486L67.5868 134.042C68.0043 134.341 68.3587 134.719 68.6295 135.155C68.9004 135.591 69.0824 136.077 69.1651 136.583C69.2478 137.09 69.2296 137.608 69.1115 138.108C68.9933 138.607 68.7777 139.079 68.4768 139.495L65.3649 143.801ZM121.333 116.373C121.381 116.999 121.303 117.629 121.105 118.224C120.907 118.82 120.593 119.371 120.18 119.844L120.069 119.972C119.199 120.979 117.966 121.601 116.64 121.701C115.313 121.802 114.001 121.374 112.989 120.511C111.863 119.541 110.634 118.482 109.395 117.415L109.363 117.386L100.191 109.488L100.059 109.373L99.9065 109.242L99.7969 109.148C99.4431 108.848 98.9851 108.7 98.5226 108.736C98.0602 108.773 97.6308 108.99 97.3281 109.342C97.0255 109.693 96.874 110.15 96.9067 110.613C96.9395 111.076 97.1538 111.507 97.503 111.812L97.6515 111.94C98.4885 112.661 102.846 116.413 107.085 120.064C107.578 120.491 107.982 121.01 108.274 121.593C108.566 122.176 108.74 122.811 108.787 123.461C108.833 124.112 108.751 124.765 108.545 125.383C108.339 126.002 108.013 126.574 107.585 127.066C106.716 128.066 105.485 128.681 104.164 128.777C102.842 128.873 101.536 128.442 100.531 127.579L97.5619 125.023L90.9627 119.342C90.7881 119.19 90.585 119.073 90.3651 118.999C90.1452 118.925 89.9128 118.896 89.6814 118.912C89.4501 118.928 89.2242 118.99 89.0169 119.095C88.8096 119.199 88.6249 119.343 88.4735 119.518C88.3222 119.694 88.2071 119.898 88.1349 120.119C88.0628 120.339 88.035 120.572 88.0531 120.803C88.0713 121.034 88.135 121.26 88.2407 121.466C88.3464 121.673 88.4919 121.856 88.6688 122.006L95.267 127.687C95.763 128.113 96.1699 128.633 96.4643 129.217C96.7588 129.801 96.935 130.437 96.9828 131.089C97.0306 131.741 96.9492 132.396 96.743 133.017C96.5369 133.637 96.2103 134.211 95.7818 134.704C94.9118 135.704 93.6817 136.319 92.36 136.415C91.0382 136.512 89.732 136.081 88.7265 135.218L82.1288 129.536C81.9539 129.386 81.751 129.271 81.5318 129.199C81.3125 129.127 81.0812 129.098 80.851 129.116C80.6207 129.133 80.3962 129.195 80.1901 129.299C79.984 129.403 79.8004 129.547 79.6497 129.722C79.4991 129.897 79.3844 130.099 79.3122 130.319C79.24 130.538 79.2117 130.769 79.2289 130.999C79.2461 131.23 79.3084 131.454 79.4124 131.66C79.5164 131.866 79.66 132.05 79.8349 132.201L81.9736 134.042L83.4642 135.325C83.9602 135.751 84.3671 136.271 84.6615 136.855C84.9559 137.438 85.1321 138.075 85.18 138.727C85.2278 139.379 85.1463 140.034 84.9402 140.654C84.7341 141.275 84.4074 141.848 83.979 142.342C83.109 143.342 81.879 143.957 80.5573 144.053C79.2355 144.149 77.9294 143.719 76.924 142.855C76.9073 142.841 76.8897 142.826 76.8724 142.812L72.4407 139.284C72.8675 137.81 72.8272 136.24 72.3255 134.79C71.8238 133.34 70.8851 132.081 69.6387 131.186L68.8653 130.629C67.6011 129.721 66.0828 129.233 64.5258 129.236C64.9597 127.759 64.9239 126.184 64.4234 124.729C63.923 123.273 62.9826 122.009 61.7324 121.112L60.9589 120.555C59.6947 119.646 58.1763 119.159 56.6192 119.162C57.0531 117.685 57.0173 116.11 56.5167 114.654C56.0162 113.199 55.0758 111.935 53.8254 111.037L53.0523 110.481C51.855 109.619 50.4279 109.135 48.9537 109.089C49.5651 107.55 49.6443 105.851 49.1785 104.262C48.7127 102.673 47.7289 101.285 46.3834 100.32L45.61 99.7635C44.0075 98.6158 42.016 98.1487 40.0704 98.4641C38.1247 98.7795 36.3828 99.8518 35.2248 101.447L33.8045 103.418L28.994 99.4183L47.4961 64.3025C51.3545 63.2352 54.283 63.4907 56.0942 63.912C55.5732 64.6842 55.1273 65.5044 54.7626 66.3615L51.9167 73.2729C51.1931 75.0308 50.5263 76.8346 49.9336 78.6372L47.0939 87.2774C46.9578 87.6914 46.9804 88.1411 47.1571 88.5393C47.3339 88.9376 47.6522 89.256 48.0504 89.4328L48.6619 89.7044C50.8222 90.69 53.1972 91.112 55.5649 90.931C57.9326 90.7499 60.2157 89.9717 62.2011 88.669C63.9135 87.543 65.3521 86.0477 66.4112 84.2931C67.4703 82.5385 68.123 80.569 68.3215 78.5291C68.3362 78.3759 68.3508 78.2215 68.3611 78.065C68.4856 77.4539 69.4787 73.1112 72.5212 72.8976L76.6228 74.0511C78.2153 74.4998 79.6686 75.3434 80.848 76.5038L106.25 101.538C106.28 101.566 106.309 101.592 106.338 101.618L119.686 113.103C120.163 113.511 120.555 114.011 120.838 114.573C121.121 115.134 121.289 115.746 121.333 116.373ZM116.35 105.597L108.674 98.9924L83.3163 73.9998C81.7135 72.4229 79.7383 71.2765 77.5741 70.667L73.2088 69.4397C73.054 69.3961 72.8939 69.3739 72.733 69.3738H72.7257C70.0055 69.3852 67.769 70.8656 66.2584 73.6553C65.6098 74.8762 65.1458 76.1865 64.8815 77.5435C64.8718 77.6021 64.8648 77.6607 64.8607 77.7193C64.8498 77.8796 64.8367 78.0375 64.822 78.1928C64.6728 79.712 64.1853 81.1785 63.3953 82.4848C62.6053 83.791 61.5329 84.9038 60.2567 85.7414C58.8902 86.6218 57.3402 87.1776 55.7256 87.3662C54.111 87.5548 52.4747 87.3712 50.942 86.8295L53.2735 79.7361C53.8389 78.0146 54.4746 76.2911 55.1672 74.613L58.0061 67.718C58.6277 66.2504 59.5609 64.9354 60.741 63.8641C61.921 62.7928 63.3198 61.9908 64.8405 61.5135L74.1528 58.577C76.2026 57.9294 78.3969 57.894 80.4665 58.4751L90.1163 61.1786C94.6987 62.4627 97.9231 62.5758 102.437 61.6107C102.547 61.5873 102.654 61.5535 102.757 61.5097L104.113 60.9337L122.526 99.8519C121.044 102.306 118.904 104.296 116.35 105.597ZM139.094 97.9629C139.038 98.1129 138.952 98.25 138.841 98.3658C138.73 98.4816 138.597 98.5738 138.45 98.6367L129.051 102.695C128.765 102.821 128.442 102.83 128.149 102.721C127.856 102.611 127.618 102.392 127.485 102.11L126.263 99.5279C126.207 99.2351 126.077 98.9613 125.887 98.7322L104.448 53.4202C104.378 53.2727 104.34 53.1125 104.335 52.9495C104.33 52.7865 104.358 52.6243 104.419 52.4728C104.479 52.3214 104.57 52.184 104.686 52.0692C104.802 51.9544 104.94 51.8647 105.092 51.8057L114.752 48.012C115.036 47.9004 115.352 47.9006 115.636 48.0127C115.92 48.1248 116.151 48.3404 116.283 48.6161L139.059 97.0403C139.127 97.1837 139.165 97.3394 139.171 97.4979C139.177 97.6565 139.151 97.8147 139.094 97.9629Z" fill="#0635C9"/>
<path d="M75.4061 1.87292C70.8271 1.87837 66.3525 3.24117 62.5478 5.78908C58.7432 8.33699 55.7793 11.9556 54.0308 16.1876C52.2822 20.4196 51.8276 25.075 52.7242 29.5653C53.6209 34.0557 55.8286 38.1794 59.0684 41.4153C62.3081 44.6512 66.4345 46.8541 70.9259 47.7454C75.4173 48.6367 80.0721 48.1765 84.302 46.4229C88.5319 44.6694 92.1471 41.7012 94.6904 37.8935C97.2338 34.0858 98.5913 29.6096 98.5913 25.0306C98.5807 18.8873 96.1337 12.9991 91.7871 8.65767C87.4405 4.31627 81.5494 1.87625 75.4061 1.87292ZM75.4061 44.6727C71.5224 44.6673 67.7275 43.5107 64.501 41.3491C61.2745 39.1875 58.7612 36.1179 57.2788 32.5283C55.7963 28.9387 55.4113 24.9902 56.1723 21.1818C56.9333 17.3734 58.8062 13.8761 61.5543 11.1319C64.3024 8.38764 67.8023 6.51964 71.6117 5.76398C75.4212 5.00831 79.3691 5.3989 82.9567 6.88636C86.5442 8.37383 89.6102 10.8914 91.7673 14.1209C93.9244 17.3505 95.0757 21.147 95.0757 25.0306C95.0662 30.2419 92.9899 35.2366 89.3024 38.9189C85.6149 42.6012 80.6173 44.6705 75.4061 44.6727Z" fill="#FFA552"/>
<path d="M75.9536 16.3104C76.7661 16.3095 77.5566 16.5738 78.2051 17.0632C78.8536 17.5526 79.3247 18.2403 79.5466 19.0218C79.6573 19.4729 79.9421 19.8618 80.3386 20.1036C80.7352 20.3454 81.2113 20.4205 81.663 20.3123C82.1148 20.2042 82.5053 19.9216 82.7493 19.5265C82.9934 19.1313 83.0711 18.6556 82.9656 18.2033C82.6221 16.9126 81.9295 15.7416 80.9638 14.8191C79.9981 13.8965 78.7967 13.258 77.4917 12.9738V11.8221C77.4917 11.3559 77.3065 10.9088 76.9769 10.5792C76.6472 10.2495 76.2001 10.0643 75.7339 10.0643C75.2677 10.0643 74.8206 10.2495 74.491 10.5792C74.1613 10.9088 73.9761 11.3559 73.9761 11.8221V12.9867C72.9111 13.2263 71.9321 13.7532 71.1454 14.5101C69.2391 16.3658 69.1257 18.9694 69.1366 19.7232C69.1788 22.669 71.3631 25.1534 74.4504 25.7645L74.7141 25.8172C74.9253 25.8594 75.1799 25.9104 75.3361 25.9409C75.4114 25.9564 75.6264 26.022 75.7204 26.0507C75.7364 26.0558 75.752 26.0616 75.7673 26.0683C75.7905 26.0786 75.8142 26.0882 75.8382 26.0976L76.2296 26.2499C76.2481 26.2573 76.266 26.2655 76.2815 26.2734C76.4529 26.3613 76.5062 26.3938 76.6196 26.4609L76.8493 26.5983C76.8683 26.6106 76.8865 26.6223 76.9026 26.632C77.1264 26.77 79.0902 28.0294 79.1611 29.7553C79.2035 30.7877 78.9525 31.5615 78.3929 32.1199C77.495 33.0164 76.0172 33.2039 75.2874 33.171C74.2512 33.1265 72.1377 32.1597 71.9605 30.5457C71.9368 30.3151 71.8676 30.0915 71.7571 29.8877C71.6466 29.6839 71.4968 29.5039 71.3164 29.3582C71.1361 29.2126 70.9287 29.104 70.7062 29.0388C70.4837 28.9736 70.2505 28.9531 70.02 28.9784C69.7895 29.0037 69.5664 29.0744 69.3633 29.1863C69.1603 29.2982 68.9814 29.4492 68.8369 29.6306C68.6925 29.8119 68.5854 30.0201 68.5217 30.243C68.458 30.4659 68.4391 30.6993 68.466 30.9295C68.654 32.6416 69.6273 34.1865 71.2064 35.2792C72.0461 35.8566 72.9849 36.2747 73.9758 36.5126V37.4352C73.9758 37.9014 74.161 38.3485 74.4907 38.6782C74.8203 39.0078 75.2674 39.193 75.7336 39.193C76.1998 39.193 76.6469 39.0078 76.9766 38.6782C77.3062 38.3485 77.4914 37.9014 77.4914 37.4352V36.4391C78.7646 36.1471 79.9344 35.5142 80.8755 34.6083C82.1353 33.3518 82.7558 31.6236 82.6729 29.6109C82.5343 26.2365 79.6418 24.1927 78.743 23.6375C78.7122 23.6179 78.6258 23.5631 78.6182 23.5593L78.4131 23.438C78.2406 23.3355 78.1591 23.2872 77.8954 23.1506C77.7682 23.0853 77.6377 23.0266 77.5043 22.9748L77.1443 22.8348C77.0142 22.7787 76.8812 22.7298 76.7458 22.6883C76.5035 22.6098 76.2573 22.5437 76.0081 22.4903C75.8555 22.461 75.6082 22.4112 75.4035 22.3702L75.1348 22.3163C73.4414 21.9808 72.668 20.7471 72.6525 19.6734C72.6413 18.8894 72.8825 17.7266 73.5985 17.0296C74.1381 16.5023 74.908 16.2659 75.9536 16.3104Z" fill="#FFA552"/>
</svg>
