<?xml version="1.0" encoding="UTF-8"?>
<svg xmlns="http://www.w3.org/2000/svg" xmlns:xlink="http://www.w3.org/1999/xlink" width="174pt" height="162pt" viewBox="0 0 174 162" version="1.1">
<g id="surface1">
<path style="fill-rule:nonzero;fill:rgb(73.72549%,90.980392%,91.372549%);fill-opacity:0.45098;stroke-width:1;stroke-linecap:butt;stroke-linejoin:miter;stroke:rgb(73.72549%,90.980392%,91.372549%);stroke-opacity:0.45098;stroke-miterlimit:4;" d="M 347 4.743128 C 249.203709 14.19823 274.871924 -26.332538 203.273572 38.513575 C 131.68301 103.3519 122.280419 80.391734 76.996857 81.739125 C 31.713295 83.094305 -4.759721 84.441696 1.994253 129.022425 C 8.748226 173.595366 87.100552 203.315852 65.490953 245.19401 C 43.873563 287.072169 99.260821 331.652898 135.733836 320.842617 C 172.206852 310.040123 131.68301 264.104215 203.273572 237.086299 C 274.871924 210.076172 256.783428 176.297936 301.887819 189.810788 C 337.979122 200.613281 339.521552 194.312476 347 189.810788 Z M 347 4.743128 " transform="matrix(0.501441,0,0,0.501548,0,0)"/>
</g>
</svg>
