<svg width="83" height="64" viewBox="0 0 83 64" fill="none" xmlns="http://www.w3.org/2000/svg">
<path d="M41.4671 53.8218C40.8349 53.8218 40.2772 53.4094 40.0917 52.8054L35.3145 37.2386L38.0659 36.3942L41.4671 47.4802L44.8697 36.3942L47.6212 37.2386L42.8425 52.8061C42.6571 53.4102 42.0986 53.8218 41.4671 53.8218Z" fill="#FFA552"/>
<path d="M40.0283 52.4611H42.9055V63.0708H40.0283V52.4611Z" fill="#FFA552"/>
<path d="M65.3837 43.5809H65.3781C63.5483 43.5655 61.9727 42.2863 61.5807 40.4993L59.2051 30.3097L62.0071 29.6565L64.3821 39.8461C64.4797 40.3272 64.8913 40.6799 65.3816 40.703C65.4048 40.703 65.4336 40.703 65.4596 40.7009C65.9197 40.649 66.2934 40.3055 66.384 39.8517L68.7604 29.6565L71.5624 30.3097L69.186 40.505C68.8025 42.1887 67.3716 43.4299 65.65 43.5718C65.5615 43.5774 65.4722 43.5809 65.3837 43.5809Z" fill="#FFA552"/>
<path d="M63.9453 42.0313H66.8225V56.2374H63.9453V42.0313Z" fill="#FFA552"/>
<path d="M16.2916 48.7867C15.6439 48.7867 15.0763 48.3547 14.9042 47.7302L10.127 30.3645L12.9009 29.6017L16.2916 41.9253L19.6822 29.6017L22.4562 30.3645L17.6789 47.7302C17.5068 48.3547 16.9392 48.7867 16.2916 48.7867Z" fill="#FFA552"/>
<path d="M14.853 47.426H17.7302V56.2374H14.853V47.426Z" fill="#FFA552"/>
<path d="M57.0348 17.7325H57.0312L57.0376 14.8553L57.0341 16.2939L57.0334 14.8553C57.3825 14.8539 65.6207 14.724 68.1431 6.36987L70.8967 7.20156C69.2509 12.6553 65.5666 15.2333 62.766 16.4358C60.953 17.2212 59.0093 17.6609 57.0348 17.7325Z" fill="#FFA552"/>
<path d="M74.1324 17.7234C68.5213 17.0848 65.6793 12.009 65.5605 11.7927L68.0837 10.4103L66.8221 11.1015L68.0809 10.4061C68.1034 10.4454 70.3498 14.398 74.4576 14.8651L74.1324 17.7234Z" fill="#FFA552"/>
<path d="M47.4015 46.8866C46.607 46.8866 45.9629 47.5307 45.9629 48.3252C45.9629 49.1197 46.607 49.7638 47.4015 49.7638H50.4585C51.253 49.7638 51.8971 49.1197 51.8971 48.3252C51.8971 47.5307 51.253 46.8866 50.4585 46.8866H47.4015Z" fill="#0635C9"/>
<path d="M25.6426 40.5927C25.6426 39.7983 24.9985 39.1541 24.2041 39.1541H21.8663C21.0719 39.1541 20.4277 39.7983 20.4277 40.5927C20.4277 41.3872 21.0719 42.0313 21.8663 42.0313H24.2041C24.9985 42.0313 25.6426 41.3872 25.6426 40.5927Z" fill="#0635C9"/>
<path d="M67.9217 27.6503H63.5518C57.8297 27.6503 52.6611 31.1436 50.4098 36.336C48.2393 35.0583 45.766 34.386 43.2471 34.3881H38.8779C36.3709 34.386 33.9095 35.0526 31.7467 36.3184C29.4989 31.0839 24.3613 27.6798 18.6645 27.651H14.2946C6.4631 27.6595 0.116554 34.0053 0.107422 41.8368V55.6201C0.107422 56.4145 0.751559 57.0587 1.54602 57.0587H24.6914V62.3579C24.6914 63.1523 25.3348 63.7965 26.13 63.7965H55.9942C56.7887 63.7965 57.4328 63.1523 57.4328 62.3579V57.0587H80.6688C81.4633 57.0587 82.1074 56.4145 82.1074 55.6201V41.8368C82.099 34.0053 75.7524 27.6595 67.9217 27.6503ZM2.98461 54.1815V41.8368C2.99164 35.5942 8.05061 30.5352 14.2932 30.5282H18.6631C23.4544 30.5549 27.7196 33.5698 29.3444 38.0773C26.3794 40.7614 24.6893 44.5749 24.6907 48.5746V54.1815H2.98461ZM54.5556 60.9193H27.5686V48.5739C27.5756 42.3313 32.6346 37.2723 38.8779 37.2653H43.2471C49.4896 37.2723 54.5486 42.3313 54.5556 48.5739V60.9193ZM79.2302 54.1815H57.4328V48.5739C57.4342 44.5862 55.7533 40.7824 52.803 38.0998C54.4538 33.5796 58.7394 30.5605 63.5518 30.5275H67.921C74.1642 30.5345 79.2232 35.5935 79.2302 41.8368V54.1815Z" fill="#0635C9"/>
<path d="M16.4786 25.3378C22.0285 25.3378 26.4602 20.9187 26.5663 15.2768C26.5663 15.2676 26.5663 15.2585 26.5663 15.2494C26.5663 9.6776 22.0496 5.16162 16.4786 5.16162C10.9068 5.16162 6.39014 9.6776 6.39014 15.2494C6.39014 20.8211 10.9068 25.3378 16.4786 25.3378ZM16.4786 8.03881C20.4537 8.04303 23.6779 11.2609 23.6891 15.236C23.6062 19.2891 20.441 22.4613 16.4786 22.4613C12.4957 22.4613 9.26733 19.2322 9.26733 15.2501C9.26733 11.2672 12.4957 8.03881 16.4786 8.03881Z" fill="#0635C9"/>
<path d="M65.646 25.3378C70.2308 25.3392 74.2397 22.2478 75.4036 17.8133C76.5675 13.3781 74.5937 8.71669 70.5989 6.46607V4.80761C70.5989 2.42423 68.6665 0.491821 66.2831 0.491821C63.8997 0.491821 61.9673 2.42423 61.9673 4.80761V5.85846C57.4513 7.6258 54.8319 12.3574 55.7318 17.1228C56.6323 21.8881 60.7964 25.3392 65.646 25.3378ZM64.8445 4.80761C64.8445 4.01315 65.4887 3.36901 66.2831 3.36901C67.0776 3.36901 67.7217 4.01315 67.7217 4.80761V5.37659C67.0389 5.23329 66.3435 5.16094 65.646 5.16094C65.3763 5.16094 65.1093 5.17499 64.8445 5.19606V4.80761ZM65.646 8.03813C69.6267 8.04305 72.8523 11.2687 72.8566 15.2494C72.8776 17.1677 72.1246 19.0145 70.7675 20.3709C69.4111 21.728 67.5644 22.481 65.646 22.4599C61.6632 22.4599 58.4348 19.2315 58.4348 15.2494C58.4348 11.2665 61.6632 8.03813 65.646 8.03813Z" fill="#0635C9"/>
<path d="M41.0619 31.9843C46.6336 31.9843 51.1503 27.4676 51.1503 21.8965C51.1503 16.3248 46.6336 11.8081 41.0619 11.8081C35.4908 11.8081 30.9741 16.3248 30.9741 21.8965C30.9804 27.4655 35.4929 31.978 41.0619 31.9843ZM41.0619 14.6853C45.0447 14.6853 48.2731 17.9137 48.2731 21.8965C48.2731 25.8787 45.0447 29.1071 41.0619 29.1071C37.0797 29.1071 33.8513 25.8787 33.8513 21.8965C33.8555 17.9158 37.0811 14.6895 41.0619 14.6853Z" fill="#0635C9"/>
</svg>
