<svg width="82" height="83" viewBox="0 0 82 83" fill="none" xmlns="http://www.w3.org/2000/svg">
<g clip-path="url(#clip0)">
<path d="M41.3598 63.5348C40.7276 63.5348 40.1699 63.1225 39.9844 62.5184L35.2072 46.9516L37.9586 46.1073L41.3598 57.1932L44.7624 46.1073L47.5139 46.9516L42.7352 62.5191C42.5498 63.1232 41.9913 63.5348 41.3598 63.5348Z" fill="#1AE5BE"/>
<path d="M39.9211 62.1742H42.7983V72.7838H39.9211V62.1742Z" fill="#1AE5BE"/>
<path d="M65.2764 53.294H65.2708C63.441 53.2785 61.8654 51.9994 61.4734 50.2124L59.0978 40.0228L61.8998 39.3695L64.2748 49.5591C64.3724 50.0403 64.784 50.3929 65.2743 50.4161C65.2975 50.4161 65.3263 50.4161 65.3523 50.414C65.8124 50.362 66.1861 50.0185 66.2767 49.5647L68.6531 39.3695L71.4551 40.0228L69.0787 50.218C68.6952 51.9017 67.2643 53.1429 65.5427 53.2848C65.4542 53.2905 65.3649 53.294 65.2764 53.294Z" fill="#1AE5BE"/>
<path d="M63.8379 51.7443H66.7151V65.9504H63.8379V51.7443Z" fill="#1AE5BE"/>
<path d="M16.1843 58.4997C15.5367 58.4997 14.9691 58.0677 14.797 57.4433L10.0197 40.0775L12.7936 39.3147L16.1843 51.6383L19.575 39.3147L22.3489 40.0775L17.5716 57.4433C17.3995 58.0677 16.832 58.4997 16.1843 58.4997Z" fill="#1AE5BE"/>
<path d="M14.7457 57.139H17.6229V65.9504H14.7457V57.139Z" fill="#1AE5BE"/>
<path d="M56.9273 27.4455H56.9238L56.9302 24.5684L56.9266 26.0069L56.9259 24.5684C57.275 24.5669 65.5133 24.437 68.0357 16.0829L70.7893 16.9146C69.1435 22.3683 65.4592 24.9463 62.6585 26.1488C60.8455 26.9342 58.9019 27.3739 56.9273 27.4455Z" fill="#1AE5BE"/>
<path d="M74.0254 27.4363C68.4143 26.7978 65.5722 21.722 65.4535 21.5056L67.9767 20.1232L66.7151 20.8144L67.9738 20.119C67.9963 20.1584 70.2427 24.111 74.3506 24.5781L74.0254 27.4363Z" fill="#1AE5BE"/>
<path d="M74.2677 49.4066H71.2107C70.4162 49.4066 69.7721 50.0508 69.7721 50.8452C69.7721 51.6397 70.4162 52.2838 71.2107 52.2838H74.2677C75.0622 52.2838 75.7063 51.6397 75.7063 50.8452C75.7063 50.0508 75.0622 49.4066 74.2677 49.4066Z" fill="#0635C9"/>
<path d="M47.2939 56.5996C46.4995 56.5996 45.8553 57.2437 45.8553 58.0382C45.8553 58.8327 46.4995 59.4768 47.2939 59.4768H50.351C51.1454 59.4768 51.7896 58.8327 51.7896 58.0382C51.7896 57.2437 51.1454 56.5996 50.351 56.5996H47.2939Z" fill="#0635C9"/>
<path d="M25.5352 50.3058C25.5352 49.5113 24.8911 48.8672 24.0966 48.8672H21.7589C20.9644 48.8672 20.3203 49.5113 20.3203 50.3058C20.3203 51.1002 20.9644 51.7444 21.7589 51.7444H24.0966C24.8911 51.7444 25.5352 51.1002 25.5352 50.3058Z" fill="#0635C9"/>
<path d="M40.9544 41.6973C46.5262 41.6973 51.0429 37.1806 51.0429 31.6096C51.0429 26.0378 46.5262 21.5211 40.9544 21.5211C35.3834 21.5211 30.8667 26.0378 30.8667 31.6096C30.873 37.1785 35.3855 41.691 40.9544 41.6973ZM40.9544 24.3983C44.9373 24.3983 48.1657 27.6267 48.1657 31.6096C48.1657 35.5917 44.9373 38.8201 40.9544 38.8201C36.9723 38.8201 33.7439 35.5917 33.7439 31.6096C33.7481 27.6288 36.9737 24.4025 40.9544 24.3983Z" fill="#0635C9"/>
<path d="M67.8144 37.3633H63.4445C57.7224 37.3633 52.5538 40.8565 50.3025 46.0489C48.132 44.7712 45.6587 44.099 43.1398 44.1011H38.7706C36.2636 44.099 33.8022 44.7656 31.6394 46.0314C29.3916 40.7968 24.254 37.3928 18.5572 37.364H14.1873C6.3558 37.3724 0.00925378 43.7183 0.00012207 51.5498V65.333C0.00012207 66.1275 0.644259 66.7716 1.43872 66.7716H24.5841V72.0708C24.5841 72.8653 25.2275 73.5094 26.0227 73.5094H55.8869C56.6814 73.5094 57.3255 72.8653 57.3255 72.0708V66.7716H80.5615C81.356 66.7716 82.0001 66.1275 82.0001 65.333V51.5498C81.9917 43.7183 75.6451 37.3724 67.8144 37.3633ZM2.87732 63.8944V51.5498C2.88434 45.3072 7.94331 40.2482 14.1859 40.2412H18.5558C23.3471 40.2679 27.6123 43.2827 29.2371 47.7903C26.2721 50.4743 24.582 54.2879 24.5834 58.2876V63.8944H2.87732ZM54.4483 70.6322H27.4613V58.2869C27.4683 52.0443 32.5273 46.9853 38.7706 46.9783H43.1398C49.3823 46.9853 54.4413 52.0443 54.4483 58.2869V70.6322ZM79.1229 63.8944H57.3255V58.2869C57.3269 54.2991 55.646 50.4954 52.6957 47.8128C54.3465 43.2926 58.6321 40.2735 63.4445 40.2405H67.8137C74.0569 40.2475 79.1159 45.3065 79.1229 51.5498V63.8944Z" fill="#0635C9"/>
<path d="M65.5385 35.0508C70.1233 35.0522 74.1321 31.9608 75.2961 27.5263C76.46 23.0911 74.4861 18.4297 70.4914 16.1791V14.5206C70.4914 12.1372 68.559 10.2048 66.1756 10.2048C63.7922 10.2048 61.8598 12.1372 61.8598 14.5206V15.5715C57.3438 17.3388 54.7244 22.0704 55.6242 26.8358C56.5248 31.6011 60.6888 35.0522 65.5385 35.0508ZM64.737 14.5206C64.737 13.7262 65.3811 13.082 66.1756 13.082C66.97 13.082 67.6142 13.7262 67.6142 14.5206V15.0896C66.9314 14.9463 66.236 14.874 65.5385 14.874C65.2687 14.874 65.0018 14.888 64.737 14.9091V14.5206ZM65.5385 17.7511C69.5192 17.7561 72.7448 20.9817 72.749 24.9624C72.7701 26.8808 72.0171 28.7275 70.66 30.0839C69.3035 31.441 67.4568 32.194 65.5385 32.1729C61.5556 32.1729 58.3272 28.9445 58.3272 24.9624C58.3272 20.9796 61.5556 17.7511 65.5385 17.7511Z" fill="#0635C9"/>
<path d="M16.3712 35.0508C21.9212 35.0508 26.3529 30.6318 26.4589 24.9898C26.4589 24.9806 26.4589 24.9715 26.4589 24.9624C26.4589 19.3906 21.9423 14.8746 16.3712 14.8746C10.7995 14.8746 6.28278 19.3906 6.28278 24.9624C6.28278 30.5341 10.7995 35.0508 16.3712 35.0508ZM16.3712 17.7518C20.3463 17.756 23.5705 20.9739 23.5818 24.949C23.4989 29.0021 20.3337 32.1743 16.3712 32.1743C12.3884 32.1743 9.15997 28.9452 9.15997 24.9631C9.15997 20.9802 12.3884 17.7518 16.3712 17.7518Z" fill="#0635C9"/>
</g>
<defs>
<clipPath id="clip0">
<rect width="82" height="82" fill="white" transform="translate(0.00012207 0.854004)"/>
</clipPath>
</defs>
</svg>
