<svg width="84" height="83" viewBox="0 0 84 83" fill="none" xmlns="http://www.w3.org/2000/svg">
<path d="M46.1349 66.3648C45.5999 60.1257 43.9709 55.2893 41.2943 51.99C40.9327 51.5465 40.4745 51.1894 39.9537 50.9454C39.4329 50.7013 38.8631 50.5766 38.2867 50.5806C37.9783 50.5807 37.671 50.6166 37.3711 50.6876C37.3753 50.6927 37.3798 50.6977 37.3842 50.7036C40.0608 54.0028 41.6894 58.8395 42.2246 65.0784C42.4692 67.8583 42.472 70.6539 42.2329 73.4342C42.2306 73.4556 42.2276 73.4769 42.2233 73.4983C42.1815 73.7008 42.1959 73.9107 42.265 74.1058C42.3341 74.3009 42.4553 74.4739 42.6157 74.6064C42.7762 74.739 42.97 74.8262 43.1766 74.8589C43.3832 74.8915 43.5948 74.8683 43.7892 74.7917C43.9638 74.7452 44.1286 74.668 44.2755 74.5638C45.0826 73.7228 45.7657 72.7736 46.3046 71.7441C46.3427 69.9493 46.286 68.1538 46.1349 66.3648Z" fill="#D4E1F4"/>
<path d="M26.4379 73.4336C26.4363 73.4189 26.4315 73.3711 26.4242 73.2943C23.8565 68.7298 23.2778 62.0321 23.6925 56.6716C23.7283 56.2094 23.7649 55.7799 23.7991 55.3789C24.0185 52.8004 24.1511 51.2446 23.2682 49.8359C22.4188 48.48 20.6873 47.4138 17.3629 45.6752C15.5311 44.7168 14.1309 42.7935 13.4227 40.26C12.727 37.6804 12.7866 34.9587 13.5947 32.4113C14.4029 29.9129 15.8893 27.902 17.8935 26.5951C20.2335 25.0688 23.1922 24.527 26.6855 24.9852C26.8087 25.0012 26.9335 25.0214 27.0591 25.0432C25.6015 24.3939 24.1146 23.8729 22.7752 23.6979C19.2815 23.2402 16.3233 23.782 13.9828 25.3083C11.9788 26.6151 10.4922 28.6264 9.68394 31.1245C8.87599 33.6719 8.81634 36.3935 9.51194 38.9731C10.2204 41.5066 11.6194 43.4298 13.4522 44.3883C16.777 46.1258 18.5085 47.1923 19.3581 48.548C20.2408 49.9574 20.1084 51.513 19.8889 54.0912C19.8547 54.4916 19.818 54.9218 19.7824 55.384C19.2806 61.8668 20.2291 70.3094 24.396 74.563C24.5428 74.6666 24.7072 74.7434 24.8814 74.7898C25.0757 74.8664 25.2874 74.8897 25.494 74.8571C25.7006 74.8246 25.8944 74.7374 26.0549 74.6048C26.2155 74.4722 26.3367 74.2992 26.4058 74.1041C26.4749 73.909 26.4892 73.6991 26.4473 73.4965C26.4433 73.4757 26.4402 73.4547 26.4379 73.4336Z" fill="#D4E1F4"/>
<path d="M18.0479 55.7498C17.7916 59.0618 17.3994 70.3224 23.1261 76.1673C23.5671 76.6131 24.1408 76.9078 24.7635 77.0084C25.3861 77.109 26.025 77.0102 26.5867 76.7264C27.1485 76.4426 27.6036 75.9887 27.8855 75.4311C28.1674 74.8735 28.2615 74.2414 28.1538 73.6272C28.0797 72.8643 26.8652 59.3075 32.7014 52.289C32.901 52.0561 33.1497 51.8692 33.4303 51.7415C33.7108 51.6138 34.0162 51.5484 34.3251 51.55C34.6339 51.5515 34.9387 51.6199 35.2179 51.7503C35.4971 51.8808 35.744 52.0701 35.9412 52.305C41.6619 59.3568 40.4671 72.8631 40.3937 73.628C40.318 74.0422 40.3361 74.4678 40.4465 74.8743C40.5569 75.2808 40.757 75.6581 41.0324 75.9793C41.3077 76.3004 41.6516 76.5574 42.0393 76.7317C42.4271 76.9061 42.849 76.9936 43.275 76.988C43.6068 76.9879 43.9363 76.9334 44.2501 76.8267C44.6872 76.7004 45.0884 76.4749 45.4217 76.1683C51.1475 70.3226 50.756 59.0626 50.4997 55.7506C50.4639 55.2882 50.4274 54.8584 50.3932 54.457C50.1841 51.9981 50.1149 50.8742 50.6656 49.9954C51.2936 48.993 52.9116 48.0215 55.872 46.4691C58.2565 45.2186 59.9927 42.6734 60.7608 39.3006C61.4811 36.0938 61.2317 32.7485 60.0436 29.6805C58.8957 26.8171 56.9624 24.642 54.4526 23.3909C51.5533 21.9456 48.0313 21.7653 43.9849 22.8548C41.1564 23.6165 39.6744 24.5245 38.1055 25.4856C36.8976 26.2617 35.6238 26.9327 34.2984 27.491C34.2619 27.5059 34.2261 27.5231 34.191 27.5391C33.8226 27.3397 33.3773 27.0857 32.8864 26.8056C30.2842 25.3211 26.3518 23.0774 23.0023 22.6386C15.7047 21.6825 10.1257 24.8891 8.07863 31.2153C6.1184 37.2743 8.18092 44.1168 12.6765 46.4683C15.636 48.0162 17.2539 48.9858 17.8828 49.9898C18.434 50.8686 18.3641 51.9917 18.155 54.4498C18.1207 54.8532 18.0839 55.285 18.0479 55.7498ZM13.5866 44.7701C9.94678 42.8663 8.273 36.9271 9.93154 31.801C10.7659 29.2233 13.6839 23.3558 22.7458 24.5437C25.7124 24.9324 29.4438 27.0612 31.9129 28.4697C32.6596 28.8958 33.3045 29.2636 33.7842 29.4994C36.0991 30.6365 39.5749 32.0721 43.0155 31.4086C43.1418 31.3854 43.2622 31.3378 43.3698 31.2683C43.4774 31.1989 43.5699 31.1091 43.6422 31.0041C43.7144 30.8992 43.7649 30.7811 43.7907 30.6568C43.8165 30.5324 43.8171 30.4042 43.7925 30.2796C43.7678 30.1551 43.7185 30.0365 43.6472 29.9309C43.576 29.8253 43.4842 29.7346 43.3773 29.6642C43.2704 29.5938 43.1504 29.5451 43.0243 29.5207C42.8982 29.4964 42.7685 29.497 42.6426 29.5224C40.8938 29.8588 38.9112 29.5684 36.5008 28.6065C37.5276 28.0995 38.3381 27.6031 39.1297 27.118C40.6373 26.1944 41.94 25.3965 44.4955 24.7083C51.0704 22.9376 56.0778 25.0076 58.2341 30.3873C59.2811 33.0955 59.4994 36.048 58.8622 38.8778C58.2299 41.6536 56.8074 43.8013 54.9592 44.7706C51.551 46.5578 49.8834 47.5894 49.0108 48.9827C48.0986 50.4382 48.2326 52.0111 48.4539 54.6168C48.4876 55.0136 48.5239 55.4386 48.5593 55.8959C49.0552 62.3047 48.124 70.6442 44.0342 74.8199C43.9053 74.9032 43.7644 74.9667 43.6162 75.0083C43.3851 75.0944 43.1296 75.0919 42.9002 75.0013C42.6707 74.9107 42.484 74.7385 42.3766 74.5187C42.2968 74.3361 42.2746 74.1341 42.3127 73.9389C42.3178 73.9128 42.3216 73.8864 42.3246 73.8599C42.3886 73.2546 43.8199 58.9444 37.4584 51.1027C37.0802 50.6447 36.6041 50.2749 36.0643 50.0199C35.5245 49.7649 34.9344 49.631 34.336 49.6277C33.7377 49.6245 33.1461 49.752 32.6035 50.0011C32.0609 50.2502 31.5808 50.6148 31.1975 51.0688C24.7099 58.8704 26.1569 73.2521 26.2216 73.8606C26.2243 73.8868 26.2282 73.913 26.2333 73.9389C26.2715 74.1342 26.2492 74.3363 26.1694 74.5188C26.062 74.7386 25.8752 74.9107 25.6457 75.0013C25.4163 75.0919 25.1609 75.0943 24.9297 75.0081C24.7871 74.9653 24.6504 74.9055 24.5225 74.8298C20.4221 70.643 19.4908 62.304 19.9869 55.8957C20.0224 55.4365 20.0587 55.0094 20.0927 54.6108C20.3143 52.0061 20.4482 50.4339 19.5362 48.9781C18.6627 47.5833 16.9948 46.5527 13.5866 44.7701Z" fill="#0635C9"/>
<path d="M74.9806 9.88619H32.4506L30.9863 8.44478C30.2958 7.76108 29.4753 7.21913 28.5719 6.85017C27.6685 6.48121 26.7001 6.29253 25.7226 6.29501H9.93652C9.24884 6.29573 8.58954 6.56594 8.10327 7.04634C7.61701 7.52675 7.3435 8.17811 7.34277 8.85751V16.1955C7.34277 16.4504 7.44525 16.6948 7.62766 16.875C7.81007 17.0552 8.05747 17.1565 8.31543 17.1565C8.57339 17.1565 8.82079 17.0552 9.0032 16.875C9.18561 16.6948 9.28809 16.4504 9.28809 16.1955V8.85751C9.28809 8.6876 9.3564 8.52466 9.47801 8.40452C9.59961 8.28438 9.76455 8.21688 9.93652 8.21688H10.3382V16.302C10.3382 16.5569 10.4407 16.8013 10.6231 16.9815C10.8055 17.1617 11.0529 17.263 11.3109 17.263C11.5689 17.263 11.8162 17.1617 11.9987 16.9815C12.1811 16.8013 12.2835 16.5569 12.2835 16.302V8.21688H13.1589V16.302C13.1589 16.5569 13.2614 16.8013 13.4438 16.9815C13.6262 17.1617 13.8736 17.263 14.1316 17.263C14.3896 17.263 14.637 17.1617 14.8194 16.9815C15.0018 16.8013 15.1042 16.5569 15.1042 16.302V8.21688H15.9796V16.302C15.9796 16.5569 16.0821 16.8013 16.2645 16.9815C16.4469 17.1617 16.6943 17.263 16.9523 17.263C17.2103 17.263 17.4577 17.1617 17.6401 16.9815C17.8225 16.8013 17.9249 16.5569 17.9249 16.302V8.21688H18.8003V16.302C18.8003 16.5569 18.9028 16.8013 19.0852 16.9815C19.2676 17.1617 19.515 17.263 19.773 17.263C20.031 17.263 20.2784 17.1617 20.4608 16.9815C20.6432 16.8013 20.7457 16.5569 20.7457 16.302V8.21688H21.621V16.302C21.621 16.5569 21.7235 16.8013 21.9059 16.9815C22.0883 17.1617 22.3357 17.263 22.5937 17.263C22.8517 17.263 23.0991 17.1617 23.2815 16.9815C23.4639 16.8013 23.5664 16.5569 23.5664 16.302V8.21688H24.4417V16.302C24.4417 16.5569 24.5442 16.8013 24.7266 16.9815C24.909 17.1617 25.1564 17.263 25.4144 17.263C25.6724 17.263 25.9198 17.1617 26.1022 16.9815C26.2846 16.8013 26.3871 16.5569 26.3871 16.302V8.25804C27.6079 8.40115 28.7443 8.94639 29.613 9.80579L32.7181 12.8625C33.4086 13.546 34.2292 14.0877 35.1325 14.4564C36.0359 14.8252 37.0042 15.0137 37.9816 15.0112H74.9806C75.6685 15.0112 76.3283 14.7412 76.8147 14.2607C77.3011 13.7801 77.5744 13.1283 77.5744 12.4487C77.5744 11.7691 77.3011 11.1173 76.8147 10.6367C76.3283 10.1562 75.6685 9.88619 74.9806 9.88619ZM74.9806 13.0893H37.9816C36.681 13.0929 35.4217 12.6386 34.4293 11.8081H74.9806C75.1526 11.8081 75.3176 11.8756 75.4392 11.9957C75.5608 12.1158 75.6291 12.2788 75.6291 12.4487C75.6291 12.6186 75.5608 12.7815 75.4392 12.9017C75.3176 13.0218 75.1526 13.0893 74.9806 13.0893Z" fill="#FFA552"/>
</svg>
