<svg width="84" height="83" viewBox="0 0 84 83" fill="none" xmlns="http://www.w3.org/2000/svg">
<path d="M45.2445 65.7839C44.7095 59.5448 43.0805 54.7084 40.4039 51.409C40.0424 50.9656 39.5841 50.6085 39.0633 50.3644C38.5425 50.1204 37.9727 49.9957 37.3963 49.9997C37.0879 49.9998 36.7806 50.0357 36.4807 50.1066C36.4849 50.1118 36.4895 50.1167 36.4938 50.1227C39.1704 53.4219 40.799 58.2586 41.3343 64.4975C41.5789 67.2774 41.5816 70.0729 41.3425 72.8533C41.3403 72.8746 41.3372 72.8959 41.333 72.9174C41.2911 73.1199 41.3055 73.3298 41.3746 73.5249C41.4437 73.72 41.5649 73.8929 41.7254 74.0255C41.8859 74.1581 42.0797 74.2453 42.2862 74.2779C42.4928 74.3105 42.7045 74.2873 42.8988 74.2108C43.0734 74.1643 43.2382 74.0871 43.3851 73.9829C44.1922 73.1419 44.8753 72.1926 45.4142 71.1632C45.4523 69.3684 45.3956 67.5728 45.2445 65.7839Z" fill="#D4E1F4"/>
<path d="M25.5476 72.8527C25.5459 72.8379 25.5411 72.7902 25.5338 72.7133C22.9661 68.1489 22.3874 61.4511 22.8021 56.0907C22.8379 55.6285 22.8745 55.199 22.9087 54.7979C23.1281 52.2194 23.2607 50.6637 22.3778 49.2549C21.5284 47.899 19.7969 46.8329 16.4725 45.0942C14.6407 44.1359 13.2405 42.2125 12.5323 39.679C11.8366 37.0995 11.8963 34.3778 12.7043 31.8304C13.5126 29.332 14.9989 27.3211 17.0031 26.0142C19.3431 24.4879 22.3018 23.9461 25.7951 24.4043C25.9183 24.4203 26.0431 24.4405 26.1688 24.4623C24.7111 23.813 23.2242 23.292 21.8849 23.117C18.3911 22.6592 15.4329 23.201 13.0924 24.7273C11.0884 26.0342 9.60183 28.0454 8.79356 30.5436C7.9856 33.091 7.92596 35.8126 8.62156 38.3922C9.32998 40.9257 10.729 42.8488 12.5618 43.8074C15.8867 45.5449 17.6181 46.6114 18.4678 47.9671C19.3504 49.3765 19.218 50.9321 18.9985 53.5103C18.9643 53.9107 18.9277 54.3409 18.892 54.8031C18.3903 61.2859 19.3388 69.7285 23.5056 73.9821C23.6524 74.0857 23.8168 74.1625 23.991 74.2089C24.1853 74.2855 24.397 74.3088 24.6036 74.2762C24.8102 74.2436 25.004 74.1564 25.1646 74.0239C25.3251 73.8913 25.4463 73.7183 25.5154 73.5232C25.5845 73.3281 25.5988 73.1181 25.557 72.9156C25.5529 72.8948 25.5498 72.8738 25.5476 72.8527Z" fill="#D4E1F4"/>
<path d="M17.158 55.1689C16.9017 58.4809 16.5095 69.7415 22.2362 75.5864C22.6772 76.0322 23.2509 76.3269 23.8736 76.4275C24.4962 76.5281 25.1351 76.4293 25.6968 76.1455C26.2586 75.8617 26.7137 75.4078 26.9956 74.8502C27.2776 74.2926 27.3716 73.6605 27.2639 73.0463C27.1898 72.2833 25.9753 58.7266 31.8115 51.708C32.0111 51.4751 32.2598 51.2883 32.5404 51.1606C32.8209 51.0329 33.1263 50.9675 33.4352 50.969C33.744 50.9706 34.0488 51.039 34.328 51.1694C34.6072 51.2999 34.8541 51.4892 35.0513 51.7241C40.772 58.7759 39.5772 72.2822 39.5038 73.0471C39.4281 73.4613 39.4462 73.8869 39.5566 74.2934C39.667 74.6999 39.8671 75.0772 40.1425 75.3983C40.4178 75.7195 40.7617 75.9764 41.1494 76.1508C41.5372 76.3252 41.9591 76.4127 42.3851 76.407C42.7169 76.407 43.0465 76.3525 43.3602 76.2457C43.7973 76.1195 44.1985 75.894 44.5318 75.5873C50.2576 69.7416 49.8661 58.4817 49.6098 55.1697C49.574 54.7073 49.5375 54.2774 49.5033 53.8761C49.2942 51.4172 49.225 50.2932 49.7757 49.4144C50.4037 48.412 52.0217 47.4405 54.9822 45.8881C57.3666 44.6376 59.1028 42.0924 59.8709 38.7197C60.5912 35.5128 60.3418 32.1676 59.1537 29.0996C58.0058 26.2362 56.0725 24.0611 53.5627 22.8099C50.6634 21.3647 47.1414 21.1843 43.095 22.2739C40.2665 23.0356 38.7845 23.9435 37.2156 24.9046C36.0077 25.6807 34.7339 26.3517 33.4085 26.9101C33.372 26.925 33.3362 26.9421 33.3012 26.9581C32.9327 26.7587 32.4874 26.5047 31.9965 26.2246C29.3943 24.7401 25.4619 22.4965 22.1124 22.0577C14.8148 21.1016 9.23585 24.3082 7.18873 30.6344C5.22851 36.6934 7.29103 43.5359 11.7866 45.8873C14.7461 47.4352 16.364 48.4048 16.9929 49.4088C17.5441 50.2876 17.4743 51.4108 17.2651 53.8689C17.2308 54.2723 17.194 54.7041 17.158 55.1689ZM12.6967 44.1892C9.05688 42.2854 7.3831 36.3462 9.04165 31.2201C9.87602 28.6423 12.794 22.7749 21.8559 23.9627C24.8225 24.3514 28.5539 26.4802 31.023 27.8888C31.7697 28.3148 32.4146 28.6827 32.8943 28.9185C35.2092 30.0556 38.685 31.4912 42.1256 30.8277C42.2519 30.8045 42.3723 30.7568 42.4799 30.6874C42.5875 30.618 42.6801 30.5282 42.7523 30.4232C42.8245 30.3182 42.875 30.2002 42.9008 30.0758C42.9266 29.9515 42.9272 29.8233 42.9026 29.6987C42.878 29.5741 42.8286 29.4556 42.7573 29.35C42.6861 29.2443 42.5943 29.1537 42.4874 29.0833C42.3805 29.0129 42.2605 28.9641 42.1344 28.9398C42.0083 28.9154 41.8786 28.916 41.7527 28.9415C40.0039 29.2778 38.0213 28.9875 35.6109 28.0256C36.6377 27.5185 37.4482 27.0222 38.2398 26.5371C39.7474 25.6135 41.0501 24.8156 43.6056 24.1274C50.1805 22.3567 55.1879 24.4267 57.3442 29.8064C58.3912 32.5146 58.6096 35.4671 57.9723 38.2969C57.34 41.0727 55.9175 43.2204 54.0693 44.1897C50.6611 45.9769 48.9935 47.0084 48.1209 48.4018C47.2087 49.8573 47.3427 51.4302 47.564 54.0359C47.5977 54.4326 47.6341 54.8577 47.6694 55.3149C48.1653 61.7237 47.2341 70.0632 43.1443 74.239C43.0154 74.3222 42.8745 74.3857 42.7264 74.4273C42.4952 74.5135 42.2397 74.511 42.0103 74.4204C41.7808 74.3298 41.5941 74.1576 41.4867 73.9377C41.4069 73.7552 41.3847 73.5532 41.4228 73.358C41.4279 73.3319 41.4317 73.3054 41.4347 73.279C41.4987 72.6736 42.93 58.3635 36.5685 50.5218C36.1903 50.0637 35.7142 49.694 35.1744 49.439C34.6347 49.184 34.0445 49.0501 33.4462 49.0468C32.8478 49.0436 32.2562 49.1711 31.7136 49.4202C31.171 49.6693 30.6909 50.0339 30.3076 50.4878C23.82 58.2895 25.267 72.6712 25.3317 73.2797C25.3344 73.3059 25.3383 73.332 25.3434 73.358C25.3816 73.5532 25.3593 73.7553 25.2795 73.9379C25.1721 74.1577 24.9853 74.3298 24.7558 74.4204C24.5264 74.5109 24.271 74.5133 24.0398 74.4272C23.8972 74.3844 23.7605 74.3245 23.6326 74.2489C19.5322 70.0621 18.6009 61.7231 19.097 55.3148C19.1325 54.8556 19.1688 54.4285 19.2028 54.0298C19.4244 51.4252 19.5583 49.853 18.6463 48.3971C17.7729 47.0023 16.1049 45.9717 12.6967 44.1892Z" fill="#0635C9"/>
<path d="M74.0905 9.30526H31.5605L30.0961 7.86385C29.4057 7.18015 28.5851 6.6382 27.6818 6.26924C26.7784 5.90027 25.81 5.71159 24.8324 5.71407H9.04639C8.35871 5.7148 7.6994 5.985 7.21313 6.46541C6.72687 6.94581 6.45337 7.59718 6.45264 8.27657V15.6146C6.45264 15.8695 6.55511 16.1139 6.73752 16.2941C6.91993 16.4743 7.16733 16.5755 7.42529 16.5755C7.68326 16.5755 7.93066 16.4743 8.11306 16.2941C8.29547 16.1139 8.39795 15.8695 8.39795 15.6146V8.27657C8.39795 8.10667 8.46627 7.94372 8.58787 7.82358C8.70948 7.70344 8.87441 7.63595 9.04639 7.63595H9.44809V15.7211C9.44809 15.976 9.55057 16.2204 9.73298 16.4006C9.91539 16.5808 10.1628 16.6821 10.4207 16.6821C10.6787 16.6821 10.9261 16.5808 11.1085 16.4006C11.2909 16.2204 11.3934 15.976 11.3934 15.7211V7.63595H12.2688V15.7211C12.2688 15.976 12.3713 16.2204 12.5537 16.4006C12.7361 16.5808 12.9835 16.6821 13.2415 16.6821C13.4994 16.6821 13.7468 16.5808 13.9292 16.4006C14.1116 16.2204 14.2141 15.976 14.2141 15.7211V7.63595H15.0895V15.7211C15.0895 15.976 15.192 16.2204 15.3744 16.4006C15.5568 16.5808 15.8042 16.6821 16.0622 16.6821C16.3201 16.6821 16.5675 16.5808 16.7499 16.4006C16.9323 16.2204 17.0348 15.976 17.0348 15.7211V7.63595H17.9102V15.7211C17.9102 15.976 18.0127 16.2204 18.1951 16.4006C18.3775 16.5808 18.6249 16.6821 18.8829 16.6821C19.1408 16.6821 19.3882 16.5808 19.5706 16.4006C19.753 16.2204 19.8555 15.976 19.8555 15.7211V7.63595H20.7309V15.7211C20.7309 15.976 20.8334 16.2204 21.0158 16.4006C21.1982 16.5808 21.4456 16.6821 21.7036 16.6821C21.9615 16.6821 22.2089 16.5808 22.3913 16.4006C22.5737 16.2204 22.6762 15.976 22.6762 15.7211V7.63595H23.5516V15.7211C23.5516 15.976 23.6541 16.2204 23.8365 16.4006C24.0189 16.5808 24.2663 16.6821 24.5243 16.6821C24.7822 16.6821 25.0296 16.5808 25.212 16.4006C25.3944 16.2204 25.4969 15.976 25.4969 15.7211V7.67711C26.7177 7.82022 27.8542 8.36545 28.7229 9.22486L31.8279 12.2816C32.5185 12.965 33.3391 13.5067 34.2424 13.8755C35.1458 14.2442 36.114 14.4328 37.0915 14.4303H74.0905C74.7784 14.4303 75.4381 14.1603 75.9246 13.6797C76.411 13.1992 76.6842 12.5474 76.6842 11.8678C76.6842 11.1881 76.411 10.5364 75.9246 10.0558C75.4381 9.57523 74.7784 9.30526 74.0905 9.30526ZM74.0905 12.5084H37.0915C35.7909 12.5119 34.5315 12.0577 33.5392 11.2271H74.0905C74.2625 11.2271 74.4274 11.2946 74.549 11.4148C74.6706 11.5349 74.7389 11.6979 74.7389 11.8678C74.7389 12.0377 74.6706 12.2006 74.549 12.3207C74.4274 12.4409 74.2625 12.5084 74.0905 12.5084Z" fill="#1AE5BE"/>
</svg>
