<svg width="83" height="83" viewBox="0 0 83 83" fill="none" xmlns="http://www.w3.org/2000/svg">
<g clip-path="url(#clip0)">
<path d="M54.7254 62.1622V51.5634L68.3093 44.1269L64.0697 41.8657L49.2666 49.9735V60.5724C49.2714 68.9865 54.2569 76.6003 61.9679 79.9683L64.0166 80.8695L65.1476 80.3747C58.6979 76.5734 54.7358 69.649 54.7254 62.1622Z" fill="#D4E1F4"/>
<path d="M23.5123 22.8231C23.5123 13.487 31.0805 5.91814 40.4172 5.91814C40.9644 5.91814 41.4944 5.95333 42.0243 5.98852C36.3564 1.54268 28.4943 1.17559 22.4365 5.07493C16.3795 8.97427 13.4572 16.283 15.1574 23.2834C16.8577 30.2837 22.8064 35.4382 29.9771 36.1248C25.8949 32.9182 23.5109 28.0142 23.5123 22.8231Z" fill="#D4E1F4"/>
<path d="M40.3993 47.4654C42.3942 47.464 44.3835 47.671 46.3349 48.0836C41.8973 45.3456 36.7808 43.9076 31.5669 43.9324C16.0048 43.9676 3.40971 56.386 3.4449 73.291L12.4539 73.2737C14.0617 58.2056 25.9494 47.5005 40.3993 47.4654Z" fill="#D4E1F4"/>
<path d="M31.585 37.9616C41.8968 37.9616 50.2565 29.6026 50.2565 19.2901C50.2565 8.97839 41.8968 0.618713 31.585 0.618713C21.2733 0.618713 12.9136 8.97839 12.9136 19.2901C12.9232 29.5985 21.2767 37.9519 31.585 37.9616ZM31.585 4.15165C39.9461 4.15165 46.7235 10.9298 46.7235 19.2901C46.7235 27.6512 39.9461 34.4286 31.585 34.4286C23.224 34.4286 16.4465 27.6512 16.4465 19.2901C16.4562 10.9332 23.2281 4.16131 31.585 4.15165Z" fill="#0635C9"/>
<path d="M5.26486 71.5072C5.6354 64.5649 8.33824 58.2235 12.9311 53.5065C17.824 48.4721 24.4483 45.6989 31.5673 45.6989H31.6204C37.5167 45.665 43.2488 47.6399 47.8719 51.2984C48.1369 51.511 48.4019 51.74 48.6669 51.9526L50.9633 49.2849C50.6631 49.02 50.3629 48.7729 50.0621 48.5252C44.7986 44.3388 38.4034 42.1487 31.5673 42.1487C23.4767 42.1659 15.9692 45.3104 10.4049 51.0335C4.75217 56.8276 1.66085 64.7236 1.67879 73.291C1.68155 74.266 2.47094 75.0547 3.44526 75.0574L53.083 74.9691V71.4362L5.26486 71.5072Z" fill="#0635C9"/>
<path d="M70.1114 56.2976L62.1271 62.7984L59.2476 59.4241C58.6135 58.683 57.4984 58.5961 56.7573 59.2302C56.0155 59.8644 55.9286 60.9795 56.5627 61.7205L60.5725 66.4017C60.9099 66.7929 61.3991 67.0186 61.9153 67.0199C62.3203 67.0234 62.7136 66.8861 63.0283 66.6315L72.3554 59.0536C73.113 58.4333 73.2255 57.3168 72.6072 56.5571C71.989 55.798 70.8732 55.6814 70.1114 56.2976Z" fill="#0635C9"/>
<path d="M80.1099 48.4016L64.8831 40.2938C64.3587 40.0075 63.7232 40.0144 63.205 40.3111L48.4018 48.4196C47.8353 48.7315 47.4834 49.327 47.4834 49.9735V60.5723C47.4937 69.6848 52.8939 77.9279 61.2439 81.5761L63.2933 82.4766C63.5155 82.5759 63.757 82.6242 63.9999 82.618C64.2421 82.6139 64.4815 82.5663 64.7065 82.4766L67.0201 81.4698C75.5226 77.9031 81.0525 69.5806 81.0463 60.3605V49.9735C81.047 49.3173 80.6875 48.7135 80.1099 48.4016ZM77.5134 60.3605C77.5168 68.1668 72.8281 75.2106 65.6249 78.2198H65.607L63.9999 78.9084L62.6571 78.3254C55.5926 75.2389 51.0239 68.2648 51.0163 60.5551V50.9982L64.0703 43.844L77.5134 51.0162V60.3605Z" fill="#FFA552"/>
</g>
<defs>
<clipPath id="clip0">
<rect width="82" height="82" fill="white" transform="translate(0.40625 0.618713)"/>
</clipPath>
</defs>
</svg>
