<svg width="82" height="83" viewBox="0 0 82 83" fill="none" xmlns="http://www.w3.org/2000/svg">
<g clip-path="url(#clip0)">
<path d="M54.3198 62.3244V51.7256L67.9036 44.2892L63.6641 42.028L48.861 50.1358V60.7346C48.8658 69.1488 53.8512 76.7625 61.5623 80.1306L63.611 81.0317L64.7419 80.537C58.2922 76.7356 54.3301 69.8112 54.3198 62.3244Z" fill="#D4E1F4"/>
<path d="M23.1064 22.9854C23.1064 13.6493 30.6746 6.08042 40.0114 6.08042C40.5586 6.08042 41.0885 6.11561 41.6184 6.1508C35.9506 1.70496 28.0884 1.33786 22.0306 5.2372C15.9736 9.13655 13.0513 16.4453 14.7515 23.4456C16.4518 30.446 22.4005 35.6005 29.5713 36.287C25.4891 33.0805 23.105 28.1765 23.1064 22.9854Z" fill="#D4E1F4"/>
<path d="M39.9934 47.6276C41.9883 47.6262 43.9776 47.8332 45.929 48.2459C41.4915 45.5079 36.3749 44.0698 31.1611 44.0947C15.5989 44.1299 3.00382 56.5483 3.03901 73.4532L12.048 73.436C13.6558 58.3679 25.5435 47.6628 39.9934 47.6276Z" fill="#D4E1F4"/>
<path d="M31.179 38.1239C41.4908 38.1239 49.8505 29.7649 49.8505 19.4524C49.8505 9.14068 41.4908 0.781006 31.179 0.781006C20.8672 0.781006 12.5076 9.14068 12.5076 19.4524C12.5172 29.7608 20.8707 38.1142 31.179 38.1239ZM31.179 4.31394C39.5401 4.31394 46.3175 11.0921 46.3175 19.4524C46.3175 27.8135 39.5401 34.5909 31.179 34.5909C22.818 34.5909 16.0405 27.8135 16.0405 19.4524C16.0502 11.0955 22.8221 4.3236 31.179 4.31394Z" fill="#0635C9"/>
<path d="M4.85855 71.6695C5.22909 64.7271 7.93193 58.3858 12.5247 53.6688C17.4177 48.6343 24.042 45.8611 31.161 45.8611H31.2141C37.1104 45.8273 42.8425 47.8021 47.4656 51.4607C47.7306 51.6732 47.9956 51.9023 48.2605 52.1148L50.557 49.4472C50.2568 49.1822 49.9566 48.9352 49.6558 48.6875C44.3923 44.5011 37.9971 42.3109 31.161 42.3109C23.0704 42.3282 15.5629 45.4726 9.99856 51.1957C4.34586 56.9899 1.25454 64.8858 1.27248 73.4532C1.27524 74.4282 2.06463 75.2169 3.03895 75.2197L52.6767 75.1314V71.5984L4.85855 71.6695Z" fill="#0635C9"/>
<path d="M69.7053 56.4599L61.721 62.9607L58.8415 59.5864C58.2074 58.8453 57.0923 58.7584 56.3512 59.3925C55.6094 60.0267 55.5225 61.1418 56.1566 61.8828L60.1664 66.564C60.5038 66.9552 60.993 67.1809 61.5091 67.1823C61.9142 67.1857 62.3075 67.0484 62.6222 66.7938L71.9493 59.2159C72.7069 58.5956 72.8194 57.4791 72.2011 56.7194C71.5829 55.9603 70.4671 55.8437 69.7053 56.4599Z" fill="#0635C9"/>
<path d="M79.7037 48.5639L64.4769 40.4561C63.9524 40.1697 63.3169 40.1766 62.7987 40.4733L47.9956 48.5818C47.4291 48.8937 47.0771 49.4892 47.0771 50.1358V60.7346C47.0875 69.8471 52.4876 78.0902 60.8377 81.7383L62.887 82.6388C63.1092 82.7382 63.3507 82.7865 63.5936 82.7803C63.8358 82.7761 64.0753 82.7285 64.3002 82.6388L66.6139 81.6321C75.1164 78.0653 80.6463 69.7429 80.6401 60.5228V50.1358C80.6407 49.4796 80.2812 48.8758 79.7037 48.5639ZM77.1071 60.5228C77.1106 68.329 72.4218 75.3728 65.2186 78.382H65.2007L63.5936 79.0707L62.2508 78.4876C55.1863 75.4011 50.6177 68.427 50.6101 60.7174V51.1605L63.664 44.0063L77.1071 51.1784V60.5228Z" fill="#1AE5BE"/>
</g>
<defs>
<clipPath id="clip0">
<rect width="82" height="82" fill="white" transform="translate(0.00012207 0.781006)"/>
</clipPath>
</defs>
</svg>
